%TF.GenerationSoftware,KiCad,Pcbnew,10.0.0*%
%TF.CreationDate,2026-04-14T13:01:33-05:00*%
%TF.ProjectId,Buisness_Card,42756973-6e65-4737-935f-436172642e6b,rev?*%
%TF.SameCoordinates,Original*%
%TF.FileFunction,Copper,L1,Top*%
%TF.FilePolarity,Positive*%
%FSLAX46Y46*%
G04 Gerber Fmt 4.6, Leading zero omitted, Abs format (unit mm)*
G04 Created by KiCad (PCBNEW 10.0.0) date 2026-04-14 13:01:33*
%MOMM*%
%LPD*%
G01*
G04 APERTURE LIST*
G04 Aperture macros list*
%AMRoundRect*
0 Rectangle with rounded corners*
0 $1 Rounding radius*
0 $2 $3 $4 $5 $6 $7 $8 $9 X,Y pos of 4 corners*
0 Add a 4 corners polygon primitive as box body*
4,1,4,$2,$3,$4,$5,$6,$7,$8,$9,$2,$3,0*
0 Add four circle primitives for the rounded corners*
1,1,$1+$1,$2,$3*
1,1,$1+$1,$4,$5*
1,1,$1+$1,$6,$7*
1,1,$1+$1,$8,$9*
0 Add four rect primitives between the rounded corners*
20,1,$1+$1,$2,$3,$4,$5,0*
20,1,$1+$1,$4,$5,$6,$7,0*
20,1,$1+$1,$6,$7,$8,$9,0*
20,1,$1+$1,$8,$9,$2,$3,0*%
G04 Aperture macros list end*
%TA.AperFunction,NonConductor*%
%ADD10C,0.500000*%
%TD*%
%TA.AperFunction,EtchedComponent*%
%ADD11C,0.000000*%
%TD*%
%TA.AperFunction,SMDPad,CuDef*%
%ADD12RoundRect,0.250000X0.325000X0.450000X-0.325000X0.450000X-0.325000X-0.450000X0.325000X-0.450000X0*%
%TD*%
%TA.AperFunction,SMDPad,CuDef*%
%ADD13R,1.562100X0.508000*%
%TD*%
%TA.AperFunction,SMDPad,CuDef*%
%ADD14RoundRect,0.250000X0.475000X-0.337500X0.475000X0.337500X-0.475000X0.337500X-0.475000X-0.337500X0*%
%TD*%
%TA.AperFunction,SMDPad,CuDef*%
%ADD15RoundRect,0.160000X0.197500X0.160000X-0.197500X0.160000X-0.197500X-0.160000X0.197500X-0.160000X0*%
%TD*%
%TA.AperFunction,ComponentPad*%
%ADD16C,0.400000*%
%TD*%
%TA.AperFunction,ViaPad*%
%ADD17C,0.600000*%
%TD*%
%TA.AperFunction,Conductor*%
%ADD18C,0.200000*%
%TD*%
%TA.AperFunction,Conductor*%
%ADD19C,0.300000*%
%TD*%
G04 APERTURE END LIST*
D10*
X146000000Y-95500000D02*
G75*
G02*
X145000000Y-95500000I-500000J0D01*
G01*
X145000000Y-95500000D02*
G75*
G02*
X146000000Y-95500000I500000J0D01*
G01*
X146000000Y-95500000D02*
X170000000Y-95500000D01*
X170000000Y-95500000D02*
X173500000Y-92500000D01*
X173500000Y-88500000D02*
X176500000Y-85500000D01*
X173500000Y-92500000D02*
X173500000Y-88500000D01*
X177000000Y-79500000D02*
G75*
G02*
X176000000Y-79500000I-500000J0D01*
G01*
X176000000Y-79500000D02*
G75*
G02*
X177000000Y-79500000I500000J0D01*
G01*
X176500000Y-85500000D02*
X176500000Y-80000000D01*
D11*
%TA.AperFunction,EtchedComponent*%
%TO.C,G\u002A\u002A\u002A*%
G36*
X175166473Y-95210032D02*
G01*
X175219360Y-95232321D01*
X175249514Y-95270054D01*
X175255900Y-95322952D01*
X175253688Y-95338375D01*
X175231800Y-95384656D01*
X175186186Y-95415182D01*
X175116394Y-95430188D01*
X175074084Y-95431948D01*
X174962299Y-95445459D01*
X174846090Y-95484705D01*
X174730087Y-95547750D01*
X174642959Y-95612010D01*
X174555244Y-95703093D01*
X174486253Y-95812215D01*
X174437095Y-95934241D01*
X174408877Y-96064034D01*
X174402708Y-96196455D01*
X174419696Y-96326370D01*
X174460949Y-96448639D01*
X174461977Y-96450859D01*
X174524260Y-96558522D01*
X174605107Y-96658658D01*
X174697880Y-96744227D01*
X174795938Y-96808188D01*
X174801691Y-96811108D01*
X174930933Y-96859962D01*
X175068321Y-96883562D01*
X175208326Y-96882178D01*
X175345416Y-96856078D01*
X175474060Y-96805532D01*
X175526115Y-96775899D01*
X175618414Y-96704128D01*
X175700608Y-96614238D01*
X175769073Y-96512284D01*
X175820184Y-96404324D01*
X175850319Y-96296415D01*
X175856992Y-96222945D01*
X175863677Y-96139944D01*
X175884187Y-96081548D01*
X175919205Y-96046388D01*
X175950564Y-96035251D01*
X176007161Y-96033740D01*
X176047729Y-96054180D01*
X176072888Y-96097548D01*
X176083258Y-96164826D01*
X176080940Y-96241169D01*
X176053378Y-96398080D01*
X175999434Y-96547237D01*
X175921470Y-96685520D01*
X175821846Y-96809803D01*
X175702921Y-96916965D01*
X175567055Y-97003883D01*
X175471261Y-97047855D01*
X175377160Y-97079148D01*
X175282668Y-97097476D01*
X175177697Y-97104304D01*
X175091776Y-97102995D01*
X174929506Y-97085171D01*
X174783117Y-97044167D01*
X174648959Y-96978393D01*
X174523385Y-96886259D01*
X174460901Y-96828038D01*
X174372482Y-96728965D01*
X174303770Y-96625744D01*
X174248721Y-96508508D01*
X174224779Y-96442587D01*
X174205553Y-96381637D01*
X174193395Y-96330230D01*
X174186855Y-96278015D01*
X174184484Y-96214639D01*
X174184552Y-96155402D01*
X174186455Y-96083694D01*
X174190435Y-96017675D01*
X174195856Y-95965858D01*
X174200496Y-95941403D01*
X174243592Y-95811481D01*
X174295183Y-95701571D01*
X174360386Y-95602770D01*
X174444318Y-95506174D01*
X174459628Y-95490530D01*
X174571557Y-95390611D01*
X174686733Y-95315220D01*
X174812377Y-95260050D01*
X174881748Y-95238599D01*
X174996633Y-95212894D01*
X175091886Y-95203464D01*
X175166473Y-95210032D01*
G37*
%TD.AperFunction*%
%TA.AperFunction,EtchedComponent*%
G36*
X177283735Y-93172029D02*
G01*
X177380301Y-93181780D01*
X177465229Y-93201371D01*
X177547032Y-93233167D01*
X177634219Y-93279533D01*
X177694042Y-93316208D01*
X177821155Y-93412778D01*
X177928626Y-93529142D01*
X178017501Y-93666676D01*
X178088829Y-93826758D01*
X178094477Y-93842470D01*
X178108187Y-93901289D01*
X178116959Y-93980500D01*
X178120817Y-94071810D01*
X178119781Y-94166925D01*
X178113873Y-94257550D01*
X178103115Y-94335393D01*
X178093086Y-94376647D01*
X178076779Y-94424707D01*
X178061900Y-94461767D01*
X178053058Y-94477810D01*
X178041013Y-94504419D01*
X178040373Y-94511260D01*
X178032942Y-94532986D01*
X178013542Y-94570397D01*
X177988737Y-94611601D01*
X177888318Y-94743551D01*
X177770687Y-94854688D01*
X177638900Y-94943747D01*
X177496016Y-95009464D01*
X177345090Y-95050578D01*
X177189178Y-95065823D01*
X177031338Y-95053936D01*
X176956431Y-95038384D01*
X176793885Y-94983445D01*
X176648720Y-94905486D01*
X176522101Y-94805666D01*
X176415193Y-94685144D01*
X176329161Y-94545078D01*
X176265171Y-94386626D01*
X176250766Y-94336886D01*
X176227810Y-94207920D01*
X176223732Y-94085489D01*
X176445008Y-94085489D01*
X176453169Y-94220140D01*
X176482329Y-94338606D01*
X176540220Y-94468608D01*
X176619111Y-94582543D01*
X176715724Y-94678482D01*
X176826779Y-94754499D01*
X176948997Y-94808667D01*
X177079099Y-94839057D01*
X177213807Y-94843743D01*
X177316726Y-94829044D01*
X177461756Y-94784119D01*
X177587171Y-94717895D01*
X177693804Y-94629667D01*
X177782489Y-94518729D01*
X177854060Y-94384378D01*
X177860415Y-94369369D01*
X177879048Y-94320333D01*
X177890812Y-94275813D01*
X177897262Y-94226188D01*
X177899951Y-94161835D01*
X177900366Y-94121919D01*
X177892379Y-93984041D01*
X177865444Y-93864317D01*
X177817283Y-93757030D01*
X177745614Y-93656465D01*
X177691317Y-93597907D01*
X177586594Y-93508082D01*
X177476777Y-93444472D01*
X177355772Y-93404196D01*
X177244366Y-93386605D01*
X177103644Y-93386580D01*
X176970906Y-93412213D01*
X176848290Y-93460831D01*
X176737937Y-93529758D01*
X176641986Y-93616323D01*
X176562578Y-93717852D01*
X176501852Y-93831672D01*
X176461949Y-93955108D01*
X176445008Y-94085489D01*
X176223732Y-94085489D01*
X176223263Y-94071413D01*
X176237187Y-93939756D01*
X176248522Y-93889025D01*
X176305749Y-93727358D01*
X176386799Y-93581599D01*
X176490112Y-93453475D01*
X176614126Y-93344711D01*
X176757278Y-93257035D01*
X176861347Y-93211610D01*
X176909219Y-93194659D01*
X176951073Y-93183093D01*
X176994615Y-93175856D01*
X177047547Y-93171894D01*
X177103644Y-93170498D01*
X177117576Y-93170151D01*
X177167020Y-93169752D01*
X177283735Y-93172029D01*
G37*
%TD.AperFunction*%
%TA.AperFunction,EtchedComponent*%
G36*
X174477249Y-94243730D02*
G01*
X174513325Y-94278991D01*
X174554661Y-94336873D01*
X174585065Y-94386624D01*
X174629988Y-94463133D01*
X174662598Y-94518781D01*
X174685337Y-94557804D01*
X174700644Y-94584439D01*
X174710957Y-94602922D01*
X174718718Y-94617489D01*
X174724621Y-94628963D01*
X174742953Y-94652600D01*
X174770524Y-94657042D01*
X174786392Y-94654706D01*
X174828032Y-94647868D01*
X174881529Y-94640177D01*
X174904454Y-94637172D01*
X174949312Y-94632980D01*
X174977137Y-94637437D01*
X174999609Y-94654397D01*
X175017262Y-94674408D01*
X175046758Y-94715390D01*
X175053495Y-94747411D01*
X175037410Y-94779740D01*
X175016390Y-94803547D01*
X174992093Y-94824398D01*
X174960518Y-94841146D01*
X174915137Y-94856325D01*
X174849422Y-94872470D01*
X174825050Y-94877819D01*
X174757703Y-94892093D01*
X174712497Y-94900291D01*
X174683140Y-94902584D01*
X174663339Y-94899147D01*
X174646802Y-94890152D01*
X174636949Y-94882997D01*
X174605075Y-94853903D01*
X174584478Y-94827211D01*
X174564552Y-94793240D01*
X174545386Y-94762440D01*
X174526134Y-94730620D01*
X174499252Y-94683958D01*
X174473935Y-94638652D01*
X174439814Y-94577170D01*
X174416470Y-94536989D01*
X174400981Y-94513720D01*
X174390426Y-94502977D01*
X174381887Y-94500372D01*
X174363529Y-94507330D01*
X174326664Y-94525795D01*
X174277662Y-94552149D01*
X174222892Y-94582777D01*
X174168725Y-94614062D01*
X174121528Y-94642388D01*
X174087672Y-94664138D01*
X174073711Y-94675344D01*
X174077211Y-94692716D01*
X174093196Y-94729371D01*
X174119009Y-94779727D01*
X174147954Y-94831303D01*
X174200572Y-94922229D01*
X174239142Y-94992281D01*
X174264326Y-95045705D01*
X174276791Y-95086749D01*
X174277201Y-95119657D01*
X174266221Y-95148676D01*
X174244515Y-95178053D01*
X174212747Y-95212033D01*
X174208272Y-95216641D01*
X174102063Y-95335315D01*
X174023003Y-95444900D01*
X174000748Y-95482893D01*
X173967336Y-95541544D01*
X173940824Y-95578403D01*
X173915337Y-95597840D01*
X173884997Y-95604220D01*
X173843929Y-95601912D01*
X173841026Y-95601596D01*
X173783432Y-95593631D01*
X173726385Y-95583295D01*
X173710000Y-95579665D01*
X173680777Y-95572494D01*
X173648411Y-95564042D01*
X173606892Y-95552656D01*
X173550210Y-95536685D01*
X173472351Y-95514476D01*
X173460466Y-95511075D01*
X173437456Y-95509907D01*
X173422240Y-95527378D01*
X173413327Y-95550743D01*
X173397996Y-95600776D01*
X173381191Y-95660750D01*
X173364914Y-95722820D01*
X173351165Y-95779142D01*
X173341946Y-95821873D01*
X173339168Y-95841385D01*
X173344619Y-95855597D01*
X173363198Y-95870159D01*
X173397624Y-95886038D01*
X173450615Y-95904206D01*
X173524891Y-95925631D01*
X173623170Y-95951284D01*
X173702722Y-95971056D01*
X173747944Y-95990801D01*
X173785965Y-96020988D01*
X173786419Y-96021510D01*
X173802222Y-96043141D01*
X173811964Y-96068199D01*
X173817036Y-96104034D01*
X173818831Y-96158000D01*
X173818935Y-96193304D01*
X173832756Y-96370007D01*
X173850889Y-96461683D01*
X173866670Y-96531058D01*
X173874023Y-96583328D01*
X173870138Y-96623706D01*
X173852208Y-96657409D01*
X173817424Y-96689652D01*
X173762978Y-96725651D01*
X173686061Y-96770619D01*
X173683841Y-96771895D01*
X173604481Y-96817294D01*
X173547275Y-96850924D01*
X173509609Y-96876313D01*
X173488870Y-96896987D01*
X173482442Y-96916475D01*
X173487712Y-96938305D01*
X173502067Y-96966006D01*
X173518493Y-96995050D01*
X173561623Y-97072978D01*
X173593014Y-97129214D01*
X173614895Y-97167608D01*
X173629496Y-97192012D01*
X173639047Y-97206275D01*
X173644912Y-97213356D01*
X173661350Y-97211093D01*
X173698565Y-97195819D01*
X173752376Y-97169513D01*
X173818605Y-97134152D01*
X173852591Y-97115104D01*
X173922541Y-97076465D01*
X173985708Y-97043667D01*
X174036872Y-97019263D01*
X174070813Y-97005807D01*
X174079742Y-97003982D01*
X174106237Y-97014234D01*
X174147448Y-97042725D01*
X174198616Y-97086056D01*
X174212007Y-97098435D01*
X174272199Y-97150924D01*
X174344642Y-97208198D01*
X174416512Y-97260258D01*
X174438085Y-97274699D01*
X174492683Y-97312544D01*
X174538612Y-97348561D01*
X174569736Y-97377710D01*
X174579055Y-97390441D01*
X174584022Y-97403452D01*
X174586344Y-97418560D01*
X174585266Y-97439632D01*
X174580033Y-97470536D01*
X174569891Y-97515138D01*
X174554083Y-97577307D01*
X174531855Y-97660908D01*
X174511565Y-97736125D01*
X174499265Y-97784776D01*
X174490978Y-97823615D01*
X174488740Y-97840485D01*
X174501752Y-97855924D01*
X174535968Y-97873510D01*
X174565158Y-97883846D01*
X174617736Y-97899931D01*
X174666130Y-97914706D01*
X174685244Y-97920526D01*
X174757075Y-97939744D01*
X174807127Y-97945485D01*
X174839954Y-97936688D01*
X174860107Y-97912295D01*
X174870920Y-97877334D01*
X174879460Y-97840714D01*
X174892881Y-97787576D01*
X174909151Y-97725485D01*
X174926234Y-97662006D01*
X174942098Y-97604705D01*
X174954709Y-97561147D01*
X174961662Y-97539784D01*
X174983478Y-97507537D01*
X175021088Y-97486055D01*
X175078562Y-97473964D01*
X175159968Y-97469891D01*
X175168715Y-97469871D01*
X175282950Y-97463352D01*
X175402108Y-97445244D01*
X175430784Y-97439068D01*
X175493800Y-97426373D01*
X175549781Y-97418346D01*
X175590193Y-97416073D01*
X175601494Y-97417330D01*
X175626809Y-97433886D01*
X175660025Y-97468867D01*
X175695516Y-97514923D01*
X175727656Y-97564700D01*
X175750820Y-97610847D01*
X175752124Y-97614181D01*
X175770914Y-97653674D01*
X175798024Y-97699170D01*
X175828803Y-97744225D01*
X175858604Y-97782395D01*
X175882775Y-97807237D01*
X175895573Y-97813006D01*
X175925354Y-97798782D01*
X175968987Y-97774599D01*
X176020543Y-97744155D01*
X176074095Y-97711148D01*
X176123714Y-97679275D01*
X176163472Y-97652234D01*
X176187441Y-97633723D01*
X176191777Y-97628249D01*
X176184797Y-97608208D01*
X176166163Y-97569736D01*
X176139329Y-97519282D01*
X176107751Y-97463298D01*
X176074885Y-97408234D01*
X176067892Y-97396991D01*
X176023225Y-97322924D01*
X175995690Y-97266369D01*
X175985314Y-97221277D01*
X175992127Y-97181602D01*
X176016157Y-97141298D01*
X176057432Y-97094316D01*
X176069370Y-97081927D01*
X176148770Y-96993248D01*
X176218918Y-96901430D01*
X176272979Y-96815537D01*
X176279713Y-96802886D01*
X176306880Y-96759812D01*
X176337108Y-96725269D01*
X176347988Y-96716593D01*
X176367229Y-96705872D01*
X176387703Y-96701494D01*
X176416518Y-96703864D01*
X176460785Y-96713388D01*
X176509775Y-96725826D01*
X176610997Y-96752028D01*
X176687742Y-96771460D01*
X176743695Y-96784719D01*
X176782544Y-96792402D01*
X176807976Y-96795104D01*
X176823677Y-96793422D01*
X176833335Y-96787954D01*
X176840597Y-96779345D01*
X176851612Y-96754949D01*
X176866306Y-96709827D01*
X176882280Y-96651723D01*
X176890205Y-96619334D01*
X176907220Y-96554273D01*
X176925833Y-96495064D01*
X176943009Y-96450967D01*
X176949435Y-96438565D01*
X176987679Y-96397970D01*
X177034821Y-96381434D01*
X177084124Y-96391188D01*
X177087388Y-96392863D01*
X177124803Y-96426598D01*
X177140792Y-96477197D01*
X177135696Y-96546208D01*
X177128144Y-96578158D01*
X177113339Y-96634186D01*
X177099960Y-96687373D01*
X177093940Y-96712865D01*
X177083199Y-96756756D01*
X177068420Y-96812515D01*
X177059682Y-96843867D01*
X177044488Y-96897214D01*
X177030581Y-96946098D01*
X177024543Y-96967350D01*
X177001688Y-97007446D01*
X176967700Y-97036776D01*
X176940707Y-97050695D01*
X176916363Y-97055485D01*
X176884310Y-97051362D01*
X176837680Y-97039495D01*
X176725841Y-97009041D01*
X176638781Y-96985581D01*
X176573154Y-96968587D01*
X176525617Y-96957530D01*
X176492824Y-96951880D01*
X176471432Y-96951108D01*
X176458095Y-96954685D01*
X176449471Y-96962083D01*
X176442213Y-96972770D01*
X176439802Y-96976539D01*
X176421063Y-97002601D01*
X176389152Y-97044284D01*
X176349381Y-97094719D01*
X176325617Y-97124270D01*
X176233841Y-97237556D01*
X176351090Y-97444611D01*
X176398699Y-97529996D01*
X176432429Y-97594565D01*
X176453629Y-97642314D01*
X176463646Y-97677239D01*
X176463829Y-97703334D01*
X176455526Y-97724597D01*
X176448867Y-97734333D01*
X176432543Y-97747488D01*
X176396967Y-97771801D01*
X176347446Y-97803991D01*
X176289287Y-97840777D01*
X176227796Y-97878878D01*
X176168281Y-97915013D01*
X176116049Y-97945901D01*
X176076407Y-97968262D01*
X176054661Y-97978814D01*
X176052750Y-97979226D01*
X176038698Y-97986162D01*
X176006704Y-98004356D01*
X175963667Y-98029882D01*
X175963251Y-98030134D01*
X175893084Y-98066212D01*
X175837267Y-98079765D01*
X175791957Y-98070992D01*
X175754185Y-98041088D01*
X175734993Y-98018622D01*
X175718472Y-97996263D01*
X175700227Y-97967118D01*
X175675862Y-97924296D01*
X175651394Y-97879906D01*
X175605359Y-97797199D01*
X175570365Y-97737417D01*
X175544439Y-97697442D01*
X175525614Y-97674156D01*
X175516817Y-97666840D01*
X175484874Y-97660811D01*
X175428719Y-97666751D01*
X175409301Y-97670479D01*
X175347090Y-97680653D01*
X175282657Y-97687131D01*
X175252047Y-97688331D01*
X175195761Y-97691473D01*
X175161002Y-97703382D01*
X175140518Y-97728428D01*
X175129144Y-97762397D01*
X175094368Y-97895567D01*
X175063629Y-98004337D01*
X175037257Y-98087666D01*
X175015584Y-98144511D01*
X174998938Y-98173833D01*
X174998319Y-98174483D01*
X174967952Y-98193658D01*
X174922725Y-98200048D01*
X174902742Y-98199774D01*
X174859540Y-98196669D01*
X174828815Y-98191787D01*
X174822016Y-98189353D01*
X174809265Y-98183927D01*
X174782389Y-98175278D01*
X174738748Y-98162671D01*
X174675699Y-98145374D01*
X174590602Y-98122650D01*
X174480814Y-98093766D01*
X174437794Y-98082517D01*
X174379228Y-98066262D01*
X174328467Y-98050463D01*
X174294675Y-98038015D01*
X174290204Y-98035899D01*
X174251099Y-98000770D01*
X174235229Y-97949257D01*
X174242214Y-97887064D01*
X174256826Y-97831330D01*
X174271635Y-97774699D01*
X174273340Y-97768165D01*
X174287562Y-97715393D01*
X174303827Y-97657368D01*
X174307552Y-97644440D01*
X174326706Y-97577825D01*
X174336415Y-97531902D01*
X174334303Y-97499123D01*
X174317988Y-97471940D01*
X174285094Y-97442804D01*
X174233240Y-97404166D01*
X174231405Y-97402810D01*
X174178801Y-97363354D01*
X174132415Y-97327565D01*
X174099151Y-97300816D01*
X174089493Y-97292412D01*
X174062824Y-97272588D01*
X174045680Y-97266203D01*
X174028129Y-97273349D01*
X173990647Y-97292806D01*
X173938233Y-97321852D01*
X173875887Y-97357766D01*
X173855559Y-97369729D01*
X173787471Y-97408360D01*
X173723830Y-97441509D01*
X173670922Y-97466103D01*
X173635028Y-97479069D01*
X173629943Y-97480069D01*
X173574551Y-97475114D01*
X173526027Y-97443288D01*
X173483072Y-97383680D01*
X173477398Y-97373005D01*
X173454699Y-97331071D01*
X173423739Y-97276657D01*
X173393701Y-97225703D01*
X173367017Y-97180412D01*
X173347500Y-97145515D01*
X173338937Y-97127814D01*
X173338826Y-97127161D01*
X173331716Y-97111613D01*
X173313656Y-97080372D01*
X173301654Y-97060967D01*
X173253173Y-96980131D01*
X173222272Y-96917623D01*
X173207811Y-96869474D01*
X173208651Y-96831715D01*
X173223656Y-96800378D01*
X173226018Y-96797284D01*
X173253663Y-96772470D01*
X173304374Y-96737495D01*
X173374851Y-96694539D01*
X173423471Y-96666834D01*
X173466778Y-96642269D01*
X173520517Y-96611236D01*
X173554779Y-96591197D01*
X173632452Y-96545472D01*
X173623173Y-96479971D01*
X173617115Y-96431898D01*
X173610098Y-96368429D01*
X173603625Y-96303173D01*
X173603535Y-96302200D01*
X173596839Y-96247034D01*
X173588540Y-96203149D01*
X173580241Y-96178666D01*
X173578809Y-96176888D01*
X173559498Y-96168024D01*
X173518430Y-96154189D01*
X173462096Y-96137450D01*
X173411605Y-96123673D01*
X173304530Y-96094843D01*
X173223250Y-96071313D01*
X173165107Y-96052222D01*
X173127444Y-96036709D01*
X173109927Y-96026015D01*
X173100651Y-96004821D01*
X173094076Y-95965883D01*
X173090891Y-95920279D01*
X173091788Y-95879088D01*
X173097455Y-95853387D01*
X173099042Y-95851254D01*
X173105719Y-95834688D01*
X173117419Y-95796401D01*
X173132208Y-95742943D01*
X173141610Y-95706908D01*
X173173769Y-95583060D01*
X173200600Y-95484817D01*
X173223035Y-95409356D01*
X173242008Y-95353852D01*
X173258451Y-95315481D01*
X173273297Y-95291418D01*
X173281732Y-95282750D01*
X173307394Y-95265872D01*
X173335736Y-95258973D01*
X173374317Y-95261928D01*
X173430695Y-95274612D01*
X173450923Y-95279950D01*
X173555910Y-95307951D01*
X173636380Y-95328895D01*
X173695835Y-95343617D01*
X173737778Y-95352954D01*
X173765714Y-95357742D01*
X173781469Y-95358857D01*
X173811254Y-95345531D01*
X173846264Y-95308647D01*
X173854743Y-95296995D01*
X173887780Y-95252095D01*
X173929724Y-95198471D01*
X173963180Y-95157692D01*
X174028765Y-95079941D01*
X173993551Y-95012133D01*
X173966855Y-94962908D01*
X173932899Y-94903189D01*
X173904300Y-94854715D01*
X173855676Y-94771833D01*
X173822405Y-94709334D01*
X173802991Y-94663863D01*
X173795939Y-94632062D01*
X173797742Y-94615537D01*
X173812939Y-94589078D01*
X173839436Y-94557621D01*
X173868567Y-94530118D01*
X173891665Y-94515519D01*
X173895156Y-94514928D01*
X173912122Y-94507623D01*
X173945837Y-94488545D01*
X173985580Y-94463982D01*
X174027337Y-94437873D01*
X174058522Y-94419500D01*
X174071844Y-94413036D01*
X174086224Y-94406040D01*
X174120390Y-94387010D01*
X174169165Y-94358890D01*
X174224866Y-94326108D01*
X174286455Y-94290599D01*
X174342245Y-94260356D01*
X174385631Y-94238842D01*
X174408274Y-94229890D01*
X174443283Y-94228294D01*
X174477249Y-94243730D01*
G37*
%TD.AperFunction*%
%TA.AperFunction,EtchedComponent*%
G36*
X177362079Y-92072231D02*
G01*
X177438877Y-92076481D01*
X177495303Y-92083936D01*
X177534244Y-92094945D01*
X177558586Y-92109857D01*
X177569229Y-92124283D01*
X177573780Y-92146891D01*
X177578519Y-92193097D01*
X177583034Y-92257395D01*
X177586916Y-92334279D01*
X177588920Y-92388845D01*
X177596419Y-92628093D01*
X177661920Y-92652064D01*
X177738488Y-92681075D01*
X177802988Y-92708215D01*
X177868080Y-92738599D01*
X177890622Y-92750055D01*
X177908129Y-92757536D01*
X177924256Y-92758800D01*
X177942659Y-92751605D01*
X177966995Y-92733709D01*
X178000920Y-92702871D01*
X178048091Y-92656849D01*
X178112163Y-92593400D01*
X178124042Y-92581665D01*
X178189479Y-92518315D01*
X178239259Y-92473921D01*
X178277425Y-92446004D01*
X178308017Y-92432086D01*
X178335079Y-92429690D01*
X178361668Y-92435990D01*
X178382676Y-92449905D01*
X178420420Y-92481511D01*
X178471381Y-92527590D01*
X178532040Y-92584927D01*
X178598875Y-92650303D01*
X178627389Y-92678829D01*
X178710519Y-92762382D01*
X178774396Y-92828595D01*
X178819501Y-92881532D01*
X178846314Y-92925253D01*
X178855317Y-92963821D01*
X178846992Y-93001298D01*
X178821820Y-93041746D01*
X178780282Y-93089226D01*
X178722859Y-93147802D01*
X178687214Y-93183659D01*
X178518925Y-93353673D01*
X178540240Y-93399372D01*
X178568417Y-93461504D01*
X178603122Y-93540657D01*
X178639985Y-93626851D01*
X178644659Y-93637936D01*
X178670697Y-93699799D01*
X178900568Y-93699799D01*
X178987429Y-93699989D01*
X179050199Y-93700996D01*
X179093897Y-93703470D01*
X179123544Y-93708062D01*
X179144160Y-93715424D01*
X179160764Y-93726208D01*
X179171280Y-93734928D01*
X179212121Y-93770058D01*
X179211705Y-94113392D01*
X179211953Y-94232873D01*
X179211435Y-94326497D01*
X179207772Y-94397472D01*
X179198589Y-94449010D01*
X179181506Y-94484318D01*
X179154148Y-94506607D01*
X179114135Y-94519087D01*
X179059090Y-94524967D01*
X178986637Y-94527456D01*
X178903480Y-94529483D01*
X178661052Y-94536761D01*
X178615306Y-94653208D01*
X178590691Y-94713915D01*
X178566475Y-94770383D01*
X178547099Y-94812329D01*
X178543731Y-94818961D01*
X178517901Y-94868267D01*
X178678691Y-95030022D01*
X178735295Y-95088409D01*
X178785022Y-95142413D01*
X178823898Y-95187507D01*
X178847947Y-95219167D01*
X178853264Y-95228794D01*
X178859131Y-95253719D01*
X178856638Y-95280036D01*
X178843757Y-95310555D01*
X178818461Y-95348088D01*
X178778723Y-95395443D01*
X178722515Y-95455431D01*
X178647808Y-95530863D01*
X178604289Y-95573867D01*
X178521803Y-95655213D01*
X178456715Y-95717432D01*
X178404869Y-95760966D01*
X178362110Y-95786256D01*
X178324282Y-95793745D01*
X178287230Y-95783874D01*
X178246797Y-95757084D01*
X178198829Y-95713818D01*
X178139170Y-95654518D01*
X178110999Y-95626304D01*
X177941016Y-95456764D01*
X177790551Y-95518654D01*
X177727705Y-95544673D01*
X177673501Y-95567426D01*
X177634433Y-95584167D01*
X177618253Y-95591482D01*
X177609774Y-95600960D01*
X177603142Y-95622360D01*
X177597905Y-95659484D01*
X177593616Y-95716134D01*
X177589824Y-95796111D01*
X177587894Y-95848330D01*
X177584950Y-95929596D01*
X177582159Y-95999994D01*
X177579731Y-96054687D01*
X177577878Y-96088839D01*
X177576977Y-96098093D01*
X177564261Y-96107387D01*
X177535746Y-96125588D01*
X177527278Y-96130789D01*
X177509094Y-96140536D01*
X177488078Y-96147819D01*
X177459930Y-96152991D01*
X177420351Y-96156409D01*
X177365041Y-96158427D01*
X177289699Y-96159400D01*
X177190027Y-96159683D01*
X177177215Y-96159687D01*
X177061755Y-96159111D01*
X176971838Y-96156859D01*
X176903911Y-96152211D01*
X176854421Y-96144450D01*
X176819814Y-96132857D01*
X176796538Y-96116713D01*
X176781040Y-96095301D01*
X176773387Y-96078039D01*
X176768502Y-96050964D01*
X176764366Y-96000908D01*
X176761307Y-95934001D01*
X176759654Y-95856371D01*
X176759456Y-95818406D01*
X176759456Y-95595413D01*
X176687961Y-95572028D01*
X176636030Y-95553104D01*
X176573003Y-95527448D01*
X176521853Y-95504851D01*
X176474485Y-95483352D01*
X176438316Y-95467730D01*
X176420596Y-95461107D01*
X176420160Y-95461059D01*
X176407961Y-95470770D01*
X176378745Y-95497627D01*
X176336107Y-95538221D01*
X176283641Y-95589143D01*
X176243657Y-95628452D01*
X176178545Y-95692080D01*
X176129831Y-95737565D01*
X176093786Y-95767793D01*
X176066679Y-95785651D01*
X176044778Y-95794026D01*
X176027315Y-95795844D01*
X176010218Y-95793794D01*
X175990977Y-95786034D01*
X175966713Y-95770148D01*
X175934552Y-95743722D01*
X175891617Y-95704341D01*
X175835031Y-95649591D01*
X175761920Y-95577055D01*
X175736745Y-95551878D01*
X175658526Y-95473154D01*
X175598796Y-95411828D01*
X175555147Y-95365031D01*
X175525172Y-95329890D01*
X175506464Y-95303535D01*
X175496615Y-95283096D01*
X175493218Y-95265701D01*
X175493095Y-95261308D01*
X175495695Y-95240945D01*
X175505416Y-95218430D01*
X175525138Y-95190048D01*
X175557742Y-95152079D01*
X175606110Y-95100806D01*
X175660487Y-95045282D01*
X175716540Y-94988139D01*
X175764614Y-94938346D01*
X175801300Y-94899498D01*
X175823188Y-94875191D01*
X175827880Y-94868779D01*
X175822202Y-94853035D01*
X175807248Y-94818202D01*
X175786141Y-94771530D01*
X175784088Y-94767086D01*
X175757496Y-94706470D01*
X175732455Y-94644139D01*
X175716911Y-94600978D01*
X175693526Y-94529483D01*
X175470533Y-94529483D01*
X175390009Y-94528595D01*
X175317363Y-94526147D01*
X175258723Y-94522470D01*
X175220219Y-94517892D01*
X175210900Y-94515553D01*
X175185609Y-94503226D01*
X175166079Y-94485478D01*
X175151597Y-94458755D01*
X175141449Y-94419503D01*
X175134922Y-94364168D01*
X175131300Y-94289195D01*
X175129870Y-94191030D01*
X175129784Y-94114184D01*
X175362092Y-94114184D01*
X175362092Y-94296589D01*
X175566342Y-94296589D01*
X175665642Y-94297397D01*
X175740234Y-94301017D01*
X175794505Y-94309246D01*
X175832841Y-94323881D01*
X175859629Y-94346718D01*
X175879255Y-94379554D01*
X175896105Y-94424185D01*
X175898923Y-94432807D01*
X175914448Y-94482879D01*
X175925528Y-94522467D01*
X175929771Y-94543022D01*
X175929771Y-94543046D01*
X175936145Y-94565610D01*
X175952867Y-94606102D01*
X175976338Y-94656899D01*
X176002960Y-94710376D01*
X176029133Y-94758909D01*
X176041755Y-94780283D01*
X176065919Y-94834905D01*
X176075330Y-94889712D01*
X176073785Y-94912776D01*
X176067063Y-94934559D01*
X176052030Y-94959312D01*
X176025556Y-94991288D01*
X175984508Y-95034738D01*
X175925754Y-95093912D01*
X175922493Y-95097163D01*
X175868734Y-95151711D01*
X175823253Y-95199713D01*
X175789694Y-95237177D01*
X175771703Y-95260108D01*
X175769657Y-95264616D01*
X175779435Y-95280269D01*
X175806035Y-95311568D01*
X175845353Y-95353921D01*
X175891548Y-95401012D01*
X175944986Y-95453221D01*
X175982615Y-95487034D01*
X176008489Y-95505338D01*
X176026663Y-95511018D01*
X176040746Y-95507208D01*
X176060847Y-95491567D01*
X176096510Y-95459438D01*
X176143021Y-95415222D01*
X176195664Y-95363321D01*
X176206045Y-95352878D01*
X176262509Y-95296450D01*
X176303486Y-95257715D01*
X176333654Y-95233367D01*
X176357693Y-95220104D01*
X176380281Y-95214622D01*
X176403277Y-95213609D01*
X176444101Y-95216537D01*
X176472387Y-95223819D01*
X176476344Y-95226368D01*
X176513023Y-95251914D01*
X176570748Y-95282400D01*
X176642614Y-95314622D01*
X176721716Y-95345378D01*
X176764689Y-95360143D01*
X176826389Y-95380887D01*
X176880597Y-95400191D01*
X176919202Y-95415120D01*
X176930102Y-95420018D01*
X176955422Y-95440760D01*
X176973507Y-95475748D01*
X176985154Y-95528620D01*
X176991161Y-95603010D01*
X176992323Y-95702555D01*
X176992312Y-95703772D01*
X176991758Y-95773849D01*
X176991432Y-95834905D01*
X176991361Y-95880081D01*
X176991546Y-95901809D01*
X176994175Y-95912458D01*
X177004381Y-95919521D01*
X177026816Y-95923545D01*
X177066134Y-95925074D01*
X177126987Y-95924652D01*
X177177937Y-95923643D01*
X177363525Y-95919569D01*
X177370803Y-95683631D01*
X177374119Y-95589291D01*
X177378464Y-95519810D01*
X177385443Y-95470943D01*
X177396663Y-95438442D01*
X177413727Y-95418062D01*
X177438244Y-95405556D01*
X177471817Y-95396678D01*
X177479972Y-95394919D01*
X177561472Y-95372816D01*
X177651625Y-95340726D01*
X177740208Y-95302887D01*
X177816998Y-95263532D01*
X177855438Y-95239363D01*
X177899203Y-95219214D01*
X177947824Y-95210700D01*
X177948353Y-95210698D01*
X177970589Y-95212554D01*
X177992553Y-95220183D01*
X178018392Y-95236675D01*
X178052254Y-95265124D01*
X178098288Y-95308622D01*
X178155360Y-95364991D01*
X178210342Y-95418916D01*
X178258638Y-95464624D01*
X178296304Y-95498507D01*
X178319398Y-95516963D01*
X178324146Y-95519283D01*
X178340355Y-95509385D01*
X178371147Y-95483075D01*
X178411461Y-95445426D01*
X178456239Y-95401513D01*
X178500421Y-95356411D01*
X178538947Y-95315194D01*
X178566759Y-95282937D01*
X178578796Y-95264713D01*
X178578940Y-95263735D01*
X178569094Y-95247972D01*
X178542204Y-95216463D01*
X178502243Y-95173606D01*
X178453184Y-95123800D01*
X178447168Y-95117855D01*
X178393611Y-95063591D01*
X178345173Y-95011818D01*
X178307174Y-94968395D01*
X178284935Y-94939180D01*
X178284923Y-94939162D01*
X178254451Y-94890330D01*
X178332231Y-94735379D01*
X178368463Y-94662896D01*
X178394364Y-94609595D01*
X178412744Y-94568685D01*
X178426412Y-94533370D01*
X178438180Y-94496859D01*
X178450856Y-94452357D01*
X178453977Y-94441071D01*
X178468379Y-94393225D01*
X178484281Y-94358007D01*
X178506143Y-94333368D01*
X178538423Y-94317260D01*
X178585581Y-94307634D01*
X178652076Y-94302442D01*
X178742367Y-94299635D01*
X178762799Y-94299198D01*
X178987359Y-94294528D01*
X178983293Y-94109971D01*
X178979227Y-93925415D01*
X178752144Y-93918137D01*
X178653941Y-93914088D01*
X178582062Y-93908938D01*
X178533733Y-93902384D01*
X178506176Y-93894123D01*
X178500909Y-93890760D01*
X178483880Y-93866102D01*
X178465482Y-93823769D01*
X178454284Y-93788869D01*
X178429703Y-93710260D01*
X178398419Y-93625737D01*
X178364634Y-93545734D01*
X178332551Y-93480690D01*
X178324641Y-93466905D01*
X178290831Y-93407414D01*
X178272447Y-93364869D01*
X178267759Y-93332691D01*
X178275040Y-93304307D01*
X178279499Y-93295168D01*
X178297475Y-93270358D01*
X178331787Y-93230559D01*
X178377769Y-93180942D01*
X178430754Y-93126674D01*
X178439623Y-93117851D01*
X178490933Y-93065785D01*
X178533729Y-93019989D01*
X178564159Y-92984764D01*
X178578371Y-92964415D01*
X178578940Y-92962258D01*
X178568980Y-92944743D01*
X178542536Y-92912912D01*
X178504764Y-92871919D01*
X178460821Y-92826922D01*
X178415863Y-92783076D01*
X178375046Y-92745537D01*
X178343527Y-92719462D01*
X178326682Y-92709999D01*
X178310448Y-92719845D01*
X178278329Y-92746813D01*
X178234628Y-92787053D01*
X178183647Y-92836710D01*
X178171088Y-92849316D01*
X178116555Y-92902992D01*
X178065839Y-92950416D01*
X178024111Y-92986923D01*
X177996539Y-93007843D01*
X177993771Y-93009440D01*
X177965223Y-93020109D01*
X177934938Y-93019349D01*
X177896342Y-93005434D01*
X177842857Y-92976633D01*
X177822035Y-92964298D01*
X177762888Y-92933411D01*
X177685934Y-92899673D01*
X177601608Y-92867290D01*
X177520349Y-92840462D01*
X177500071Y-92834656D01*
X177451712Y-92818273D01*
X177413396Y-92799766D01*
X177398180Y-92788031D01*
X177389248Y-92767114D01*
X177382129Y-92726399D01*
X177376520Y-92663111D01*
X177372119Y-92574473D01*
X177370803Y-92536795D01*
X177363525Y-92309713D01*
X177178968Y-92305646D01*
X176994412Y-92301580D01*
X176989742Y-92526141D01*
X176987423Y-92620387D01*
X176983161Y-92690250D01*
X176974263Y-92740448D01*
X176958035Y-92775700D01*
X176931783Y-92800725D01*
X176892813Y-92820240D01*
X176838431Y-92838966D01*
X176805239Y-92849315D01*
X176734162Y-92874516D01*
X176651753Y-92908493D01*
X176571855Y-92945402D01*
X176542693Y-92960205D01*
X176480069Y-92992377D01*
X176436851Y-93012051D01*
X176407127Y-93021104D01*
X176384989Y-93021412D01*
X176367119Y-93015951D01*
X176342821Y-92999948D01*
X176303325Y-92967313D01*
X176253597Y-92922408D01*
X176198602Y-92869598D01*
X176183868Y-92854925D01*
X176130819Y-92802662D01*
X176084401Y-92758777D01*
X176048723Y-92727016D01*
X176027888Y-92711123D01*
X176024961Y-92709999D01*
X176008893Y-92719847D01*
X175978157Y-92746025D01*
X175937826Y-92783481D01*
X175892973Y-92827164D01*
X175848673Y-92872023D01*
X175809998Y-92913007D01*
X175782023Y-92945066D01*
X175769820Y-92963149D01*
X175769657Y-92964168D01*
X175779441Y-92979100D01*
X175806389Y-93010469D01*
X175846893Y-93054314D01*
X175897346Y-93106675D01*
X175923949Y-93133580D01*
X175984133Y-93194579D01*
X176026406Y-93239566D01*
X176053861Y-93272691D01*
X176069590Y-93298099D01*
X176076683Y-93319941D01*
X176078241Y-93340586D01*
X176069907Y-93389117D01*
X176049836Y-93433088D01*
X176049546Y-93433502D01*
X176014786Y-93491784D01*
X175977711Y-93568648D01*
X175942388Y-93654275D01*
X175912887Y-93738844D01*
X175894020Y-93808968D01*
X175885023Y-93845617D01*
X175873071Y-93872272D01*
X175853774Y-93890633D01*
X175822740Y-93902398D01*
X175775579Y-93909265D01*
X175707900Y-93912932D01*
X175619864Y-93915013D01*
X175541510Y-93916860D01*
X175472866Y-93919185D01*
X175419492Y-93921745D01*
X175386946Y-93924298D01*
X175380287Y-93925473D01*
X175372032Y-93937645D01*
X175366444Y-93969467D01*
X175363232Y-94023969D01*
X175362102Y-94104183D01*
X175362092Y-94114184D01*
X175129784Y-94114184D01*
X175129781Y-94111725D01*
X175130425Y-94003351D01*
X175132048Y-93920338D01*
X175134892Y-93858945D01*
X175139197Y-93815431D01*
X175145205Y-93786055D01*
X175151888Y-93769305D01*
X175176508Y-93735566D01*
X175201294Y-93714720D01*
X175225444Y-93709410D01*
X175273131Y-93704966D01*
X175338782Y-93701716D01*
X175416826Y-93699991D01*
X175453966Y-93699799D01*
X175548873Y-93699018D01*
X175617482Y-93696536D01*
X175662570Y-93692140D01*
X175686912Y-93685618D01*
X175692092Y-93681604D01*
X175704042Y-93658303D01*
X175720575Y-93617753D01*
X175732247Y-93585539D01*
X175755042Y-93525709D01*
X175781874Y-93463878D01*
X175793413Y-93439980D01*
X175813001Y-93398740D01*
X175825466Y-93367436D01*
X175827819Y-93357498D01*
X175818010Y-93342714D01*
X175790857Y-93311352D01*
X175749831Y-93267186D01*
X175698408Y-93213987D01*
X175660487Y-93175787D01*
X175595423Y-93111139D01*
X175546114Y-93059608D01*
X175513019Y-93017069D01*
X175496596Y-92979396D01*
X175497304Y-92942461D01*
X175515603Y-92902140D01*
X175551949Y-92854304D01*
X175606802Y-92794829D01*
X175680620Y-92719588D01*
X175715072Y-92684650D01*
X175799010Y-92600238D01*
X175866141Y-92535307D01*
X175919275Y-92487830D01*
X175961222Y-92455780D01*
X175994793Y-92437129D01*
X176022799Y-92429849D01*
X176048048Y-92431912D01*
X176060145Y-92435675D01*
X176083062Y-92450477D01*
X176121760Y-92482165D01*
X176171711Y-92526765D01*
X176228392Y-92580302D01*
X176258918Y-92610249D01*
X176420672Y-92771038D01*
X176469978Y-92745209D01*
X176507025Y-92727613D01*
X176561008Y-92704135D01*
X176621643Y-92679217D01*
X176635731Y-92673638D01*
X176752178Y-92627897D01*
X176759456Y-92385472D01*
X176761906Y-92291034D01*
X176765143Y-92218098D01*
X176772555Y-92163841D01*
X176787528Y-92125443D01*
X176813451Y-92100080D01*
X176853712Y-92084931D01*
X176911698Y-92077173D01*
X176990797Y-92073986D01*
X176994412Y-92073936D01*
X177094396Y-92072546D01*
X177135822Y-92071953D01*
X177262023Y-92070838D01*
X177362079Y-92072231D01*
G37*
%TD.AperFunction*%
%TA.AperFunction,EtchedComponent*%
G36*
X166452028Y-117536017D02*
G01*
X167298471Y-117539462D01*
X167298471Y-117927555D01*
X167298471Y-118315648D01*
X167147918Y-118319432D01*
X166997365Y-118323216D01*
X166997365Y-119453161D01*
X166997365Y-120583106D01*
X167147918Y-120586890D01*
X167298471Y-120590674D01*
X167298471Y-120985458D01*
X167298471Y-121380242D01*
X166451828Y-121383687D01*
X165605185Y-121387133D01*
X165608730Y-120988904D01*
X165612275Y-120590674D01*
X165746100Y-120587977D01*
X165804598Y-120586768D01*
X165853773Y-120585697D01*
X165886978Y-120584911D01*
X165896654Y-120584631D01*
X165899726Y-120579501D01*
X165902424Y-120563420D01*
X165904767Y-120534971D01*
X165906778Y-120492737D01*
X165908476Y-120435301D01*
X165909883Y-120361248D01*
X165911019Y-120269160D01*
X165911906Y-120157620D01*
X165912565Y-120025213D01*
X165913016Y-119870520D01*
X165913281Y-119692126D01*
X165913380Y-119488613D01*
X165913382Y-119453161D01*
X165913382Y-118322339D01*
X165759483Y-118322339D01*
X165605584Y-118322339D01*
X165605584Y-117927455D01*
X165605584Y-117532571D01*
X166452028Y-117536017D01*
G37*
%TD.AperFunction*%
%TA.AperFunction,EtchedComponent*%
G36*
X168996845Y-117533003D02*
G01*
X169167735Y-117533150D01*
X169314223Y-117533601D01*
X169438670Y-117534551D01*
X169543438Y-117536196D01*
X169630890Y-117538729D01*
X169703388Y-117542345D01*
X169763292Y-117547240D01*
X169812967Y-117553608D01*
X169854773Y-117561643D01*
X169891074Y-117571540D01*
X169924229Y-117583495D01*
X169956603Y-117597701D01*
X169990557Y-117614353D01*
X169991885Y-117615024D01*
X170095314Y-117681701D01*
X170183711Y-117769755D01*
X170257511Y-117879717D01*
X170317145Y-118012118D01*
X170318030Y-118014541D01*
X170349683Y-118101528D01*
X170349683Y-119453161D01*
X170349683Y-120804794D01*
X170317796Y-120898472D01*
X170261230Y-121029068D01*
X170187431Y-121139192D01*
X170096446Y-121228803D01*
X169988320Y-121297862D01*
X169863099Y-121346329D01*
X169775718Y-121366227D01*
X169743394Y-121371112D01*
X169705778Y-121375168D01*
X169660373Y-121378453D01*
X169604681Y-121381028D01*
X169536205Y-121382951D01*
X169452448Y-121384284D01*
X169350912Y-121385085D01*
X169229099Y-121385414D01*
X169084513Y-121385332D01*
X168986260Y-121385111D01*
X168853749Y-121384657D01*
X168728605Y-121384048D01*
X168613528Y-121383310D01*
X168511222Y-121382469D01*
X168424387Y-121381549D01*
X168355725Y-121380578D01*
X168307939Y-121379580D01*
X168283730Y-121378581D01*
X168282086Y-121378403D01*
X168139224Y-121348936D01*
X168017385Y-121304387D01*
X167914399Y-121243038D01*
X167828100Y-121163169D01*
X167756318Y-121063062D01*
X167696886Y-120940999D01*
X167682271Y-120902950D01*
X167646416Y-120804794D01*
X167646416Y-120583983D01*
X168723708Y-120583983D01*
X168996618Y-120583983D01*
X169090021Y-120583750D01*
X169160055Y-120582883D01*
X169210114Y-120581124D01*
X169243592Y-120578219D01*
X169263881Y-120573912D01*
X169274377Y-120567948D01*
X169277651Y-120562814D01*
X169279039Y-120546048D01*
X169280295Y-120504962D01*
X169281418Y-120442004D01*
X169282408Y-120359619D01*
X169283264Y-120260254D01*
X169283988Y-120146355D01*
X169284579Y-120020367D01*
X169285036Y-119884736D01*
X169285361Y-119741910D01*
X169285553Y-119594333D01*
X169285612Y-119444451D01*
X169285538Y-119294712D01*
X169285330Y-119147561D01*
X169284990Y-119005443D01*
X169284517Y-118870805D01*
X169283911Y-118746094D01*
X169283172Y-118633754D01*
X169282300Y-118536232D01*
X169281294Y-118455975D01*
X169280156Y-118395428D01*
X169278885Y-118357037D01*
X169277651Y-118343507D01*
X169271877Y-118336269D01*
X169258617Y-118330863D01*
X169234476Y-118327032D01*
X169196061Y-118324522D01*
X169139979Y-118323077D01*
X169062836Y-118322440D01*
X168996618Y-118322339D01*
X168723708Y-118322339D01*
X168723708Y-119453161D01*
X168723708Y-120583983D01*
X167646416Y-120583983D01*
X167646416Y-119459852D01*
X167646416Y-119453161D01*
X167646416Y-118114910D01*
X167683519Y-118010019D01*
X167740527Y-117880852D01*
X167813074Y-117773193D01*
X167902299Y-117685991D01*
X168009340Y-117618193D01*
X168135333Y-117568748D01*
X168171758Y-117558660D01*
X168195440Y-117552982D01*
X168219996Y-117548197D01*
X168247838Y-117544232D01*
X168281381Y-117541010D01*
X168323038Y-117538458D01*
X168375221Y-117536500D01*
X168440345Y-117535060D01*
X168520822Y-117534065D01*
X168619066Y-117533438D01*
X168737490Y-117533106D01*
X168878508Y-117532992D01*
X168996845Y-117533003D01*
G37*
%TD.AperFunction*%
%TA.AperFunction,EtchedComponent*%
G36*
X178136313Y-117656559D02*
G01*
X178148238Y-117720585D01*
X178163157Y-117800183D01*
X178179057Y-117884634D01*
X178192237Y-117954320D01*
X178208838Y-118042121D01*
X178227666Y-118142109D01*
X178246070Y-118240175D01*
X178257678Y-118302265D01*
X178273834Y-118388312D01*
X178292579Y-118487272D01*
X178311375Y-118585788D01*
X178325052Y-118656902D01*
X178342218Y-118746174D01*
X178361632Y-118847890D01*
X178380664Y-118948226D01*
X178393849Y-119018229D01*
X178423402Y-119175668D01*
X178448939Y-119311289D01*
X178471314Y-119429591D01*
X178491379Y-119535075D01*
X178509988Y-119632241D01*
X178525775Y-119714120D01*
X178561291Y-119899175D01*
X178596650Y-120086049D01*
X178630054Y-120265181D01*
X178657838Y-120416701D01*
X178686985Y-120577292D01*
X178820811Y-120583983D01*
X178954636Y-120590674D01*
X178958180Y-120988804D01*
X178961725Y-121386933D01*
X178319421Y-121386933D01*
X177677116Y-121386933D01*
X177671122Y-121356823D01*
X177663683Y-121313870D01*
X177653642Y-121247256D01*
X177641407Y-121159918D01*
X177627388Y-121054790D01*
X177611994Y-120934807D01*
X177609108Y-120911854D01*
X177598473Y-120827147D01*
X177587575Y-120740564D01*
X177577481Y-120660556D01*
X177569254Y-120595575D01*
X177566930Y-120577292D01*
X177558632Y-120522908D01*
X177549355Y-120478925D01*
X177540605Y-120451930D01*
X177537151Y-120447017D01*
X177519016Y-120443473D01*
X177479198Y-120440709D01*
X177422207Y-120438704D01*
X177352553Y-120437436D01*
X177274746Y-120436883D01*
X177193294Y-120437025D01*
X177112709Y-120437838D01*
X177037498Y-120439301D01*
X176972173Y-120441393D01*
X176921242Y-120444092D01*
X176889216Y-120447376D01*
X176880334Y-120450178D01*
X176875980Y-120467482D01*
X176869355Y-120506522D01*
X176861185Y-120562441D01*
X176852198Y-120630379D01*
X176846783Y-120674335D01*
X176835858Y-120765450D01*
X176823095Y-120871889D01*
X176809841Y-120982402D01*
X176797448Y-121085738D01*
X176793424Y-121119283D01*
X176783983Y-121196341D01*
X176775237Y-121264673D01*
X176767811Y-121319625D01*
X176762331Y-121356544D01*
X176759693Y-121370205D01*
X176752787Y-121374265D01*
X176733799Y-121377660D01*
X176700869Y-121380439D01*
X176652137Y-121382652D01*
X176585742Y-121384347D01*
X176499824Y-121385574D01*
X176392523Y-121386381D01*
X176261977Y-121386817D01*
X176124456Y-121386933D01*
X175494859Y-121386933D01*
X175498404Y-120988804D01*
X175501949Y-120590674D01*
X175640113Y-120588565D01*
X175697870Y-120587273D01*
X175744692Y-120585452D01*
X175774759Y-120583375D01*
X175782765Y-120581873D01*
X175786875Y-120567669D01*
X175794606Y-120532623D01*
X175804801Y-120482229D01*
X175814789Y-120430084D01*
X175828877Y-120355227D01*
X175845743Y-120266290D01*
X175863070Y-120175470D01*
X175875849Y-120108904D01*
X175892425Y-120022828D01*
X175911473Y-119923835D01*
X175930420Y-119825294D01*
X175944067Y-119754267D01*
X175948431Y-119731550D01*
X176959575Y-119731550D01*
X176963523Y-119745996D01*
X176978903Y-119748591D01*
X177016737Y-119750853D01*
X177072713Y-119752644D01*
X177142520Y-119753828D01*
X177221849Y-119754267D01*
X177223831Y-119754267D01*
X177475869Y-119754267D01*
X177475869Y-119715946D01*
X177473311Y-119680487D01*
X177466790Y-119632664D01*
X177462035Y-119605541D01*
X177455197Y-119567367D01*
X177445376Y-119509174D01*
X177433631Y-119437398D01*
X177421022Y-119358479D01*
X177413835Y-119312645D01*
X177401905Y-119236195D01*
X177390083Y-119160913D01*
X177377759Y-119082983D01*
X177364323Y-118998587D01*
X177349165Y-118903907D01*
X177331675Y-118795127D01*
X177311244Y-118668429D01*
X177287261Y-118519997D01*
X177281266Y-118482929D01*
X177265822Y-118387581D01*
X177253983Y-118315423D01*
X177245080Y-118263224D01*
X177238444Y-118227753D01*
X177233407Y-118205778D01*
X177229300Y-118194068D01*
X177225455Y-118189391D01*
X177221202Y-118188517D01*
X177220337Y-118188514D01*
X177215980Y-118188946D01*
X177212120Y-118192190D01*
X177208178Y-118201164D01*
X177203575Y-118218787D01*
X177197731Y-118247978D01*
X177190066Y-118291656D01*
X177180002Y-118352739D01*
X177166958Y-118434148D01*
X177150355Y-118538800D01*
X177148606Y-118549842D01*
X177133480Y-118644731D01*
X177118397Y-118738283D01*
X177104312Y-118824667D01*
X177092174Y-118898056D01*
X177082938Y-118952621D01*
X177080831Y-118964699D01*
X177072602Y-119012731D01*
X177061199Y-119081256D01*
X177047596Y-119164323D01*
X177032764Y-119255983D01*
X177017676Y-119350286D01*
X177014092Y-119372866D01*
X177000173Y-119460536D01*
X176987349Y-119541048D01*
X176976320Y-119610031D01*
X176967785Y-119663114D01*
X176962443Y-119695924D01*
X176961338Y-119702503D01*
X176959575Y-119731550D01*
X175948431Y-119731550D01*
X175961012Y-119666058D01*
X175980156Y-119566446D01*
X175998930Y-119468800D01*
X176012235Y-119399631D01*
X176028993Y-119312414D01*
X176047952Y-119213553D01*
X176066458Y-119116897D01*
X176078281Y-119055031D01*
X176094594Y-118969751D01*
X176113408Y-118871673D01*
X176132134Y-118774275D01*
X176145084Y-118707086D01*
X176193349Y-118455713D01*
X176245911Y-118179333D01*
X176277054Y-118014541D01*
X176290714Y-117942999D01*
X176303769Y-117876195D01*
X176314866Y-117820956D01*
X176322652Y-117784106D01*
X176323506Y-117780347D01*
X176332082Y-117739212D01*
X176342409Y-117683968D01*
X176351712Y-117629794D01*
X176367539Y-117532771D01*
X177240459Y-117532771D01*
X178113379Y-117532771D01*
X178136313Y-117656559D01*
G37*
%TD.AperFunction*%
%TA.AperFunction,EtchedComponent*%
G36*
X175749525Y-117927449D02*
G01*
X175749525Y-118322339D01*
X175623181Y-118322339D01*
X175557622Y-118323947D01*
X175511847Y-118328540D01*
X175489009Y-118335767D01*
X175487556Y-118337356D01*
X175482390Y-118355267D01*
X175474306Y-118394672D01*
X175464228Y-118450575D01*
X175453080Y-118517984D01*
X175447335Y-118554821D01*
X175432834Y-118649229D01*
X175416879Y-118752149D01*
X175398953Y-118866865D01*
X175378541Y-118996663D01*
X175355128Y-119144825D01*
X175328198Y-119314636D01*
X175314692Y-119399631D01*
X175300275Y-119490443D01*
X175283614Y-119595599D01*
X175266623Y-119703002D01*
X175251218Y-119800554D01*
X175249020Y-119814489D01*
X175233738Y-119911218D01*
X175216254Y-120021562D01*
X175198602Y-120132705D01*
X175182814Y-120231834D01*
X175181075Y-120242729D01*
X175149447Y-120441839D01*
X175118526Y-120638461D01*
X175089420Y-120825490D01*
X175063238Y-120995821D01*
X175054639Y-121052371D01*
X175043041Y-121127023D01*
X175031253Y-121199691D01*
X175020595Y-121262428D01*
X175012386Y-121307292D01*
X175011852Y-121309984D01*
X174996447Y-121386933D01*
X174356705Y-121386933D01*
X174194188Y-121386718D01*
X174057261Y-121386055D01*
X173944755Y-121384916D01*
X173855499Y-121383275D01*
X173788322Y-121381105D01*
X173742054Y-121378379D01*
X173715524Y-121375070D01*
X173707720Y-121371977D01*
X173701304Y-121353493D01*
X173690933Y-121314727D01*
X173678110Y-121261599D01*
X173666074Y-121208041D01*
X173646372Y-121117837D01*
X173625179Y-121021613D01*
X173601435Y-120914590D01*
X173574079Y-120791990D01*
X173542050Y-120649033D01*
X173534959Y-120617439D01*
X173516885Y-120536573D01*
X173497101Y-120447473D01*
X173478469Y-120363059D01*
X173468226Y-120316333D01*
X173451900Y-120242059D01*
X173432509Y-120154601D01*
X173412924Y-120066875D01*
X173401313Y-120015226D01*
X173383167Y-119934373D01*
X173363326Y-119845287D01*
X173344659Y-119760881D01*
X173334401Y-119714120D01*
X173318071Y-119639849D01*
X173298669Y-119552396D01*
X173279067Y-119464673D01*
X173267441Y-119413013D01*
X173251822Y-119343715D01*
X173236933Y-119277367D01*
X173224568Y-119221977D01*
X173217133Y-119188365D01*
X173206225Y-119151821D01*
X173194214Y-119131271D01*
X173188320Y-119129235D01*
X173177380Y-119144023D01*
X173164808Y-119176918D01*
X173156745Y-119206676D01*
X173146626Y-119250684D01*
X173132722Y-119311557D01*
X173117141Y-119380051D01*
X173106634Y-119426396D01*
X173068247Y-119595631D01*
X173029434Y-119766113D01*
X172992553Y-119927492D01*
X172970892Y-120021917D01*
X172953132Y-120099509D01*
X172932833Y-120188665D01*
X172913305Y-120274832D01*
X172905452Y-120309641D01*
X172887120Y-120390695D01*
X172866195Y-120482678D01*
X172846125Y-120570445D01*
X172838400Y-120604057D01*
X172804145Y-120753159D01*
X172774893Y-120881332D01*
X172749486Y-120993693D01*
X172726766Y-121095359D01*
X172706544Y-121187038D01*
X172692452Y-121249951D01*
X172679636Y-121304665D01*
X172669569Y-121345045D01*
X172663966Y-121364356D01*
X172660233Y-121369680D01*
X172651964Y-121374100D01*
X172636870Y-121377700D01*
X172612663Y-121380563D01*
X172577056Y-121382771D01*
X172527759Y-121384408D01*
X172462485Y-121385557D01*
X172378946Y-121386300D01*
X172274854Y-121386721D01*
X172147921Y-121386903D01*
X172041928Y-121386933D01*
X171884508Y-121386643D01*
X171748470Y-121385786D01*
X171634710Y-121384380D01*
X171544123Y-121382446D01*
X171477605Y-121380002D01*
X171436049Y-121377067D01*
X171420352Y-121373661D01*
X171420333Y-121373631D01*
X171414834Y-121355763D01*
X171406147Y-121317364D01*
X171395520Y-121264296D01*
X171385478Y-121209695D01*
X171369853Y-121121515D01*
X171350022Y-121009920D01*
X171326508Y-120877836D01*
X171299831Y-120728191D01*
X171270515Y-120563914D01*
X171239082Y-120387933D01*
X171206053Y-120203175D01*
X171192781Y-120128978D01*
X171154667Y-119915757D01*
X171119283Y-119717464D01*
X171087306Y-119537889D01*
X171059411Y-119380827D01*
X171059186Y-119379557D01*
X171043878Y-119293427D01*
X171026065Y-119193515D01*
X171007988Y-119092381D01*
X170992295Y-119004847D01*
X170975725Y-118912504D01*
X170956862Y-118807214D01*
X170938104Y-118702371D01*
X170922809Y-118616754D01*
X170909766Y-118543711D01*
X170897717Y-118476331D01*
X170887773Y-118420813D01*
X170881043Y-118383353D01*
X170879691Y-118375869D01*
X170871199Y-118329030D01*
X170734229Y-118325216D01*
X170597259Y-118321403D01*
X170597259Y-117927087D01*
X170597259Y-117532771D01*
X171400210Y-117532771D01*
X172203160Y-117532771D01*
X172203160Y-117927555D01*
X172203160Y-118322339D01*
X172055953Y-118322339D01*
X171908745Y-118322339D01*
X171908823Y-118365832D01*
X171911150Y-118403400D01*
X171917057Y-118453951D01*
X171922483Y-118489620D01*
X171928269Y-118524847D01*
X171935988Y-118573681D01*
X171945924Y-118637986D01*
X171958359Y-118719629D01*
X171973576Y-118820474D01*
X171991857Y-118942388D01*
X172013486Y-119087236D01*
X172036092Y-119239041D01*
X172059629Y-119397198D01*
X172079640Y-119531508D01*
X172096520Y-119644601D01*
X172110666Y-119739105D01*
X172122472Y-119817652D01*
X172132334Y-119882869D01*
X172140648Y-119937386D01*
X172147809Y-119983833D01*
X172154213Y-120024839D01*
X172155860Y-120035300D01*
X172164522Y-120091043D01*
X172171356Y-120136612D01*
X172175428Y-120165689D01*
X172176155Y-120172471D01*
X172186493Y-120182395D01*
X172188268Y-120182508D01*
X172195843Y-120172103D01*
X172206853Y-120140178D01*
X172221577Y-120085663D01*
X172240291Y-120007489D01*
X172263274Y-119904586D01*
X172276939Y-119841254D01*
X172292338Y-119769513D01*
X172312045Y-119678148D01*
X172334650Y-119573677D01*
X172358741Y-119462623D01*
X172382904Y-119351506D01*
X172397207Y-119285880D01*
X172413090Y-119212976D01*
X172431965Y-119126197D01*
X172451160Y-119037824D01*
X172464119Y-118978082D01*
X172481811Y-118896539D01*
X172501178Y-118807409D01*
X172519549Y-118722975D01*
X172531032Y-118670284D01*
X172546915Y-118597381D01*
X172565790Y-118510601D01*
X172584985Y-118422229D01*
X172597944Y-118362486D01*
X172615636Y-118280943D01*
X172635003Y-118191813D01*
X172653374Y-118107380D01*
X172664857Y-118054689D01*
X172681037Y-117980299D01*
X172700013Y-117892706D01*
X172718978Y-117804881D01*
X172730021Y-117753582D01*
X172744154Y-117688597D01*
X172757015Y-117630895D01*
X172767170Y-117586812D01*
X172773130Y-117562882D01*
X172781730Y-117532771D01*
X173180855Y-117532771D01*
X173300422Y-117533209D01*
X173401654Y-117534485D01*
X173482795Y-117536542D01*
X173542086Y-117539324D01*
X173577770Y-117542773D01*
X173588122Y-117545947D01*
X173592027Y-117555883D01*
X173598359Y-117577833D01*
X173607617Y-117613874D01*
X173620298Y-117666082D01*
X173636899Y-117736534D01*
X173657916Y-117827307D01*
X173683849Y-117940476D01*
X173708346Y-118047998D01*
X173724939Y-118120370D01*
X173744708Y-118205700D01*
X173764614Y-118290912D01*
X173775167Y-118335721D01*
X173793962Y-118415916D01*
X173814592Y-118505049D01*
X173833914Y-118589499D01*
X173843097Y-118630137D01*
X173861765Y-118712565D01*
X173885000Y-118814041D01*
X173911182Y-118927572D01*
X173938687Y-119046167D01*
X173965893Y-119162834D01*
X173991179Y-119270580D01*
X174012922Y-119362414D01*
X174015415Y-119372866D01*
X174038349Y-119469691D01*
X174065826Y-119586983D01*
X174096535Y-119719089D01*
X174129166Y-119860360D01*
X174162408Y-120005145D01*
X174183823Y-120098908D01*
X174194607Y-120139345D01*
X174205111Y-120167757D01*
X174210454Y-120175765D01*
X174216530Y-120176279D01*
X174222291Y-120168117D01*
X174228217Y-120148578D01*
X174234788Y-120114962D01*
X174242484Y-120064567D01*
X174251786Y-119994692D01*
X174263173Y-119902637D01*
X174271780Y-119830811D01*
X174293855Y-119645105D01*
X174313124Y-119482880D01*
X174329952Y-119341043D01*
X174344705Y-119216498D01*
X174357749Y-119106150D01*
X174369449Y-119006906D01*
X174380171Y-118915670D01*
X174390281Y-118829348D01*
X174400144Y-118744845D01*
X174403760Y-118713794D01*
X174414048Y-118626550D01*
X174423928Y-118544823D01*
X174432774Y-118473647D01*
X174439958Y-118418053D01*
X174444852Y-118383074D01*
X174445465Y-118379215D01*
X174454843Y-118322339D01*
X174312871Y-118322339D01*
X174249767Y-118322044D01*
X174208435Y-118320486D01*
X174183882Y-118316660D01*
X174171114Y-118309559D01*
X174165139Y-118298176D01*
X174163541Y-118292228D01*
X174161720Y-118271182D01*
X174160342Y-118227214D01*
X174159442Y-118164166D01*
X174159054Y-118085879D01*
X174159215Y-117996194D01*
X174159940Y-117900790D01*
X174163698Y-117539462D01*
X174956611Y-117536010D01*
X175749525Y-117532559D01*
X175749525Y-117927449D01*
G37*
%TD.AperFunction*%
%TA.AperFunction,EtchedComponent*%
G36*
X156407560Y-117706896D02*
G01*
X156479160Y-117752250D01*
X156520020Y-117811674D01*
X156558573Y-117905655D01*
X156569765Y-117944506D01*
X156589388Y-118050378D01*
X156581322Y-118128312D01*
X156556439Y-118187009D01*
X156486403Y-118283143D01*
X156390571Y-118334933D01*
X156252304Y-118351127D01*
X156244110Y-118351159D01*
X156146599Y-118341510D01*
X156068508Y-118303417D01*
X155992514Y-118235916D01*
X155922251Y-118157592D01*
X155893486Y-118095971D01*
X155895914Y-118027733D01*
X155897305Y-118020497D01*
X155950933Y-117883187D01*
X156042429Y-117776876D01*
X156158136Y-117707860D01*
X156284398Y-117682435D01*
X156407560Y-117706896D01*
G37*
%TD.AperFunction*%
%TA.AperFunction,EtchedComponent*%
G36*
X156411843Y-118808654D02*
G01*
X156492100Y-118826057D01*
X156518040Y-118839962D01*
X156529405Y-118874062D01*
X156539063Y-118954148D01*
X156547149Y-119083660D01*
X156553801Y-119266036D01*
X156559156Y-119504717D01*
X156563349Y-119803142D01*
X156565551Y-120034935D01*
X156568296Y-120355839D01*
X156569922Y-120617334D01*
X156569075Y-120825474D01*
X156564402Y-120986314D01*
X156554552Y-121105907D01*
X156538172Y-121190309D01*
X156513908Y-121245573D01*
X156480409Y-121277753D01*
X156436321Y-121292905D01*
X156380293Y-121297083D01*
X156310972Y-121296340D01*
X156283809Y-121296040D01*
X156168550Y-121289184D01*
X156072132Y-121272647D01*
X156032474Y-121258481D01*
X155977296Y-121226850D01*
X155957471Y-121214478D01*
X155954674Y-121181191D01*
X155951140Y-121090159D01*
X155947061Y-120949094D01*
X155942627Y-120765708D01*
X155938030Y-120547715D01*
X155933462Y-120302826D01*
X155930568Y-120130967D01*
X155913205Y-119054896D01*
X156023097Y-118928375D01*
X156094252Y-118853302D01*
X156156426Y-118815800D01*
X156238411Y-118803012D01*
X156306442Y-118801853D01*
X156411843Y-118808654D01*
G37*
%TD.AperFunction*%
%TA.AperFunction,EtchedComponent*%
G36*
X138100662Y-118723979D02*
G01*
X138336926Y-118767518D01*
X138513464Y-118835991D01*
X138631380Y-118930152D01*
X138691783Y-119050750D01*
X138700902Y-119131720D01*
X138694944Y-119201412D01*
X138670279Y-119248038D01*
X138616721Y-119275193D01*
X138524083Y-119286470D01*
X138382180Y-119285464D01*
X138278102Y-119280911D01*
X138123696Y-119276229D01*
X137984571Y-119277462D01*
X137879470Y-119284161D01*
X137837477Y-119291465D01*
X137759806Y-119336260D01*
X137674836Y-119417816D01*
X137641815Y-119459369D01*
X137540377Y-119599401D01*
X137523281Y-120423669D01*
X137506185Y-121247938D01*
X137277061Y-121255845D01*
X137154720Y-121255656D01*
X137054168Y-121247560D01*
X136997160Y-121233310D01*
X136997138Y-121233297D01*
X136981602Y-121216677D01*
X136969572Y-121182813D01*
X136960644Y-121124357D01*
X136954413Y-121033963D01*
X136950475Y-120904284D01*
X136948425Y-120727974D01*
X136947858Y-120497686D01*
X136948040Y-120341626D01*
X136948747Y-120081236D01*
X136950174Y-119877483D01*
X136953010Y-119721541D01*
X136957946Y-119604581D01*
X136965670Y-119517779D01*
X136976871Y-119452306D01*
X136992240Y-119399336D01*
X137012466Y-119350042D01*
X137028083Y-119316752D01*
X137098849Y-119195235D01*
X137191307Y-119069083D01*
X137240841Y-119012555D01*
X137381934Y-118902371D01*
X137565621Y-118812081D01*
X137770260Y-118748947D01*
X137974210Y-118720233D01*
X138100662Y-118723979D01*
G37*
%TD.AperFunction*%
%TA.AperFunction,EtchedComponent*%
G36*
X141978637Y-118140725D02*
G01*
X142025869Y-118158828D01*
X142074404Y-118186068D01*
X142104442Y-118221390D01*
X142122124Y-118280971D01*
X142133591Y-118380989D01*
X142139385Y-118457834D01*
X142152981Y-118584145D01*
X142172514Y-118686957D01*
X142194149Y-118747004D01*
X142197880Y-118751694D01*
X142250040Y-118771937D01*
X142359619Y-118790372D01*
X142518576Y-118805872D01*
X142638134Y-118813498D01*
X142792266Y-118821953D01*
X142920481Y-118829445D01*
X143009849Y-118835186D01*
X143047443Y-118838387D01*
X143047739Y-118838469D01*
X143069822Y-118871523D01*
X143099996Y-118942884D01*
X143129286Y-119027658D01*
X143148716Y-119100952D01*
X143151947Y-119127492D01*
X143146225Y-119187362D01*
X143123813Y-119230264D01*
X143075052Y-119259638D01*
X142990283Y-119278920D01*
X142859844Y-119291551D01*
X142674078Y-119300967D01*
X142663343Y-119301407D01*
X142453019Y-119313313D01*
X142303045Y-119329291D01*
X142215431Y-119349089D01*
X142195654Y-119360325D01*
X142179112Y-119397730D01*
X142167128Y-119476267D01*
X142159268Y-119602319D01*
X142155096Y-119782266D01*
X142154123Y-119969990D01*
X142154123Y-120538124D01*
X142255503Y-120663907D01*
X142358053Y-120763797D01*
X142475659Y-120818845D01*
X142621790Y-120832516D01*
X142809916Y-120808275D01*
X142813747Y-120807518D01*
X143030441Y-120764446D01*
X143137177Y-120891581D01*
X143199111Y-120969811D01*
X143223265Y-121021783D01*
X143215893Y-121069677D01*
X143198034Y-121107435D01*
X143156064Y-121162676D01*
X143085538Y-121206781D01*
X142970438Y-121248958D01*
X142931361Y-121260706D01*
X142701698Y-121318567D01*
X142508526Y-121343763D01*
X142331989Y-121336952D01*
X142152230Y-121298796D01*
X142115329Y-121287828D01*
X141979043Y-121240439D01*
X141885754Y-121191587D01*
X141813991Y-121128450D01*
X141779087Y-121087029D01*
X141715381Y-120993463D01*
X141671010Y-120904915D01*
X141661687Y-120874272D01*
X141645734Y-120798155D01*
X141620595Y-120684823D01*
X141595898Y-120576932D01*
X141580976Y-120499337D01*
X141569556Y-120405421D01*
X141561365Y-120287106D01*
X141556131Y-120136309D01*
X141553584Y-119944952D01*
X141553450Y-119704954D01*
X141555459Y-119408235D01*
X141555700Y-119382216D01*
X141558566Y-119101415D01*
X141561648Y-118878331D01*
X141565491Y-118705217D01*
X141570641Y-118574326D01*
X141577643Y-118477912D01*
X141587042Y-118408229D01*
X141599386Y-118357528D01*
X141615219Y-118318065D01*
X141632937Y-118285695D01*
X141726998Y-118182840D01*
X141847386Y-118132852D01*
X141978637Y-118140725D01*
G37*
%TD.AperFunction*%
%TA.AperFunction,EtchedComponent*%
G36*
X158292742Y-118716769D02*
G01*
X158480070Y-118749220D01*
X158660516Y-118797396D01*
X158817359Y-118858686D01*
X158895345Y-118902081D01*
X158979845Y-118955278D01*
X159043954Y-118992994D01*
X159091856Y-119034189D01*
X159165901Y-119114420D01*
X159253682Y-119219821D01*
X159299900Y-119279009D01*
X159392650Y-119404696D01*
X159452500Y-119500745D01*
X159489014Y-119587341D01*
X159511760Y-119684667D01*
X159521320Y-119746198D01*
X159534971Y-119950251D01*
X159524421Y-120170170D01*
X159492481Y-120382990D01*
X159441961Y-120565748D01*
X159412505Y-120634917D01*
X159326497Y-120771838D01*
X159204703Y-120920908D01*
X159067061Y-121059918D01*
X158937765Y-121163797D01*
X158828157Y-121220114D01*
X158674231Y-121276082D01*
X158496878Y-121325618D01*
X158316993Y-121362639D01*
X158203477Y-121377599D01*
X158047095Y-121377071D01*
X157869344Y-121344763D01*
X157782494Y-121320899D01*
X157496852Y-121214407D01*
X157264866Y-121076875D01*
X157081126Y-120902300D01*
X156940220Y-120684682D01*
X156836738Y-120418017D01*
X156787253Y-120216881D01*
X156771358Y-120118426D01*
X156771178Y-120111533D01*
X157409397Y-120111533D01*
X157425430Y-120217046D01*
X157444973Y-120254099D01*
X157478436Y-120314151D01*
X157513912Y-120402928D01*
X157518439Y-120416573D01*
X157575559Y-120515054D01*
X157676646Y-120618787D01*
X157803714Y-120711880D01*
X157919933Y-120771264D01*
X158038005Y-120797498D01*
X158185750Y-120801844D01*
X158331045Y-120784018D01*
X158366228Y-120775212D01*
X158495112Y-120715549D01*
X158625475Y-120618251D01*
X158738222Y-120501072D01*
X158814259Y-120381767D01*
X158827697Y-120346112D01*
X158860615Y-120165849D01*
X158865371Y-119961699D01*
X158841672Y-119769016D01*
X158832807Y-119732404D01*
X158766191Y-119593912D01*
X158652688Y-119464330D01*
X158510535Y-119359232D01*
X158357968Y-119294190D01*
X158307833Y-119284087D01*
X158075139Y-119279571D01*
X157871540Y-119333656D01*
X157697897Y-119445902D01*
X157555070Y-119615866D01*
X157509798Y-119694073D01*
X157453780Y-119831050D01*
X157419580Y-119976536D01*
X157409397Y-120111533D01*
X156771178Y-120111533D01*
X156768960Y-120026846D01*
X156781528Y-119920620D01*
X156810536Y-119778225D01*
X156820123Y-119736210D01*
X156864234Y-119561613D01*
X156909694Y-119431154D01*
X156967227Y-119324181D01*
X157047552Y-119220041D01*
X157139902Y-119120248D01*
X157239545Y-119032091D01*
X157363764Y-118943508D01*
X157495088Y-118864760D01*
X157616045Y-118806107D01*
X157709163Y-118777810D01*
X157724929Y-118776675D01*
X157804850Y-118761287D01*
X157856687Y-118739881D01*
X157964329Y-118709488D01*
X158115255Y-118702655D01*
X158292742Y-118716769D01*
G37*
%TD.AperFunction*%
%TA.AperFunction,EtchedComponent*%
G36*
X144668223Y-118719852D02*
G01*
X144800590Y-118744861D01*
X144931259Y-118781336D01*
X145216383Y-118889185D01*
X145449053Y-119028822D01*
X145637044Y-119206379D01*
X145788128Y-119427988D01*
X145814619Y-119478173D01*
X145855869Y-119566265D01*
X145882173Y-119646487D01*
X145896858Y-119738010D01*
X145903250Y-119860005D01*
X145904640Y-119996865D01*
X145902359Y-120196298D01*
X145893063Y-120344063D01*
X145874499Y-120453781D01*
X145844412Y-120539074D01*
X145803258Y-120609664D01*
X145753509Y-120695296D01*
X145724361Y-120763989D01*
X145690085Y-120818436D01*
X145618702Y-120899506D01*
X145523709Y-120992291D01*
X145491842Y-121020869D01*
X145384197Y-121111479D01*
X145294053Y-121173381D01*
X145198759Y-121218145D01*
X145075661Y-121257339D01*
X144978154Y-121283222D01*
X144795564Y-121326635D01*
X144650858Y-121349298D01*
X144520199Y-121351190D01*
X144379748Y-121332291D01*
X144205669Y-121292580D01*
X144166260Y-121282536D01*
X144022558Y-121242812D01*
X143915336Y-121202737D01*
X143823748Y-121150559D01*
X143726949Y-121074524D01*
X143611421Y-120969716D01*
X143495331Y-120832220D01*
X143387927Y-120652616D01*
X143298249Y-120451798D01*
X143235333Y-120250661D01*
X143208218Y-120070100D01*
X143207916Y-120036855D01*
X143213888Y-119985686D01*
X143805628Y-119985686D01*
X143816343Y-120105389D01*
X143842516Y-120232797D01*
X143882465Y-120349758D01*
X143884818Y-120355058D01*
X144005570Y-120554899D01*
X144161522Y-120704007D01*
X144345587Y-120798855D01*
X144550682Y-120835920D01*
X144769721Y-120811676D01*
X144791185Y-120806004D01*
X144940782Y-120734935D01*
X145083056Y-120615498D01*
X145205568Y-120464081D01*
X145295878Y-120297071D01*
X145341546Y-120130856D01*
X145344689Y-120076837D01*
X145317269Y-119876637D01*
X145244342Y-119680542D01*
X145135436Y-119505530D01*
X145000079Y-119368580D01*
X144917465Y-119315455D01*
X144821605Y-119286821D01*
X144685343Y-119271036D01*
X144532324Y-119268129D01*
X144386195Y-119278128D01*
X144270602Y-119301061D01*
X144236700Y-119314633D01*
X144135724Y-119385893D01*
X144033347Y-119488250D01*
X143947186Y-119601027D01*
X143894853Y-119703547D01*
X143889808Y-119721847D01*
X143865421Y-119798481D01*
X143837710Y-119841759D01*
X143837301Y-119842020D01*
X143812054Y-119891845D01*
X143805628Y-119985686D01*
X143213888Y-119985686D01*
X143217225Y-119957098D01*
X143239739Y-119838670D01*
X143270781Y-119705876D01*
X143274062Y-119693170D01*
X143365715Y-119433320D01*
X143495924Y-119219096D01*
X143669895Y-119045585D01*
X143892831Y-118907876D01*
X144169937Y-118801059D01*
X144241151Y-118780543D01*
X144412701Y-118737720D01*
X144546992Y-118717480D01*
X144668223Y-118719852D01*
G37*
%TD.AperFunction*%
%TA.AperFunction,EtchedComponent*%
G36*
X135550166Y-118728902D02*
G01*
X135670996Y-118757631D01*
X135752938Y-118780062D01*
X136029085Y-118878905D01*
X136253137Y-119010401D01*
X136433143Y-119181353D01*
X136577154Y-119398570D01*
X136639398Y-119529510D01*
X136676159Y-119626646D01*
X136699135Y-119722270D01*
X136711232Y-119836399D01*
X136715360Y-119989049D01*
X136715464Y-120053221D01*
X136713718Y-120212151D01*
X136706474Y-120327005D01*
X136689476Y-120419159D01*
X136658467Y-120509988D01*
X136609191Y-120620868D01*
X136597451Y-120645883D01*
X136457458Y-120883993D01*
X136286174Y-121066342D01*
X136078941Y-121196970D01*
X135880379Y-121267942D01*
X135596019Y-121319939D01*
X135329843Y-121317839D01*
X135064966Y-121260068D01*
X134838531Y-121170807D01*
X134691237Y-121102681D01*
X134651798Y-121191675D01*
X134634299Y-121266508D01*
X134621142Y-121396736D01*
X134613094Y-121572387D01*
X134610883Y-121724188D01*
X134607241Y-121939783D01*
X134597876Y-122091736D01*
X134582655Y-122181631D01*
X134570128Y-122206984D01*
X134515357Y-122230781D01*
X134424165Y-122243773D01*
X134318455Y-122246141D01*
X134220131Y-122238065D01*
X134151096Y-122219725D01*
X134132649Y-122203380D01*
X134129232Y-122162078D01*
X134126526Y-122062655D01*
X134124569Y-121912453D01*
X134123403Y-121718812D01*
X134123066Y-121489072D01*
X134123600Y-121230573D01*
X134125043Y-120950656D01*
X134125494Y-120885918D01*
X134131727Y-120031603D01*
X134631228Y-120031603D01*
X134659512Y-120228248D01*
X134737603Y-120418222D01*
X134855361Y-120586998D01*
X135002643Y-120720045D01*
X135169309Y-120802834D01*
X135169586Y-120802918D01*
X135357655Y-120829460D01*
X135555797Y-120805507D01*
X135737715Y-120734995D01*
X135774914Y-120712328D01*
X135919575Y-120588877D01*
X136038363Y-120434828D01*
X136116164Y-120271494D01*
X136132430Y-120208286D01*
X136141461Y-120102492D01*
X136138854Y-119971383D01*
X136132641Y-119904185D01*
X136112879Y-119796381D01*
X136076976Y-119706200D01*
X136013329Y-119609926D01*
X135950163Y-119531136D01*
X135832682Y-119405043D01*
X135719735Y-119324489D01*
X135592720Y-119282031D01*
X135433034Y-119270226D01*
X135309998Y-119275002D01*
X135178815Y-119286466D01*
X135089818Y-119305672D01*
X135019729Y-119340652D01*
X134945271Y-119399436D01*
X134942597Y-119401763D01*
X134825844Y-119531971D01*
X134727479Y-119694226D01*
X134658855Y-119865562D01*
X134631325Y-120023016D01*
X134631228Y-120031603D01*
X134131727Y-120031603D01*
X134134793Y-119611340D01*
X134240690Y-119396985D01*
X134368437Y-119187438D01*
X134525926Y-119023830D01*
X134722603Y-118899136D01*
X134967916Y-118806335D01*
X135072128Y-118778859D01*
X135233452Y-118741714D01*
X135352698Y-118720981D01*
X135451168Y-118716698D01*
X135550166Y-118728902D01*
G37*
%TD.AperFunction*%
%TA.AperFunction,EtchedComponent*%
G36*
X147578851Y-118729490D02*
G01*
X147749605Y-118760987D01*
X147952800Y-118821293D01*
X148111158Y-118899240D01*
X148220749Y-118990080D01*
X148277641Y-119089067D01*
X148277905Y-119191453D01*
X148217610Y-119292491D01*
X148202405Y-119307904D01*
X148143082Y-119360260D01*
X148094427Y-119379139D01*
X148029102Y-119369283D01*
X147963589Y-119349347D01*
X147751014Y-119282699D01*
X147588671Y-119234518D01*
X147464864Y-119202042D01*
X147367899Y-119182513D01*
X147286081Y-119173169D01*
X147208903Y-119171238D01*
X147021074Y-119188936D01*
X146869563Y-119234651D01*
X146760681Y-119303443D01*
X146700741Y-119390369D01*
X146696055Y-119490488D01*
X146721312Y-119552959D01*
X146770923Y-119610112D01*
X146853494Y-119657632D01*
X146976659Y-119697854D01*
X147148052Y-119733114D01*
X147375307Y-119765746D01*
X147443883Y-119774018D01*
X147733822Y-119823025D01*
X147973920Y-119895573D01*
X148159839Y-119989970D01*
X148286132Y-120103100D01*
X148339518Y-120203184D01*
X148382719Y-120342022D01*
X148409850Y-120493046D01*
X148415027Y-120629690D01*
X148410973Y-120666746D01*
X148359201Y-120837439D01*
X148267793Y-121003347D01*
X148153069Y-121135356D01*
X148143935Y-121143115D01*
X148024660Y-121214507D01*
X147857714Y-121277956D01*
X147660751Y-121329791D01*
X147451425Y-121366345D01*
X147247389Y-121383946D01*
X147066296Y-121378927D01*
X147031185Y-121374407D01*
X146860499Y-121344560D01*
X146678550Y-121306258D01*
X146502248Y-121263713D01*
X146348501Y-121221137D01*
X146234218Y-121182744D01*
X146197869Y-121166796D01*
X146099053Y-121105174D01*
X146055256Y-121039155D01*
X146057799Y-120949241D01*
X146073972Y-120888458D01*
X146125134Y-120791406D01*
X146201832Y-120720206D01*
X146286611Y-120686383D01*
X146359593Y-120699898D01*
X146445787Y-120737803D01*
X146578758Y-120778084D01*
X146740131Y-120816775D01*
X146911525Y-120849910D01*
X147074564Y-120873524D01*
X147210869Y-120883650D01*
X147211211Y-120883656D01*
X147417686Y-120870910D01*
X147569461Y-120824097D01*
X147668187Y-120742467D01*
X147708337Y-120658218D01*
X147718715Y-120556553D01*
X147685331Y-120473851D01*
X147603985Y-120407865D01*
X147470478Y-120356352D01*
X147280609Y-120317065D01*
X147030180Y-120287759D01*
X147012511Y-120286216D01*
X146739639Y-120246775D01*
X146510596Y-120175731D01*
X146308752Y-120066585D01*
X146163788Y-119954572D01*
X146107531Y-119903123D01*
X146073650Y-119857436D01*
X146056572Y-119799370D01*
X146050722Y-119710783D01*
X146050469Y-119585759D01*
X146061928Y-119384681D01*
X146098997Y-119229173D01*
X146168899Y-119101980D01*
X146278853Y-118985844D01*
X146313927Y-118956121D01*
X146497635Y-118843274D01*
X146727597Y-118762609D01*
X146992198Y-118715704D01*
X147279821Y-118704138D01*
X147578851Y-118729490D01*
G37*
%TD.AperFunction*%
%TA.AperFunction,EtchedComponent*%
G36*
X140065877Y-118720458D02*
G01*
X140185648Y-118743849D01*
X140342313Y-118787725D01*
X140368542Y-118795600D01*
X140643787Y-118899510D01*
X140865936Y-119032056D01*
X141043603Y-119200015D01*
X141185399Y-119410166D01*
X141210289Y-119458011D01*
X141248611Y-119538729D01*
X141274614Y-119609777D01*
X141290653Y-119686764D01*
X141299086Y-119785294D01*
X141302269Y-119920976D01*
X141302614Y-120069587D01*
X141301779Y-120244885D01*
X141298235Y-120368545D01*
X141289733Y-120454395D01*
X141274019Y-120516259D01*
X141248844Y-120567962D01*
X141212601Y-120622415D01*
X141159405Y-120705563D01*
X141127329Y-120770181D01*
X141123067Y-120787837D01*
X141097517Y-120837595D01*
X141028090Y-120913088D01*
X140925618Y-121004102D01*
X140800934Y-121100425D01*
X140763015Y-121127304D01*
X140641407Y-121193739D01*
X140486099Y-121252902D01*
X140314140Y-121301075D01*
X140142578Y-121334540D01*
X139988464Y-121349578D01*
X139868845Y-121342470D01*
X139830154Y-121330765D01*
X139744500Y-121306628D01*
X139680618Y-121299336D01*
X139467588Y-121260949D01*
X139255857Y-121157388D01*
X139069136Y-121011099D01*
X138975914Y-120921289D01*
X138904946Y-120845647D01*
X138867593Y-120796571D01*
X138864561Y-120787852D01*
X138846491Y-120741770D01*
X138801325Y-120668503D01*
X138782732Y-120642396D01*
X138730071Y-120551516D01*
X138701884Y-120464937D01*
X138700425Y-120447828D01*
X138689320Y-120365281D01*
X138662016Y-120257879D01*
X138649261Y-120218600D01*
X138626339Y-120145290D01*
X138616696Y-120080953D01*
X138619282Y-120039196D01*
X139224613Y-120039196D01*
X139253193Y-120249890D01*
X139332796Y-120438512D01*
X139454220Y-120598437D01*
X139608263Y-120723040D01*
X139785720Y-120805697D01*
X139977389Y-120839782D01*
X140174067Y-120818669D01*
X140264904Y-120788092D01*
X140427320Y-120688298D01*
X140569645Y-120540983D01*
X140680308Y-120363533D01*
X140747734Y-120173336D01*
X140763015Y-120039743D01*
X140735692Y-119862921D01*
X140659601Y-119676708D01*
X140547218Y-119507297D01*
X140446837Y-119396890D01*
X140350329Y-119325267D01*
X140239928Y-119285544D01*
X140097866Y-119270836D01*
X139941897Y-119272743D01*
X139802868Y-119279207D01*
X139710491Y-119289621D01*
X139645999Y-119310281D01*
X139590622Y-119347483D01*
X139525592Y-119407520D01*
X139517912Y-119414948D01*
X139356599Y-119608456D01*
X139258621Y-119814969D01*
X139224637Y-120033085D01*
X139224613Y-120039196D01*
X138619282Y-120039196D01*
X138621278Y-120006975D01*
X138641029Y-119904745D01*
X138671686Y-119776719D01*
X138728809Y-119563561D01*
X138786744Y-119400269D01*
X138855284Y-119271865D01*
X138944220Y-119163368D01*
X139063341Y-119059800D01*
X139208247Y-118955831D01*
X139311430Y-118894141D01*
X139430054Y-118842960D01*
X139582750Y-118795095D01*
X139710053Y-118762121D01*
X139849867Y-118730701D01*
X139961213Y-118716444D01*
X140065877Y-118720458D01*
G37*
%TD.AperFunction*%
%TA.AperFunction,EtchedComponent*%
G36*
X155494680Y-117644649D02*
G01*
X155599965Y-117667376D01*
X155674761Y-117700036D01*
X155687891Y-117711805D01*
X155698111Y-117746356D01*
X155706108Y-117824990D01*
X155711956Y-117951230D01*
X155715728Y-118128596D01*
X155717495Y-118360610D01*
X155717331Y-118650794D01*
X155715310Y-119002667D01*
X155715116Y-119027662D01*
X155705154Y-120298711D01*
X155597318Y-120566360D01*
X155531422Y-120716526D01*
X155464600Y-120829951D01*
X155378785Y-120933077D01*
X155281454Y-121028608D01*
X155158863Y-121136357D01*
X155053790Y-121208506D01*
X154941899Y-121259794D01*
X154849214Y-121290359D01*
X154597743Y-121350652D01*
X154365648Y-121377172D01*
X154168567Y-121368353D01*
X154134020Y-121362061D01*
X153901844Y-121305295D01*
X153720472Y-121244451D01*
X153596078Y-121181741D01*
X153565501Y-121158305D01*
X153385697Y-120988287D01*
X153252747Y-120840017D01*
X153157502Y-120701340D01*
X153090814Y-120560101D01*
X153070071Y-120500121D01*
X153031642Y-120393101D01*
X152989949Y-120297078D01*
X152985021Y-120287364D01*
X152942908Y-120164805D01*
X152938996Y-120072679D01*
X153630639Y-120072679D01*
X153668771Y-120278356D01*
X153695744Y-120348935D01*
X153787833Y-120499627D01*
X153919482Y-120634981D01*
X154069913Y-120735877D01*
X154152988Y-120769712D01*
X154344425Y-120795954D01*
X154544383Y-120768185D01*
X154720470Y-120694822D01*
X154881154Y-120566710D01*
X154993604Y-120406646D01*
X155059101Y-120225387D01*
X155078925Y-120033690D01*
X155054359Y-119842312D01*
X154986683Y-119662009D01*
X154877178Y-119503538D01*
X154727125Y-119377655D01*
X154554340Y-119299866D01*
X154447125Y-119278048D01*
X154329502Y-119279230D01*
X154211393Y-119296038D01*
X154086661Y-119323149D01*
X154001971Y-119359057D01*
X153932024Y-119416573D01*
X153896241Y-119455636D01*
X153743648Y-119664553D01*
X153655356Y-119869156D01*
X153630639Y-120072679D01*
X152938996Y-120072679D01*
X152936808Y-120021163D01*
X152968121Y-119849505D01*
X153038247Y-119642898D01*
X153148587Y-119394408D01*
X153177321Y-119335605D01*
X153245425Y-119226574D01*
X153340921Y-119109851D01*
X153450830Y-118997606D01*
X153562171Y-118902006D01*
X153661964Y-118835222D01*
X153737229Y-118809421D01*
X153738597Y-118809407D01*
X153802317Y-118796914D01*
X153892287Y-118765977D01*
X153914131Y-118756902D01*
X154059860Y-118718928D01*
X154239375Y-118708777D01*
X154433157Y-118723770D01*
X154621691Y-118761224D01*
X154785459Y-118818460D01*
X154904944Y-118892796D01*
X154905214Y-118893040D01*
X154968237Y-118933166D01*
X155024037Y-118921483D01*
X155027882Y-118919134D01*
X155049373Y-118897107D01*
X155065515Y-118855486D01*
X155077556Y-118784589D01*
X155086742Y-118674736D01*
X155094321Y-118516245D01*
X155099613Y-118362468D01*
X155109182Y-118132464D01*
X155123129Y-117959110D01*
X155143893Y-117833619D01*
X155173914Y-117747207D01*
X155215632Y-117691088D01*
X155271485Y-117656475D01*
X155298365Y-117646673D01*
X155385337Y-117636275D01*
X155494680Y-117644649D01*
G37*
%TD.AperFunction*%
%TA.AperFunction,EtchedComponent*%
G36*
X161044276Y-118722959D02*
G01*
X161285998Y-118754412D01*
X161492777Y-118802596D01*
X161654299Y-118865177D01*
X161751258Y-118930730D01*
X161824776Y-119038793D01*
X161844626Y-119158940D01*
X161810143Y-119272901D01*
X161765716Y-119328280D01*
X161689036Y-119400318D01*
X161462946Y-119330207D01*
X161332134Y-119287945D01*
X161210855Y-119245901D01*
X161129366Y-119214777D01*
X161040683Y-119191400D01*
X160915112Y-119175035D01*
X160791509Y-119169458D01*
X160650532Y-119174531D01*
X160546765Y-119193969D01*
X160452451Y-119234099D01*
X160414472Y-119255412D01*
X160328061Y-119310292D01*
X160286218Y-119355846D01*
X160275237Y-119412577D01*
X160277715Y-119459987D01*
X160290265Y-119533350D01*
X160323511Y-119583204D01*
X160393764Y-119628394D01*
X160445731Y-119654110D01*
X160569259Y-119699358D01*
X160737842Y-119736992D01*
X160960838Y-119769020D01*
X161005352Y-119774109D01*
X161232434Y-119804289D01*
X161400540Y-119838404D01*
X161516110Y-119877826D01*
X161534136Y-119886815D01*
X161619930Y-119928711D01*
X161683964Y-119952769D01*
X161697323Y-119955025D01*
X161736357Y-119978711D01*
X161798362Y-120039605D01*
X161845101Y-120094136D01*
X161899755Y-120166444D01*
X161933834Y-120230314D01*
X161953112Y-120305640D01*
X161963366Y-120412317D01*
X161968365Y-120518756D01*
X161967817Y-120702192D01*
X161944111Y-120841487D01*
X161889558Y-120956110D01*
X161796468Y-121065529D01*
X161727133Y-121129601D01*
X161600621Y-121210604D01*
X161426814Y-121280699D01*
X161223521Y-121335823D01*
X161008552Y-121371915D01*
X160799716Y-121384914D01*
X160647680Y-121375778D01*
X160574896Y-121363963D01*
X160456445Y-121342416D01*
X160310786Y-121314563D01*
X160202604Y-121293166D01*
X160033611Y-121256484D01*
X159913210Y-121222175D01*
X159825070Y-121184230D01*
X159752859Y-121136639D01*
X159732695Y-121120285D01*
X159609666Y-121016996D01*
X159659509Y-120897706D01*
X159715043Y-120803320D01*
X159785512Y-120729014D01*
X159795006Y-120722293D01*
X159855772Y-120688419D01*
X159908296Y-120684866D01*
X159983025Y-120711245D01*
X160002315Y-120719638D01*
X160090241Y-120751598D01*
X160219129Y-120790429D01*
X160365914Y-120829347D01*
X160418556Y-120842041D01*
X160666314Y-120884359D01*
X160881952Y-120889761D01*
X161060221Y-120859893D01*
X161195875Y-120796401D01*
X161283663Y-120700932D01*
X161318339Y-120575131D01*
X161318685Y-120559711D01*
X161290156Y-120493787D01*
X161216765Y-120425403D01*
X161116802Y-120369331D01*
X161058236Y-120349378D01*
X160977176Y-120333663D01*
X160850472Y-120315095D01*
X160697706Y-120296358D01*
X160585676Y-120284574D01*
X160297511Y-120240868D01*
X160069460Y-120171753D01*
X159901262Y-120077127D01*
X159810009Y-119983536D01*
X159753113Y-119920316D01*
X159702491Y-119890015D01*
X159697708Y-119889561D01*
X159658872Y-119859429D01*
X159633023Y-119777580D01*
X159622177Y-119656834D01*
X159628348Y-119510014D01*
X159632381Y-119473947D01*
X159654358Y-119328681D01*
X159683952Y-119224375D01*
X159731832Y-119136595D01*
X159808668Y-119040909D01*
X159833797Y-119012727D01*
X159983001Y-118883689D01*
X160167638Y-118791927D01*
X160394513Y-118735263D01*
X160670431Y-118711520D01*
X160777919Y-118710569D01*
X161044276Y-118722959D01*
G37*
%TD.AperFunction*%
%TA.AperFunction,EtchedComponent*%
G36*
X149075314Y-118123588D02*
G01*
X149155601Y-118158532D01*
X149195789Y-118230749D01*
X149207756Y-118351675D01*
X149207860Y-118369402D01*
X149219562Y-118528074D01*
X149251858Y-118655971D01*
X149300533Y-118738260D01*
X149316287Y-118750958D01*
X149364811Y-118762388D01*
X149461509Y-118771946D01*
X149589092Y-118778156D01*
X149649742Y-118779436D01*
X149831008Y-118784428D01*
X149959953Y-118796491D01*
X150049635Y-118819372D01*
X150113111Y-118856819D01*
X150163441Y-118912580D01*
X150175928Y-118930457D01*
X150244603Y-119032363D01*
X150385477Y-118920885D01*
X150481015Y-118856511D01*
X150571188Y-118813875D01*
X150611758Y-118804471D01*
X150750497Y-118804184D01*
X150861073Y-118818690D01*
X150925437Y-118845583D01*
X150926288Y-118846385D01*
X150936758Y-118887984D01*
X150947026Y-118987749D01*
X150956670Y-119138383D01*
X150965268Y-119332589D01*
X150972398Y-119563069D01*
X150975386Y-119694871D01*
X150991752Y-120511711D01*
X151119413Y-120625236D01*
X151268919Y-120733041D01*
X151425980Y-120789429D01*
X151610924Y-120800707D01*
X151671525Y-120796545D01*
X151792417Y-120780232D01*
X151876922Y-120749817D01*
X151954101Y-120692611D01*
X151992443Y-120656452D01*
X152055977Y-120585719D01*
X152104311Y-120507199D01*
X152139402Y-120411122D01*
X152163206Y-120287718D01*
X152177677Y-120127215D01*
X152184773Y-119919844D01*
X152186469Y-119687173D01*
X152189847Y-119418576D01*
X152201738Y-119208469D01*
X152224780Y-119050140D01*
X152261610Y-118936879D01*
X152314864Y-118861976D01*
X152387180Y-118818721D01*
X152481193Y-118800402D01*
X152535677Y-118798496D01*
X152644624Y-118807179D01*
X152714448Y-118839014D01*
X152748013Y-118873041D01*
X152768005Y-118903052D01*
X152783064Y-118943006D01*
X152793875Y-119001843D01*
X152801124Y-119088502D01*
X152805497Y-119211925D01*
X152807680Y-119381050D01*
X152808360Y-119604819D01*
X152808376Y-119659596D01*
X152807020Y-119944971D01*
X152802114Y-120174239D01*
X152792402Y-120356718D01*
X152776627Y-120501725D01*
X152753533Y-120618577D01*
X152721862Y-120716591D01*
X152680359Y-120805084D01*
X152645858Y-120864610D01*
X152528886Y-121024135D01*
X152392064Y-121145815D01*
X152221528Y-121238748D01*
X152003416Y-121312033D01*
X151939104Y-121328529D01*
X151749784Y-121367886D01*
X151583427Y-121383789D01*
X151419361Y-121375182D01*
X151236910Y-121341010D01*
X151020132Y-121281638D01*
X150854889Y-121203861D01*
X150690806Y-121076200D01*
X150543113Y-120912703D01*
X150433705Y-120740592D01*
X150401607Y-120675771D01*
X150377472Y-120615951D01*
X150359736Y-120550011D01*
X150346836Y-120466828D01*
X150337209Y-120355279D01*
X150329292Y-120204244D01*
X150321522Y-120002600D01*
X150318697Y-119922293D01*
X150310022Y-119716372D01*
X150299208Y-119525800D01*
X150287179Y-119363013D01*
X150274857Y-119240449D01*
X150263164Y-119170543D01*
X150262853Y-119169458D01*
X150240877Y-119099427D01*
X150230519Y-119088663D01*
X150226293Y-119133245D01*
X150225902Y-119143053D01*
X150211368Y-119217545D01*
X150168656Y-119270595D01*
X150089263Y-119305361D01*
X149964686Y-119325001D01*
X149786422Y-119332674D01*
X149714179Y-119333118D01*
X149544627Y-119333076D01*
X149419445Y-119338679D01*
X149331921Y-119358526D01*
X149275343Y-119401213D01*
X149242998Y-119475338D01*
X149228174Y-119589496D01*
X149224159Y-119752286D01*
X149224244Y-119960628D01*
X149224594Y-120159421D01*
X149226678Y-120304575D01*
X149232070Y-120407911D01*
X149242342Y-120481255D01*
X149259069Y-120536429D01*
X149283823Y-120585257D01*
X149313660Y-120632618D01*
X149390113Y-120725102D01*
X149482060Y-120780225D01*
X149602450Y-120801463D01*
X149764233Y-120792295D01*
X149857362Y-120778618D01*
X150074578Y-120742624D01*
X150199173Y-120864288D01*
X150274236Y-120945744D01*
X150305810Y-121007226D01*
X150303367Y-121067238D01*
X150303260Y-121067664D01*
X150282617Y-121132136D01*
X150250952Y-121181923D01*
X150198364Y-121221921D01*
X150114952Y-121257020D01*
X149990814Y-121292115D01*
X149816049Y-121332097D01*
X149731584Y-121350167D01*
X149601761Y-121376543D01*
X149509598Y-121388410D01*
X149429663Y-121384728D01*
X149336526Y-121364455D01*
X149212852Y-121328939D01*
X149093052Y-121289741D01*
X148989944Y-121249286D01*
X148933644Y-121220840D01*
X148832017Y-121124835D01*
X148740799Y-120986078D01*
X148673346Y-120827213D01*
X148651928Y-120743285D01*
X148643796Y-120667791D01*
X148636385Y-120536259D01*
X148629945Y-120358115D01*
X148624728Y-120142784D01*
X148620985Y-119899691D01*
X148618968Y-119638261D01*
X148618685Y-119497195D01*
X148619210Y-119160229D01*
X148621693Y-118882923D01*
X148627494Y-118659474D01*
X148637974Y-118484081D01*
X148654496Y-118350940D01*
X148678418Y-118254251D01*
X148711104Y-118188212D01*
X148753913Y-118147020D01*
X148808207Y-118124874D01*
X148875347Y-118115971D01*
X148943046Y-118114482D01*
X149075314Y-118123588D01*
G37*
%TD.AperFunction*%
%TD*%
D12*
%TO.P,D1,1,K_1*%
%TO.N,Net-(D1-K)*%
X187200000Y-78700000D03*
%TO.P,D1,2,A_2*%
%TO.N,Net-(D1-A)*%
X185150000Y-78700000D03*
%TD*%
D13*
%TO.P,U1,1,LA_1*%
%TO.N,Net-(U1-LA)*%
X105339100Y-120200028D03*
%TO.P,U1,2,VSS_2*%
%TO.N,Net-(D1-K)*%
X105339100Y-120850014D03*
%TO.P,U1,3,SCL_3*%
%TO.N,unconnected-(U1-SCL-Pad3)*%
X105339100Y-121500000D03*
%TO.P,U1,4,FD_4*%
%TO.N,unconnected-(U1-FD-Pad4)*%
X105339100Y-122149986D03*
%TO.P,U1,5,SDA_5*%
%TO.N,unconnected-(U1-SDA-Pad5)*%
X110000000Y-122149986D03*
%TO.P,U1,6,VCC_6*%
%TO.N,Net-(U1-VCC)*%
X110000000Y-121500000D03*
%TO.P,U1,7,VOUT_7*%
X110000000Y-120850014D03*
%TO.P,U1,8,LB_8*%
%TO.N,Net-(U1-LA)*%
X110000000Y-120200028D03*
%TD*%
D14*
%TO.P,C1,1*%
%TO.N,Net-(D1-K)*%
X114000000Y-122075000D03*
%TO.P,C1,2*%
%TO.N,Net-(U1-VCC)*%
X114000000Y-120000000D03*
%TD*%
D15*
%TO.P,R1,1*%
%TO.N,Net-(D1-A)*%
X118195000Y-119500000D03*
%TO.P,R1,2*%
%TO.N,Net-(U1-VCC)*%
X117000000Y-119500000D03*
%TD*%
D16*
%TO.P,L1,1,1_1*%
%TO.N,Net-(U1-LA)*%
X106500000Y-118500000D03*
%TO.P,L1,2,2_2*%
X107500000Y-118500000D03*
%TD*%
D17*
%TO.N,Net-(U1-LA)*%
X106500000Y-114300000D03*
%TD*%
%TO.N,*%
D18*
X170250000Y-102975000D02*
X149375000Y-102975000D01*
X176425000Y-111900000D02*
X175725000Y-111200000D01*
X173875000Y-111900000D02*
X173275000Y-111300000D01*
X144725000Y-102375000D02*
X148775000Y-102375000D01*
X174800000Y-107650000D02*
X172875000Y-107650000D01*
X174800000Y-107650000D02*
X175725000Y-108575000D01*
X171775000Y-106550000D02*
X171775000Y-104500000D01*
X174800000Y-107650000D02*
X174775000Y-107675000D01*
X173275000Y-111300000D02*
X149675000Y-111300000D01*
X149375000Y-102975000D02*
X148775000Y-102375000D01*
X172875000Y-107650000D02*
X171775000Y-106550000D01*
X175725000Y-108575000D02*
X175725000Y-111200000D01*
X171775000Y-104500000D02*
X170250000Y-102975000D01*
X174775000Y-107675000D02*
X170225000Y-107675000D01*
X148775000Y-102375000D02*
X148850000Y-102375000D01*
X178425000Y-112725000D02*
X178425000Y-114675000D01*
X170225000Y-107675000D02*
X169725000Y-107175000D01*
X177600000Y-111900000D02*
X178425000Y-112725000D01*
X177600000Y-111900000D02*
X173875000Y-111900000D01*
X176425000Y-111900000D02*
X177600000Y-111900000D01*
X169725000Y-107175000D02*
X149625000Y-107175000D01*
%TO.N,Net-(D1-K)*%
X187000000Y-124000000D02*
X188500000Y-122500000D01*
X186951685Y-123875000D02*
X186926686Y-123900000D01*
X114750000Y-124000000D02*
X113500000Y-124000000D01*
X103000000Y-123500000D02*
X103000000Y-121500000D01*
X103500000Y-124000000D02*
X103000000Y-123500000D01*
X103000000Y-121500000D02*
X103649986Y-120850014D01*
X103649986Y-120850014D02*
X105339100Y-120850014D01*
X187700000Y-78700000D02*
X187200000Y-78700000D01*
X187250000Y-123750000D02*
X187125000Y-123875000D01*
X114850000Y-123900000D02*
X114750000Y-124000000D01*
X188500000Y-122500000D02*
X188500000Y-79500000D01*
X113500000Y-124000000D02*
X113000000Y-124000000D01*
X187125000Y-123875000D02*
X186951685Y-123875000D01*
X186926686Y-123900000D02*
X114850000Y-123900000D01*
X188500000Y-79500000D02*
X187700000Y-78700000D01*
X113000000Y-124000000D02*
X103500000Y-124000000D01*
X114000000Y-122075000D02*
X114000000Y-123500000D01*
X114000000Y-123500000D02*
X113500000Y-124000000D01*
%TO.N,Net-(U1-VCC)*%
X113000000Y-120000000D02*
X114000000Y-120000000D01*
X112149986Y-120850014D02*
X113000000Y-120000000D01*
X110000000Y-120850014D02*
X112149986Y-120850014D01*
X110000000Y-121500000D02*
X110000000Y-120850014D01*
X114000000Y-120000000D02*
X114500000Y-120000000D01*
X114500000Y-120000000D02*
X115000000Y-119500000D01*
X115000000Y-119500000D02*
X117000000Y-119500000D01*
%TO.N,Net-(D1-A)*%
X185150000Y-78700000D02*
X185150000Y-79650000D01*
X188000000Y-122261000D02*
X186761000Y-123500000D01*
X119500000Y-123500000D02*
X186761000Y-123500000D01*
X188000000Y-81000000D02*
X188000000Y-122261000D01*
X185150000Y-79650000D02*
X186000000Y-80500000D01*
X118195000Y-122195000D02*
X119500000Y-123500000D01*
X118195000Y-119500000D02*
X118195000Y-122195000D01*
X187500000Y-80500000D02*
X188000000Y-81000000D01*
X186000000Y-80500000D02*
X187500000Y-80500000D01*
%TO.N,Net-(U1-LA)*%
D19*
X104400000Y-114600000D02*
X105300000Y-115500000D01*
X105600000Y-79500000D02*
X105000000Y-80100000D01*
D18*
X105339100Y-119660900D02*
X105339100Y-120200028D01*
D19*
X142800000Y-115800000D02*
X142800000Y-79200000D01*
X141600000Y-115200000D02*
X141600000Y-79800000D01*
X105000000Y-80100000D02*
X105000000Y-114300000D01*
X141600000Y-79800000D02*
X140700000Y-78900000D01*
X107500000Y-117500000D02*
X107700000Y-117300000D01*
X141000000Y-78300000D02*
X105000000Y-78300000D01*
D18*
X109500000Y-118500000D02*
X110000000Y-119000000D01*
X106500000Y-118500000D02*
X105339100Y-119660900D01*
D19*
X140700000Y-116100000D02*
X141600000Y-115200000D01*
X142800000Y-79200000D02*
X141300000Y-77700000D01*
X140400000Y-114600000D02*
X140400000Y-80400000D01*
X141300000Y-77700000D02*
X104700000Y-77700000D01*
X105900000Y-114300000D02*
X106500000Y-114300000D01*
X140100000Y-114900000D02*
X140400000Y-114600000D01*
X141000000Y-114900000D02*
X141000000Y-80100000D01*
D18*
X110000000Y-119000000D02*
X110000000Y-120200028D01*
D19*
X105300000Y-78900000D02*
X104400000Y-79800000D01*
X103800000Y-114900000D02*
X105000000Y-116100000D01*
X103800000Y-79500000D02*
X103800000Y-114900000D01*
X105300000Y-115500000D02*
X140400000Y-115500000D01*
X105600000Y-114900000D02*
X140100000Y-114900000D01*
X140700000Y-78900000D02*
X105300000Y-78900000D01*
X107700000Y-117300000D02*
X141300000Y-117300000D01*
X107500000Y-118500000D02*
X107500000Y-117500000D01*
X104400000Y-79800000D02*
X104400000Y-114600000D01*
X140400000Y-79500000D02*
X105600000Y-79500000D01*
D18*
X107500000Y-118500000D02*
X109500000Y-118500000D01*
D19*
X105000000Y-116100000D02*
X140700000Y-116100000D01*
X142200000Y-115500000D02*
X142200000Y-79500000D01*
X103200000Y-79200000D02*
X103200000Y-115200000D01*
X103200000Y-115200000D02*
X104700000Y-116700000D01*
X141000000Y-116700000D02*
X142200000Y-115500000D01*
X142200000Y-79500000D02*
X141000000Y-78300000D01*
X104700000Y-77700000D02*
X103200000Y-79200000D01*
X141000000Y-80100000D02*
X140400000Y-79500000D01*
X105600000Y-114000000D02*
X105900000Y-114300000D01*
X105000000Y-78300000D02*
X103800000Y-79500000D01*
X140400000Y-80400000D02*
X140100000Y-80100000D01*
X105900000Y-80100000D02*
X105600000Y-80400000D01*
X105600000Y-80400000D02*
X105600000Y-114000000D01*
X105000000Y-114300000D02*
X105600000Y-114900000D01*
X141300000Y-117300000D02*
X142800000Y-115800000D01*
X140400000Y-115500000D02*
X141000000Y-114900000D01*
X140100000Y-80100000D02*
X105900000Y-80100000D01*
X104700000Y-116700000D02*
X141000000Y-116700000D01*
%TD*%
%TA.AperFunction,NonConductor*%
G36*
X141081790Y-118019787D02*
G01*
X141127550Y-118072587D01*
X141137499Y-118141744D01*
X141130698Y-118167110D01*
X141130988Y-118167215D01*
X141130238Y-118169296D01*
X141108234Y-118237943D01*
X141095892Y-118288632D01*
X141095889Y-118288649D01*
X141086084Y-118340630D01*
X141086078Y-118340662D01*
X141081926Y-118371444D01*
X141053454Y-118435250D01*
X140995007Y-118473534D01*
X140925140Y-118474141D01*
X140866036Y-118436880D01*
X140864552Y-118433703D01*
X140847742Y-118434958D01*
X140824850Y-118427672D01*
X140822334Y-118426593D01*
X140822324Y-118426588D01*
X140750791Y-118399583D01*
X140547081Y-118322678D01*
X140513922Y-118311457D01*
X140513910Y-118311453D01*
X140513903Y-118311451D01*
X140487674Y-118303576D01*
X140478639Y-118300955D01*
X140321974Y-118257079D01*
X140321972Y-118257078D01*
X140321963Y-118257076D01*
X140282539Y-118247721D01*
X140273064Y-118245871D01*
X140211042Y-118213699D01*
X140176259Y-118153103D01*
X140179758Y-118083321D01*
X140220429Y-118026509D01*
X140285358Y-118000703D01*
X140296797Y-118000172D01*
X141014752Y-118000108D01*
X141081790Y-118019787D01*
G37*
%TD.AperFunction*%
%TA.AperFunction,NonConductor*%
G36*
X139698391Y-118006347D02*
G01*
X139720083Y-118007750D01*
X139731255Y-118015994D01*
X139744577Y-118019905D01*
X139758812Y-118036330D01*
X139776302Y-118049237D01*
X139781243Y-118062212D01*
X139790337Y-118072705D01*
X139793431Y-118094217D01*
X139801168Y-118114532D01*
X139798309Y-118128121D01*
X139800286Y-118141862D01*
X139791259Y-118161633D01*
X139786784Y-118182905D01*
X139777034Y-118192789D01*
X139771267Y-118205421D01*
X139752981Y-118217174D01*
X139737719Y-118232648D01*
X139715988Y-118240952D01*
X139712492Y-118243200D01*
X139705093Y-118245116D01*
X139705018Y-118245144D01*
X139599218Y-118268921D01*
X139583301Y-118272770D01*
X139582477Y-118272983D01*
X139582470Y-118272985D01*
X139455978Y-118305749D01*
X139431556Y-118312735D01*
X139278853Y-118360602D01*
X139229801Y-118378816D01*
X139111166Y-118430002D01*
X139111161Y-118430004D01*
X139052050Y-118460261D01*
X139052016Y-118460280D01*
X139012052Y-118484173D01*
X138944411Y-118501678D01*
X138878043Y-118479835D01*
X138871048Y-118474641D01*
X138868000Y-118472207D01*
X138828896Y-118440981D01*
X138823663Y-118436880D01*
X138821641Y-118435295D01*
X138821625Y-118435285D01*
X138696268Y-118364703D01*
X138696258Y-118364698D01*
X138573807Y-118317204D01*
X138519724Y-118296227D01*
X138459351Y-118279120D01*
X138428546Y-118270391D01*
X138428543Y-118270390D01*
X138428538Y-118270389D01*
X138297776Y-118246292D01*
X138235414Y-118214783D01*
X138199987Y-118154561D01*
X138202742Y-118084746D01*
X138242805Y-118027503D01*
X138307455Y-118001007D01*
X138320207Y-118000346D01*
X139677538Y-118000226D01*
X139698391Y-118006347D01*
G37*
%TD.AperFunction*%
%TA.AperFunction,NonConductor*%
G36*
X137758004Y-118020080D02*
G01*
X137803764Y-118072880D01*
X137813713Y-118142037D01*
X137784694Y-118205595D01*
X137725919Y-118243375D01*
X137708265Y-118247190D01*
X137699798Y-118248382D01*
X137699794Y-118248382D01*
X137699786Y-118248384D01*
X137621237Y-118265912D01*
X137621224Y-118265915D01*
X137416605Y-118329043D01*
X137342628Y-118358424D01*
X137282750Y-118387857D01*
X137158942Y-118448714D01*
X137158937Y-118448716D01*
X137158933Y-118448719D01*
X137070805Y-118503962D01*
X137070803Y-118503963D01*
X136929713Y-118614144D01*
X136860663Y-118679397D01*
X136860650Y-118679411D01*
X136844888Y-118697398D01*
X136785900Y-118734843D01*
X136716031Y-118734453D01*
X136666239Y-118705587D01*
X136657616Y-118697398D01*
X136610203Y-118652369D01*
X136601237Y-118643854D01*
X136509010Y-118574444D01*
X136509006Y-118574441D01*
X136509003Y-118574439D01*
X136508998Y-118574436D01*
X136508992Y-118574432D01*
X136284974Y-118442955D01*
X136284949Y-118442942D01*
X136199441Y-118402975D01*
X136199439Y-118402974D01*
X135923270Y-118304123D01*
X135886414Y-118292502D01*
X135804491Y-118270077D01*
X135804494Y-118270077D01*
X135804462Y-118270069D01*
X135793600Y-118267291D01*
X135787892Y-118265832D01*
X135701160Y-118245211D01*
X135640492Y-118210553D01*
X135608192Y-118148597D01*
X135614516Y-118079015D01*
X135657455Y-118023896D01*
X135723377Y-118000743D01*
X135729792Y-118000575D01*
X137690966Y-118000402D01*
X137758004Y-118020080D01*
G37*
%TD.AperFunction*%
%TA.AperFunction,NonConductor*%
G36*
X154424416Y-119795740D02*
G01*
X154440184Y-119802839D01*
X154468966Y-119820905D01*
X154487248Y-119836243D01*
X154496116Y-119849567D01*
X154517588Y-119873889D01*
X154540722Y-119912380D01*
X154546242Y-119927086D01*
X154555388Y-119951453D01*
X154562287Y-119979240D01*
X154568251Y-120025702D01*
X154568602Y-120054242D01*
X154564211Y-120096709D01*
X154557488Y-120126100D01*
X154546773Y-120155750D01*
X154531620Y-120184884D01*
X154519498Y-120202140D01*
X154495335Y-120227817D01*
X154474284Y-120244601D01*
X154444672Y-120262108D01*
X154424989Y-120270309D01*
X154394354Y-120278668D01*
X154378080Y-120280928D01*
X154360917Y-120283311D01*
X154327023Y-120283340D01*
X154324871Y-120283045D01*
X154272641Y-120263176D01*
X154255753Y-120251849D01*
X154235936Y-120235324D01*
X154199338Y-120197697D01*
X154182418Y-120175899D01*
X154167759Y-120151911D01*
X154151646Y-120109860D01*
X154145255Y-120075392D01*
X154144083Y-120037843D01*
X154146221Y-120020240D01*
X154155465Y-119986060D01*
X154156736Y-119983116D01*
X154166594Y-119960270D01*
X154179794Y-119929683D01*
X154193511Y-119905676D01*
X154194423Y-119904428D01*
X154241311Y-119840233D01*
X154296747Y-119797708D01*
X154323965Y-119790610D01*
X154356041Y-119786045D01*
X154424416Y-119795740D01*
G37*
%TD.AperFunction*%
%TA.AperFunction,NonConductor*%
G36*
X158201165Y-119787611D02*
G01*
X158267808Y-119808593D01*
X158272470Y-119811876D01*
X158297595Y-119830452D01*
X158317156Y-119848459D01*
X158321079Y-119852938D01*
X158350441Y-119916338D01*
X158350871Y-119919499D01*
X158358044Y-119977813D01*
X158358938Y-119995841D01*
X158356407Y-120104462D01*
X158354424Y-120123848D01*
X158350537Y-120145134D01*
X158319130Y-120207547D01*
X158317908Y-120208835D01*
X158296967Y-120230599D01*
X158281783Y-120243995D01*
X158263965Y-120257294D01*
X158251318Y-120266734D01*
X158249206Y-120268310D01*
X158190135Y-120292015D01*
X158171596Y-120294289D01*
X158152860Y-120295157D01*
X158126168Y-120294372D01*
X158059736Y-120272726D01*
X158056530Y-120270454D01*
X158017641Y-120241963D01*
X158002119Y-120228478D01*
X157996343Y-120222551D01*
X157970001Y-120182020D01*
X157947853Y-120126594D01*
X157947851Y-120126589D01*
X157947849Y-120126586D01*
X157947844Y-120126572D01*
X157936924Y-120103631D01*
X157925886Y-120034643D01*
X157928179Y-120021963D01*
X157928554Y-120020371D01*
X157934510Y-119995031D01*
X157940447Y-119976470D01*
X157959758Y-119929252D01*
X157979598Y-119896417D01*
X158024085Y-119843477D01*
X158051697Y-119819117D01*
X158054890Y-119817053D01*
X158062217Y-119812316D01*
X158097693Y-119796611D01*
X158119480Y-119790823D01*
X158153712Y-119786690D01*
X158201165Y-119787611D01*
G37*
%TD.AperFunction*%
%TA.AperFunction,NonConductor*%
G36*
X135431142Y-119776964D02*
G01*
X135444073Y-119777920D01*
X135509477Y-119802497D01*
X135525648Y-119817053D01*
X135564358Y-119858600D01*
X135570377Y-119865561D01*
X135599631Y-119902049D01*
X135600876Y-119903602D01*
X135607574Y-119912791D01*
X135611218Y-119918304D01*
X135629737Y-119964302D01*
X135630363Y-119967714D01*
X135631870Y-119978656D01*
X135633406Y-119995271D01*
X135633906Y-120004198D01*
X135635313Y-120074960D01*
X135623286Y-120130750D01*
X135619233Y-120139259D01*
X135610841Y-120156877D01*
X135597089Y-120179271D01*
X135559284Y-120228298D01*
X135541581Y-120246902D01*
X135510442Y-120273475D01*
X135474766Y-120294768D01*
X135446701Y-120305647D01*
X135416762Y-120313134D01*
X135378849Y-120317716D01*
X135346662Y-120317398D01*
X135343226Y-120316913D01*
X135342043Y-120316746D01*
X135278409Y-120287897D01*
X135276233Y-120285978D01*
X135247447Y-120259974D01*
X135228879Y-120238918D01*
X135191799Y-120185772D01*
X135178806Y-120161965D01*
X135156779Y-120108377D01*
X135148731Y-120078890D01*
X135148166Y-120074960D01*
X135145330Y-120055244D01*
X135152956Y-119991488D01*
X135153122Y-119991073D01*
X135177501Y-119930203D01*
X135186569Y-119912038D01*
X135227682Y-119844222D01*
X135241390Y-119825734D01*
X135244984Y-119821726D01*
X135304396Y-119784959D01*
X135326497Y-119780986D01*
X135338846Y-119779906D01*
X135344805Y-119779531D01*
X135417219Y-119776720D01*
X135431142Y-119776964D01*
G37*
%TD.AperFunction*%
%TA.AperFunction,NonConductor*%
G36*
X144641695Y-119775798D02*
G01*
X144708345Y-119796752D01*
X144744614Y-119834259D01*
X144775136Y-119883307D01*
X144781687Y-119893834D01*
X144792627Y-119916120D01*
X144813133Y-119971259D01*
X144819246Y-119987697D01*
X144825875Y-120014093D01*
X144830146Y-120045279D01*
X144819740Y-120114369D01*
X144816368Y-120121085D01*
X144788627Y-120172387D01*
X144775950Y-120191402D01*
X144728239Y-120250370D01*
X144711568Y-120267345D01*
X144682455Y-120291785D01*
X144618453Y-120319813D01*
X144616370Y-120320061D01*
X144586123Y-120323409D01*
X144550431Y-120322186D01*
X144528158Y-120318160D01*
X144493413Y-120306363D01*
X144473966Y-120296342D01*
X144445079Y-120275745D01*
X144415385Y-120247355D01*
X144394946Y-120221856D01*
X144386076Y-120207177D01*
X144351254Y-120149547D01*
X144340040Y-120125499D01*
X144338532Y-120121085D01*
X144333766Y-120107130D01*
X144329652Y-120092019D01*
X144323218Y-120060700D01*
X144329009Y-119991073D01*
X144332413Y-119983102D01*
X144347119Y-119951770D01*
X144347983Y-119949055D01*
X144362941Y-119902049D01*
X144370637Y-119883315D01*
X144371513Y-119881598D01*
X144383429Y-119862679D01*
X144409568Y-119828465D01*
X144420422Y-119816064D01*
X144423645Y-119812842D01*
X144484973Y-119779368D01*
X144502837Y-119776828D01*
X144539417Y-119774325D01*
X144550196Y-119774059D01*
X144641695Y-119775798D01*
G37*
%TD.AperFunction*%
%TA.AperFunction,NonConductor*%
G36*
X140118687Y-119795803D02*
G01*
X140156259Y-119832384D01*
X140203829Y-119904094D01*
X140215281Y-119925730D01*
X140239692Y-119985467D01*
X140247449Y-120013428D01*
X140248942Y-120023088D01*
X140243270Y-120083461D01*
X140226765Y-120130018D01*
X140215108Y-120154202D01*
X140175913Y-120217051D01*
X140159877Y-120237590D01*
X140119102Y-120279796D01*
X140094836Y-120299291D01*
X140080271Y-120308240D01*
X140028591Y-120325881D01*
X140012576Y-120327600D01*
X139977633Y-120326393D01*
X139955223Y-120322408D01*
X139924577Y-120312728D01*
X139895608Y-120299235D01*
X139891729Y-120297428D01*
X139866106Y-120281434D01*
X139853293Y-120271070D01*
X139831453Y-120253404D01*
X139810677Y-120231978D01*
X139783242Y-120195842D01*
X139767761Y-120169076D01*
X139751481Y-120130502D01*
X139742848Y-120098958D01*
X139737422Y-120058952D01*
X139737774Y-120023203D01*
X139744021Y-119983110D01*
X139754511Y-119949055D01*
X139762095Y-119933070D01*
X139779137Y-119897149D01*
X139795916Y-119870911D01*
X139834968Y-119824064D01*
X139893012Y-119785176D01*
X139924450Y-119779599D01*
X139954625Y-119778196D01*
X139958844Y-119778072D01*
X140051413Y-119776940D01*
X140118687Y-119795803D01*
G37*
%TD.AperFunction*%
%TA.AperFunction,NonConductor*%
G36*
X187265677Y-76519685D02*
G01*
X187286319Y-76536319D01*
X188963681Y-78213681D01*
X188997166Y-78275004D01*
X189000000Y-78301362D01*
X189000000Y-78851403D01*
X188980315Y-78918442D01*
X188927511Y-78964197D01*
X188858353Y-78974141D01*
X188794797Y-78945116D01*
X188788319Y-78939084D01*
X188311818Y-78462583D01*
X188278333Y-78401260D01*
X188275499Y-78374902D01*
X188275499Y-78199998D01*
X188275498Y-78199981D01*
X188264999Y-78097203D01*
X188264998Y-78097200D01*
X188209814Y-77930666D01*
X188117712Y-77781344D01*
X187993656Y-77657288D01*
X187844334Y-77565186D01*
X187677797Y-77510001D01*
X187677795Y-77510000D01*
X187575010Y-77499500D01*
X186824998Y-77499500D01*
X186824980Y-77499501D01*
X186722203Y-77510000D01*
X186722200Y-77510001D01*
X186555668Y-77565185D01*
X186555663Y-77565187D01*
X186406342Y-77657289D01*
X186282285Y-77781346D01*
X186280537Y-77784182D01*
X186278829Y-77785717D01*
X186277807Y-77787011D01*
X186277585Y-77786836D01*
X186228589Y-77830905D01*
X186159626Y-77842126D01*
X186095544Y-77814282D01*
X186069463Y-77784182D01*
X186067714Y-77781346D01*
X185943657Y-77657289D01*
X185943656Y-77657288D01*
X185794334Y-77565186D01*
X185627797Y-77510001D01*
X185627795Y-77510000D01*
X185525010Y-77499500D01*
X184774998Y-77499500D01*
X184774980Y-77499501D01*
X184672203Y-77510000D01*
X184672200Y-77510001D01*
X184505668Y-77565185D01*
X184505663Y-77565187D01*
X184356342Y-77657289D01*
X184232289Y-77781342D01*
X184140187Y-77930663D01*
X184140186Y-77930666D01*
X184085001Y-78097203D01*
X184085001Y-78097204D01*
X184085000Y-78097204D01*
X184074500Y-78199983D01*
X184074500Y-79200001D01*
X184074501Y-79200019D01*
X184085000Y-79302796D01*
X184085001Y-79302799D01*
X184117735Y-79401583D01*
X184140186Y-79469334D01*
X184232288Y-79618656D01*
X184356344Y-79742712D01*
X184505666Y-79834814D01*
X184532150Y-79843589D01*
X184589594Y-79883361D01*
X184600529Y-79899290D01*
X184606858Y-79910251D01*
X184606858Y-79910254D01*
X184606861Y-79910257D01*
X184669475Y-80018709D01*
X184669481Y-80018717D01*
X184788349Y-80137585D01*
X184788354Y-80137589D01*
X185631284Y-80980520D01*
X185631286Y-80980521D01*
X185631290Y-80980524D01*
X185768209Y-81059573D01*
X185768216Y-81059577D01*
X185920943Y-81100501D01*
X185920945Y-81100501D01*
X186086654Y-81100501D01*
X186086670Y-81100500D01*
X187199903Y-81100500D01*
X187266942Y-81120185D01*
X187287584Y-81136819D01*
X187363181Y-81212416D01*
X187396666Y-81273739D01*
X187399500Y-81300097D01*
X187399500Y-121960902D01*
X187379815Y-122027941D01*
X187363181Y-122048583D01*
X186548584Y-122863181D01*
X186487261Y-122896666D01*
X186460903Y-122899500D01*
X134838743Y-122899500D01*
X134771704Y-122879815D01*
X134725949Y-122827011D01*
X134716005Y-122757853D01*
X134745030Y-122694297D01*
X134782002Y-122665244D01*
X134789456Y-122661408D01*
X134830318Y-122640379D01*
X134941880Y-122549520D01*
X135023325Y-122430910D01*
X135035852Y-122405557D01*
X135037097Y-122403020D01*
X135081061Y-122266021D01*
X135096282Y-122176126D01*
X135102419Y-122122831D01*
X135111784Y-121970878D01*
X135112669Y-121948321D01*
X135112876Y-121936057D01*
X135133687Y-121869360D01*
X135187254Y-121824501D01*
X135250634Y-121814915D01*
X135325844Y-121823322D01*
X135325849Y-121823322D01*
X135325855Y-121823323D01*
X135592031Y-121825423D01*
X135686945Y-121817194D01*
X135971305Y-121765197D01*
X136050518Y-121743949D01*
X136050521Y-121743947D01*
X136050531Y-121743945D01*
X136237959Y-121676952D01*
X136249080Y-121672977D01*
X136348497Y-121624603D01*
X136464690Y-121551360D01*
X136531896Y-121532266D01*
X136598761Y-121552537D01*
X136621393Y-121571581D01*
X136627854Y-121578493D01*
X136739971Y-121668492D01*
X136739975Y-121668495D01*
X136739997Y-121668508D01*
X136741375Y-121669320D01*
X136741377Y-121669321D01*
X136741379Y-121669322D01*
X136787734Y-121688254D01*
X136874574Y-121723721D01*
X136931582Y-121737971D01*
X136943149Y-121739869D01*
X137013569Y-121751425D01*
X137013588Y-121751427D01*
X137013599Y-121751429D01*
X137114151Y-121759525D01*
X137153939Y-121761155D01*
X137276280Y-121761344D01*
X137276281Y-121761343D01*
X137276296Y-121761344D01*
X137294497Y-121761044D01*
X137523621Y-121753137D01*
X137567723Y-121749678D01*
X137567724Y-121749677D01*
X137567734Y-121749677D01*
X137706597Y-121712013D01*
X137829224Y-121636752D01*
X137830475Y-121635368D01*
X137881860Y-121578493D01*
X137925676Y-121529995D01*
X137925677Y-121529995D01*
X137925677Y-121529993D01*
X137925680Y-121529991D01*
X137988151Y-121400381D01*
X138011576Y-121258420D01*
X138021562Y-120776945D01*
X138042632Y-120710329D01*
X138096373Y-120665679D01*
X138165723Y-120657171D01*
X138228663Y-120687508D01*
X138258760Y-120728959D01*
X138292694Y-120804956D01*
X138293390Y-120806157D01*
X138345356Y-120895837D01*
X138345363Y-120895848D01*
X138345366Y-120895853D01*
X138370963Y-120935612D01*
X138370971Y-120935624D01*
X138370981Y-120935639D01*
X138377452Y-120944726D01*
X138381993Y-120951572D01*
X138385473Y-120957217D01*
X138392984Y-120972722D01*
X138393357Y-120972552D01*
X138395395Y-120977009D01*
X138399454Y-120984303D01*
X138463491Y-121099386D01*
X138465349Y-121102724D01*
X138465358Y-121102739D01*
X138502691Y-121151788D01*
X138502700Y-121151799D01*
X138502704Y-121151804D01*
X138502774Y-121151887D01*
X138536293Y-121191516D01*
X138607268Y-121267166D01*
X138625183Y-121285320D01*
X138718417Y-121375141D01*
X138718434Y-121375157D01*
X138740943Y-121394726D01*
X138757381Y-121409018D01*
X138777197Y-121424543D01*
X138916261Y-121533495D01*
X138944102Y-121555307D01*
X139033753Y-121611481D01*
X139245484Y-121715042D01*
X139245486Y-121715042D01*
X139245489Y-121715044D01*
X139377935Y-121758435D01*
X139377939Y-121758435D01*
X139377943Y-121758437D01*
X139590973Y-121796824D01*
X139623288Y-121801575D01*
X139636707Y-121803106D01*
X139656267Y-121806951D01*
X139687285Y-121815692D01*
X139689485Y-121816336D01*
X139704048Y-121820741D01*
X139722470Y-121826314D01*
X139838860Y-121847080D01*
X139958479Y-121854188D01*
X140037556Y-121852689D01*
X140191670Y-121837651D01*
X140239357Y-121830689D01*
X140410919Y-121797224D01*
X140450502Y-121787835D01*
X140622461Y-121739662D01*
X140666049Y-121725288D01*
X140821357Y-121666125D01*
X140883757Y-121637357D01*
X141005365Y-121570922D01*
X141055345Y-121539703D01*
X141093264Y-121512824D01*
X141109973Y-121500456D01*
X141231827Y-121406319D01*
X141296911Y-121380912D01*
X141365401Y-121394726D01*
X141402455Y-121424543D01*
X141427435Y-121454187D01*
X141440274Y-121467303D01*
X141480085Y-121507972D01*
X141480092Y-121507979D01*
X141551678Y-121570960D01*
X141551850Y-121571111D01*
X141651250Y-121639402D01*
X141744539Y-121688254D01*
X141813022Y-121717898D01*
X141949308Y-121765287D01*
X141971308Y-121772377D01*
X142008209Y-121783345D01*
X142047270Y-121793279D01*
X142227029Y-121831435D01*
X142312501Y-121842076D01*
X142489038Y-121848887D01*
X142573906Y-121845017D01*
X142573912Y-121845016D01*
X142573915Y-121845016D01*
X142767057Y-121819824D01*
X142767061Y-121819823D01*
X142767078Y-121819821D01*
X142825194Y-121808750D01*
X143054857Y-121750889D01*
X143076898Y-121744802D01*
X143115975Y-121733054D01*
X143144363Y-121723595D01*
X143144388Y-121723586D01*
X143259442Y-121681426D01*
X143259445Y-121681424D01*
X143259463Y-121681418D01*
X143353567Y-121635372D01*
X143424093Y-121591267D01*
X143430147Y-121587149D01*
X143496649Y-121565730D01*
X143564178Y-121583664D01*
X143569051Y-121586778D01*
X143573512Y-121589777D01*
X143573522Y-121589783D01*
X143611607Y-121611480D01*
X143665109Y-121641960D01*
X143738359Y-121676245D01*
X143738377Y-121676251D01*
X143738380Y-121676253D01*
X143752221Y-121681426D01*
X143845581Y-121716320D01*
X143886919Y-121729730D01*
X143887875Y-121730040D01*
X143898793Y-121733058D01*
X144031574Y-121769763D01*
X144041416Y-121772377D01*
X144080825Y-121782421D01*
X144093242Y-121785419D01*
X144093255Y-121785422D01*
X144093280Y-121785428D01*
X144267298Y-121825125D01*
X144267301Y-121825125D01*
X144267321Y-121825130D01*
X144312336Y-121833276D01*
X144403523Y-121845546D01*
X144452779Y-121852174D01*
X144452780Y-121852174D01*
X144452787Y-121852175D01*
X144527518Y-121856637D01*
X144658177Y-121854745D01*
X144729073Y-121848710D01*
X144873779Y-121826047D01*
X144912493Y-121818425D01*
X145095083Y-121775012D01*
X145107846Y-121771802D01*
X145205353Y-121745919D01*
X145229024Y-121739013D01*
X145352122Y-121699819D01*
X145413684Y-121675679D01*
X145508978Y-121630915D01*
X145580207Y-121590090D01*
X145670351Y-121528188D01*
X145672289Y-121526712D01*
X145737542Y-121501749D01*
X145805937Y-121516028D01*
X145827344Y-121530545D01*
X145831569Y-121534106D01*
X145930385Y-121595728D01*
X145994771Y-121629701D01*
X146031120Y-121645649D01*
X146040402Y-121649236D01*
X146073240Y-121661927D01*
X146174522Y-121695952D01*
X146187521Y-121700319D01*
X146213594Y-121708303D01*
X146367341Y-121750879D01*
X146383665Y-121755107D01*
X146559967Y-121797652D01*
X146570435Y-121800016D01*
X146574361Y-121800904D01*
X146574382Y-121800908D01*
X146574420Y-121800917D01*
X146756369Y-121839219D01*
X146773426Y-121842504D01*
X146944112Y-121872351D01*
X146966642Y-121875770D01*
X147001753Y-121880290D01*
X147052291Y-121884233D01*
X147052289Y-121884233D01*
X147233378Y-121889252D01*
X147233384Y-121889252D01*
X147233404Y-121889252D01*
X147288914Y-121887632D01*
X147290834Y-121887576D01*
X147494870Y-121869975D01*
X147538383Y-121864309D01*
X147747709Y-121827755D01*
X147789403Y-121818646D01*
X147986366Y-121766811D01*
X148037300Y-121750480D01*
X148204246Y-121687031D01*
X148284275Y-121648247D01*
X148288616Y-121645649D01*
X148403530Y-121576867D01*
X148403530Y-121576866D01*
X148403550Y-121576855D01*
X148417618Y-121566773D01*
X148483573Y-121543725D01*
X148551522Y-121559993D01*
X148574995Y-121577425D01*
X148586423Y-121588220D01*
X148586510Y-121588302D01*
X148587804Y-121589520D01*
X148705682Y-121672020D01*
X148761982Y-121700466D01*
X148805311Y-121719861D01*
X148885769Y-121751429D01*
X148908434Y-121760322D01*
X148935851Y-121770177D01*
X148971757Y-121781925D01*
X149055655Y-121809376D01*
X149073325Y-121814802D01*
X149196999Y-121850318D01*
X149229012Y-121858389D01*
X149322149Y-121878662D01*
X149406403Y-121889693D01*
X149486338Y-121893375D01*
X149574154Y-121889771D01*
X149666317Y-121877904D01*
X149702407Y-121871922D01*
X149832230Y-121845546D01*
X149837335Y-121844482D01*
X149921800Y-121826412D01*
X149928783Y-121824866D01*
X150103548Y-121784884D01*
X150128334Y-121778550D01*
X150252472Y-121743455D01*
X150311011Y-121722950D01*
X150394423Y-121687851D01*
X150479042Y-121638919D01*
X150546930Y-121622401D01*
X150605986Y-121640588D01*
X150639606Y-121661226D01*
X150639613Y-121661230D01*
X150722958Y-121700459D01*
X150804849Y-121739004D01*
X150804864Y-121739010D01*
X150886595Y-121769181D01*
X150886597Y-121769181D01*
X150886601Y-121769183D01*
X151103379Y-121828555D01*
X151143851Y-121837870D01*
X151326302Y-121872042D01*
X151392879Y-121879988D01*
X151556945Y-121888595D01*
X151631531Y-121886995D01*
X151739392Y-121876684D01*
X151797849Y-121871096D01*
X151797856Y-121871094D01*
X151797888Y-121871092D01*
X151852671Y-121862805D01*
X152041991Y-121823448D01*
X152064699Y-121818178D01*
X152129011Y-121801682D01*
X152129020Y-121801679D01*
X152129029Y-121801677D01*
X152145433Y-121796824D01*
X152164417Y-121791208D01*
X152382529Y-121717923D01*
X152463414Y-121682619D01*
X152633950Y-121589686D01*
X152707813Y-121537740D01*
X152727985Y-121523554D01*
X152727994Y-121523547D01*
X152864815Y-121401868D01*
X152882663Y-121382254D01*
X152942341Y-121345919D01*
X153012190Y-121347617D01*
X153059567Y-121375609D01*
X153142671Y-121454190D01*
X153218191Y-121525601D01*
X153239462Y-121543725D01*
X153257991Y-121559513D01*
X153266102Y-121565730D01*
X153288563Y-121582946D01*
X153294669Y-121586778D01*
X153368524Y-121633127D01*
X153492918Y-121695837D01*
X153559700Y-121723703D01*
X153605329Y-121739010D01*
X153741061Y-121784544D01*
X153781794Y-121796333D01*
X154013963Y-121853097D01*
X154043424Y-121859376D01*
X154043432Y-121859377D01*
X154043444Y-121859380D01*
X154077991Y-121865672D01*
X154145969Y-121873348D01*
X154343050Y-121882167D01*
X154423035Y-121879404D01*
X154655130Y-121852884D01*
X154715602Y-121842220D01*
X154967073Y-121781927D01*
X155007528Y-121770429D01*
X155100213Y-121739864D01*
X155152534Y-121719319D01*
X155264425Y-121668031D01*
X155339931Y-121625223D01*
X155391086Y-121590097D01*
X155443091Y-121554388D01*
X155509499Y-121532667D01*
X155577108Y-121550297D01*
X155593234Y-121561827D01*
X155689838Y-121643316D01*
X155689841Y-121643318D01*
X155689846Y-121643322D01*
X155709671Y-121655694D01*
X155725895Y-121665402D01*
X155781073Y-121697033D01*
X155862430Y-121734522D01*
X155902088Y-121748688D01*
X155986680Y-121770872D01*
X156083098Y-121787409D01*
X156138534Y-121793792D01*
X156138536Y-121793792D01*
X156138544Y-121793793D01*
X156200727Y-121797491D01*
X156253793Y-121800648D01*
X156278226Y-121801509D01*
X156305252Y-121801807D01*
X156305361Y-121801840D01*
X156305362Y-121801809D01*
X156305466Y-121801810D01*
X156305467Y-121801810D01*
X156305505Y-121801810D01*
X156305554Y-121801811D01*
X156374875Y-121802554D01*
X156417884Y-121801183D01*
X156473912Y-121797005D01*
X156473920Y-121797003D01*
X156473923Y-121797003D01*
X156518518Y-121787836D01*
X156600617Y-121770960D01*
X156644705Y-121755808D01*
X156713712Y-121726195D01*
X156714982Y-121725284D01*
X156761506Y-121691892D01*
X156830603Y-121642300D01*
X156864102Y-121610120D01*
X156885952Y-121586778D01*
X156904913Y-121566523D01*
X156906615Y-121568116D01*
X156954662Y-121533005D01*
X157024406Y-121528823D01*
X157059890Y-121543014D01*
X157239061Y-121649234D01*
X157239064Y-121649235D01*
X157239065Y-121649236D01*
X157250731Y-121654814D01*
X157320261Y-121688059D01*
X157320264Y-121688060D01*
X157320266Y-121688061D01*
X157605908Y-121794553D01*
X157648560Y-121808333D01*
X157735410Y-121832197D01*
X157778945Y-121842114D01*
X157956696Y-121874422D01*
X158045388Y-121882568D01*
X158201770Y-121883096D01*
X158269525Y-121878766D01*
X158383041Y-121863806D01*
X158418891Y-121857762D01*
X158598776Y-121820741D01*
X158632863Y-121812484D01*
X158810216Y-121762948D01*
X158846968Y-121751153D01*
X159000894Y-121695185D01*
X159059175Y-121669737D01*
X159168783Y-121613420D01*
X159254369Y-121557868D01*
X159284706Y-121533493D01*
X159349294Y-121506851D01*
X159418035Y-121519357D01*
X159435631Y-121530117D01*
X159474662Y-121558700D01*
X159474708Y-121558732D01*
X159523738Y-121591045D01*
X159546897Y-121606308D01*
X159546903Y-121606311D01*
X159546906Y-121606313D01*
X159580823Y-121624606D01*
X159625184Y-121648532D01*
X159713324Y-121686477D01*
X159713330Y-121686479D01*
X159713328Y-121686479D01*
X159752612Y-121700466D01*
X159774679Y-121708323D01*
X159895080Y-121742632D01*
X159919423Y-121748735D01*
X159926403Y-121750485D01*
X160024548Y-121771788D01*
X160095376Y-121787162D01*
X160097555Y-121787613D01*
X160104456Y-121789046D01*
X160147994Y-121797657D01*
X160212705Y-121810456D01*
X160212766Y-121810468D01*
X160212888Y-121810492D01*
X160215885Y-121811075D01*
X160249250Y-121817455D01*
X160361503Y-121838920D01*
X160364104Y-121839405D01*
X160365931Y-121839747D01*
X160424028Y-121850315D01*
X160484427Y-121861302D01*
X160484445Y-121861305D01*
X160484461Y-121861308D01*
X160493878Y-121862929D01*
X160511616Y-121865808D01*
X160566683Y-121874747D01*
X160617359Y-121880368D01*
X160769395Y-121889504D01*
X160831120Y-121889438D01*
X160831132Y-121889437D01*
X160831139Y-121889437D01*
X160887510Y-121885927D01*
X161039956Y-121876439D01*
X161039987Y-121876435D01*
X161039992Y-121876435D01*
X161054692Y-121874748D01*
X161092251Y-121870438D01*
X161098672Y-121869360D01*
X161307189Y-121834352D01*
X161307204Y-121834348D01*
X161307220Y-121834346D01*
X161355813Y-121823705D01*
X161559106Y-121768581D01*
X161615882Y-121749510D01*
X161789689Y-121679415D01*
X161873197Y-121636318D01*
X161999709Y-121555315D01*
X162070207Y-121500856D01*
X162139542Y-121436784D01*
X162181483Y-121393087D01*
X162190378Y-121382632D01*
X165099704Y-121382632D01*
X165105126Y-121461105D01*
X165105127Y-121461111D01*
X165146224Y-121598994D01*
X165224501Y-121719713D01*
X165224502Y-121719715D01*
X165224503Y-121719716D01*
X165224504Y-121719717D01*
X165320101Y-121801873D01*
X165333624Y-121813495D01*
X165333626Y-121813496D01*
X165389895Y-121838917D01*
X165464744Y-121872732D01*
X165607242Y-121892629D01*
X166453885Y-121889183D01*
X167300528Y-121885738D01*
X167300624Y-121885731D01*
X167337692Y-121883004D01*
X167370411Y-121880597D01*
X167508463Y-121840061D01*
X167629503Y-121762273D01*
X167629508Y-121762266D01*
X167631603Y-121760453D01*
X167634134Y-121759296D01*
X167636963Y-121757479D01*
X167637224Y-121757885D01*
X167695158Y-121731426D01*
X167764316Y-121741367D01*
X167766009Y-121742156D01*
X167802052Y-121759296D01*
X167843792Y-121779146D01*
X167965629Y-121823695D01*
X167965635Y-121823697D01*
X168031796Y-121842504D01*
X168037108Y-121844014D01*
X168179970Y-121873481D01*
X168179979Y-121873482D01*
X168179982Y-121873483D01*
X168179989Y-121873484D01*
X168181359Y-121873699D01*
X168227672Y-121880966D01*
X168229316Y-121881144D01*
X168262888Y-121883651D01*
X168287097Y-121884650D01*
X168297384Y-121884970D01*
X168345170Y-121885968D01*
X168348577Y-121886027D01*
X168417239Y-121886998D01*
X168418992Y-121887020D01*
X168419181Y-121887023D01*
X168419180Y-121887023D01*
X168505867Y-121887941D01*
X168507067Y-121887952D01*
X168609373Y-121888793D01*
X168609883Y-121888796D01*
X168610381Y-121888801D01*
X168610380Y-121888801D01*
X168716743Y-121889482D01*
X168725363Y-121889538D01*
X168726145Y-121889542D01*
X168851289Y-121890151D01*
X168851856Y-121890153D01*
X168852004Y-121890154D01*
X168852003Y-121890154D01*
X168955081Y-121890507D01*
X168984528Y-121890608D01*
X168985123Y-121890610D01*
X169083376Y-121890831D01*
X169084226Y-121890832D01*
X169228812Y-121890914D01*
X169230464Y-121890912D01*
X169352277Y-121890583D01*
X169354900Y-121890569D01*
X169456436Y-121889768D01*
X169460492Y-121889720D01*
X169544249Y-121888387D01*
X169548691Y-121888289D01*
X169550364Y-121888253D01*
X169567327Y-121887776D01*
X169618871Y-121886329D01*
X169628029Y-121885989D01*
X169683721Y-121883414D01*
X169696850Y-121882635D01*
X169742255Y-121879350D01*
X169759970Y-121877755D01*
X169797586Y-121873699D01*
X169818931Y-121870936D01*
X169851255Y-121866051D01*
X169887955Y-121859109D01*
X169975336Y-121839211D01*
X170045563Y-121817749D01*
X170170784Y-121769282D01*
X170260416Y-121723883D01*
X170368542Y-121654824D01*
X170451159Y-121588955D01*
X170506851Y-121534104D01*
X170542141Y-121499348D01*
X170607358Y-121420602D01*
X170632941Y-121382426D01*
X170675328Y-121319174D01*
X170728998Y-121274444D01*
X170798335Y-121265829D01*
X170861322Y-121296069D01*
X170897961Y-121355561D01*
X170899921Y-121363857D01*
X170910493Y-121416650D01*
X170913104Y-121428901D01*
X170920392Y-121461111D01*
X170921793Y-121467303D01*
X170931696Y-121504452D01*
X170937195Y-121522320D01*
X170992291Y-121641960D01*
X170993279Y-121644104D01*
X170993299Y-121644134D01*
X171001653Y-121654565D01*
X171063098Y-121731292D01*
X171178326Y-121817455D01*
X171313161Y-121867665D01*
X171328858Y-121871071D01*
X171361704Y-121875770D01*
X171400433Y-121881311D01*
X171441989Y-121884246D01*
X171445637Y-121884441D01*
X171459044Y-121885161D01*
X171459067Y-121885161D01*
X171459070Y-121885162D01*
X171525575Y-121887606D01*
X171533244Y-121887829D01*
X171533319Y-121887830D01*
X171533333Y-121887831D01*
X171623920Y-121889765D01*
X171628463Y-121889841D01*
X171742223Y-121891247D01*
X171745286Y-121891276D01*
X171881324Y-121892133D01*
X171883577Y-121892142D01*
X172040997Y-121892432D01*
X172042071Y-121892433D01*
X172148064Y-121892403D01*
X172148593Y-121892402D01*
X172148652Y-121892402D01*
X172148652Y-121892401D01*
X172275579Y-121892220D01*
X172276898Y-121892217D01*
X172380990Y-121891796D01*
X172383442Y-121891780D01*
X172466981Y-121891037D01*
X172469060Y-121891009D01*
X172471268Y-121890981D01*
X172471382Y-121890979D01*
X172536656Y-121889830D01*
X172541633Y-121889703D01*
X172544464Y-121889632D01*
X172544486Y-121889631D01*
X172544536Y-121889630D01*
X172593833Y-121887993D01*
X172608342Y-121887302D01*
X172643949Y-121885094D01*
X172668963Y-121882840D01*
X172672025Y-121882565D01*
X172672028Y-121882564D01*
X172672035Y-121882564D01*
X172696242Y-121879701D01*
X172754145Y-121869408D01*
X172769239Y-121865808D01*
X172890260Y-121819908D01*
X172898529Y-121815488D01*
X172953722Y-121779147D01*
X172975597Y-121764744D01*
X172975598Y-121764742D01*
X172975601Y-121764741D01*
X173074128Y-121659889D01*
X173077861Y-121654565D01*
X173081171Y-121649618D01*
X173134811Y-121604850D01*
X173204142Y-121596189D01*
X173267150Y-121626385D01*
X173294243Y-121661377D01*
X173296968Y-121666617D01*
X173396616Y-121770404D01*
X173521468Y-121841913D01*
X173529272Y-121845006D01*
X173652959Y-121876683D01*
X173679489Y-121879992D01*
X173712323Y-121883004D01*
X173728181Y-121883938D01*
X173758606Y-121885731D01*
X173771992Y-121886341D01*
X173811936Y-121887631D01*
X173839178Y-121888511D01*
X173846207Y-121888690D01*
X173935463Y-121890331D01*
X173939638Y-121890390D01*
X174052144Y-121891529D01*
X174053399Y-121891538D01*
X174054647Y-121891548D01*
X174054648Y-121891548D01*
X174054737Y-121891548D01*
X174054813Y-121891549D01*
X174191740Y-121892212D01*
X174192474Y-121892214D01*
X174193391Y-121892218D01*
X174193392Y-121892218D01*
X174292273Y-121892348D01*
X174356036Y-121892433D01*
X174356118Y-121892433D01*
X174996446Y-121892433D01*
X174996447Y-121892433D01*
X175112090Y-121879027D01*
X175200807Y-121844247D01*
X175270406Y-121838107D01*
X175297575Y-121846900D01*
X175332681Y-121862932D01*
X175352443Y-121871957D01*
X175494859Y-121892433D01*
X175494862Y-121892433D01*
X176124830Y-121892433D01*
X176124882Y-121892433D01*
X176262403Y-121892317D01*
X176262919Y-121892315D01*
X176263756Y-121892314D01*
X176394283Y-121891878D01*
X176396364Y-121891867D01*
X176503544Y-121891061D01*
X176504035Y-121891055D01*
X176507042Y-121891022D01*
X176592960Y-121889795D01*
X176598643Y-121889682D01*
X176665038Y-121887987D01*
X176675069Y-121887632D01*
X176697222Y-121886626D01*
X176723770Y-121885421D01*
X176723801Y-121885419D01*
X176743378Y-121884149D01*
X176776308Y-121881370D01*
X176776329Y-121881367D01*
X176776341Y-121881366D01*
X176796938Y-121878661D01*
X176822770Y-121875269D01*
X176841758Y-121871874D01*
X176875827Y-121864562D01*
X177008975Y-121810038D01*
X177015881Y-121805978D01*
X177125416Y-121719171D01*
X177125416Y-121719170D01*
X177132266Y-121713742D01*
X177134173Y-121716148D01*
X177181499Y-121688703D01*
X177251296Y-121691892D01*
X177292170Y-121715439D01*
X177295084Y-121717964D01*
X177295085Y-121717965D01*
X177320116Y-121739655D01*
X177403301Y-121811736D01*
X177403822Y-121812187D01*
X177434997Y-121826424D01*
X177534696Y-121871956D01*
X177534699Y-121871956D01*
X177534700Y-121871957D01*
X177677116Y-121892433D01*
X177677119Y-121892433D01*
X178961733Y-121892433D01*
X179025249Y-121887605D01*
X179038117Y-121886627D01*
X179038119Y-121886626D01*
X179038121Y-121886626D01*
X179106754Y-121865808D01*
X179175803Y-121844864D01*
X179296146Y-121766002D01*
X179389395Y-121656430D01*
X179447998Y-121525025D01*
X179467205Y-121382432D01*
X179467191Y-121380912D01*
X179463660Y-120984303D01*
X179463194Y-120931959D01*
X179460116Y-120586174D01*
X179457959Y-120543809D01*
X179424367Y-120403905D01*
X179421188Y-120398368D01*
X179352722Y-120279133D01*
X179349185Y-120275745D01*
X179262347Y-120192553D01*
X179248823Y-120179597D01*
X179248822Y-120179596D01*
X179169133Y-120138276D01*
X179118680Y-120089942D01*
X179104314Y-120050925D01*
X179104103Y-120049795D01*
X179093584Y-119993382D01*
X179093337Y-119992069D01*
X179065364Y-119844232D01*
X179058000Y-119805310D01*
X179057787Y-119804193D01*
X179057731Y-119803898D01*
X179022215Y-119618843D01*
X179022133Y-119618418D01*
X179016620Y-119589824D01*
X179006471Y-119537188D01*
X179006441Y-119537036D01*
X178987956Y-119440517D01*
X178987927Y-119440364D01*
X178967910Y-119335129D01*
X178967886Y-119335003D01*
X178945633Y-119217347D01*
X178920172Y-119082128D01*
X178920160Y-119082060D01*
X178890667Y-118924944D01*
X178890589Y-118924530D01*
X178890588Y-118924524D01*
X178877421Y-118854619D01*
X178877308Y-118854021D01*
X178858276Y-118753685D01*
X178858169Y-118753119D01*
X178858147Y-118753002D01*
X178858147Y-118753001D01*
X178838765Y-118651454D01*
X178838618Y-118650688D01*
X178838618Y-118650687D01*
X178823238Y-118570706D01*
X178821458Y-118561449D01*
X178821455Y-118561431D01*
X178807778Y-118490317D01*
X178795571Y-118426337D01*
X178791324Y-118404078D01*
X178789198Y-118392937D01*
X178789167Y-118392774D01*
X178784145Y-118366263D01*
X178770653Y-118295030D01*
X178770675Y-118295025D01*
X178770618Y-118294845D01*
X178754497Y-118208983D01*
X178742961Y-118147279D01*
X178742897Y-118146936D01*
X178724493Y-118048870D01*
X178724436Y-118048566D01*
X178708508Y-117963978D01*
X178705604Y-117948556D01*
X178705576Y-117948409D01*
X178705543Y-117948231D01*
X178692203Y-117877679D01*
X178688937Y-117860406D01*
X178688931Y-117860378D01*
X178675751Y-117790692D01*
X178659929Y-117706653D01*
X178645192Y-117628026D01*
X178633267Y-117564000D01*
X178633267Y-117563999D01*
X178633246Y-117563883D01*
X178610423Y-117440692D01*
X178610421Y-117440684D01*
X178573200Y-117322784D01*
X178573196Y-117322776D01*
X178495411Y-117201740D01*
X178495407Y-117201736D01*
X178386678Y-117107521D01*
X178386676Y-117107519D01*
X178386673Y-117107517D01*
X178375530Y-117102428D01*
X178255798Y-117047747D01*
X178255793Y-117047746D01*
X178113379Y-117027271D01*
X176367539Y-117027271D01*
X176367533Y-117027271D01*
X176367529Y-117027272D01*
X176234317Y-117045141D01*
X176234312Y-117045143D01*
X176107035Y-117100386D01*
X176037701Y-117109020D01*
X176006647Y-117099655D01*
X175934511Y-117067091D01*
X175889830Y-117046920D01*
X175747325Y-117027064D01*
X174954411Y-117030515D01*
X174954410Y-117030515D01*
X174897773Y-117030762D01*
X174161484Y-117033967D01*
X174096969Y-117038385D01*
X174096964Y-117038386D01*
X173958499Y-117077484D01*
X173934188Y-117092752D01*
X173866947Y-117111735D01*
X173815391Y-117099915D01*
X173736316Y-117062659D01*
X173736303Y-117062654D01*
X173725956Y-117059481D01*
X173725949Y-117059479D01*
X173626398Y-117039617D01*
X173626400Y-117039617D01*
X173593687Y-117036456D01*
X173590718Y-117036169D01*
X173588224Y-117035990D01*
X173565788Y-117034380D01*
X173506472Y-117031597D01*
X173495581Y-117031203D01*
X173414533Y-117029148D01*
X173410441Y-117029070D01*
X173408025Y-117029025D01*
X173407997Y-117029024D01*
X173407963Y-117029024D01*
X173306839Y-117027749D01*
X173302232Y-117027711D01*
X173182850Y-117027273D01*
X173180971Y-117027271D01*
X173180855Y-117027271D01*
X172781730Y-117027271D01*
X172716006Y-117032216D01*
X172706090Y-117032962D01*
X172706083Y-117032963D01*
X172568346Y-117074516D01*
X172568339Y-117074519D01*
X172557981Y-117081285D01*
X172491088Y-117101462D01*
X172438665Y-117090259D01*
X172345579Y-117047747D01*
X172345574Y-117047746D01*
X172203160Y-117027271D01*
X170597259Y-117027271D01*
X170597256Y-117027271D01*
X170525318Y-117032415D01*
X170420657Y-117063147D01*
X170387267Y-117072952D01*
X170387265Y-117072952D01*
X170387265Y-117072953D01*
X170293335Y-117133318D01*
X170226295Y-117153002D01*
X170174073Y-117141469D01*
X170168054Y-117138674D01*
X170159725Y-117134806D01*
X170127351Y-117120600D01*
X170095695Y-117107964D01*
X170095690Y-117107962D01*
X170095677Y-117107957D01*
X170062553Y-117096013D01*
X170044346Y-117090259D01*
X170024039Y-117083841D01*
X170024029Y-117083838D01*
X170024025Y-117083837D01*
X169987729Y-117073941D01*
X169950181Y-117065228D01*
X169908394Y-117057197D01*
X169908385Y-117057195D01*
X169908377Y-117057194D01*
X169877243Y-117052211D01*
X169861168Y-117050150D01*
X169827557Y-117045841D01*
X169804476Y-117043420D01*
X169744574Y-117038525D01*
X169728557Y-117037472D01*
X169678229Y-117034962D01*
X169656072Y-117033857D01*
X169645525Y-117033441D01*
X169645499Y-117033440D01*
X169645493Y-117033440D01*
X169558062Y-117030907D01*
X169551431Y-117030759D01*
X169551389Y-117030758D01*
X169551374Y-117030758D01*
X169477559Y-117029599D01*
X169446609Y-117029113D01*
X169442347Y-117029063D01*
X169318185Y-117028116D01*
X169318082Y-117028116D01*
X169315779Y-117028103D01*
X169315764Y-117028102D01*
X169315600Y-117028102D01*
X169315600Y-117028101D01*
X169169395Y-117027651D01*
X169169395Y-117027652D01*
X169168440Y-117027650D01*
X169168170Y-117027650D01*
X169168137Y-117027649D01*
X169005024Y-117027509D01*
X168997280Y-117027503D01*
X168997226Y-117027503D01*
X168996892Y-117027503D01*
X168878555Y-117027492D01*
X168878099Y-117027492D01*
X168872471Y-117027496D01*
X168737126Y-117027605D01*
X168737081Y-117027606D01*
X168737034Y-117027606D01*
X168736123Y-117027607D01*
X168736073Y-117027608D01*
X168617649Y-117027940D01*
X168617548Y-117027940D01*
X168616651Y-117027944D01*
X168615840Y-117027948D01*
X168615718Y-117027948D01*
X168517582Y-117028574D01*
X168514744Y-117028601D01*
X168514745Y-117028602D01*
X168514618Y-117028603D01*
X168514573Y-117028604D01*
X168434096Y-117029599D01*
X168434076Y-117029599D01*
X168433942Y-117029601D01*
X168429307Y-117029681D01*
X168429176Y-117029683D01*
X168429170Y-117029684D01*
X168364046Y-117031124D01*
X168357426Y-117031320D01*
X168356229Y-117031356D01*
X168325071Y-117032525D01*
X168304084Y-117033313D01*
X168302887Y-117033372D01*
X168292137Y-117033903D01*
X168250437Y-117036458D01*
X168233083Y-117037823D01*
X168233073Y-117037823D01*
X168233047Y-117037826D01*
X168203188Y-117040694D01*
X168199493Y-117041049D01*
X168176555Y-117043782D01*
X168148742Y-117047743D01*
X168123301Y-117052030D01*
X168098754Y-117056814D01*
X168077595Y-117061409D01*
X168053907Y-117067089D01*
X168036796Y-117071508D01*
X168000432Y-117081580D01*
X168000387Y-117081593D01*
X167950677Y-117098182D01*
X167824672Y-117147631D01*
X167763777Y-117178510D01*
X167695083Y-117191272D01*
X167630394Y-117164869D01*
X167626115Y-117161297D01*
X167573493Y-117115324D01*
X167491520Y-117077484D01*
X167442860Y-117055022D01*
X167442858Y-117055021D01*
X167300528Y-117033966D01*
X167300526Y-117033965D01*
X166329833Y-117030015D01*
X166329832Y-117030015D01*
X165727364Y-117027562D01*
X165607642Y-117027075D01*
X165607641Y-117027075D01*
X165607635Y-117027075D01*
X165533646Y-117032215D01*
X165533645Y-117032215D01*
X165395591Y-117072752D01*
X165395589Y-117072753D01*
X165274553Y-117150538D01*
X165274549Y-117150542D01*
X165180334Y-117259271D01*
X165180328Y-117259280D01*
X165120560Y-117390151D01*
X165120559Y-117390156D01*
X165100084Y-117532570D01*
X165100084Y-118322341D01*
X165105228Y-118394279D01*
X165129756Y-118477809D01*
X165145531Y-118531535D01*
X165145766Y-118532333D01*
X165223551Y-118653369D01*
X165223555Y-118653373D01*
X165317126Y-118734453D01*
X165332290Y-118747593D01*
X165335393Y-118749010D01*
X165337968Y-118751241D01*
X165339748Y-118752385D01*
X165339583Y-118752640D01*
X165388197Y-118794763D01*
X165407882Y-118861802D01*
X165407882Y-119453139D01*
X165407880Y-119488314D01*
X165407880Y-119488367D01*
X165407781Y-119691756D01*
X165407781Y-119691880D01*
X165407518Y-119869046D01*
X165407517Y-119869223D01*
X165407306Y-119941747D01*
X165407095Y-120014093D01*
X165407069Y-120022908D01*
X165407068Y-120023165D01*
X165406880Y-120060881D01*
X165386862Y-120127822D01*
X165348992Y-120165169D01*
X165331966Y-120175899D01*
X165284656Y-120205711D01*
X165189471Y-120313604D01*
X165189470Y-120313607D01*
X165128537Y-120443948D01*
X165106795Y-120586174D01*
X165106794Y-120586181D01*
X165103250Y-120984404D01*
X165099704Y-121382632D01*
X162190378Y-121382632D01*
X162274573Y-121283668D01*
X162345999Y-121173346D01*
X162356214Y-121151884D01*
X162381686Y-121098363D01*
X162400552Y-121058723D01*
X162442446Y-120926296D01*
X162466152Y-120787001D01*
X162473315Y-120703702D01*
X162473863Y-120520266D01*
X162473308Y-120495041D01*
X162468309Y-120388602D01*
X162466547Y-120363950D01*
X162456293Y-120257273D01*
X162444769Y-120191402D01*
X162442829Y-120180312D01*
X162438954Y-120165171D01*
X162423550Y-120104982D01*
X162415194Y-120083461D01*
X162391684Y-120022908D01*
X162379820Y-119992350D01*
X162345741Y-119928480D01*
X162303020Y-119861636D01*
X162248366Y-119789328D01*
X162228912Y-119765168D01*
X162210211Y-119743349D01*
X162181531Y-119679640D01*
X162191847Y-119610536D01*
X162204005Y-119589824D01*
X162210147Y-119581361D01*
X162233134Y-119549685D01*
X162293978Y-119419303D01*
X162328461Y-119305342D01*
X162346377Y-119220390D01*
X162343365Y-119076541D01*
X162323515Y-118956394D01*
X162315301Y-118922500D01*
X162305903Y-118883722D01*
X162305902Y-118883720D01*
X162265647Y-118801355D01*
X162242724Y-118754452D01*
X162242722Y-118754450D01*
X162242722Y-118754448D01*
X162173956Y-118653371D01*
X162169206Y-118646389D01*
X162169201Y-118646382D01*
X162169201Y-118646381D01*
X162152988Y-118624790D01*
X162140898Y-118608688D01*
X162140892Y-118608683D01*
X162140888Y-118608678D01*
X162034392Y-118511965D01*
X162034389Y-118511962D01*
X162034385Y-118511959D01*
X162031455Y-118509978D01*
X161937433Y-118446410D01*
X161937426Y-118446406D01*
X161836931Y-118393822D01*
X161836932Y-118393822D01*
X161836927Y-118393820D01*
X161836925Y-118393819D01*
X161729679Y-118352267D01*
X161675401Y-118331237D01*
X161607496Y-118310285D01*
X161400718Y-118262101D01*
X161400710Y-118262099D01*
X161351227Y-118253138D01*
X161351221Y-118253137D01*
X161109517Y-118221686D01*
X161067756Y-118218004D01*
X160801407Y-118205614D01*
X160773972Y-118205098D01*
X160773447Y-118205089D01*
X160773446Y-118205089D01*
X160665959Y-118206039D01*
X160627084Y-118207881D01*
X160351189Y-118231622D01*
X160351174Y-118231624D01*
X160272027Y-118244827D01*
X160272026Y-118244827D01*
X160272023Y-118244828D01*
X160045148Y-118301492D01*
X160045145Y-118301492D01*
X160045137Y-118301495D01*
X159942668Y-118339248D01*
X159942664Y-118339250D01*
X159758024Y-118431013D01*
X159652337Y-118501338D01*
X159531290Y-118606025D01*
X159488141Y-118625680D01*
X159481390Y-118629900D01*
X159478946Y-118629869D01*
X159467707Y-118634989D01*
X159427891Y-118629225D01*
X159411526Y-118629019D01*
X159405350Y-118625962D01*
X159398558Y-118624979D01*
X159381689Y-118615604D01*
X159376024Y-118611850D01*
X159373557Y-118609729D01*
X159300277Y-118557301D01*
X159242735Y-118523448D01*
X159239980Y-118521713D01*
X159239964Y-118521703D01*
X159164648Y-118474288D01*
X159141142Y-118460364D01*
X159063143Y-118416962D01*
X159001344Y-118387857D01*
X158844513Y-118326571D01*
X158790930Y-118309009D01*
X158790921Y-118309007D01*
X158790922Y-118309007D01*
X158790909Y-118309003D01*
X158610463Y-118260827D01*
X158566353Y-118251138D01*
X158566341Y-118251136D01*
X158566337Y-118251135D01*
X158379041Y-118218689D01*
X158379025Y-118218687D01*
X158332817Y-118212860D01*
X158332804Y-118212858D01*
X158155327Y-118198746D01*
X158092397Y-118197672D01*
X158092395Y-118197672D01*
X158092392Y-118197672D01*
X158059711Y-118199151D01*
X157941470Y-118204504D01*
X157941462Y-118204505D01*
X157826974Y-118223007D01*
X157826956Y-118223011D01*
X157719337Y-118253397D01*
X157719305Y-118253407D01*
X157665514Y-118272037D01*
X157650100Y-118276285D01*
X157649243Y-118276462D01*
X157629355Y-118280292D01*
X157629409Y-118280573D01*
X157579843Y-118290846D01*
X157579139Y-118290788D01*
X157577301Y-118291344D01*
X157575909Y-118291603D01*
X157562189Y-118294148D01*
X157562174Y-118294152D01*
X157469082Y-118322440D01*
X157395479Y-118351265D01*
X157395478Y-118351265D01*
X157274517Y-118409921D01*
X157235417Y-118431069D01*
X157167086Y-118445648D01*
X157101720Y-118420969D01*
X157060073Y-118364868D01*
X157054587Y-118298957D01*
X157055266Y-118295365D01*
X157084136Y-118180352D01*
X157092202Y-118102418D01*
X157092244Y-118102017D01*
X157086423Y-117958254D01*
X157086423Y-117958253D01*
X157086422Y-117958243D01*
X157066804Y-117852405D01*
X157066802Y-117852392D01*
X157065156Y-117845423D01*
X157055511Y-117804575D01*
X157044319Y-117765724D01*
X157026252Y-117713803D01*
X157026250Y-117713800D01*
X157026248Y-117713792D01*
X156987704Y-117619833D01*
X156987701Y-117619829D01*
X156987699Y-117619822D01*
X156936554Y-117525265D01*
X156936550Y-117525260D01*
X156936549Y-117525257D01*
X156922915Y-117505430D01*
X156895694Y-117465841D01*
X156859013Y-117418720D01*
X156859011Y-117418718D01*
X156859010Y-117418717D01*
X156749660Y-117325214D01*
X156745811Y-117322776D01*
X156678060Y-117279860D01*
X156667420Y-117273723D01*
X156641739Y-117258910D01*
X156641734Y-117258908D01*
X156641733Y-117258907D01*
X156641732Y-117258907D01*
X156506033Y-117211080D01*
X156506029Y-117211079D01*
X156506026Y-117211078D01*
X156382894Y-117186623D01*
X156382846Y-117186614D01*
X156328271Y-117178842D01*
X156328265Y-117178842D01*
X156184618Y-117186881D01*
X156184610Y-117186882D01*
X156058348Y-117212307D01*
X156053075Y-117213516D01*
X156031981Y-117218354D01*
X155979841Y-117240093D01*
X155910389Y-117247722D01*
X155881425Y-117237811D01*
X155881104Y-117238547D01*
X155802246Y-117204113D01*
X155706634Y-117173259D01*
X155706620Y-117173255D01*
X155601347Y-117150530D01*
X155533274Y-117140624D01*
X155533281Y-117140624D01*
X155423939Y-117132251D01*
X155423938Y-117132251D01*
X155414973Y-117132441D01*
X155325319Y-117134349D01*
X155238374Y-117144744D01*
X155238358Y-117144746D01*
X155238357Y-117144747D01*
X155238355Y-117144747D01*
X155238352Y-117144748D01*
X155125205Y-117171757D01*
X155125184Y-117171763D01*
X155098315Y-117181561D01*
X155098307Y-117181564D01*
X155005207Y-117226793D01*
X154949346Y-117261411D01*
X154949333Y-117261420D01*
X154911348Y-117287427D01*
X154809950Y-117389504D01*
X154809943Y-117389512D01*
X154768266Y-117445576D01*
X154762488Y-117453508D01*
X154696411Y-117581311D01*
X154666389Y-117667725D01*
X154666388Y-117667730D01*
X154646663Y-117745250D01*
X154645174Y-117751100D01*
X154642754Y-117765724D01*
X154624407Y-117876608D01*
X154619259Y-117918551D01*
X154619257Y-117918564D01*
X154619257Y-117918572D01*
X154606842Y-118072880D01*
X154605309Y-118091940D01*
X154604596Y-118103628D01*
X154580865Y-118169344D01*
X154525372Y-118211798D01*
X154471261Y-118219707D01*
X154422804Y-118215958D01*
X154278369Y-118204783D01*
X154278360Y-118204782D01*
X154278349Y-118204782D01*
X154210860Y-118204082D01*
X154210826Y-118204083D01*
X154031334Y-118214232D01*
X154031322Y-118214233D01*
X153932396Y-118229762D01*
X153932388Y-118229764D01*
X153786666Y-118267736D01*
X153786663Y-118267737D01*
X153749322Y-118280292D01*
X153720194Y-118290085D01*
X153720190Y-118290086D01*
X153720186Y-118290088D01*
X153716539Y-118291603D01*
X153709305Y-118294345D01*
X153678958Y-118304780D01*
X153662497Y-118309202D01*
X153615410Y-118318434D01*
X153612650Y-118320728D01*
X153586613Y-118328712D01*
X153573308Y-118331236D01*
X153498049Y-118357035D01*
X153498030Y-118357043D01*
X153380824Y-118415114D01*
X153380820Y-118415116D01*
X153380819Y-118415117D01*
X153342236Y-118440938D01*
X153281030Y-118481898D01*
X153281012Y-118481910D01*
X153248435Y-118506658D01*
X153183144Y-118531535D01*
X153114768Y-118517164D01*
X153085152Y-118494998D01*
X153074326Y-118484024D01*
X153045241Y-118456775D01*
X152924161Y-118379068D01*
X152924156Y-118379065D01*
X152924154Y-118379064D01*
X152924149Y-118379061D01*
X152924142Y-118379058D01*
X152854346Y-118347236D01*
X152854338Y-118347232D01*
X152854330Y-118347229D01*
X152825124Y-118335003D01*
X152684785Y-118303277D01*
X152648469Y-118300382D01*
X152575842Y-118294594D01*
X152575812Y-118294592D01*
X152518012Y-118293304D01*
X152463534Y-118295210D01*
X152463516Y-118295211D01*
X152384520Y-118304233D01*
X152384504Y-118304235D01*
X152290493Y-118322554D01*
X152260423Y-118329371D01*
X152127702Y-118384900D01*
X152127686Y-118384908D01*
X152055383Y-118428155D01*
X152055381Y-118428157D01*
X152002091Y-118464856D01*
X151902876Y-118569065D01*
X151849601Y-118643998D01*
X151844402Y-118651452D01*
X151844399Y-118651458D01*
X151780884Y-118780565D01*
X151744056Y-118893820D01*
X151724549Y-118977340D01*
X151724548Y-118977347D01*
X151706606Y-119100638D01*
X151677472Y-119164144D01*
X151618629Y-119201817D01*
X151548760Y-119201697D01*
X151490047Y-119163822D01*
X151461131Y-119100216D01*
X151460152Y-119090703D01*
X151459407Y-119079061D01*
X151451493Y-118955452D01*
X151449870Y-118935995D01*
X151448321Y-118920943D01*
X151439604Y-118836244D01*
X151436077Y-118816246D01*
X151426970Y-118764603D01*
X151426968Y-118764591D01*
X151416502Y-118723011D01*
X151416501Y-118723009D01*
X151416500Y-118723004D01*
X151362582Y-118591085D01*
X151362578Y-118591080D01*
X151362578Y-118591079D01*
X151272985Y-118478511D01*
X151272983Y-118478509D01*
X151272982Y-118478508D01*
X151272131Y-118477706D01*
X151243833Y-118452959D01*
X151243831Y-118452957D01*
X151243829Y-118452956D01*
X151243825Y-118452953D01*
X151120322Y-118379160D01*
X151055957Y-118352267D01*
X150990776Y-118334710D01*
X150926826Y-118317484D01*
X150926829Y-118317484D01*
X150816268Y-118302980D01*
X150816252Y-118302978D01*
X150793173Y-118301495D01*
X150749451Y-118298685D01*
X150749443Y-118298685D01*
X150610707Y-118298972D01*
X150497617Y-118312025D01*
X150497612Y-118312026D01*
X150457053Y-118321428D01*
X150457033Y-118321433D01*
X150355120Y-118356880D01*
X150355105Y-118356886D01*
X150351421Y-118358628D01*
X150282399Y-118369479D01*
X150251130Y-118361143D01*
X150174602Y-118329561D01*
X150174595Y-118329559D01*
X150084928Y-118306682D01*
X150084907Y-118306678D01*
X150007041Y-118293189D01*
X150007033Y-118293188D01*
X149878093Y-118281125D01*
X149844920Y-118279119D01*
X149816729Y-118278343D01*
X149750257Y-118256819D01*
X149705974Y-118202775D01*
X149697736Y-118174197D01*
X149696606Y-118167215D01*
X149688860Y-118119343D01*
X149637500Y-117984941D01*
X149597312Y-117912724D01*
X149575898Y-117877675D01*
X149479747Y-117770640D01*
X149357335Y-117695030D01*
X149288566Y-117665099D01*
X149277021Y-117660074D01*
X149250715Y-117649494D01*
X149250709Y-117649492D01*
X149250706Y-117649491D01*
X149188498Y-117636132D01*
X149110039Y-117619283D01*
X149110034Y-117619282D01*
X149110033Y-117619282D01*
X149110031Y-117619281D01*
X149110025Y-117619281D01*
X148977776Y-117610176D01*
X148931934Y-117609104D01*
X148931927Y-117609103D01*
X148864239Y-117610592D01*
X148808901Y-117614857D01*
X148808882Y-117614859D01*
X148759333Y-117621430D01*
X148741758Y-117623761D01*
X148617290Y-117656813D01*
X148617288Y-117656813D01*
X148617287Y-117656814D01*
X148562990Y-117678961D01*
X148520235Y-117698773D01*
X148520229Y-117698776D01*
X148403422Y-117782758D01*
X148403416Y-117782763D01*
X148360592Y-117823969D01*
X148339591Y-117845415D01*
X148339583Y-117845425D01*
X148258061Y-117963976D01*
X148225370Y-118030025D01*
X148187716Y-118132836D01*
X148187714Y-118132843D01*
X148165682Y-118221892D01*
X148130473Y-118282241D01*
X148068225Y-118313975D01*
X148010032Y-118310985D01*
X147893439Y-118276381D01*
X147893420Y-118276376D01*
X147841321Y-118263877D01*
X147841310Y-118263875D01*
X147841302Y-118263873D01*
X147672023Y-118232648D01*
X147670554Y-118232377D01*
X147670544Y-118232375D01*
X147621552Y-118225796D01*
X147381217Y-118205421D01*
X147322524Y-118200445D01*
X147322520Y-118200444D01*
X147322498Y-118200443D01*
X147322507Y-118200443D01*
X147259507Y-118199045D01*
X146971892Y-118210611D01*
X146971883Y-118210612D01*
X146903964Y-118217964D01*
X146903952Y-118217966D01*
X146639364Y-118264868D01*
X146639353Y-118264871D01*
X146560291Y-118285599D01*
X146560262Y-118285607D01*
X146330325Y-118366263D01*
X146330303Y-118366273D01*
X146233058Y-118412542D01*
X146233056Y-118412543D01*
X146049345Y-118525392D01*
X145987120Y-118570468D01*
X145987105Y-118570480D01*
X145952043Y-118600193D01*
X145952037Y-118600198D01*
X145923205Y-118627486D01*
X145860983Y-118659270D01*
X145791455Y-118652369D01*
X145763058Y-118636237D01*
X145709179Y-118595388D01*
X145476509Y-118455751D01*
X145476496Y-118455744D01*
X145476493Y-118455743D01*
X145395227Y-118416379D01*
X145395216Y-118416374D01*
X145110106Y-118308531D01*
X145067165Y-118294447D01*
X144936501Y-118257974D01*
X144894433Y-118248148D01*
X144839980Y-118237860D01*
X144762070Y-118223140D01*
X144719053Y-118218687D01*
X144678105Y-118214448D01*
X144556907Y-118212076D01*
X144556875Y-118212077D01*
X144471657Y-118217624D01*
X144337388Y-118237860D01*
X144321907Y-118240952D01*
X144290273Y-118247270D01*
X144290264Y-118247272D01*
X144290255Y-118247274D01*
X144118760Y-118290083D01*
X144101208Y-118294800D01*
X144059965Y-118306682D01*
X144029999Y-118315315D01*
X143988121Y-118329389D01*
X143851453Y-118382071D01*
X143711011Y-118436207D01*
X143627182Y-118477805D01*
X143627160Y-118477818D01*
X143570410Y-118512872D01*
X143503029Y-118531355D01*
X143436352Y-118510475D01*
X143425491Y-118502323D01*
X143314473Y-118409070D01*
X143182696Y-118351318D01*
X143182694Y-118351317D01*
X143182693Y-118351317D01*
X143182626Y-118351298D01*
X143182399Y-118351235D01*
X143090326Y-118334709D01*
X143052706Y-118331506D01*
X143042292Y-118330728D01*
X142952723Y-118324974D01*
X142950147Y-118324816D01*
X142949969Y-118324806D01*
X142876240Y-118320497D01*
X142821830Y-118317318D01*
X142821754Y-118317314D01*
X142819954Y-118317212D01*
X142819858Y-118317206D01*
X142819810Y-118317204D01*
X142737047Y-118312663D01*
X142671186Y-118289335D01*
X142628393Y-118234104D01*
X142622344Y-118213644D01*
X142622184Y-118212858D01*
X142606734Y-118137152D01*
X142606732Y-118137146D01*
X142606731Y-118137140D01*
X142596785Y-118103628D01*
X142589052Y-118077571D01*
X142578339Y-118048566D01*
X142566190Y-118015673D01*
X142566189Y-118015671D01*
X142558512Y-118003479D01*
X142530037Y-117958254D01*
X142490707Y-117895789D01*
X142471645Y-117828570D01*
X142491951Y-117761716D01*
X142507950Y-117742049D01*
X143500000Y-116750000D01*
X143500000Y-102295943D01*
X144124500Y-102295943D01*
X144124500Y-102454057D01*
X144135332Y-102494480D01*
X144165423Y-102606783D01*
X144165426Y-102606790D01*
X144244475Y-102743709D01*
X144244479Y-102743714D01*
X144244480Y-102743716D01*
X144356284Y-102855520D01*
X144356286Y-102855521D01*
X144356290Y-102855524D01*
X144493209Y-102934573D01*
X144493216Y-102934577D01*
X144645943Y-102975500D01*
X148474903Y-102975500D01*
X148541942Y-102995185D01*
X148562584Y-103011819D01*
X148890139Y-103339374D01*
X148890149Y-103339385D01*
X148894479Y-103343715D01*
X148894480Y-103343716D01*
X149006284Y-103455520D01*
X149093095Y-103505639D01*
X149093097Y-103505641D01*
X149131151Y-103527611D01*
X149143215Y-103534577D01*
X149295943Y-103575500D01*
X149454057Y-103575500D01*
X169949903Y-103575500D01*
X170016942Y-103595185D01*
X170037584Y-103611819D01*
X171138181Y-104712416D01*
X171171666Y-104773739D01*
X171174500Y-104800097D01*
X171174500Y-106463330D01*
X171174499Y-106463348D01*
X171174499Y-106629054D01*
X171174498Y-106629054D01*
X171174499Y-106629057D01*
X171215423Y-106781785D01*
X171215424Y-106781787D01*
X171215423Y-106781787D01*
X171229568Y-106806285D01*
X171229569Y-106806286D01*
X171277035Y-106888500D01*
X171293508Y-106956400D01*
X171270655Y-107022427D01*
X171215734Y-107065618D01*
X171169648Y-107074500D01*
X170525098Y-107074500D01*
X170458059Y-107054815D01*
X170437417Y-107038181D01*
X170093717Y-106694481D01*
X170093716Y-106694480D01*
X170006904Y-106644360D01*
X170006904Y-106644359D01*
X170006900Y-106644358D01*
X169956785Y-106615423D01*
X169804057Y-106574499D01*
X169645943Y-106574499D01*
X169638347Y-106574499D01*
X169638331Y-106574500D01*
X149545943Y-106574500D01*
X149393216Y-106615423D01*
X149393209Y-106615426D01*
X149256290Y-106694475D01*
X149256282Y-106694481D01*
X149144481Y-106806282D01*
X149144475Y-106806290D01*
X149065426Y-106943209D01*
X149065423Y-106943216D01*
X149024500Y-107095943D01*
X149024500Y-107254057D01*
X149033690Y-107288352D01*
X149065423Y-107406783D01*
X149065426Y-107406790D01*
X149144475Y-107543709D01*
X149144479Y-107543714D01*
X149144480Y-107543716D01*
X149256284Y-107655520D01*
X149256286Y-107655521D01*
X149256290Y-107655524D01*
X149393209Y-107734573D01*
X149393216Y-107734577D01*
X149545943Y-107775500D01*
X169424903Y-107775500D01*
X169491942Y-107795185D01*
X169512583Y-107811818D01*
X169856284Y-108155520D01*
X169856286Y-108155521D01*
X169856290Y-108155524D01*
X169944221Y-108206290D01*
X169993216Y-108234577D01*
X170145943Y-108275501D01*
X170145945Y-108275501D01*
X170311654Y-108275501D01*
X170311670Y-108275500D01*
X174524903Y-108275500D01*
X174591942Y-108295185D01*
X174612584Y-108311819D01*
X175088181Y-108787416D01*
X175121666Y-108848739D01*
X175124500Y-108875097D01*
X175124500Y-111120939D01*
X175124499Y-111120943D01*
X175124499Y-111175502D01*
X175113542Y-111212816D01*
X175108789Y-111229003D01*
X175104813Y-111242541D01*
X175052009Y-111288295D01*
X175051998Y-111288296D01*
X175000499Y-111299500D01*
X174175097Y-111299500D01*
X174108058Y-111279815D01*
X174087416Y-111263181D01*
X173762590Y-110938355D01*
X173762588Y-110938352D01*
X173643717Y-110819481D01*
X173643716Y-110819480D01*
X173556904Y-110769360D01*
X173556904Y-110769359D01*
X173556900Y-110769358D01*
X173506785Y-110740423D01*
X173354057Y-110699499D01*
X173195943Y-110699499D01*
X173188347Y-110699499D01*
X173188331Y-110699500D01*
X149595943Y-110699500D01*
X149443216Y-110740423D01*
X149443209Y-110740426D01*
X149306290Y-110819475D01*
X149306282Y-110819481D01*
X149194481Y-110931282D01*
X149194475Y-110931290D01*
X149115426Y-111068209D01*
X149115423Y-111068216D01*
X149074500Y-111220943D01*
X149074500Y-111379057D01*
X149085332Y-111419480D01*
X149115423Y-111531783D01*
X149115426Y-111531790D01*
X149194475Y-111668709D01*
X149194479Y-111668714D01*
X149194480Y-111668716D01*
X149306284Y-111780520D01*
X149306286Y-111780521D01*
X149306290Y-111780524D01*
X149443209Y-111859573D01*
X149443216Y-111859577D01*
X149595943Y-111900500D01*
X172974903Y-111900500D01*
X173041942Y-111920185D01*
X173062584Y-111936819D01*
X173390139Y-112264374D01*
X173390149Y-112264385D01*
X173394479Y-112268715D01*
X173394480Y-112268716D01*
X173506284Y-112380520D01*
X173593095Y-112430639D01*
X173593097Y-112430641D01*
X173631151Y-112452611D01*
X173643215Y-112459577D01*
X173795943Y-112500500D01*
X176345942Y-112500500D01*
X176345943Y-112500500D01*
X177299903Y-112500500D01*
X177366942Y-112520185D01*
X177387584Y-112536819D01*
X177788181Y-112937416D01*
X177821666Y-112998739D01*
X177824500Y-113025097D01*
X177824500Y-114754056D01*
X177865423Y-114906783D01*
X177865426Y-114906790D01*
X177944475Y-115043709D01*
X177944479Y-115043714D01*
X177944480Y-115043716D01*
X178056284Y-115155520D01*
X178056286Y-115155521D01*
X178056290Y-115155524D01*
X178193209Y-115234573D01*
X178193216Y-115234577D01*
X178345943Y-115275500D01*
X178345945Y-115275500D01*
X178504055Y-115275500D01*
X178504057Y-115275500D01*
X178656784Y-115234577D01*
X178793716Y-115155520D01*
X178905520Y-115043716D01*
X178984577Y-114906784D01*
X179025500Y-114754057D01*
X179025500Y-112645943D01*
X178986529Y-112500500D01*
X178984577Y-112493215D01*
X178984577Y-112493214D01*
X178955639Y-112443095D01*
X178955637Y-112443092D01*
X178948449Y-112430641D01*
X178905520Y-112356284D01*
X178793716Y-112244480D01*
X178793715Y-112244479D01*
X178789385Y-112240149D01*
X178789374Y-112240139D01*
X178087590Y-111538355D01*
X178087588Y-111538352D01*
X177968717Y-111419481D01*
X177968716Y-111419480D01*
X177881904Y-111369360D01*
X177881904Y-111369359D01*
X177881900Y-111369358D01*
X177831785Y-111340423D01*
X177679057Y-111299499D01*
X177520943Y-111299499D01*
X177513347Y-111299499D01*
X177513331Y-111299500D01*
X176725097Y-111299500D01*
X176658058Y-111279815D01*
X176637416Y-111263181D01*
X176361819Y-110987584D01*
X176328334Y-110926261D01*
X176325500Y-110899903D01*
X176325500Y-108664060D01*
X176325501Y-108664047D01*
X176325501Y-108495944D01*
X176284576Y-108343214D01*
X176284573Y-108343209D01*
X176205524Y-108206290D01*
X176205518Y-108206282D01*
X175287590Y-107288355D01*
X175287588Y-107288352D01*
X175168717Y-107169481D01*
X175168716Y-107169480D01*
X175064960Y-107109577D01*
X175064959Y-107109576D01*
X175031783Y-107090422D01*
X174975881Y-107075443D01*
X174879057Y-107049499D01*
X174720943Y-107049499D01*
X174713347Y-107049499D01*
X174713331Y-107049500D01*
X173175097Y-107049500D01*
X173108058Y-107029815D01*
X173087416Y-107013181D01*
X172411819Y-106337584D01*
X172378334Y-106276261D01*
X172375500Y-106249903D01*
X172375500Y-104589060D01*
X172375501Y-104589047D01*
X172375501Y-104420944D01*
X172334576Y-104268214D01*
X172334573Y-104268209D01*
X172255524Y-104131290D01*
X172255518Y-104131282D01*
X170737590Y-102613355D01*
X170737588Y-102613352D01*
X170618717Y-102494481D01*
X170618716Y-102494480D01*
X170531904Y-102444360D01*
X170531904Y-102444359D01*
X170531900Y-102444358D01*
X170481785Y-102415423D01*
X170329057Y-102374499D01*
X170170943Y-102374499D01*
X170163347Y-102374499D01*
X170163331Y-102374500D01*
X149675097Y-102374500D01*
X149608058Y-102354815D01*
X149587416Y-102338181D01*
X149439128Y-102189893D01*
X149412247Y-102149663D01*
X149409574Y-102143209D01*
X149330524Y-102006290D01*
X149330518Y-102006282D01*
X149218717Y-101894481D01*
X149218709Y-101894475D01*
X149081790Y-101815426D01*
X149081786Y-101815424D01*
X149081784Y-101815423D01*
X148929057Y-101774500D01*
X148929056Y-101774500D01*
X148854061Y-101774500D01*
X148854057Y-101774499D01*
X148695943Y-101774499D01*
X148695939Y-101774500D01*
X144645943Y-101774500D01*
X144493216Y-101815423D01*
X144493209Y-101815426D01*
X144356290Y-101894475D01*
X144356282Y-101894481D01*
X144244481Y-102006282D01*
X144244475Y-102006290D01*
X144165426Y-102143209D01*
X144165423Y-102143216D01*
X144124500Y-102295943D01*
X143500000Y-102295943D01*
X143500000Y-95401577D01*
X144249500Y-95401577D01*
X144249500Y-95598422D01*
X144280290Y-95792826D01*
X144341117Y-95980029D01*
X144401766Y-96099058D01*
X144430476Y-96155405D01*
X144546172Y-96314646D01*
X144685354Y-96453828D01*
X144844595Y-96569524D01*
X144877053Y-96586062D01*
X145019970Y-96658882D01*
X145019972Y-96658882D01*
X145019975Y-96658884D01*
X145120317Y-96691487D01*
X145207173Y-96719709D01*
X145401578Y-96750500D01*
X145401583Y-96750500D01*
X145598422Y-96750500D01*
X145792826Y-96719709D01*
X145980025Y-96658884D01*
X146155405Y-96569524D01*
X146314646Y-96453828D01*
X146453828Y-96314646D01*
X146463297Y-96301612D01*
X146518628Y-96258948D01*
X146563614Y-96250500D01*
X169971183Y-96250500D01*
X170016139Y-96253958D01*
X170044919Y-96250500D01*
X170073918Y-96250500D01*
X170073920Y-96250500D01*
X170093663Y-96246572D01*
X170118154Y-96241700D01*
X170162919Y-96236322D01*
X170190473Y-96227315D01*
X170218913Y-96221658D01*
X170260578Y-96204399D01*
X170303438Y-96190390D01*
X170328705Y-96176179D01*
X170335564Y-96173339D01*
X170335564Y-96173338D01*
X170355495Y-96165084D01*
X170389036Y-96142671D01*
X170397129Y-96137702D01*
X170432296Y-96117927D01*
X170454308Y-96099058D01*
X170478416Y-96082951D01*
X170510304Y-96051063D01*
X170675709Y-95909287D01*
X172585511Y-95909287D01*
X172585511Y-95909296D01*
X172586618Y-95955488D01*
X172586619Y-95955508D01*
X172589805Y-96001117D01*
X172595631Y-96050045D01*
X172595636Y-96050077D01*
X172602205Y-96088977D01*
X172602208Y-96088991D01*
X172637560Y-96207493D01*
X172637564Y-96207505D01*
X172643624Y-96221350D01*
X172646839Y-96228695D01*
X172655081Y-96246572D01*
X172729400Y-96356544D01*
X172735645Y-96365784D01*
X172761943Y-96387529D01*
X172801065Y-96445419D01*
X172802678Y-96515270D01*
X172788686Y-96547828D01*
X172767730Y-96582063D01*
X172752723Y-96613403D01*
X172726915Y-96678544D01*
X172703275Y-96820472D01*
X172703275Y-96820475D01*
X172702436Y-96858208D01*
X172702436Y-96858231D01*
X172702321Y-96872592D01*
X172723675Y-97014879D01*
X172730773Y-97038512D01*
X172738137Y-97063031D01*
X172769116Y-97141633D01*
X172785421Y-97174615D01*
X172800021Y-97204148D01*
X172807403Y-97217671D01*
X172819669Y-97240141D01*
X172868086Y-97320870D01*
X172871755Y-97326893D01*
X172877319Y-97335890D01*
X172880446Y-97341241D01*
X172883529Y-97346834D01*
X172883886Y-97347948D01*
X172892449Y-97365649D01*
X172906312Y-97392260D01*
X172925829Y-97427157D01*
X172931487Y-97437012D01*
X172958171Y-97482303D01*
X172958236Y-97482415D01*
X172958843Y-97483444D01*
X172958852Y-97483461D01*
X172968591Y-97499981D01*
X172985841Y-97529242D01*
X172986769Y-97530845D01*
X173012034Y-97575250D01*
X173013307Y-97577543D01*
X173031715Y-97611550D01*
X173032155Y-97612371D01*
X173036699Y-97620920D01*
X173036703Y-97620926D01*
X173036707Y-97620933D01*
X173072963Y-97679215D01*
X173115918Y-97738823D01*
X173140934Y-97770753D01*
X173248790Y-97865982D01*
X173248792Y-97865983D01*
X173248793Y-97865984D01*
X173248798Y-97865988D01*
X173281102Y-97887175D01*
X173297314Y-97897808D01*
X173389487Y-97945520D01*
X173389486Y-97945520D01*
X173485073Y-97968104D01*
X173529512Y-97978604D01*
X173584904Y-97983559D01*
X173614220Y-97982018D01*
X173621266Y-97981649D01*
X173689246Y-97997789D01*
X173737708Y-98048120D01*
X173750265Y-98086203D01*
X173752134Y-98098086D01*
X173768004Y-98149596D01*
X173768007Y-98149605D01*
X173803507Y-98227819D01*
X173821024Y-98266413D01*
X173858280Y-98310996D01*
X173913286Y-98376820D01*
X173952289Y-98411857D01*
X173953990Y-98413379D01*
X173953992Y-98413380D01*
X174073960Y-98492811D01*
X174073966Y-98492813D01*
X174073971Y-98492817D01*
X174077676Y-98494569D01*
X174078431Y-98494927D01*
X174119942Y-98512355D01*
X174153734Y-98524803D01*
X174178242Y-98533125D01*
X174229003Y-98548924D01*
X174244037Y-98553349D01*
X174302603Y-98569604D01*
X174309914Y-98571574D01*
X174352703Y-98582762D01*
X174352885Y-98582810D01*
X174460661Y-98611165D01*
X174461102Y-98611282D01*
X174484643Y-98617568D01*
X174543303Y-98633232D01*
X174543988Y-98633418D01*
X174600963Y-98649049D01*
X174602512Y-98649484D01*
X174630577Y-98657592D01*
X174641348Y-98661247D01*
X174647286Y-98663571D01*
X174651651Y-98665280D01*
X174655224Y-98666558D01*
X174658438Y-98667709D01*
X174705669Y-98679803D01*
X174749493Y-98691025D01*
X174766693Y-98693757D01*
X174780215Y-98695906D01*
X174823302Y-98700868D01*
X174866504Y-98703973D01*
X174895811Y-98705226D01*
X174914842Y-98705486D01*
X174915793Y-98705500D01*
X174915793Y-98705499D01*
X174915794Y-98705500D01*
X174993443Y-98700577D01*
X175038670Y-98694187D01*
X175098597Y-98681477D01*
X175106489Y-98679804D01*
X175106489Y-98679803D01*
X175106493Y-98679803D01*
X175237844Y-98621079D01*
X175237848Y-98621076D01*
X175237851Y-98621075D01*
X175268203Y-98601909D01*
X175268202Y-98601909D01*
X175268211Y-98601904D01*
X175364384Y-98523090D01*
X175365003Y-98522440D01*
X175365005Y-98522436D01*
X175367612Y-98519700D01*
X175368381Y-98520433D01*
X175422778Y-98484351D01*
X175492641Y-98483340D01*
X175526685Y-98498632D01*
X175544442Y-98510095D01*
X175553228Y-98515768D01*
X175559939Y-98520100D01*
X175695866Y-98567275D01*
X175741176Y-98576048D01*
X175813316Y-98584697D01*
X175956542Y-98570992D01*
X176012359Y-98557439D01*
X176124233Y-98515768D01*
X176194400Y-98479690D01*
X176221477Y-98464551D01*
X176221541Y-98464659D01*
X176260596Y-98441494D01*
X176265968Y-98438438D01*
X176273094Y-98434690D01*
X176275338Y-98433600D01*
X176275341Y-98433600D01*
X176297087Y-98423048D01*
X176324760Y-98408547D01*
X176364402Y-98386186D01*
X176373358Y-98381013D01*
X176425590Y-98350125D01*
X176430629Y-98347105D01*
X176430636Y-98347101D01*
X176490102Y-98310996D01*
X176490762Y-98310590D01*
X176494046Y-98308577D01*
X176555537Y-98270476D01*
X176559504Y-98267992D01*
X176617663Y-98231206D01*
X176622946Y-98227819D01*
X176672467Y-98195629D01*
X176682187Y-98189149D01*
X176717763Y-98164836D01*
X176749733Y-98141088D01*
X176766057Y-98127933D01*
X176768808Y-98125700D01*
X176866109Y-98019709D01*
X176872768Y-98009973D01*
X176926399Y-97908469D01*
X176934702Y-97887206D01*
X176949839Y-97842345D01*
X176969317Y-97699789D01*
X176969134Y-97673694D01*
X176969133Y-97673687D01*
X176968817Y-97669476D01*
X176970693Y-97669334D01*
X176979467Y-97607796D01*
X177025159Y-97554938D01*
X177051527Y-97542077D01*
X177172382Y-97499980D01*
X177199375Y-97486061D01*
X177297955Y-97419480D01*
X177331943Y-97390150D01*
X177352539Y-97371361D01*
X177440854Y-97257773D01*
X177463709Y-97217677D01*
X177510798Y-97105502D01*
X177516788Y-97084419D01*
X177530653Y-97035680D01*
X177530654Y-97035681D01*
X177545848Y-96982334D01*
X177546624Y-96979581D01*
X177555362Y-96948229D01*
X177557048Y-96942026D01*
X177571827Y-96886267D01*
X177574210Y-96876916D01*
X177584951Y-96833025D01*
X177585908Y-96829044D01*
X177588669Y-96817350D01*
X177590889Y-96807951D01*
X177591294Y-96806285D01*
X177602708Y-96760911D01*
X177602966Y-96759911D01*
X177616869Y-96707300D01*
X177620033Y-96694655D01*
X177655404Y-96634402D01*
X177690572Y-96611179D01*
X177747908Y-96586067D01*
X177766092Y-96576320D01*
X177781539Y-96567446D01*
X177791831Y-96561535D01*
X177793881Y-96560275D01*
X177800305Y-96556330D01*
X177807722Y-96551686D01*
X177836237Y-96533485D01*
X177862547Y-96515500D01*
X177875260Y-96506208D01*
X177875261Y-96506208D01*
X177973746Y-96411310D01*
X177993553Y-96377149D01*
X178020513Y-96330652D01*
X178071168Y-96282532D01*
X178139799Y-96269435D01*
X178159699Y-96273029D01*
X178194151Y-96282208D01*
X178278772Y-96297192D01*
X178422453Y-96289621D01*
X178423356Y-96289442D01*
X178460273Y-96282134D01*
X178486440Y-96276228D01*
X178486440Y-96276227D01*
X178486444Y-96276227D01*
X178619449Y-96221350D01*
X178662208Y-96196060D01*
X178729930Y-96148091D01*
X178751529Y-96129955D01*
X178781772Y-96104561D01*
X178787912Y-96099058D01*
X178806013Y-96082837D01*
X178871101Y-96020618D01*
X178876750Y-96015134D01*
X178959236Y-95933788D01*
X178959598Y-95933431D01*
X179003117Y-95890427D01*
X179006972Y-95886575D01*
X179006983Y-95886563D01*
X179007072Y-95886475D01*
X179041281Y-95851932D01*
X179081679Y-95811143D01*
X179091390Y-95801063D01*
X179147598Y-95741075D01*
X179165949Y-95720384D01*
X179205687Y-95673029D01*
X179237645Y-95630604D01*
X179262941Y-95593071D01*
X179309475Y-95507118D01*
X179322356Y-95476599D01*
X179326069Y-95467558D01*
X179359885Y-95327708D01*
X179362378Y-95301391D01*
X179363883Y-95281215D01*
X179351183Y-95137897D01*
X179345316Y-95112972D01*
X179339754Y-95098544D01*
X179334012Y-95028912D01*
X179366827Y-94967227D01*
X179391608Y-94947650D01*
X179473435Y-94898507D01*
X179500793Y-94876218D01*
X179534125Y-94844595D01*
X179556082Y-94823763D01*
X179556082Y-94823762D01*
X179556086Y-94823759D01*
X179636544Y-94704478D01*
X179653627Y-94669170D01*
X179696251Y-94537683D01*
X179705434Y-94486145D01*
X179712600Y-94423526D01*
X179716263Y-94352551D01*
X179716927Y-94329294D01*
X179717445Y-94235670D01*
X179717452Y-94231824D01*
X179717205Y-94113259D01*
X179717576Y-93807464D01*
X179717621Y-93770826D01*
X179717621Y-93770670D01*
X179717618Y-93768222D01*
X179696624Y-93625881D01*
X179636379Y-93495221D01*
X179541763Y-93386827D01*
X179500922Y-93351697D01*
X179493946Y-93345805D01*
X179483430Y-93337085D01*
X179470878Y-93327853D01*
X179436106Y-93302277D01*
X179436084Y-93302262D01*
X179419508Y-93291496D01*
X179419495Y-93291488D01*
X179396152Y-93279938D01*
X179344796Y-93232563D01*
X179327206Y-93164944D01*
X179335157Y-93124956D01*
X179340464Y-93110916D01*
X179348789Y-93073439D01*
X179360017Y-92992252D01*
X179358061Y-92969708D01*
X179347583Y-92848914D01*
X179347583Y-92848910D01*
X179338580Y-92810342D01*
X179334231Y-92793090D01*
X179325829Y-92773617D01*
X179277235Y-92660985D01*
X179250420Y-92617260D01*
X179250406Y-92617240D01*
X179204276Y-92553693D01*
X179199835Y-92548481D01*
X179159167Y-92500751D01*
X179159160Y-92500744D01*
X179159153Y-92500735D01*
X179138217Y-92477648D01*
X179113587Y-92452117D01*
X179074321Y-92411415D01*
X179068867Y-92405848D01*
X178985737Y-92322295D01*
X178985704Y-92322261D01*
X178984808Y-92321362D01*
X178984808Y-92321361D01*
X178956456Y-92292998D01*
X178952353Y-92288940D01*
X178906229Y-92243823D01*
X178885516Y-92223562D01*
X178879282Y-92217567D01*
X178879267Y-92217553D01*
X178879236Y-92217523D01*
X178818593Y-92160201D01*
X178810448Y-92152671D01*
X178759445Y-92106555D01*
X178744941Y-92093932D01*
X178707235Y-92062359D01*
X178707225Y-92062351D01*
X178707224Y-92062350D01*
X178707213Y-92062341D01*
X178661821Y-92028469D01*
X178640813Y-92014554D01*
X178639742Y-92013895D01*
X178612071Y-91996867D01*
X178612072Y-91996867D01*
X178478217Y-91944110D01*
X178478215Y-91944109D01*
X178478214Y-91944109D01*
X178461992Y-91940265D01*
X178451630Y-91937810D01*
X178434160Y-91933995D01*
X178290498Y-91926160D01*
X178263417Y-91928557D01*
X178236794Y-91931627D01*
X178157707Y-91954727D01*
X178087838Y-91954627D01*
X178029114Y-91916768D01*
X178013700Y-91894368D01*
X177991369Y-91852787D01*
X177976005Y-91824178D01*
X177965362Y-91809752D01*
X177965360Y-91809750D01*
X177965353Y-91809740D01*
X177952305Y-91793789D01*
X177933391Y-91770665D01*
X177822647Y-91678810D01*
X177819236Y-91676720D01*
X177798304Y-91663897D01*
X177671762Y-91608509D01*
X177671752Y-91608506D01*
X177632831Y-91597503D01*
X177632827Y-91597502D01*
X177632823Y-91597501D01*
X177561514Y-91582791D01*
X177561508Y-91582790D01*
X177561507Y-91582790D01*
X177505088Y-91575336D01*
X177466809Y-91571753D01*
X177390011Y-91567503D01*
X177369116Y-91566780D01*
X177341828Y-91566400D01*
X177269092Y-91565387D01*
X177264340Y-91565375D01*
X177257557Y-91565358D01*
X177257546Y-91565358D01*
X177257511Y-91565358D01*
X177131527Y-91566470D01*
X177131528Y-91566471D01*
X177130988Y-91566477D01*
X177128587Y-91566505D01*
X177128567Y-91566505D01*
X177128419Y-91566507D01*
X177128418Y-91566506D01*
X177087422Y-91567094D01*
X177087369Y-91567095D01*
X176988287Y-91568472D01*
X176988273Y-91568472D01*
X176983795Y-91568533D01*
X176970511Y-91568894D01*
X176970492Y-91568894D01*
X176970446Y-91568896D01*
X176891347Y-91572083D01*
X176887306Y-91572433D01*
X176844688Y-91576134D01*
X176844658Y-91576137D01*
X176805775Y-91581339D01*
X176786678Y-91583895D01*
X176786674Y-91583895D01*
X176786666Y-91583897D01*
X176675694Y-91611813D01*
X176675685Y-91611815D01*
X176635455Y-91626953D01*
X176635410Y-91626972D01*
X176576053Y-91653792D01*
X176576040Y-91653800D01*
X176459931Y-91738756D01*
X176434003Y-91764125D01*
X176387382Y-91816552D01*
X176344530Y-91892340D01*
X176294399Y-91941008D01*
X176225913Y-91954848D01*
X176201496Y-91950053D01*
X176201496Y-91950056D01*
X176201443Y-91950042D01*
X176199759Y-91949712D01*
X176198197Y-91949226D01*
X176198195Y-91949225D01*
X176198190Y-91949224D01*
X176089223Y-91928092D01*
X176089217Y-91928091D01*
X176063970Y-91926028D01*
X176038610Y-91924596D01*
X175895622Y-91940608D01*
X175867626Y-91947885D01*
X175867622Y-91947886D01*
X175749297Y-91995244D01*
X175715726Y-92013895D01*
X175715724Y-92013896D01*
X175654308Y-92054115D01*
X175612373Y-92086156D01*
X175582458Y-92110887D01*
X175529319Y-92158369D01*
X175514706Y-92171955D01*
X175447612Y-92236850D01*
X175440543Y-92243823D01*
X175356528Y-92328312D01*
X175355078Y-92329778D01*
X175320627Y-92364714D01*
X175319837Y-92365516D01*
X175319838Y-92365517D01*
X175245982Y-92440795D01*
X175235229Y-92452100D01*
X175235213Y-92452117D01*
X175211685Y-92477628D01*
X175180357Y-92511595D01*
X175149453Y-92548481D01*
X175113104Y-92596321D01*
X175055292Y-92693228D01*
X175055290Y-92693230D01*
X175055289Y-92693234D01*
X175049784Y-92705362D01*
X175036991Y-92733550D01*
X175015099Y-92790776D01*
X174991897Y-92932769D01*
X174991897Y-92932773D01*
X174991189Y-92969708D01*
X174995071Y-93042668D01*
X175017693Y-93124951D01*
X175020085Y-93133651D01*
X175018876Y-93203510D01*
X174980090Y-93261626D01*
X174966017Y-93271813D01*
X174875926Y-93327853D01*
X174875925Y-93327854D01*
X174851142Y-93348696D01*
X174851136Y-93348703D01*
X174768167Y-93437592D01*
X174743547Y-93471332D01*
X174682377Y-93581981D01*
X174675692Y-93598736D01*
X174661490Y-93646212D01*
X174623416Y-93704797D01*
X174559714Y-93733498D01*
X174530654Y-93734086D01*
X174420272Y-93723318D01*
X174420250Y-93723318D01*
X174385254Y-93724913D01*
X174362386Y-93726477D01*
X174222430Y-93759793D01*
X174222417Y-93759797D01*
X174199769Y-93768751D01*
X174161059Y-93785964D01*
X174117701Y-93807464D01*
X174101343Y-93815950D01*
X174045527Y-93846207D01*
X174033996Y-93852655D01*
X173972411Y-93888161D01*
X173968352Y-93890525D01*
X173915109Y-93921860D01*
X173914149Y-93922419D01*
X173871952Y-93946746D01*
X173870360Y-93947648D01*
X173855504Y-93955923D01*
X173849301Y-93959153D01*
X173837860Y-93964704D01*
X173801917Y-93983972D01*
X173770710Y-94002359D01*
X173759384Y-94009233D01*
X173719033Y-94034462D01*
X173718489Y-94034800D01*
X173690399Y-94052161D01*
X173686278Y-94054599D01*
X173651966Y-94074016D01*
X173641558Y-94079276D01*
X173621593Y-94088213D01*
X173621589Y-94088215D01*
X173600711Y-94101410D01*
X173598483Y-94102819D01*
X173521541Y-94162553D01*
X173492423Y-94190043D01*
X173492401Y-94190066D01*
X173452822Y-94231953D01*
X173452797Y-94231981D01*
X173426329Y-94263404D01*
X173426313Y-94263424D01*
X173374599Y-94337307D01*
X173374595Y-94337314D01*
X173359399Y-94363771D01*
X173359398Y-94363773D01*
X173331026Y-94421355D01*
X173295224Y-94560706D01*
X173295224Y-94560709D01*
X173293421Y-94577234D01*
X173292420Y-94588576D01*
X173291586Y-94598024D01*
X173294893Y-94641789D01*
X173280315Y-94710121D01*
X173231108Y-94759724D01*
X173200580Y-94771611D01*
X173187835Y-94774714D01*
X173159862Y-94782379D01*
X173159854Y-94782382D01*
X173029625Y-94843528D01*
X173029614Y-94843534D01*
X173003960Y-94860407D01*
X172919450Y-94930213D01*
X172911018Y-94938878D01*
X172843100Y-95025975D01*
X172843091Y-95025988D01*
X172843087Y-95025994D01*
X172841287Y-95028912D01*
X172828236Y-95050065D01*
X172793810Y-95116382D01*
X172777374Y-95154741D01*
X172763678Y-95190354D01*
X172744717Y-95245824D01*
X172738493Y-95265310D01*
X172716073Y-95340718D01*
X172712951Y-95351666D01*
X172686126Y-95449885D01*
X172684501Y-95455988D01*
X172652485Y-95579289D01*
X172652447Y-95579432D01*
X172644260Y-95610807D01*
X172643789Y-95612561D01*
X172632459Y-95653516D01*
X172631535Y-95656691D01*
X172609640Y-95728344D01*
X172607114Y-95735762D01*
X172603814Y-95744532D01*
X172603814Y-95744534D01*
X172598144Y-95770252D01*
X172586408Y-95868076D01*
X172586408Y-95868083D01*
X172585922Y-95890427D01*
X172585511Y-95909287D01*
X170675709Y-95909287D01*
X173954308Y-93099058D01*
X173978416Y-93082951D01*
X174010304Y-93051063D01*
X174044541Y-93021717D01*
X174062448Y-92998918D01*
X174082951Y-92978416D01*
X174108005Y-92940918D01*
X174135860Y-92905457D01*
X174148976Y-92879602D01*
X174165084Y-92855495D01*
X174182341Y-92813832D01*
X174202743Y-92773616D01*
X174210563Y-92745696D01*
X174221658Y-92718913D01*
X174230455Y-92674687D01*
X174242620Y-92631261D01*
X174244273Y-92609754D01*
X174246290Y-92595077D01*
X174250500Y-92573918D01*
X174250500Y-92528816D01*
X174253958Y-92483861D01*
X174250500Y-92455080D01*
X174250500Y-88862229D01*
X174270185Y-88795190D01*
X174286819Y-88774548D01*
X175039787Y-88021580D01*
X177082952Y-85978415D01*
X177110205Y-85937627D01*
X177165084Y-85855495D01*
X177188518Y-85798920D01*
X177221659Y-85718912D01*
X177250500Y-85573917D01*
X177250500Y-85426082D01*
X177250500Y-80563613D01*
X177270185Y-80496574D01*
X177301613Y-80463296D01*
X177314646Y-80453828D01*
X177453828Y-80314646D01*
X177569524Y-80155405D01*
X177658884Y-79980025D01*
X177719709Y-79792826D01*
X177739390Y-79668566D01*
X177750500Y-79598422D01*
X177750500Y-79401577D01*
X177719709Y-79207173D01*
X177658882Y-79019970D01*
X177590852Y-78886454D01*
X177569524Y-78844595D01*
X177453828Y-78685354D01*
X177314646Y-78546172D01*
X177155405Y-78430476D01*
X177149668Y-78427553D01*
X176980029Y-78341117D01*
X176792826Y-78280290D01*
X176598422Y-78249500D01*
X176598417Y-78249500D01*
X176401583Y-78249500D01*
X176401578Y-78249500D01*
X176207173Y-78280290D01*
X176019970Y-78341117D01*
X175844594Y-78430476D01*
X175753741Y-78496485D01*
X175685354Y-78546172D01*
X175685352Y-78546174D01*
X175685351Y-78546174D01*
X175546174Y-78685351D01*
X175546174Y-78685352D01*
X175546172Y-78685354D01*
X175496485Y-78753741D01*
X175430476Y-78844594D01*
X175341117Y-79019970D01*
X175280290Y-79207173D01*
X175249500Y-79401577D01*
X175249500Y-79598422D01*
X175280290Y-79792826D01*
X175341117Y-79980029D01*
X175417797Y-80130521D01*
X175430476Y-80155405D01*
X175546172Y-80314646D01*
X175685354Y-80453828D01*
X175698385Y-80463295D01*
X175741050Y-80518622D01*
X175749500Y-80563613D01*
X175749500Y-85137769D01*
X175729815Y-85204808D01*
X175713181Y-85225450D01*
X172917050Y-88021580D01*
X172917044Y-88021588D01*
X172867812Y-88095268D01*
X172867813Y-88095269D01*
X172834921Y-88144496D01*
X172834914Y-88144508D01*
X172778342Y-88281086D01*
X172778340Y-88281092D01*
X172749500Y-88426079D01*
X172749500Y-92097786D01*
X172729815Y-92164825D01*
X172706198Y-92191934D01*
X169757199Y-94719648D01*
X169693488Y-94748331D01*
X169676501Y-94749500D01*
X146563614Y-94749500D01*
X146496575Y-94729815D01*
X146463297Y-94698387D01*
X146453828Y-94685354D01*
X146314648Y-94546174D01*
X146314646Y-94546172D01*
X146155405Y-94430476D01*
X146137502Y-94421354D01*
X145980029Y-94341117D01*
X145792826Y-94280290D01*
X145598422Y-94249500D01*
X145598417Y-94249500D01*
X145401583Y-94249500D01*
X145401578Y-94249500D01*
X145207173Y-94280290D01*
X145019970Y-94341117D01*
X144844594Y-94430476D01*
X144753741Y-94496485D01*
X144685354Y-94546172D01*
X144685352Y-94546174D01*
X144685351Y-94546174D01*
X144546174Y-94685351D01*
X144546174Y-94685352D01*
X144546172Y-94685354D01*
X144536703Y-94698387D01*
X144430476Y-94844594D01*
X144341117Y-95019970D01*
X144280290Y-95207173D01*
X144249500Y-95401577D01*
X143500000Y-95401577D01*
X143500000Y-78301362D01*
X143519685Y-78234323D01*
X143536319Y-78213681D01*
X145213681Y-76536319D01*
X145275004Y-76502834D01*
X145301362Y-76500000D01*
X187198638Y-76500000D01*
X187265677Y-76519685D01*
G37*
%TD.AperFunction*%
%TA.AperFunction,NonConductor*%
G36*
X135177014Y-118020307D02*
G01*
X135222774Y-118073107D01*
X135232723Y-118142264D01*
X135203704Y-118205822D01*
X135144929Y-118243602D01*
X135134533Y-118246174D01*
X135120012Y-118249106D01*
X134958704Y-118286247D01*
X134943296Y-118290052D01*
X134943258Y-118290061D01*
X134943254Y-118290063D01*
X134921999Y-118295667D01*
X134839034Y-118317541D01*
X134839029Y-118317542D01*
X134789062Y-118333533D01*
X134543739Y-118426337D01*
X134451932Y-118472207D01*
X134255252Y-118596903D01*
X134255251Y-118596903D01*
X134161742Y-118673258D01*
X134161739Y-118673261D01*
X134004250Y-118836869D01*
X134004249Y-118836871D01*
X133936824Y-118924302D01*
X133904279Y-118977687D01*
X133817051Y-119120771D01*
X133809068Y-119133865D01*
X133787477Y-119173091D01*
X133681584Y-119387436D01*
X133650820Y-119465392D01*
X133638072Y-119549687D01*
X133629306Y-119607652D01*
X133626240Y-120027915D01*
X133620007Y-120882230D01*
X133620006Y-120882396D01*
X133619555Y-120947134D01*
X133619550Y-120948050D01*
X133619549Y-120948253D01*
X133618106Y-121227903D01*
X133618107Y-121227904D01*
X133618100Y-121229418D01*
X133618101Y-121229419D01*
X133617960Y-121297893D01*
X133617572Y-121485904D01*
X133617567Y-121488156D01*
X133617567Y-121489905D01*
X133617904Y-121719678D01*
X133617911Y-121721698D01*
X133619079Y-121915665D01*
X133619112Y-121919083D01*
X133621067Y-122069153D01*
X133621213Y-122076434D01*
X133623919Y-122175842D01*
X133625451Y-122203734D01*
X133628870Y-122245061D01*
X133646078Y-122340420D01*
X133646080Y-122340424D01*
X133704400Y-122471955D01*
X133797413Y-122581728D01*
X133815860Y-122598073D01*
X133815867Y-122598079D01*
X133888922Y-122651924D01*
X133911201Y-122661408D01*
X133965174Y-122705778D01*
X133986590Y-122772285D01*
X133968651Y-122839812D01*
X133917051Y-122886921D01*
X133862632Y-122899500D01*
X119800098Y-122899500D01*
X119733059Y-122879815D01*
X119712417Y-122863181D01*
X118831819Y-121982583D01*
X118798334Y-121921260D01*
X118795500Y-121894902D01*
X118795500Y-120242450D01*
X118815185Y-120175411D01*
X118831819Y-120154769D01*
X118873221Y-120113367D01*
X118916253Y-120070335D01*
X118933717Y-120041447D01*
X118961775Y-119995032D01*
X118999233Y-119933069D01*
X119046952Y-119779933D01*
X119053000Y-119713381D01*
X119052999Y-119286620D01*
X119052999Y-119286611D01*
X119046953Y-119220073D01*
X119046952Y-119220070D01*
X119046952Y-119220067D01*
X119009700Y-119100520D01*
X118999234Y-119066933D01*
X118999232Y-119066929D01*
X118916257Y-118929670D01*
X118916253Y-118929665D01*
X118802834Y-118816246D01*
X118802829Y-118816242D01*
X118665570Y-118733267D01*
X118665566Y-118733265D01*
X118512433Y-118685548D01*
X118512435Y-118685548D01*
X118485812Y-118683128D01*
X118445881Y-118679500D01*
X118445878Y-118679500D01*
X117944111Y-118679500D01*
X117877573Y-118685546D01*
X117877566Y-118685548D01*
X117724433Y-118733265D01*
X117724429Y-118733267D01*
X117661649Y-118771219D01*
X117594094Y-118789055D01*
X117533351Y-118771219D01*
X117470570Y-118733267D01*
X117470566Y-118733265D01*
X117317433Y-118685548D01*
X117317435Y-118685548D01*
X117290812Y-118683128D01*
X117250881Y-118679500D01*
X117250878Y-118679500D01*
X116749111Y-118679500D01*
X116682573Y-118685546D01*
X116682566Y-118685548D01*
X116529433Y-118733265D01*
X116529429Y-118733267D01*
X116392170Y-118816242D01*
X116392165Y-118816246D01*
X116345231Y-118863181D01*
X116283908Y-118896666D01*
X116257550Y-118899500D01*
X115086670Y-118899500D01*
X115086654Y-118899499D01*
X115079058Y-118899499D01*
X114920943Y-118899499D01*
X114768216Y-118940423D01*
X114768214Y-118940424D01*
X114760366Y-118942527D01*
X114759697Y-118940032D01*
X114702992Y-118946117D01*
X114686031Y-118941798D01*
X114627797Y-118922501D01*
X114627795Y-118922500D01*
X114525010Y-118912000D01*
X113474998Y-118912000D01*
X113474980Y-118912001D01*
X113372203Y-118922500D01*
X113372200Y-118922501D01*
X113205668Y-118977685D01*
X113205663Y-118977687D01*
X113056342Y-119069789D01*
X112932289Y-119193842D01*
X112840185Y-119343167D01*
X112832123Y-119367496D01*
X112792349Y-119424940D01*
X112774715Y-119435425D01*
X112775254Y-119436359D01*
X112631287Y-119519477D01*
X112631282Y-119519481D01*
X112569403Y-119581361D01*
X112519480Y-119631284D01*
X112519478Y-119631286D01*
X112211350Y-119939415D01*
X111937570Y-120213195D01*
X111876247Y-120246680D01*
X111849889Y-120249514D01*
X111405550Y-120249514D01*
X111338511Y-120229829D01*
X111292756Y-120177025D01*
X111281550Y-120125515D01*
X111281549Y-119898158D01*
X111281548Y-119898151D01*
X111279952Y-119883307D01*
X111275141Y-119838545D01*
X111274811Y-119837661D01*
X111224847Y-119703699D01*
X111224843Y-119703692D01*
X111138597Y-119588483D01*
X111138594Y-119588480D01*
X111023385Y-119502234D01*
X111023378Y-119502230D01*
X110888532Y-119451936D01*
X110888533Y-119451936D01*
X110828933Y-119445529D01*
X110828931Y-119445528D01*
X110828923Y-119445528D01*
X110828915Y-119445528D01*
X110724500Y-119445528D01*
X110657461Y-119425843D01*
X110611706Y-119373039D01*
X110600500Y-119321528D01*
X110600500Y-119089060D01*
X110600501Y-119089047D01*
X110600501Y-118920944D01*
X110598105Y-118912001D01*
X110559577Y-118768216D01*
X110557484Y-118764591D01*
X110480524Y-118631290D01*
X110480518Y-118631282D01*
X110063747Y-118214511D01*
X110030262Y-118153188D01*
X110035246Y-118083496D01*
X110077118Y-118027563D01*
X110142582Y-118003146D01*
X110151391Y-118002830D01*
X135109978Y-118000629D01*
X135177014Y-118020307D01*
G37*
%TD.AperFunction*%
%TA.AperFunction,NonConductor*%
G36*
X105829009Y-118022896D02*
G01*
X105874769Y-118075696D01*
X105884718Y-118144853D01*
X105876540Y-118174669D01*
X105826421Y-118295667D01*
X105824653Y-118301498D01*
X105782594Y-118288740D01*
X104974384Y-119176190D01*
X104970386Y-119180378D01*
X104858581Y-119292182D01*
X104858575Y-119292190D01*
X104814395Y-119368714D01*
X104814393Y-119368719D01*
X104805840Y-119383532D01*
X104755271Y-119431746D01*
X104698456Y-119445528D01*
X104510180Y-119445528D01*
X104510173Y-119445529D01*
X104450566Y-119451936D01*
X104315721Y-119502230D01*
X104315714Y-119502234D01*
X104200505Y-119588480D01*
X104200502Y-119588483D01*
X104114256Y-119703692D01*
X104114252Y-119703699D01*
X104064101Y-119838164D01*
X104063959Y-119838545D01*
X104057550Y-119898155D01*
X104057550Y-120071213D01*
X104057551Y-120125513D01*
X104037867Y-120192553D01*
X103985063Y-120238308D01*
X103933551Y-120249514D01*
X103736655Y-120249514D01*
X103736639Y-120249513D01*
X103729043Y-120249513D01*
X103570929Y-120249513D01*
X103470341Y-120276466D01*
X103418196Y-120290438D01*
X103418195Y-120290439D01*
X103378074Y-120313604D01*
X103378073Y-120313605D01*
X103281273Y-120369491D01*
X103281268Y-120369495D01*
X102519481Y-121131282D01*
X102519479Y-121131285D01*
X102494420Y-121174689D01*
X102474058Y-121209959D01*
X102469361Y-121218094D01*
X102469359Y-121218096D01*
X102440425Y-121268209D01*
X102440424Y-121268210D01*
X102435836Y-121285332D01*
X102399499Y-121420943D01*
X102399499Y-121420945D01*
X102399499Y-121589046D01*
X102399500Y-121589059D01*
X102399500Y-122850138D01*
X102379815Y-122917177D01*
X102327011Y-122962932D01*
X102257853Y-122972876D01*
X102194297Y-122943851D01*
X102187819Y-122937819D01*
X102036319Y-122786319D01*
X102002834Y-122724996D01*
X102000000Y-122698638D01*
X102000000Y-118801355D01*
X102019685Y-118734316D01*
X102036308Y-118713684D01*
X102710070Y-118039804D01*
X102771387Y-118006315D01*
X102797740Y-118003479D01*
X105761971Y-118003218D01*
X105829009Y-118022896D01*
G37*
%TD.AperFunction*%
%TA.AperFunction,NonConductor*%
G36*
X116324589Y-120120185D02*
G01*
X116345231Y-120136819D01*
X116392165Y-120183753D01*
X116392170Y-120183757D01*
X116529429Y-120266732D01*
X116529433Y-120266734D01*
X116576332Y-120281348D01*
X116682567Y-120314452D01*
X116749119Y-120320500D01*
X117250880Y-120320499D01*
X117250888Y-120320499D01*
X117317426Y-120314453D01*
X117317427Y-120314452D01*
X117317433Y-120314452D01*
X117423668Y-120281348D01*
X117433610Y-120278250D01*
X117503470Y-120277098D01*
X117562862Y-120313899D01*
X117592930Y-120376968D01*
X117594500Y-120396635D01*
X117594500Y-122108330D01*
X117594499Y-122108348D01*
X117594499Y-122274054D01*
X117594498Y-122274054D01*
X117594499Y-122274057D01*
X117635423Y-122426785D01*
X117661502Y-122471955D01*
X117661502Y-122471956D01*
X117714475Y-122563709D01*
X117714481Y-122563717D01*
X117833349Y-122682585D01*
X117833355Y-122682590D01*
X118238583Y-123087819D01*
X118272068Y-123149142D01*
X118267084Y-123218834D01*
X118225212Y-123274767D01*
X118159748Y-123299184D01*
X118150902Y-123299500D01*
X114903777Y-123299500D01*
X114836738Y-123279815D01*
X114790983Y-123227011D01*
X114781039Y-123157853D01*
X114810064Y-123094297D01*
X114838678Y-123069962D01*
X114943656Y-123005212D01*
X115067712Y-122881156D01*
X115159814Y-122731834D01*
X115214999Y-122565297D01*
X115225500Y-122462509D01*
X115225499Y-121687492D01*
X115225395Y-121686477D01*
X115214999Y-121584703D01*
X115214998Y-121584700D01*
X115206652Y-121559513D01*
X115159814Y-121418166D01*
X115067712Y-121268844D01*
X114943656Y-121144788D01*
X114940819Y-121143038D01*
X114939283Y-121141330D01*
X114937989Y-121140307D01*
X114938163Y-121140085D01*
X114894096Y-121091094D01*
X114882872Y-121022132D01*
X114910713Y-120958049D01*
X114940817Y-120931962D01*
X114943656Y-120930212D01*
X115067712Y-120806156D01*
X115159814Y-120656834D01*
X115214999Y-120490297D01*
X115225500Y-120387509D01*
X115225499Y-120224499D01*
X115245183Y-120157461D01*
X115297987Y-120111706D01*
X115349499Y-120100500D01*
X116257550Y-120100500D01*
X116324589Y-120120185D01*
G37*
%TD.AperFunction*%
%TA.AperFunction,NonConductor*%
G36*
X107065166Y-119052032D02*
G01*
X107068889Y-119054425D01*
X107168189Y-119120775D01*
X107168191Y-119120776D01*
X107168195Y-119120778D01*
X107272114Y-119163822D01*
X107295672Y-119173580D01*
X107295676Y-119173580D01*
X107295677Y-119173581D01*
X107431004Y-119200500D01*
X107431007Y-119200500D01*
X107568995Y-119200500D01*
X107660041Y-119182389D01*
X107704328Y-119173580D01*
X107831811Y-119120775D01*
X107831811Y-119120774D01*
X107837181Y-119117905D01*
X107837876Y-119119205D01*
X107897562Y-119100520D01*
X107899770Y-119100500D01*
X109199903Y-119100500D01*
X109266942Y-119120185D01*
X109287584Y-119136819D01*
X109363181Y-119212416D01*
X109396666Y-119273739D01*
X109399500Y-119300097D01*
X109399500Y-119321528D01*
X109379815Y-119388567D01*
X109327011Y-119434322D01*
X109275501Y-119445528D01*
X109171080Y-119445528D01*
X109171073Y-119445529D01*
X109111466Y-119451936D01*
X108976621Y-119502230D01*
X108976614Y-119502234D01*
X108861405Y-119588480D01*
X108861402Y-119588483D01*
X108775156Y-119703692D01*
X108775152Y-119703699D01*
X108725001Y-119838164D01*
X108724859Y-119838545D01*
X108718450Y-119898155D01*
X108718450Y-119898162D01*
X108718450Y-119898163D01*
X108718450Y-120501898D01*
X108718451Y-120501904D01*
X108719511Y-120511762D01*
X108719511Y-120538268D01*
X108718450Y-120548135D01*
X108718450Y-121151884D01*
X108718451Y-121151890D01*
X108719511Y-121161748D01*
X108719511Y-121188254D01*
X108718450Y-121198121D01*
X108718450Y-121198127D01*
X108718451Y-121801867D01*
X108718451Y-121801876D01*
X108719511Y-121811734D01*
X108719511Y-121838240D01*
X108718450Y-121848107D01*
X108718450Y-122451856D01*
X108718451Y-122451862D01*
X108724858Y-122511469D01*
X108775152Y-122646314D01*
X108775156Y-122646321D01*
X108861402Y-122761530D01*
X108861405Y-122761533D01*
X108976614Y-122847779D01*
X108976621Y-122847783D01*
X109111467Y-122898077D01*
X109111466Y-122898077D01*
X109118394Y-122898821D01*
X109171077Y-122904486D01*
X110828922Y-122904485D01*
X110888533Y-122898077D01*
X111023381Y-122847782D01*
X111138596Y-122761532D01*
X111224846Y-122646317D01*
X111275141Y-122511469D01*
X111281550Y-122451859D01*
X111281549Y-121848114D01*
X111280488Y-121838247D01*
X111280489Y-121811736D01*
X111280627Y-121810456D01*
X111281550Y-121801873D01*
X111281549Y-121574513D01*
X111301233Y-121507475D01*
X111354037Y-121461720D01*
X111405549Y-121450514D01*
X112063317Y-121450514D01*
X112063333Y-121450515D01*
X112070929Y-121450515D01*
X112229040Y-121450515D01*
X112229043Y-121450515D01*
X112381771Y-121409591D01*
X112441438Y-121375142D01*
X112518702Y-121330534D01*
X112630506Y-121218730D01*
X112630506Y-121218728D01*
X112640710Y-121208525D01*
X112640714Y-121208520D01*
X112902082Y-120947151D01*
X112963403Y-120913668D01*
X113033095Y-120918652D01*
X113054861Y-120929297D01*
X113056343Y-120930211D01*
X113056344Y-120930212D01*
X113059183Y-120931963D01*
X113105906Y-120983912D01*
X113117126Y-121052875D01*
X113089281Y-121116957D01*
X113059182Y-121143037D01*
X113056346Y-121144785D01*
X112932289Y-121268842D01*
X112840187Y-121418163D01*
X112840185Y-121418168D01*
X112822920Y-121470271D01*
X112785001Y-121584703D01*
X112785001Y-121584704D01*
X112785000Y-121584704D01*
X112774500Y-121687483D01*
X112774500Y-122462501D01*
X112774501Y-122462519D01*
X112785000Y-122565296D01*
X112785001Y-122565299D01*
X112840185Y-122731831D01*
X112840187Y-122731836D01*
X112858504Y-122761532D01*
X112932288Y-122881156D01*
X113056344Y-123005212D01*
X113205666Y-123097314D01*
X113276059Y-123120640D01*
X113333503Y-123160411D01*
X113360327Y-123224927D01*
X113348012Y-123293703D01*
X113324739Y-123326024D01*
X113287586Y-123363179D01*
X113226263Y-123396666D01*
X113199902Y-123399500D01*
X103800098Y-123399500D01*
X103733059Y-123379815D01*
X103712417Y-123363181D01*
X103636819Y-123287583D01*
X103603334Y-123226260D01*
X103600500Y-123199902D01*
X103600500Y-121800097D01*
X103620185Y-121733058D01*
X103672989Y-121687303D01*
X103739039Y-121676952D01*
X103810260Y-121685360D01*
X103809554Y-121591985D01*
X103828730Y-121524798D01*
X103881186Y-121478645D01*
X103950267Y-121468178D01*
X104014041Y-121496721D01*
X104052259Y-121555211D01*
X104057550Y-121591045D01*
X104057551Y-121801867D01*
X104057551Y-121801876D01*
X104058611Y-121811734D01*
X104058611Y-121838240D01*
X104057550Y-121848107D01*
X104057550Y-122451856D01*
X104057551Y-122451862D01*
X104063958Y-122511469D01*
X104114252Y-122646314D01*
X104114256Y-122646321D01*
X104200502Y-122761530D01*
X104200505Y-122761533D01*
X104315714Y-122847779D01*
X104315721Y-122847783D01*
X104450567Y-122898077D01*
X104450566Y-122898077D01*
X104457494Y-122898821D01*
X104510177Y-122904486D01*
X106168022Y-122904485D01*
X106227633Y-122898077D01*
X106362481Y-122847782D01*
X106477696Y-122761532D01*
X106563946Y-122646317D01*
X106614241Y-122511469D01*
X106620650Y-122451859D01*
X106620649Y-121848114D01*
X106619588Y-121838247D01*
X106619589Y-121811736D01*
X106619727Y-121810456D01*
X106620650Y-121801873D01*
X106620649Y-121198128D01*
X106619588Y-121188261D01*
X106619589Y-121161750D01*
X106619589Y-121161748D01*
X106620650Y-121151887D01*
X106620649Y-120548142D01*
X106619588Y-120538275D01*
X106619589Y-120511764D01*
X106619628Y-120511400D01*
X106620650Y-120501901D01*
X106620649Y-119898156D01*
X106614241Y-119838545D01*
X106613911Y-119837661D01*
X106563947Y-119703699D01*
X106563943Y-119703692D01*
X106477697Y-119588483D01*
X106468184Y-119581361D01*
X106426315Y-119525425D01*
X106421334Y-119455734D01*
X106454816Y-119394418D01*
X106641939Y-119207295D01*
X106698772Y-119176262D01*
X106698495Y-119175349D01*
X106702883Y-119174017D01*
X106703260Y-119173812D01*
X106704222Y-119173611D01*
X106704317Y-119173582D01*
X106704328Y-119173580D01*
X106831811Y-119120775D01*
X106931109Y-119054425D01*
X106997786Y-119033548D01*
X107065166Y-119052032D01*
G37*
%TD.AperFunction*%
M02*
