%TF.GenerationSoftware,KiCad,Pcbnew,10.0.0*%
%TF.CreationDate,2026-04-14T13:01:33-05:00*%
%TF.ProjectId,Buisness_Card,42756973-6e65-4737-935f-436172642e6b,rev?*%
%TF.SameCoordinates,Original*%
%TF.FileFunction,Soldermask,Top*%
%TF.FilePolarity,Negative*%
%FSLAX46Y46*%
G04 Gerber Fmt 4.6, Leading zero omitted, Abs format (unit mm)*
G04 Created by KiCad (PCBNEW 10.0.0) date 2026-04-14 13:01:33*
%MOMM*%
%LPD*%
G01*
G04 APERTURE LIST*
G04 Aperture macros list*
%AMRoundRect*
0 Rectangle with rounded corners*
0 $1 Rounding radius*
0 $2 $3 $4 $5 $6 $7 $8 $9 X,Y pos of 4 corners*
0 Add a 4 corners polygon primitive as box body*
4,1,4,$2,$3,$4,$5,$6,$7,$8,$9,$2,$3,0*
0 Add four circle primitives for the rounded corners*
1,1,$1+$1,$2,$3*
1,1,$1+$1,$4,$5*
1,1,$1+$1,$6,$7*
1,1,$1+$1,$8,$9*
0 Add four rect primitives between the rounded corners*
20,1,$1+$1,$2,$3,$4,$5,0*
20,1,$1+$1,$4,$5,$6,$7,0*
20,1,$1+$1,$6,$7,$8,$9,0*
20,1,$1+$1,$8,$9,$2,$3,0*%
G04 Aperture macros list end*
%ADD10C,0.500000*%
%ADD11C,0.000000*%
%ADD12RoundRect,0.250000X0.325000X0.450000X-0.325000X0.450000X-0.325000X-0.450000X0.325000X-0.450000X0*%
%ADD13R,1.562100X0.508000*%
%ADD14RoundRect,0.250000X0.475000X-0.337500X0.475000X0.337500X-0.475000X0.337500X-0.475000X-0.337500X0*%
%ADD15RoundRect,0.160000X0.197500X0.160000X-0.197500X0.160000X-0.197500X-0.160000X0.197500X-0.160000X0*%
%ADD16C,0.400000*%
%ADD17C,0.300000*%
G04 APERTURE END LIST*
D10*
X146000000Y-95500000D02*
G75*
G02*
X145000000Y-95500000I-500000J0D01*
G01*
X145000000Y-95500000D02*
G75*
G02*
X146000000Y-95500000I500000J0D01*
G01*
X170000000Y-95500000D02*
X146000000Y-95500000D01*
X170000000Y-95500000D02*
X173500000Y-92500000D01*
X173500000Y-88500000D02*
X173500000Y-92500000D01*
X177000000Y-79500000D02*
G75*
G02*
X176000000Y-79500000I-500000J0D01*
G01*
X176000000Y-79500000D02*
G75*
G02*
X177000000Y-79500000I500000J0D01*
G01*
X176500000Y-80000000D02*
X176500000Y-85500000D01*
X176500000Y-85500000D02*
X173500000Y-88500000D01*
D11*
%TO.C,G\u002A\u002A\u002A*%
G36*
X166452028Y-117536017D02*
G01*
X167298471Y-117539462D01*
X167298471Y-117927555D01*
X167298471Y-118315648D01*
X167147918Y-118319432D01*
X166997365Y-118323216D01*
X166997365Y-119453161D01*
X166997365Y-120583106D01*
X167147918Y-120586890D01*
X167298471Y-120590674D01*
X167298471Y-120985458D01*
X167298471Y-121380242D01*
X166451828Y-121383687D01*
X165605185Y-121387133D01*
X165608730Y-120988904D01*
X165612275Y-120590674D01*
X165746100Y-120587977D01*
X165804598Y-120586768D01*
X165853773Y-120585697D01*
X165886978Y-120584911D01*
X165896654Y-120584631D01*
X165899726Y-120579501D01*
X165902424Y-120563420D01*
X165904767Y-120534971D01*
X165906778Y-120492737D01*
X165908476Y-120435301D01*
X165909883Y-120361248D01*
X165911019Y-120269160D01*
X165911906Y-120157620D01*
X165912565Y-120025213D01*
X165913016Y-119870520D01*
X165913281Y-119692126D01*
X165913380Y-119488613D01*
X165913382Y-119453161D01*
X165913382Y-118322339D01*
X165759483Y-118322339D01*
X165605584Y-118322339D01*
X165605584Y-117927455D01*
X165605584Y-117532571D01*
X166452028Y-117536017D01*
G37*
G36*
X168996845Y-117533003D02*
G01*
X169167735Y-117533150D01*
X169314223Y-117533601D01*
X169438670Y-117534551D01*
X169543438Y-117536196D01*
X169630890Y-117538729D01*
X169703388Y-117542345D01*
X169763292Y-117547240D01*
X169812967Y-117553608D01*
X169854773Y-117561643D01*
X169891074Y-117571540D01*
X169924229Y-117583495D01*
X169956603Y-117597701D01*
X169990557Y-117614353D01*
X169991885Y-117615024D01*
X170095314Y-117681701D01*
X170183711Y-117769755D01*
X170257511Y-117879717D01*
X170317145Y-118012118D01*
X170318030Y-118014541D01*
X170349683Y-118101528D01*
X170349683Y-119453161D01*
X170349683Y-120804794D01*
X170317796Y-120898472D01*
X170261230Y-121029068D01*
X170187431Y-121139192D01*
X170096446Y-121228803D01*
X169988320Y-121297862D01*
X169863099Y-121346329D01*
X169775718Y-121366227D01*
X169743394Y-121371112D01*
X169705778Y-121375168D01*
X169660373Y-121378453D01*
X169604681Y-121381028D01*
X169536205Y-121382951D01*
X169452448Y-121384284D01*
X169350912Y-121385085D01*
X169229099Y-121385414D01*
X169084513Y-121385332D01*
X168986260Y-121385111D01*
X168853749Y-121384657D01*
X168728605Y-121384048D01*
X168613528Y-121383310D01*
X168511222Y-121382469D01*
X168424387Y-121381549D01*
X168355725Y-121380578D01*
X168307939Y-121379580D01*
X168283730Y-121378581D01*
X168282086Y-121378403D01*
X168139224Y-121348936D01*
X168017385Y-121304387D01*
X167914399Y-121243038D01*
X167828100Y-121163169D01*
X167756318Y-121063062D01*
X167696886Y-120940999D01*
X167682271Y-120902950D01*
X167646416Y-120804794D01*
X167646416Y-120583983D01*
X168723708Y-120583983D01*
X168996618Y-120583983D01*
X169090021Y-120583750D01*
X169160055Y-120582883D01*
X169210114Y-120581124D01*
X169243592Y-120578219D01*
X169263881Y-120573912D01*
X169274377Y-120567948D01*
X169277651Y-120562814D01*
X169279039Y-120546048D01*
X169280295Y-120504962D01*
X169281418Y-120442004D01*
X169282408Y-120359619D01*
X169283264Y-120260254D01*
X169283988Y-120146355D01*
X169284579Y-120020367D01*
X169285036Y-119884736D01*
X169285361Y-119741910D01*
X169285553Y-119594333D01*
X169285612Y-119444451D01*
X169285538Y-119294712D01*
X169285330Y-119147561D01*
X169284990Y-119005443D01*
X169284517Y-118870805D01*
X169283911Y-118746094D01*
X169283172Y-118633754D01*
X169282300Y-118536232D01*
X169281294Y-118455975D01*
X169280156Y-118395428D01*
X169278885Y-118357037D01*
X169277651Y-118343507D01*
X169271877Y-118336269D01*
X169258617Y-118330863D01*
X169234476Y-118327032D01*
X169196061Y-118324522D01*
X169139979Y-118323077D01*
X169062836Y-118322440D01*
X168996618Y-118322339D01*
X168723708Y-118322339D01*
X168723708Y-119453161D01*
X168723708Y-120583983D01*
X167646416Y-120583983D01*
X167646416Y-119459852D01*
X167646416Y-119453161D01*
X167646416Y-118114910D01*
X167683519Y-118010019D01*
X167740527Y-117880852D01*
X167813074Y-117773193D01*
X167902299Y-117685991D01*
X168009340Y-117618193D01*
X168135333Y-117568748D01*
X168171758Y-117558660D01*
X168195440Y-117552982D01*
X168219996Y-117548197D01*
X168247838Y-117544232D01*
X168281381Y-117541010D01*
X168323038Y-117538458D01*
X168375221Y-117536500D01*
X168440345Y-117535060D01*
X168520822Y-117534065D01*
X168619066Y-117533438D01*
X168737490Y-117533106D01*
X168878508Y-117532992D01*
X168996845Y-117533003D01*
G37*
G36*
X178136313Y-117656559D02*
G01*
X178148238Y-117720585D01*
X178163157Y-117800183D01*
X178179057Y-117884634D01*
X178192237Y-117954320D01*
X178208838Y-118042121D01*
X178227666Y-118142109D01*
X178246070Y-118240175D01*
X178257678Y-118302265D01*
X178273834Y-118388312D01*
X178292579Y-118487272D01*
X178311375Y-118585788D01*
X178325052Y-118656902D01*
X178342218Y-118746174D01*
X178361632Y-118847890D01*
X178380664Y-118948226D01*
X178393849Y-119018229D01*
X178423402Y-119175668D01*
X178448939Y-119311289D01*
X178471314Y-119429591D01*
X178491379Y-119535075D01*
X178509988Y-119632241D01*
X178525775Y-119714120D01*
X178561291Y-119899175D01*
X178596650Y-120086049D01*
X178630054Y-120265181D01*
X178657838Y-120416701D01*
X178686985Y-120577292D01*
X178820811Y-120583983D01*
X178954636Y-120590674D01*
X178958180Y-120988804D01*
X178961725Y-121386933D01*
X178319421Y-121386933D01*
X177677116Y-121386933D01*
X177671122Y-121356823D01*
X177663683Y-121313870D01*
X177653642Y-121247256D01*
X177641407Y-121159918D01*
X177627388Y-121054790D01*
X177611994Y-120934807D01*
X177609108Y-120911854D01*
X177598473Y-120827147D01*
X177587575Y-120740564D01*
X177577481Y-120660556D01*
X177569254Y-120595575D01*
X177566930Y-120577292D01*
X177558632Y-120522908D01*
X177549355Y-120478925D01*
X177540605Y-120451930D01*
X177537151Y-120447017D01*
X177519016Y-120443473D01*
X177479198Y-120440709D01*
X177422207Y-120438704D01*
X177352553Y-120437436D01*
X177274746Y-120436883D01*
X177193294Y-120437025D01*
X177112709Y-120437838D01*
X177037498Y-120439301D01*
X176972173Y-120441393D01*
X176921242Y-120444092D01*
X176889216Y-120447376D01*
X176880334Y-120450178D01*
X176875980Y-120467482D01*
X176869355Y-120506522D01*
X176861185Y-120562441D01*
X176852198Y-120630379D01*
X176846783Y-120674335D01*
X176835858Y-120765450D01*
X176823095Y-120871889D01*
X176809841Y-120982402D01*
X176797448Y-121085738D01*
X176793424Y-121119283D01*
X176783983Y-121196341D01*
X176775237Y-121264673D01*
X176767811Y-121319625D01*
X176762331Y-121356544D01*
X176759693Y-121370205D01*
X176752787Y-121374265D01*
X176733799Y-121377660D01*
X176700869Y-121380439D01*
X176652137Y-121382652D01*
X176585742Y-121384347D01*
X176499824Y-121385574D01*
X176392523Y-121386381D01*
X176261977Y-121386817D01*
X176124456Y-121386933D01*
X175494859Y-121386933D01*
X175498404Y-120988804D01*
X175501949Y-120590674D01*
X175640113Y-120588565D01*
X175697870Y-120587273D01*
X175744692Y-120585452D01*
X175774759Y-120583375D01*
X175782765Y-120581873D01*
X175786875Y-120567669D01*
X175794606Y-120532623D01*
X175804801Y-120482229D01*
X175814789Y-120430084D01*
X175828877Y-120355227D01*
X175845743Y-120266290D01*
X175863070Y-120175470D01*
X175875849Y-120108904D01*
X175892425Y-120022828D01*
X175911473Y-119923835D01*
X175930420Y-119825294D01*
X175944067Y-119754267D01*
X175948431Y-119731550D01*
X176959575Y-119731550D01*
X176963523Y-119745996D01*
X176978903Y-119748591D01*
X177016737Y-119750853D01*
X177072713Y-119752644D01*
X177142520Y-119753828D01*
X177221849Y-119754267D01*
X177223831Y-119754267D01*
X177475869Y-119754267D01*
X177475869Y-119715946D01*
X177473311Y-119680487D01*
X177466790Y-119632664D01*
X177462035Y-119605541D01*
X177455197Y-119567367D01*
X177445376Y-119509174D01*
X177433631Y-119437398D01*
X177421022Y-119358479D01*
X177413835Y-119312645D01*
X177401905Y-119236195D01*
X177390083Y-119160913D01*
X177377759Y-119082983D01*
X177364323Y-118998587D01*
X177349165Y-118903907D01*
X177331675Y-118795127D01*
X177311244Y-118668429D01*
X177287261Y-118519997D01*
X177281266Y-118482929D01*
X177265822Y-118387581D01*
X177253983Y-118315423D01*
X177245080Y-118263224D01*
X177238444Y-118227753D01*
X177233407Y-118205778D01*
X177229300Y-118194068D01*
X177225455Y-118189391D01*
X177221202Y-118188517D01*
X177220337Y-118188514D01*
X177215980Y-118188946D01*
X177212120Y-118192190D01*
X177208178Y-118201164D01*
X177203575Y-118218787D01*
X177197731Y-118247978D01*
X177190066Y-118291656D01*
X177180002Y-118352739D01*
X177166958Y-118434148D01*
X177150355Y-118538800D01*
X177148606Y-118549842D01*
X177133480Y-118644731D01*
X177118397Y-118738283D01*
X177104312Y-118824667D01*
X177092174Y-118898056D01*
X177082938Y-118952621D01*
X177080831Y-118964699D01*
X177072602Y-119012731D01*
X177061199Y-119081256D01*
X177047596Y-119164323D01*
X177032764Y-119255983D01*
X177017676Y-119350286D01*
X177014092Y-119372866D01*
X177000173Y-119460536D01*
X176987349Y-119541048D01*
X176976320Y-119610031D01*
X176967785Y-119663114D01*
X176962443Y-119695924D01*
X176961338Y-119702503D01*
X176959575Y-119731550D01*
X175948431Y-119731550D01*
X175961012Y-119666058D01*
X175980156Y-119566446D01*
X175998930Y-119468800D01*
X176012235Y-119399631D01*
X176028993Y-119312414D01*
X176047952Y-119213553D01*
X176066458Y-119116897D01*
X176078281Y-119055031D01*
X176094594Y-118969751D01*
X176113408Y-118871673D01*
X176132134Y-118774275D01*
X176145084Y-118707086D01*
X176193349Y-118455713D01*
X176245911Y-118179333D01*
X176277054Y-118014541D01*
X176290714Y-117942999D01*
X176303769Y-117876195D01*
X176314866Y-117820956D01*
X176322652Y-117784106D01*
X176323506Y-117780347D01*
X176332082Y-117739212D01*
X176342409Y-117683968D01*
X176351712Y-117629794D01*
X176367539Y-117532771D01*
X177240459Y-117532771D01*
X178113379Y-117532771D01*
X178136313Y-117656559D01*
G37*
G36*
X175749525Y-117927449D02*
G01*
X175749525Y-118322339D01*
X175623181Y-118322339D01*
X175557622Y-118323947D01*
X175511847Y-118328540D01*
X175489009Y-118335767D01*
X175487556Y-118337356D01*
X175482390Y-118355267D01*
X175474306Y-118394672D01*
X175464228Y-118450575D01*
X175453080Y-118517984D01*
X175447335Y-118554821D01*
X175432834Y-118649229D01*
X175416879Y-118752149D01*
X175398953Y-118866865D01*
X175378541Y-118996663D01*
X175355128Y-119144825D01*
X175328198Y-119314636D01*
X175314692Y-119399631D01*
X175300275Y-119490443D01*
X175283614Y-119595599D01*
X175266623Y-119703002D01*
X175251218Y-119800554D01*
X175249020Y-119814489D01*
X175233738Y-119911218D01*
X175216254Y-120021562D01*
X175198602Y-120132705D01*
X175182814Y-120231834D01*
X175181075Y-120242729D01*
X175149447Y-120441839D01*
X175118526Y-120638461D01*
X175089420Y-120825490D01*
X175063238Y-120995821D01*
X175054639Y-121052371D01*
X175043041Y-121127023D01*
X175031253Y-121199691D01*
X175020595Y-121262428D01*
X175012386Y-121307292D01*
X175011852Y-121309984D01*
X174996447Y-121386933D01*
X174356705Y-121386933D01*
X174194188Y-121386718D01*
X174057261Y-121386055D01*
X173944755Y-121384916D01*
X173855499Y-121383275D01*
X173788322Y-121381105D01*
X173742054Y-121378379D01*
X173715524Y-121375070D01*
X173707720Y-121371977D01*
X173701304Y-121353493D01*
X173690933Y-121314727D01*
X173678110Y-121261599D01*
X173666074Y-121208041D01*
X173646372Y-121117837D01*
X173625179Y-121021613D01*
X173601435Y-120914590D01*
X173574079Y-120791990D01*
X173542050Y-120649033D01*
X173534959Y-120617439D01*
X173516885Y-120536573D01*
X173497101Y-120447473D01*
X173478469Y-120363059D01*
X173468226Y-120316333D01*
X173451900Y-120242059D01*
X173432509Y-120154601D01*
X173412924Y-120066875D01*
X173401313Y-120015226D01*
X173383167Y-119934373D01*
X173363326Y-119845287D01*
X173344659Y-119760881D01*
X173334401Y-119714120D01*
X173318071Y-119639849D01*
X173298669Y-119552396D01*
X173279067Y-119464673D01*
X173267441Y-119413013D01*
X173251822Y-119343715D01*
X173236933Y-119277367D01*
X173224568Y-119221977D01*
X173217133Y-119188365D01*
X173206225Y-119151821D01*
X173194214Y-119131271D01*
X173188320Y-119129235D01*
X173177380Y-119144023D01*
X173164808Y-119176918D01*
X173156745Y-119206676D01*
X173146626Y-119250684D01*
X173132722Y-119311557D01*
X173117141Y-119380051D01*
X173106634Y-119426396D01*
X173068247Y-119595631D01*
X173029434Y-119766113D01*
X172992553Y-119927492D01*
X172970892Y-120021917D01*
X172953132Y-120099509D01*
X172932833Y-120188665D01*
X172913305Y-120274832D01*
X172905452Y-120309641D01*
X172887120Y-120390695D01*
X172866195Y-120482678D01*
X172846125Y-120570445D01*
X172838400Y-120604057D01*
X172804145Y-120753159D01*
X172774893Y-120881332D01*
X172749486Y-120993693D01*
X172726766Y-121095359D01*
X172706544Y-121187038D01*
X172692452Y-121249951D01*
X172679636Y-121304665D01*
X172669569Y-121345045D01*
X172663966Y-121364356D01*
X172660233Y-121369680D01*
X172651964Y-121374100D01*
X172636870Y-121377700D01*
X172612663Y-121380563D01*
X172577056Y-121382771D01*
X172527759Y-121384408D01*
X172462485Y-121385557D01*
X172378946Y-121386300D01*
X172274854Y-121386721D01*
X172147921Y-121386903D01*
X172041928Y-121386933D01*
X171884508Y-121386643D01*
X171748470Y-121385786D01*
X171634710Y-121384380D01*
X171544123Y-121382446D01*
X171477605Y-121380002D01*
X171436049Y-121377067D01*
X171420352Y-121373661D01*
X171420333Y-121373631D01*
X171414834Y-121355763D01*
X171406147Y-121317364D01*
X171395520Y-121264296D01*
X171385478Y-121209695D01*
X171369853Y-121121515D01*
X171350022Y-121009920D01*
X171326508Y-120877836D01*
X171299831Y-120728191D01*
X171270515Y-120563914D01*
X171239082Y-120387933D01*
X171206053Y-120203175D01*
X171192781Y-120128978D01*
X171154667Y-119915757D01*
X171119283Y-119717464D01*
X171087306Y-119537889D01*
X171059411Y-119380827D01*
X171059186Y-119379557D01*
X171043878Y-119293427D01*
X171026065Y-119193515D01*
X171007988Y-119092381D01*
X170992295Y-119004847D01*
X170975725Y-118912504D01*
X170956862Y-118807214D01*
X170938104Y-118702371D01*
X170922809Y-118616754D01*
X170909766Y-118543711D01*
X170897717Y-118476331D01*
X170887773Y-118420813D01*
X170881043Y-118383353D01*
X170879691Y-118375869D01*
X170871199Y-118329030D01*
X170734229Y-118325216D01*
X170597259Y-118321403D01*
X170597259Y-117927087D01*
X170597259Y-117532771D01*
X171400210Y-117532771D01*
X172203160Y-117532771D01*
X172203160Y-117927555D01*
X172203160Y-118322339D01*
X172055953Y-118322339D01*
X171908745Y-118322339D01*
X171908823Y-118365832D01*
X171911150Y-118403400D01*
X171917057Y-118453951D01*
X171922483Y-118489620D01*
X171928269Y-118524847D01*
X171935988Y-118573681D01*
X171945924Y-118637986D01*
X171958359Y-118719629D01*
X171973576Y-118820474D01*
X171991857Y-118942388D01*
X172013486Y-119087236D01*
X172036092Y-119239041D01*
X172059629Y-119397198D01*
X172079640Y-119531508D01*
X172096520Y-119644601D01*
X172110666Y-119739105D01*
X172122472Y-119817652D01*
X172132334Y-119882869D01*
X172140648Y-119937386D01*
X172147809Y-119983833D01*
X172154213Y-120024839D01*
X172155860Y-120035300D01*
X172164522Y-120091043D01*
X172171356Y-120136612D01*
X172175428Y-120165689D01*
X172176155Y-120172471D01*
X172186493Y-120182395D01*
X172188268Y-120182508D01*
X172195843Y-120172103D01*
X172206853Y-120140178D01*
X172221577Y-120085663D01*
X172240291Y-120007489D01*
X172263274Y-119904586D01*
X172276939Y-119841254D01*
X172292338Y-119769513D01*
X172312045Y-119678148D01*
X172334650Y-119573677D01*
X172358741Y-119462623D01*
X172382904Y-119351506D01*
X172397207Y-119285880D01*
X172413090Y-119212976D01*
X172431965Y-119126197D01*
X172451160Y-119037824D01*
X172464119Y-118978082D01*
X172481811Y-118896539D01*
X172501178Y-118807409D01*
X172519549Y-118722975D01*
X172531032Y-118670284D01*
X172546915Y-118597381D01*
X172565790Y-118510601D01*
X172584985Y-118422229D01*
X172597944Y-118362486D01*
X172615636Y-118280943D01*
X172635003Y-118191813D01*
X172653374Y-118107380D01*
X172664857Y-118054689D01*
X172681037Y-117980299D01*
X172700013Y-117892706D01*
X172718978Y-117804881D01*
X172730021Y-117753582D01*
X172744154Y-117688597D01*
X172757015Y-117630895D01*
X172767170Y-117586812D01*
X172773130Y-117562882D01*
X172781730Y-117532771D01*
X173180855Y-117532771D01*
X173300422Y-117533209D01*
X173401654Y-117534485D01*
X173482795Y-117536542D01*
X173542086Y-117539324D01*
X173577770Y-117542773D01*
X173588122Y-117545947D01*
X173592027Y-117555883D01*
X173598359Y-117577833D01*
X173607617Y-117613874D01*
X173620298Y-117666082D01*
X173636899Y-117736534D01*
X173657916Y-117827307D01*
X173683849Y-117940476D01*
X173708346Y-118047998D01*
X173724939Y-118120370D01*
X173744708Y-118205700D01*
X173764614Y-118290912D01*
X173775167Y-118335721D01*
X173793962Y-118415916D01*
X173814592Y-118505049D01*
X173833914Y-118589499D01*
X173843097Y-118630137D01*
X173861765Y-118712565D01*
X173885000Y-118814041D01*
X173911182Y-118927572D01*
X173938687Y-119046167D01*
X173965893Y-119162834D01*
X173991179Y-119270580D01*
X174012922Y-119362414D01*
X174015415Y-119372866D01*
X174038349Y-119469691D01*
X174065826Y-119586983D01*
X174096535Y-119719089D01*
X174129166Y-119860360D01*
X174162408Y-120005145D01*
X174183823Y-120098908D01*
X174194607Y-120139345D01*
X174205111Y-120167757D01*
X174210454Y-120175765D01*
X174216530Y-120176279D01*
X174222291Y-120168117D01*
X174228217Y-120148578D01*
X174234788Y-120114962D01*
X174242484Y-120064567D01*
X174251786Y-119994692D01*
X174263173Y-119902637D01*
X174271780Y-119830811D01*
X174293855Y-119645105D01*
X174313124Y-119482880D01*
X174329952Y-119341043D01*
X174344705Y-119216498D01*
X174357749Y-119106150D01*
X174369449Y-119006906D01*
X174380171Y-118915670D01*
X174390281Y-118829348D01*
X174400144Y-118744845D01*
X174403760Y-118713794D01*
X174414048Y-118626550D01*
X174423928Y-118544823D01*
X174432774Y-118473647D01*
X174439958Y-118418053D01*
X174444852Y-118383074D01*
X174445465Y-118379215D01*
X174454843Y-118322339D01*
X174312871Y-118322339D01*
X174249767Y-118322044D01*
X174208435Y-118320486D01*
X174183882Y-118316660D01*
X174171114Y-118309559D01*
X174165139Y-118298176D01*
X174163541Y-118292228D01*
X174161720Y-118271182D01*
X174160342Y-118227214D01*
X174159442Y-118164166D01*
X174159054Y-118085879D01*
X174159215Y-117996194D01*
X174159940Y-117900790D01*
X174163698Y-117539462D01*
X174956611Y-117536010D01*
X175749525Y-117532559D01*
X175749525Y-117927449D01*
G37*
G36*
X156351202Y-117664228D02*
G01*
X156447558Y-117709756D01*
X156510310Y-117795687D01*
X156557338Y-117940829D01*
X156566980Y-118055204D01*
X156540867Y-118160613D01*
X156538115Y-118167329D01*
X156465023Y-118264034D01*
X156353040Y-118324021D01*
X156223269Y-118336767D01*
X156203866Y-118334005D01*
X156044691Y-118282626D01*
X155933539Y-118196317D01*
X155875534Y-118081029D01*
X155874150Y-117951000D01*
X155921576Y-117836619D01*
X156007199Y-117747283D01*
X156116816Y-117686460D01*
X156236219Y-117657619D01*
X156351202Y-117664228D01*
G37*
G36*
X156404271Y-118772244D02*
G01*
X156447755Y-118785003D01*
X156481429Y-118813732D01*
X156506544Y-118864449D01*
X156524352Y-118943176D01*
X156536103Y-119055934D01*
X156543048Y-119208743D01*
X156546438Y-119407624D01*
X156547526Y-119658597D01*
X156547560Y-119967684D01*
X156547551Y-120044297D01*
X156546908Y-120374511D01*
X156544880Y-120643754D01*
X156541320Y-120856506D01*
X156536078Y-121017247D01*
X156529008Y-121130458D01*
X156519961Y-121200618D01*
X156508788Y-121232210D01*
X156508273Y-121232757D01*
X156450663Y-121256175D01*
X156350578Y-121268445D01*
X156230026Y-121269698D01*
X156111017Y-121260064D01*
X156015559Y-121239676D01*
X155991108Y-121229683D01*
X155909278Y-121188295D01*
X155901310Y-120109096D01*
X155893342Y-119029896D01*
X156002261Y-118901474D01*
X156073518Y-118824717D01*
X156136347Y-118786250D01*
X156219878Y-118772482D01*
X156282869Y-118770547D01*
X156349726Y-118769432D01*
X156404271Y-118772244D01*
G37*
G36*
X138258955Y-118727324D02*
G01*
X138353427Y-118753118D01*
X138508181Y-118809475D01*
X138606682Y-118874849D01*
X138658121Y-118959820D01*
X138671690Y-119074969D01*
X138669731Y-119117236D01*
X138659536Y-119259020D01*
X138293691Y-119247510D01*
X138082605Y-119245335D01*
X137924187Y-119256024D01*
X137806387Y-119282611D01*
X137717152Y-119328128D01*
X137644430Y-119395610D01*
X137628479Y-119414926D01*
X137603259Y-119448181D01*
X137583664Y-119482197D01*
X137568788Y-119525487D01*
X137557725Y-119586562D01*
X137549569Y-119673934D01*
X137543415Y-119796114D01*
X137538357Y-119961616D01*
X137533489Y-120178951D01*
X137530283Y-120337769D01*
X137524768Y-120564411D01*
X137517874Y-120770300D01*
X137510066Y-120946087D01*
X137501810Y-121082426D01*
X137493570Y-121169967D01*
X137487436Y-121198389D01*
X137439586Y-121222575D01*
X137347611Y-121236752D01*
X137232046Y-121241156D01*
X137113422Y-121236024D01*
X137012274Y-121221592D01*
X136949134Y-121198097D01*
X136942689Y-121192111D01*
X136930044Y-121156892D01*
X136920769Y-121082421D01*
X136914699Y-120963477D01*
X136911672Y-120794842D01*
X136911522Y-120571294D01*
X136914086Y-120287616D01*
X136914132Y-120283799D01*
X136924742Y-119422680D01*
X137018365Y-119242654D01*
X137102261Y-119093603D01*
X137184168Y-118984491D01*
X137279700Y-118902661D01*
X137404470Y-118835457D01*
X137574091Y-118770221D01*
X137620853Y-118754244D01*
X137834072Y-118700670D01*
X138038902Y-118691709D01*
X138258955Y-118727324D01*
G37*
G36*
X158256639Y-118671306D02*
G01*
X158290427Y-118677779D01*
X158575552Y-118748858D01*
X158806048Y-118836025D01*
X158991845Y-118944542D01*
X159142878Y-119079674D01*
X159215206Y-119167897D01*
X159287621Y-119264556D01*
X159348235Y-119343232D01*
X159381879Y-119384482D01*
X159452281Y-119504895D01*
X159496943Y-119676357D01*
X159514600Y-119889199D01*
X159503988Y-120133753D01*
X159492567Y-120230901D01*
X159423777Y-120513062D01*
X159301631Y-120759918D01*
X159129722Y-120968443D01*
X158911644Y-121135612D01*
X158650992Y-121258400D01*
X158351360Y-121333781D01*
X158157178Y-121354830D01*
X157991499Y-121354906D01*
X157836159Y-121329542D01*
X157708887Y-121292425D01*
X157465559Y-121195170D01*
X157268181Y-121075038D01*
X157100895Y-120923633D01*
X156989421Y-120790819D01*
X156905778Y-120655076D01*
X156839484Y-120495709D01*
X156780057Y-120292021D01*
X156779090Y-120288231D01*
X156725783Y-120078930D01*
X157406821Y-120078930D01*
X157456615Y-120281839D01*
X157475515Y-120330892D01*
X157585204Y-120515487D01*
X157746139Y-120664573D01*
X157900141Y-120750212D01*
X158010069Y-120773408D01*
X158152408Y-120772055D01*
X158300326Y-120749466D01*
X158426996Y-120708956D01*
X158480116Y-120678584D01*
X158637172Y-120548538D01*
X158742579Y-120427551D01*
X158805158Y-120299606D01*
X158833732Y-120148682D01*
X158838245Y-120028221D01*
X158829414Y-119837873D01*
X158797388Y-119692144D01*
X158733072Y-119571729D01*
X158627374Y-119457320D01*
X158531169Y-119376232D01*
X158367451Y-119284761D01*
X158187063Y-119248787D01*
X158001683Y-119264796D01*
X157822988Y-119329276D01*
X157662658Y-119438717D01*
X157532369Y-119589606D01*
X157475648Y-119693652D01*
X157413164Y-119888610D01*
X157406821Y-120078930D01*
X156725783Y-120078930D01*
X156707760Y-120008164D01*
X156794349Y-119682690D01*
X156840629Y-119520378D01*
X156884093Y-119402246D01*
X156934203Y-119308174D01*
X157000425Y-119218039D01*
X157028884Y-119184021D01*
X157178555Y-119034008D01*
X157349522Y-118903265D01*
X157523103Y-118804355D01*
X157671701Y-118751689D01*
X157792199Y-118724131D01*
X157926381Y-118691582D01*
X157963107Y-118682298D01*
X158108224Y-118659402D01*
X158256639Y-118671306D01*
G37*
G36*
X141963256Y-118101651D02*
G01*
X142037801Y-118127437D01*
X142083803Y-118163540D01*
X142108950Y-118225110D01*
X142120929Y-118327302D01*
X142125231Y-118420930D01*
X142132955Y-118553597D01*
X142151656Y-118647298D01*
X142191418Y-118709440D01*
X142262331Y-118747431D01*
X142374479Y-118768678D01*
X142537951Y-118780588D01*
X142620206Y-118784407D01*
X142805677Y-118795157D01*
X142936190Y-118812240D01*
X143022247Y-118841308D01*
X143074352Y-118888011D01*
X143103006Y-118958000D01*
X143118202Y-119052359D01*
X143123566Y-119136221D01*
X143111838Y-119196402D01*
X143074125Y-119237112D01*
X143001533Y-119262563D01*
X142885170Y-119276964D01*
X142716142Y-119284526D01*
X142623104Y-119286765D01*
X142428798Y-119293997D01*
X142284429Y-119306060D01*
X142195930Y-119322334D01*
X142172053Y-119333926D01*
X142155697Y-119380480D01*
X142143637Y-119484623D01*
X142135713Y-119648750D01*
X142131763Y-119875256D01*
X142131385Y-119940054D01*
X142129123Y-120507777D01*
X142218775Y-120625393D01*
X142321046Y-120729019D01*
X142441351Y-120786629D01*
X142592125Y-120801662D01*
X142775887Y-120779454D01*
X143003045Y-120736593D01*
X143109587Y-120863496D01*
X143179365Y-120964438D01*
X143198887Y-121047573D01*
X143164706Y-121118395D01*
X143073376Y-121182395D01*
X142921452Y-121245067D01*
X142856722Y-121266621D01*
X142599496Y-121324436D01*
X142351546Y-121325945D01*
X142091954Y-121271171D01*
X142080025Y-121267496D01*
X141961489Y-121222945D01*
X141862214Y-121172173D01*
X141807945Y-121130223D01*
X141697705Y-120979520D01*
X141635068Y-120850075D01*
X141621900Y-120776988D01*
X141610614Y-120692734D01*
X141582488Y-120584886D01*
X141570022Y-120547865D01*
X141554980Y-120496853D01*
X141543172Y-120431557D01*
X141534286Y-120344401D01*
X141528006Y-120227808D01*
X141524018Y-120074204D01*
X141522009Y-119876012D01*
X141521664Y-119625657D01*
X141522314Y-119397647D01*
X141523653Y-119113260D01*
X141525460Y-118886701D01*
X141528226Y-118710335D01*
X141532443Y-118576524D01*
X141538604Y-118477634D01*
X141547199Y-118406028D01*
X141558721Y-118354071D01*
X141573661Y-118314126D01*
X141592511Y-118278558D01*
X141594621Y-118274964D01*
X141690488Y-118164242D01*
X141811120Y-118102247D01*
X141940811Y-118096364D01*
X141963256Y-118101651D01*
G37*
G36*
X144677274Y-118701573D02*
G01*
X144864547Y-118740958D01*
X145065977Y-118806508D01*
X145261919Y-118892403D01*
X145345554Y-118937582D01*
X145427859Y-118986855D01*
X145490048Y-119031515D01*
X145544237Y-119084540D01*
X145602544Y-119158907D01*
X145677086Y-119267593D01*
X145733824Y-119353432D01*
X145882142Y-119578771D01*
X145882783Y-119983454D01*
X145882366Y-120153976D01*
X145878429Y-120276150D01*
X145867895Y-120367091D01*
X145847686Y-120443915D01*
X145814724Y-120523737D01*
X145768621Y-120618277D01*
X145684072Y-120767847D01*
X145588331Y-120888533D01*
X145459043Y-121007950D01*
X145441218Y-121022682D01*
X145320487Y-121115916D01*
X145215493Y-121178972D01*
X145099227Y-121225252D01*
X144948418Y-121267224D01*
X144744113Y-121311890D01*
X144573743Y-121330366D01*
X144411144Y-121322417D01*
X144230154Y-121287808D01*
X144122382Y-121259829D01*
X143956646Y-121207094D01*
X143825285Y-121144550D01*
X143697464Y-121056611D01*
X143657670Y-121024959D01*
X143559269Y-120939215D01*
X143481277Y-120860533D01*
X143438303Y-120803878D01*
X143435499Y-120797422D01*
X143402695Y-120728453D01*
X143349835Y-120639540D01*
X143335584Y-120617981D01*
X143286485Y-120530987D01*
X143259919Y-120455669D01*
X143258376Y-120440832D01*
X143248795Y-120374349D01*
X143224307Y-120273796D01*
X143205286Y-120209241D01*
X143181008Y-120125598D01*
X143170161Y-120056474D01*
X143171904Y-120018134D01*
X143786685Y-120018134D01*
X143800192Y-120147108D01*
X143847686Y-120299285D01*
X143848815Y-120302308D01*
X143948000Y-120484918D01*
X144089331Y-120632637D01*
X144260685Y-120739210D01*
X144449939Y-120798379D01*
X144644969Y-120803889D01*
X144767345Y-120776324D01*
X144948079Y-120684518D01*
X145101623Y-120546976D01*
X145218936Y-120377249D01*
X145290975Y-120188891D01*
X145308698Y-119995454D01*
X145306306Y-119968525D01*
X145272143Y-119782012D01*
X145209721Y-119632502D01*
X145106657Y-119493491D01*
X145062166Y-119445967D01*
X144954114Y-119345596D01*
X144854430Y-119284270D01*
X144740471Y-119253033D01*
X144589593Y-119242930D01*
X144548106Y-119242654D01*
X144339253Y-119260872D01*
X144172645Y-119319919D01*
X144038963Y-119426383D01*
X143928888Y-119586854D01*
X143864445Y-119726040D01*
X143807868Y-119886424D01*
X143786685Y-120018134D01*
X143171904Y-120018134D01*
X143173541Y-119982142D01*
X143191946Y-119882877D01*
X143223926Y-119748116D01*
X143294301Y-119522366D01*
X143386902Y-119316757D01*
X143492963Y-119149052D01*
X143553998Y-119079270D01*
X143702138Y-118965445D01*
X143897156Y-118862351D01*
X144120550Y-118777333D01*
X144353823Y-118717738D01*
X144523802Y-118694171D01*
X144677274Y-118701573D01*
G37*
G36*
X135712628Y-118738854D02*
G01*
X135839852Y-118779723D01*
X136079950Y-118882955D01*
X136268951Y-119005999D01*
X136420781Y-119161106D01*
X136549370Y-119360523D01*
X136589517Y-119439046D01*
X136634625Y-119535822D01*
X136664305Y-119616754D01*
X136681775Y-119700136D01*
X136690254Y-119804265D01*
X136692958Y-119947436D01*
X136693148Y-120028221D01*
X136692198Y-120193688D01*
X136686970Y-120312091D01*
X136674120Y-120401825D01*
X136650301Y-120481284D01*
X136612169Y-120568863D01*
X136584413Y-120626080D01*
X136439209Y-120856121D01*
X136253666Y-121045012D01*
X136037499Y-121184066D01*
X135898420Y-121239562D01*
X135613014Y-121297437D01*
X135320624Y-121298441D01*
X135037087Y-121243782D01*
X134820462Y-121157336D01*
X134737910Y-121125198D01*
X134674870Y-121117673D01*
X134668377Y-121119391D01*
X134639699Y-121153107D01*
X134617753Y-121232716D01*
X134601969Y-121363016D01*
X134591775Y-121548806D01*
X134586602Y-121794885D01*
X134586472Y-121808095D01*
X134583568Y-121955593D01*
X134578303Y-122078881D01*
X134571483Y-122163215D01*
X134565467Y-122192696D01*
X134521503Y-122212121D01*
X134434725Y-122221351D01*
X134326859Y-122221159D01*
X134219629Y-122212318D01*
X134134759Y-122195601D01*
X134096612Y-122176001D01*
X134086206Y-122142004D01*
X134078068Y-122065374D01*
X134072116Y-121942343D01*
X134068267Y-121769142D01*
X134066441Y-121542002D01*
X134066555Y-121257154D01*
X134068527Y-120910828D01*
X134068677Y-120891272D01*
X134075904Y-119960963D01*
X134626170Y-119960963D01*
X134634976Y-120162422D01*
X134692324Y-120353818D01*
X134796546Y-120525025D01*
X134945972Y-120665917D01*
X135133041Y-120764227D01*
X135306249Y-120806563D01*
X135476940Y-120798564D01*
X135577132Y-120773963D01*
X135696029Y-120715555D01*
X135830617Y-120611107D01*
X135880882Y-120563313D01*
X135980920Y-120454817D01*
X136042649Y-120361539D01*
X136080444Y-120259838D01*
X136090532Y-120218537D01*
X136110980Y-120002959D01*
X136079683Y-119796411D01*
X136002793Y-119609006D01*
X135886464Y-119450855D01*
X135736848Y-119332071D01*
X135560098Y-119262764D01*
X135503136Y-119253183D01*
X135278302Y-119245854D01*
X135093706Y-119284009D01*
X134940528Y-119369786D01*
X134907706Y-119397474D01*
X134760865Y-119568363D01*
X134667577Y-119759568D01*
X134626170Y-119960963D01*
X134075904Y-119960963D01*
X134078306Y-119651804D01*
X134186122Y-119422680D01*
X134248356Y-119300183D01*
X134311280Y-119192164D01*
X134362088Y-119120463D01*
X134365525Y-119116649D01*
X134531980Y-118975739D01*
X134744330Y-118854706D01*
X134983711Y-118763837D01*
X135040994Y-118748189D01*
X135282491Y-118702525D01*
X135498064Y-118699086D01*
X135712628Y-118738854D01*
G37*
G36*
X147300558Y-118660293D02*
G01*
X147444446Y-118679341D01*
X147602632Y-118706770D01*
X147758342Y-118739171D01*
X147894800Y-118773133D01*
X147995231Y-118805247D01*
X148036073Y-118825498D01*
X148177660Y-118950184D01*
X148254910Y-119065766D01*
X148268158Y-119173291D01*
X148217739Y-119273805D01*
X148189294Y-119303648D01*
X148112222Y-119376053D01*
X147821059Y-119290015D01*
X147679480Y-119248092D01*
X147550873Y-119209857D01*
X147455965Y-119181478D01*
X147431917Y-119174218D01*
X147254942Y-119145238D01*
X147067274Y-119155508D01*
X146891470Y-119201308D01*
X146750086Y-119278917D01*
X146738314Y-119288624D01*
X146680414Y-119347966D01*
X146666842Y-119404822D01*
X146681848Y-119474066D01*
X146712055Y-119545368D01*
X146765070Y-119594394D01*
X146860276Y-119638106D01*
X146876126Y-119644047D01*
X146980209Y-119673382D01*
X147126140Y-119702761D01*
X147290451Y-119727812D01*
X147382603Y-119738406D01*
X147684565Y-119785712D01*
X147935040Y-119861778D01*
X148131710Y-119965334D01*
X148272258Y-120095109D01*
X148354367Y-120249831D01*
X148361560Y-120275351D01*
X148395016Y-120519504D01*
X148368912Y-120740009D01*
X148285770Y-120932344D01*
X148148114Y-121091990D01*
X147958465Y-121214426D01*
X147804931Y-121272985D01*
X147657359Y-121307506D01*
X147480437Y-121334887D01*
X147295708Y-121353175D01*
X147124714Y-121360417D01*
X146988999Y-121354659D01*
X146957087Y-121349858D01*
X146676790Y-121294055D01*
X146455376Y-121244592D01*
X146286935Y-121198454D01*
X146165560Y-121152625D01*
X146085341Y-121104087D01*
X146040369Y-121049825D01*
X146024736Y-120986822D01*
X146032532Y-120912062D01*
X146039943Y-120881663D01*
X146097029Y-120752711D01*
X146180958Y-120678474D01*
X146285980Y-120662752D01*
X146346667Y-120678826D01*
X146537550Y-120742402D01*
X146755839Y-120797091D01*
X146973119Y-120836787D01*
X147160976Y-120855387D01*
X147169845Y-120855675D01*
X147379836Y-120845239D01*
X147534578Y-120800349D01*
X147634660Y-120720721D01*
X147680080Y-120609964D01*
X147681573Y-120516861D01*
X147649480Y-120442231D01*
X147577939Y-120383261D01*
X147461091Y-120337140D01*
X147293073Y-120301056D01*
X147068027Y-120272199D01*
X146953500Y-120261419D01*
X146719718Y-120231487D01*
X146531345Y-120182304D01*
X146369383Y-120106329D01*
X146214831Y-119996018D01*
X146155154Y-119944481D01*
X146024226Y-119826958D01*
X146026650Y-119542989D01*
X146034932Y-119358143D01*
X146061448Y-119219443D01*
X146114177Y-119108379D01*
X146201100Y-119006442D01*
X146292968Y-118925308D01*
X146441216Y-118831828D01*
X146633950Y-118751981D01*
X146850610Y-118692026D01*
X147070636Y-118658217D01*
X147187743Y-118653037D01*
X147300558Y-118660293D01*
G37*
G36*
X155439575Y-117613925D02*
G01*
X155503658Y-117619161D01*
X155556284Y-117625347D01*
X155598530Y-117638424D01*
X155631474Y-117664333D01*
X155656193Y-117709016D01*
X155673762Y-117778413D01*
X155685260Y-117878467D01*
X155691762Y-118015119D01*
X155694347Y-118194309D01*
X155694090Y-118421980D01*
X155692069Y-118704073D01*
X155689745Y-118994157D01*
X155680154Y-120273711D01*
X155590094Y-120519201D01*
X155536529Y-120651436D01*
X155478370Y-120756174D01*
X155400545Y-120855810D01*
X155287977Y-120972737D01*
X155278585Y-120981973D01*
X155164316Y-121089983D01*
X155072720Y-121162473D01*
X154982679Y-121212587D01*
X154873074Y-121253465D01*
X154812202Y-121272213D01*
X154606246Y-121322459D01*
X154402751Y-121352397D01*
X154223080Y-121359599D01*
X154125386Y-121350264D01*
X153838500Y-121275133D01*
X153596087Y-121159867D01*
X153416554Y-121026271D01*
X153325860Y-120940687D01*
X153251431Y-120856128D01*
X153184698Y-120759160D01*
X153117095Y-120636346D01*
X153040053Y-120474251D01*
X152983063Y-120346482D01*
X152922782Y-120131799D01*
X152922126Y-120036113D01*
X153605141Y-120036113D01*
X153644013Y-120242352D01*
X153691688Y-120353122D01*
X153817861Y-120535348D01*
X153977207Y-120666873D01*
X154160229Y-120744792D01*
X154357430Y-120766199D01*
X154559312Y-120728188D01*
X154702339Y-120662336D01*
X154858408Y-120535978D01*
X154968136Y-120374459D01*
X155031208Y-120189167D01*
X155047312Y-119991491D01*
X155016134Y-119792820D01*
X154937361Y-119604542D01*
X154810679Y-119438047D01*
X154737820Y-119373156D01*
X154587348Y-119293442D01*
X154409506Y-119258683D01*
X154223226Y-119267556D01*
X154047441Y-119318740D01*
X153901082Y-119410913D01*
X153877906Y-119433217D01*
X153722345Y-119630273D01*
X153631338Y-119831662D01*
X153605141Y-120036113D01*
X152922126Y-120036113D01*
X152921247Y-119907987D01*
X152978104Y-119692994D01*
X152996858Y-119651804D01*
X153041826Y-119552108D01*
X153071205Y-119471103D01*
X153077718Y-119439046D01*
X153102057Y-119362900D01*
X153166400Y-119259703D01*
X153258999Y-119142489D01*
X153368105Y-119024294D01*
X153481967Y-118918152D01*
X153588837Y-118837100D01*
X153650773Y-118803280D01*
X153806813Y-118748942D01*
X153980462Y-118707286D01*
X154156423Y-118679931D01*
X154319397Y-118668496D01*
X154454087Y-118674599D01*
X154545195Y-118699857D01*
X154556946Y-118707429D01*
X154614342Y-118736696D01*
X154705024Y-118769711D01*
X154735723Y-118778975D01*
X154823887Y-118813565D01*
X154881658Y-118853640D01*
X154890173Y-118866536D01*
X154934142Y-118909477D01*
X154994957Y-118906419D01*
X155031766Y-118874420D01*
X155041653Y-118829193D01*
X155051953Y-118730486D01*
X155061777Y-118590271D01*
X155070232Y-118420518D01*
X155074613Y-118298704D01*
X155090979Y-117763904D01*
X155186989Y-117681392D01*
X155259632Y-117629759D01*
X155334431Y-117610126D01*
X155439575Y-117613925D01*
G37*
G36*
X140099262Y-118699780D02*
G01*
X140255379Y-118735855D01*
X140424147Y-118787486D01*
X140582663Y-118847726D01*
X140700433Y-118905168D01*
X140920863Y-119069475D01*
X141101792Y-119281624D01*
X141202845Y-119459210D01*
X141244160Y-119550615D01*
X141271466Y-119626143D01*
X141287161Y-119702661D01*
X141293641Y-119797036D01*
X141293305Y-119926135D01*
X141289626Y-120069702D01*
X141283242Y-120244412D01*
X141274379Y-120367506D01*
X141260739Y-120452834D01*
X141240026Y-120514245D01*
X141209944Y-120565587D01*
X141206622Y-120570295D01*
X141152306Y-120660744D01*
X141116308Y-120746020D01*
X141114691Y-120752009D01*
X141077857Y-120817153D01*
X141005285Y-120896777D01*
X140947281Y-120946404D01*
X140845270Y-121025139D01*
X140748520Y-121100418D01*
X140707716Y-121132463D01*
X140626632Y-121176645D01*
X140500356Y-121223645D01*
X140348654Y-121268171D01*
X140191294Y-121304934D01*
X140048044Y-121328643D01*
X139952448Y-121334588D01*
X139867447Y-121325342D01*
X139742422Y-121302918D01*
X139600438Y-121271612D01*
X139558144Y-121261171D01*
X139403000Y-121217212D01*
X139286310Y-121169634D01*
X139181731Y-121105493D01*
X139080584Y-121026546D01*
X138970174Y-120920480D01*
X138864172Y-120793217D01*
X138772925Y-120660211D01*
X138706782Y-120536915D01*
X138676089Y-120438784D01*
X138675140Y-120421005D01*
X138665218Y-120362670D01*
X138638798Y-120270214D01*
X138621349Y-120218792D01*
X138596976Y-120145342D01*
X138585206Y-120082939D01*
X138586805Y-120013885D01*
X138587447Y-120010075D01*
X139199613Y-120010075D01*
X139220271Y-120160696D01*
X139274544Y-120325251D01*
X139350878Y-120473745D01*
X139406392Y-120546950D01*
X139584204Y-120697329D01*
X139778540Y-120785026D01*
X139986891Y-120809313D01*
X140189321Y-120774867D01*
X140312157Y-120714360D01*
X140442401Y-120612566D01*
X140560506Y-120487856D01*
X140646922Y-120358599D01*
X140658706Y-120333766D01*
X140697207Y-120194804D01*
X140712470Y-120026205D01*
X140704162Y-119856863D01*
X140671951Y-119715671D01*
X140665995Y-119700902D01*
X140605816Y-119598962D01*
X140515033Y-119486159D01*
X140411264Y-119381014D01*
X140312126Y-119302050D01*
X140260083Y-119274124D01*
X140164088Y-119253770D01*
X140029826Y-119244405D01*
X139883541Y-119245884D01*
X139751475Y-119258061D01*
X139668174Y-119277394D01*
X139529866Y-119360207D01*
X139402957Y-119491437D01*
X139298349Y-119654038D01*
X139226942Y-119830966D01*
X139199637Y-120005173D01*
X139199613Y-120010075D01*
X138587447Y-120010075D01*
X138602542Y-119920479D01*
X138633182Y-119785022D01*
X138641707Y-119749052D01*
X138703825Y-119521172D01*
X138775280Y-119342547D01*
X138867552Y-119197061D01*
X138992117Y-119068601D01*
X139160456Y-118941053D01*
X139267188Y-118870954D01*
X139351420Y-118831903D01*
X139479189Y-118788878D01*
X139629258Y-118747391D01*
X139780392Y-118712957D01*
X139911356Y-118691090D01*
X139978704Y-118686211D01*
X140099262Y-118699780D01*
G37*
G36*
X160866607Y-118669801D02*
G01*
X161096482Y-118692269D01*
X161316050Y-118733231D01*
X161510563Y-118790819D01*
X161665274Y-118863169D01*
X161739241Y-118918896D01*
X161825310Y-119028515D01*
X161847165Y-119131428D01*
X161805017Y-119232542D01*
X161755127Y-119288692D01*
X161660125Y-119379709D01*
X161435990Y-119308445D01*
X161305681Y-119265276D01*
X161184786Y-119222298D01*
X161104366Y-119190820D01*
X161012033Y-119166186D01*
X160881320Y-119150006D01*
X160760680Y-119145546D01*
X160626218Y-119149830D01*
X160532523Y-119165248D01*
X160455091Y-119197901D01*
X160393556Y-119236953D01*
X160289959Y-119331161D01*
X160250740Y-119427747D01*
X160274814Y-119529418D01*
X160275677Y-119531043D01*
X160332183Y-119580802D01*
X160441240Y-119630606D01*
X160590038Y-119676774D01*
X160765769Y-119715628D01*
X160955626Y-119743487D01*
X161043181Y-119751524D01*
X161297360Y-119788911D01*
X161520541Y-119859004D01*
X161704349Y-119957446D01*
X161840404Y-120079879D01*
X161914195Y-120204571D01*
X161937421Y-120296790D01*
X161949911Y-120428821D01*
X161952544Y-120611666D01*
X161951641Y-120673151D01*
X161946435Y-120764401D01*
X161928370Y-120833537D01*
X161887403Y-120900791D01*
X161813491Y-120986393D01*
X161776482Y-121026025D01*
X161674661Y-121127463D01*
X161586440Y-121193237D01*
X161485559Y-121239618D01*
X161375515Y-121274433D01*
X161147533Y-121323566D01*
X160897783Y-121350208D01*
X160651634Y-121353107D01*
X160434456Y-121331016D01*
X160393556Y-121322784D01*
X160251290Y-121291464D01*
X160103232Y-121259709D01*
X160030195Y-121244449D01*
X159893198Y-121205329D01*
X159766294Y-121150144D01*
X159667158Y-121088166D01*
X159613462Y-121028666D01*
X159611940Y-121025037D01*
X159607784Y-120935974D01*
X159643546Y-120832473D01*
X159706998Y-120739671D01*
X159776570Y-120686574D01*
X159839533Y-120669790D01*
X159918798Y-120677083D01*
X160035152Y-120710525D01*
X160043012Y-120713155D01*
X160324538Y-120795457D01*
X160579326Y-120845292D01*
X160797700Y-120861227D01*
X160947408Y-120847058D01*
X161103657Y-120801404D01*
X161205465Y-120736908D01*
X161262892Y-120645912D01*
X161276468Y-120596618D01*
X161281513Y-120516074D01*
X161246697Y-120457210D01*
X161209355Y-120424886D01*
X161138188Y-120378287D01*
X161050549Y-120341763D01*
X160934628Y-120312432D01*
X160778616Y-120287409D01*
X160570701Y-120263812D01*
X160535277Y-120260312D01*
X160302465Y-120229157D01*
X160119583Y-120183146D01*
X159971751Y-120116659D01*
X159844090Y-120024080D01*
X159799326Y-119982419D01*
X159721397Y-119907927D01*
X159653841Y-119846779D01*
X159639565Y-119834720D01*
X159611688Y-119802071D01*
X159596863Y-119751348D01*
X159593216Y-119667462D01*
X159598873Y-119535324D01*
X159600028Y-119516480D01*
X159612475Y-119369613D01*
X159632188Y-119265044D01*
X159665612Y-119179613D01*
X159718333Y-119091460D01*
X159803762Y-118983158D01*
X159903875Y-118886590D01*
X160002194Y-118815467D01*
X160082243Y-118783501D01*
X160089049Y-118782970D01*
X160144824Y-118771082D01*
X160232261Y-118743134D01*
X160262628Y-118732023D01*
X160434932Y-118687812D01*
X160641175Y-118667693D01*
X160866607Y-118669801D01*
G37*
G36*
X149046905Y-118081250D02*
G01*
X149095195Y-118106568D01*
X149138208Y-118142537D01*
X149164383Y-118192272D01*
X149179434Y-118273360D01*
X149188544Y-118393832D01*
X149202574Y-118539568D01*
X149232387Y-118639665D01*
X149288622Y-118702503D01*
X149381915Y-118736466D01*
X149522902Y-118749937D01*
X149642603Y-118751675D01*
X149828755Y-118756522D01*
X149962289Y-118773624D01*
X150055511Y-118806820D01*
X150120725Y-118859948D01*
X150156928Y-118912148D01*
X150211796Y-119007749D01*
X150330890Y-118913425D01*
X150481474Y-118813494D01*
X150619342Y-118767157D01*
X150760375Y-118769124D01*
X150762744Y-118769519D01*
X150860063Y-118799383D01*
X150912278Y-118854591D01*
X150919689Y-118871588D01*
X150928842Y-118927613D01*
X150936908Y-119038105D01*
X150943454Y-119192072D01*
X150948046Y-119378519D01*
X150950254Y-119586453D01*
X150950386Y-119651804D01*
X150951839Y-119864288D01*
X150955897Y-120058815D01*
X150962114Y-120224335D01*
X150970039Y-120349801D01*
X150979227Y-120424163D01*
X150982157Y-120434842D01*
X151049922Y-120542480D01*
X151159436Y-120645286D01*
X151288461Y-120724604D01*
X151359536Y-120751417D01*
X151480453Y-120770109D01*
X151623736Y-120771062D01*
X151670373Y-120766962D01*
X151794817Y-120743799D01*
X151886770Y-120699860D01*
X151969182Y-120629754D01*
X152031387Y-120558093D01*
X152079129Y-120473761D01*
X152114134Y-120367631D01*
X152138130Y-120230579D01*
X152152847Y-120053477D01*
X152160011Y-119827202D01*
X152161469Y-119614275D01*
X152164002Y-119364566D01*
X152173099Y-119171981D01*
X152191005Y-119028325D01*
X152219967Y-118925402D01*
X152262229Y-118855014D01*
X152320037Y-118808966D01*
X152389836Y-118780766D01*
X152516413Y-118763161D01*
X152634316Y-118781365D01*
X152725202Y-118829739D01*
X152769582Y-118897563D01*
X152774393Y-118950314D01*
X152777888Y-119058615D01*
X152779973Y-119212566D01*
X152780559Y-119402264D01*
X152779555Y-119617808D01*
X152777750Y-119786965D01*
X152767010Y-120601030D01*
X152672731Y-120764690D01*
X152560550Y-120933777D01*
X152437954Y-121075357D01*
X152318702Y-121174109D01*
X152290086Y-121190802D01*
X152219700Y-121219296D01*
X152106623Y-121256224D01*
X151971856Y-121294875D01*
X151930035Y-121305880D01*
X151718598Y-121349374D01*
X151526325Y-121361560D01*
X151329730Y-121341587D01*
X151105325Y-121288603D01*
X151055786Y-121274193D01*
X150909661Y-121223926D01*
X150798312Y-121164790D01*
X150691635Y-121079200D01*
X150642947Y-121033051D01*
X150542605Y-120930156D01*
X150465041Y-120834234D01*
X150406929Y-120734426D01*
X150364944Y-120619870D01*
X150335761Y-120479707D01*
X150316055Y-120303076D01*
X150302501Y-120079116D01*
X150295209Y-119897293D01*
X150286346Y-119692789D01*
X150275284Y-119504975D01*
X150262962Y-119345912D01*
X150250320Y-119227657D01*
X150238298Y-119162269D01*
X150237809Y-119160824D01*
X150214113Y-119102699D01*
X150202911Y-119104246D01*
X150200365Y-119131202D01*
X150185345Y-119203598D01*
X150141295Y-119254131D01*
X150059326Y-119286200D01*
X149930555Y-119303205D01*
X149746096Y-119308545D01*
X149736726Y-119308565D01*
X149586157Y-119310595D01*
X149453824Y-119315708D01*
X149357480Y-119323042D01*
X149322223Y-119328683D01*
X149267541Y-119362543D01*
X149228373Y-119434524D01*
X149203620Y-119550720D01*
X149192181Y-119717230D01*
X149192959Y-119940147D01*
X149195810Y-120029821D01*
X149212196Y-120284173D01*
X149244033Y-120479106D01*
X149297280Y-120619975D01*
X149377898Y-120712134D01*
X149491844Y-120760937D01*
X149645080Y-120771737D01*
X149843564Y-120749890D01*
X149971259Y-120726482D01*
X150035243Y-120723850D01*
X150094047Y-120752291D01*
X150167905Y-120822321D01*
X150179271Y-120834597D01*
X150262585Y-120943578D01*
X150292464Y-121035165D01*
X150266415Y-121113028D01*
X150181943Y-121180840D01*
X150036553Y-121242274D01*
X149869521Y-121290620D01*
X149688922Y-121334105D01*
X149551822Y-121358330D01*
X149439176Y-121363363D01*
X149331935Y-121349273D01*
X149211055Y-121316127D01*
X149141921Y-121293239D01*
X148962050Y-121218609D01*
X148830005Y-121128330D01*
X148728172Y-121008472D01*
X148680513Y-120928350D01*
X148662341Y-120892364D01*
X148647523Y-120854093D01*
X148635656Y-120806679D01*
X148626339Y-120743265D01*
X148619169Y-120656995D01*
X148613746Y-120541011D01*
X148609668Y-120388457D01*
X148606532Y-120192474D01*
X148603938Y-119946206D01*
X148601483Y-119642796D01*
X148600939Y-119569974D01*
X148598786Y-119251206D01*
X148597693Y-118991154D01*
X148597907Y-118783073D01*
X148599674Y-118620221D01*
X148603242Y-118495854D01*
X148608857Y-118403228D01*
X148616766Y-118335599D01*
X148627215Y-118286225D01*
X148640452Y-118248361D01*
X148650037Y-118227963D01*
X148698466Y-118152646D01*
X148761722Y-118110163D01*
X148861680Y-118083749D01*
X148971128Y-118069584D01*
X149046905Y-118081250D01*
G37*
%TD*%
D12*
%TO.C,D1*%
X187200000Y-78700000D03*
X185150000Y-78700000D03*
%TD*%
D13*
%TO.C,U1*%
X105339100Y-120200028D03*
X105339100Y-120850014D03*
X105339100Y-121500000D03*
X105339100Y-122149986D03*
X110000000Y-122149986D03*
X110000000Y-121500000D03*
X110000000Y-120850014D03*
X110000000Y-120200028D03*
%TD*%
D14*
%TO.C,C1*%
X114000000Y-122075000D03*
X114000000Y-120000000D03*
%TD*%
D15*
%TO.C,R1*%
X118195000Y-119500000D03*
X117000000Y-119500000D03*
%TD*%
D16*
%TO.C,L1*%
X106500000Y-118500000D03*
X107500000Y-118500000D03*
%TD*%
D17*
X104400000Y-114600000D02*
X105300000Y-115500000D01*
X105600000Y-79500000D02*
X105000000Y-80100000D01*
X142800000Y-115800000D02*
X142800000Y-79200000D01*
X141600000Y-115200000D02*
X141600000Y-79800000D01*
X105000000Y-80100000D02*
X105000000Y-114300000D01*
X141600000Y-79800000D02*
X140700000Y-78900000D01*
X141000000Y-78300000D02*
X105000000Y-78300000D01*
X140700000Y-116100000D02*
X141600000Y-115200000D01*
X142800000Y-79200000D02*
X141300000Y-77700000D01*
X140400000Y-114600000D02*
X140400000Y-80400000D01*
X141300000Y-77700000D02*
X104700000Y-77700000D01*
X105900000Y-114300000D02*
X106500000Y-114300000D01*
X140100000Y-114900000D02*
X140400000Y-114600000D01*
X141000000Y-114900000D02*
X141000000Y-80100000D01*
X105300000Y-78900000D02*
X104400000Y-79800000D01*
X103800000Y-114900000D02*
X105000000Y-116100000D01*
X103800000Y-79500000D02*
X103800000Y-114900000D01*
X105300000Y-115500000D02*
X140400000Y-115500000D01*
X105600000Y-114900000D02*
X140100000Y-114900000D01*
X140700000Y-78900000D02*
X105300000Y-78900000D01*
X107700000Y-117300000D02*
X141300000Y-117300000D01*
X104400000Y-79800000D02*
X104400000Y-114600000D01*
X140400000Y-79500000D02*
X105600000Y-79500000D01*
X105000000Y-116100000D02*
X140700000Y-116100000D01*
X142200000Y-115500000D02*
X142200000Y-79500000D01*
X103200000Y-79200000D02*
X103200000Y-115200000D01*
X103200000Y-115200000D02*
X104700000Y-116700000D01*
X141000000Y-116700000D02*
X142200000Y-115500000D01*
X142200000Y-79500000D02*
X141000000Y-78300000D01*
X104700000Y-77700000D02*
X103200000Y-79200000D01*
X141000000Y-80100000D02*
X140400000Y-79500000D01*
X105600000Y-114000000D02*
X105900000Y-114300000D01*
X105000000Y-78300000D02*
X103800000Y-79500000D01*
X140400000Y-80400000D02*
X140100000Y-80100000D01*
X105900000Y-80100000D02*
X105600000Y-80400000D01*
X105600000Y-80400000D02*
X105600000Y-114000000D01*
X105000000Y-114300000D02*
X105600000Y-114900000D01*
X141300000Y-117300000D02*
X142800000Y-115800000D01*
X140400000Y-115500000D02*
X141000000Y-114900000D01*
X140100000Y-80100000D02*
X105900000Y-80100000D01*
X104700000Y-116700000D02*
X141000000Y-116700000D01*
M02*
