%TF.GenerationSoftware,KiCad,Pcbnew,10.0.0*%
%TF.CreationDate,2026-04-14T13:01:33-05:00*%
%TF.ProjectId,Buisness_Card,42756973-6e65-4737-935f-436172642e6b,rev?*%
%TF.SameCoordinates,Original*%
%TF.FileFunction,Copper,L2,Bot*%
%TF.FilePolarity,Positive*%
%FSLAX46Y46*%
G04 Gerber Fmt 4.6, Leading zero omitted, Abs format (unit mm)*
G04 Created by KiCad (PCBNEW 10.0.0) date 2026-04-14 13:01:33*
%MOMM*%
%LPD*%
G01*
G04 APERTURE LIST*
%TA.AperFunction,EtchedComponent*%
%ADD10C,0.000000*%
%TD*%
%TA.AperFunction,ComponentPad*%
%ADD11C,0.400000*%
%TD*%
%TA.AperFunction,ViaPad*%
%ADD12C,0.600000*%
%TD*%
%TA.AperFunction,Conductor*%
%ADD13C,0.300000*%
%TD*%
G04 APERTURE END LIST*
D10*
%TA.AperFunction,EtchedComponent*%
%TO.C,G\u002A\u002A\u002A*%
G36*
X166900116Y-90969441D02*
G01*
X167516203Y-90995185D01*
X168115784Y-91036685D01*
X168685711Y-91093758D01*
X169212833Y-91166225D01*
X169398852Y-91196959D01*
X169784157Y-91269096D01*
X170117959Y-91345768D01*
X170410829Y-91430232D01*
X170673340Y-91525747D01*
X170916063Y-91635568D01*
X171149572Y-91762955D01*
X171269682Y-91833054D01*
X171439186Y-91929760D01*
X171597298Y-92017729D01*
X171721167Y-92084119D01*
X171742859Y-92095458D01*
X171846090Y-92152755D01*
X171918718Y-92198616D01*
X171946167Y-92223979D01*
X171924364Y-92241113D01*
X171848975Y-92279265D01*
X171728986Y-92333071D01*
X171574054Y-92398468D01*
X171393835Y-92471394D01*
X171197988Y-92547787D01*
X170996167Y-92623586D01*
X170877492Y-92668921D01*
X170633655Y-92768856D01*
X170337028Y-92897210D01*
X169991443Y-93052231D01*
X169600732Y-93232167D01*
X169168728Y-93435265D01*
X168699262Y-93659773D01*
X168196167Y-93903939D01*
X167829635Y-94082626D01*
X167503858Y-94240265D01*
X167221077Y-94375333D01*
X166972869Y-94491516D01*
X166750814Y-94592497D01*
X166546493Y-94681962D01*
X166351484Y-94763597D01*
X166157368Y-94841085D01*
X165955723Y-94918112D01*
X165738130Y-94998364D01*
X165496167Y-95085524D01*
X165327781Y-95145486D01*
X165208235Y-95188056D01*
X164724499Y-95358094D01*
X164291872Y-95506707D01*
X163903344Y-95635976D01*
X163551905Y-95747983D01*
X163230542Y-95844810D01*
X162932245Y-95928538D01*
X162650004Y-96001247D01*
X162376806Y-96065021D01*
X162105642Y-96121939D01*
X161829500Y-96174084D01*
X161785126Y-96182016D01*
X161567398Y-96219376D01*
X161398630Y-96244688D01*
X161265014Y-96259545D01*
X161152741Y-96265541D01*
X161048003Y-96264268D01*
X161033035Y-96261940D01*
X161022392Y-96247531D01*
X161036396Y-96215118D01*
X161079671Y-96158998D01*
X161156838Y-96073469D01*
X161272519Y-95952829D01*
X161431336Y-95791377D01*
X161577201Y-95645943D01*
X161741312Y-95486235D01*
X161896352Y-95339096D01*
X162029891Y-95216307D01*
X162129500Y-95129647D01*
X162150546Y-95112400D01*
X162343914Y-94960052D01*
X162568474Y-94791732D01*
X162807731Y-94619153D01*
X163045188Y-94454028D01*
X163264350Y-94308069D01*
X163448720Y-94192988D01*
X163500338Y-94162311D01*
X163613684Y-94092417D01*
X163685825Y-94038979D01*
X163728899Y-93989308D01*
X163755048Y-93930719D01*
X163776409Y-93850523D01*
X163779308Y-93838595D01*
X163860146Y-93547057D01*
X163866889Y-93527558D01*
X165327781Y-93527558D01*
X165348865Y-93521192D01*
X165423703Y-93492469D01*
X165541819Y-93444656D01*
X165692763Y-93382200D01*
X165866082Y-93309551D01*
X166051324Y-93231154D01*
X166238036Y-93151460D01*
X166415767Y-93074915D01*
X166574064Y-93005968D01*
X166702476Y-92949067D01*
X166790550Y-92908660D01*
X166827833Y-92889194D01*
X166816159Y-92879057D01*
X166750309Y-92868872D01*
X166639245Y-92861438D01*
X166494500Y-92857840D01*
X166394335Y-92856892D01*
X166209214Y-92854674D01*
X166036023Y-92852084D01*
X165902128Y-92849507D01*
X165674757Y-92844224D01*
X165491089Y-93185891D01*
X165422585Y-93316204D01*
X165367922Y-93426005D01*
X165334501Y-93500265D01*
X165327781Y-93527558D01*
X163866889Y-93527558D01*
X163953184Y-93278010D01*
X164050829Y-93053508D01*
X164096490Y-92960445D01*
X164132407Y-92883543D01*
X164146167Y-92848794D01*
X164133185Y-92837099D01*
X164069266Y-92805461D01*
X163963629Y-92761853D01*
X163829348Y-92711567D01*
X163679500Y-92659895D01*
X163463717Y-92587806D01*
X163120752Y-92468438D01*
X162820328Y-92356392D01*
X162562833Y-92251963D01*
X162548242Y-92246045D01*
X162290289Y-92131776D01*
X162032265Y-92007963D01*
X161985939Y-91985020D01*
X161852982Y-91917395D01*
X161792188Y-91877558D01*
X162546167Y-91877558D01*
X162562833Y-91894224D01*
X162579500Y-91877558D01*
X162562833Y-91860891D01*
X162546167Y-91877558D01*
X161792188Y-91877558D01*
X161776717Y-91867420D01*
X161757522Y-91825203D01*
X161795779Y-91780854D01*
X161891867Y-91724482D01*
X162046167Y-91646198D01*
X162177666Y-91585164D01*
X162426581Y-91487235D01*
X162715708Y-91389615D01*
X163029186Y-91296888D01*
X163351157Y-91213638D01*
X163665761Y-91144449D01*
X163957139Y-91093904D01*
X164032267Y-91083375D01*
X164533664Y-91027631D01*
X165084295Y-90988546D01*
X165671013Y-90965940D01*
X166280669Y-90959632D01*
X166900116Y-90969441D01*
G37*
%TD.AperFunction*%
%TA.AperFunction,EtchedComponent*%
G36*
X176297945Y-84184945D02*
G01*
X176277496Y-84226075D01*
X176220707Y-84322211D01*
X176136320Y-84456031D01*
X176030726Y-84617978D01*
X175910320Y-84798493D01*
X175781493Y-84988016D01*
X175650638Y-85176989D01*
X175524148Y-85355853D01*
X175408415Y-85515049D01*
X175270390Y-85698326D01*
X175097526Y-85922693D01*
X174902940Y-86171413D01*
X174696934Y-86431550D01*
X174489812Y-86690169D01*
X174291877Y-86934333D01*
X174113431Y-87151108D01*
X173964779Y-87327558D01*
X173847840Y-87465254D01*
X173610231Y-87752842D01*
X173379582Y-88041848D01*
X173163571Y-88322215D01*
X172969873Y-88583883D01*
X172806165Y-88816794D01*
X172680122Y-89010891D01*
X172666087Y-89033829D01*
X172591439Y-89154596D01*
X172525564Y-89259341D01*
X172481336Y-89327558D01*
X172478630Y-89331624D01*
X172421084Y-89437619D01*
X172355280Y-89586813D01*
X172288690Y-89758813D01*
X172228784Y-89933224D01*
X172183034Y-90089653D01*
X172158910Y-90207707D01*
X172137571Y-90389264D01*
X171916869Y-90373189D01*
X171821586Y-90364346D01*
X171661449Y-90345610D01*
X171478371Y-90321198D01*
X171296167Y-90294143D01*
X171146029Y-90271027D01*
X170955001Y-90244111D01*
X170778000Y-90223278D01*
X170594860Y-90206504D01*
X170385415Y-90191765D01*
X170129500Y-90177037D01*
X170127827Y-90176947D01*
X170006094Y-90170282D01*
X169878084Y-90163026D01*
X169735189Y-90154658D01*
X169568801Y-90144654D01*
X169370312Y-90132492D01*
X169131115Y-90117648D01*
X168842603Y-90099601D01*
X168496167Y-90077826D01*
X168399821Y-90071969D01*
X168235883Y-90062399D01*
X168036080Y-90051023D01*
X167817233Y-90038795D01*
X167596167Y-90026671D01*
X167517564Y-90022356D01*
X166744861Y-89974066D01*
X166036475Y-89918533D01*
X165390603Y-89855540D01*
X164805441Y-89784872D01*
X164279183Y-89706313D01*
X163810027Y-89619648D01*
X163396167Y-89524661D01*
X163372625Y-89518625D01*
X163229579Y-89482050D01*
X163100019Y-89449071D01*
X163009485Y-89426194D01*
X162970332Y-89415296D01*
X162852025Y-89375676D01*
X162731721Y-89328510D01*
X162675236Y-89305721D01*
X162579758Y-89273531D01*
X162517482Y-89260891D01*
X162456998Y-89247000D01*
X162347809Y-89202684D01*
X162206931Y-89134682D01*
X162046969Y-89049943D01*
X161880527Y-88955413D01*
X161720210Y-88858043D01*
X161578623Y-88764780D01*
X161468371Y-88682572D01*
X161307241Y-88550001D01*
X161467483Y-88489175D01*
X161554479Y-88459064D01*
X161700734Y-88415034D01*
X161845279Y-88377396D01*
X162067026Y-88325819D01*
X162457342Y-88237217D01*
X162784129Y-88166283D01*
X163047150Y-88113069D01*
X163246167Y-88077625D01*
X163275608Y-88072864D01*
X163429869Y-88045732D01*
X163573769Y-88017313D01*
X163679500Y-87993036D01*
X163747989Y-87982735D01*
X163885545Y-87972105D01*
X164088698Y-87961983D01*
X164356891Y-87952388D01*
X164689570Y-87943339D01*
X165086180Y-87934856D01*
X165546167Y-87926960D01*
X165852477Y-87921963D01*
X166262726Y-87914064D01*
X166620045Y-87905245D01*
X166932680Y-87894997D01*
X167208880Y-87882809D01*
X167456892Y-87868172D01*
X167684966Y-87850575D01*
X167901349Y-87829507D01*
X168114289Y-87804460D01*
X168332035Y-87774922D01*
X168562833Y-87740385D01*
X168655906Y-87726108D01*
X168793161Y-87705622D01*
X168899480Y-87690455D01*
X168957405Y-87683140D01*
X168986094Y-87688637D01*
X169018352Y-87724785D01*
X169052412Y-87803852D01*
X169094286Y-87936988D01*
X169141776Y-88076012D01*
X169279133Y-88343921D01*
X169459369Y-88569214D01*
X169675224Y-88748522D01*
X169919440Y-88878477D01*
X170184759Y-88955711D01*
X170463923Y-88976855D01*
X170749672Y-88938543D01*
X171034750Y-88837405D01*
X171086245Y-88811633D01*
X171323831Y-88650736D01*
X171518012Y-88446664D01*
X171665288Y-88208389D01*
X171762158Y-87944886D01*
X171805122Y-87665125D01*
X171790680Y-87378082D01*
X171715332Y-87092728D01*
X171687042Y-87015939D01*
X171661970Y-86941251D01*
X171655291Y-86910742D01*
X171672473Y-86903434D01*
X171740284Y-86875471D01*
X171847069Y-86831774D01*
X171979500Y-86777808D01*
X172096426Y-86729710D01*
X172420866Y-86588852D01*
X172703552Y-86452803D01*
X172961776Y-86312906D01*
X173212833Y-86160505D01*
X173334799Y-86082976D01*
X173515604Y-85968775D01*
X173690444Y-85859058D01*
X173834252Y-85769593D01*
X173881855Y-85739381D01*
X174010643Y-85653793D01*
X174175364Y-85540883D01*
X174364263Y-85408832D01*
X174565587Y-85265818D01*
X174767586Y-85120021D01*
X174917618Y-85010903D01*
X175128409Y-84858402D01*
X175300209Y-84735789D01*
X175442156Y-84637022D01*
X175563388Y-84556061D01*
X175673042Y-84486865D01*
X175780256Y-84423392D01*
X175894169Y-84359601D01*
X176023918Y-84289451D01*
X176088461Y-84255501D01*
X176211867Y-84196122D01*
X176282116Y-84172443D01*
X176297945Y-84184945D01*
G37*
%TD.AperFunction*%
%TA.AperFunction,EtchedComponent*%
G36*
X171928017Y-93084466D02*
G01*
X171911409Y-93117092D01*
X171866508Y-93184808D01*
X171790404Y-93292187D01*
X171680185Y-93443802D01*
X171532940Y-93644224D01*
X171420869Y-93795354D01*
X170913344Y-94456423D01*
X170385040Y-95108881D01*
X169845183Y-95742121D01*
X169303001Y-96345532D01*
X168767722Y-96908505D01*
X168248573Y-97420432D01*
X168066203Y-97593121D01*
X167901370Y-97746966D01*
X167772495Y-97863542D01*
X167673410Y-97947807D01*
X167597946Y-98004717D01*
X167539934Y-98039230D01*
X167493207Y-98056302D01*
X167451595Y-98060891D01*
X167436535Y-98061898D01*
X167351923Y-98079015D01*
X167232085Y-98112928D01*
X167097845Y-98157925D01*
X167029986Y-98181697D01*
X166896366Y-98227174D01*
X166713490Y-98288582D01*
X166489094Y-98363352D01*
X166230912Y-98448917D01*
X165946678Y-98542706D01*
X165644126Y-98642153D01*
X165330991Y-98744688D01*
X165299196Y-98755091D01*
X164875991Y-98895774D01*
X164454482Y-99039798D01*
X164041554Y-99184585D01*
X163644088Y-99327559D01*
X163268968Y-99466143D01*
X162923076Y-99597761D01*
X162613296Y-99719836D01*
X162346510Y-99829792D01*
X162129602Y-99925052D01*
X161969454Y-100003039D01*
X161876615Y-100057580D01*
X161768675Y-100134105D01*
X161694911Y-100201796D01*
X161613747Y-100298254D01*
X161704957Y-100383208D01*
X161731776Y-100405282D01*
X161832637Y-100471707D01*
X161975610Y-100553189D01*
X162146855Y-100642854D01*
X162332534Y-100733829D01*
X162518808Y-100819240D01*
X162691839Y-100892214D01*
X162837787Y-100945877D01*
X162861834Y-100953516D01*
X163069612Y-101007963D01*
X163328848Y-101060209D01*
X163626187Y-101108467D01*
X163948276Y-101150948D01*
X164281760Y-101185866D01*
X164613286Y-101211433D01*
X164929500Y-101225862D01*
X164951147Y-101226400D01*
X165088650Y-101228340D01*
X165256076Y-101228877D01*
X165441354Y-101228177D01*
X165632408Y-101226410D01*
X165817165Y-101223743D01*
X165983550Y-101220345D01*
X166119491Y-101216384D01*
X166212913Y-101212028D01*
X166251743Y-101207445D01*
X166261802Y-101203246D01*
X166320093Y-101201295D01*
X166392668Y-101214815D01*
X166452594Y-101237187D01*
X166472933Y-101261793D01*
X166461504Y-101279750D01*
X166414381Y-101343878D01*
X166337634Y-101444396D01*
X166238451Y-101571925D01*
X166124016Y-101717090D01*
X166084057Y-101767387D01*
X165882211Y-102018342D01*
X165699826Y-102238724D01*
X165520267Y-102448357D01*
X165326902Y-102667065D01*
X165216909Y-102789905D01*
X164773205Y-102711158D01*
X164559089Y-102672361D01*
X164299732Y-102623594D01*
X164035662Y-102572308D01*
X163775661Y-102520339D01*
X163528512Y-102469524D01*
X163302997Y-102421701D01*
X163107899Y-102378704D01*
X162951999Y-102342371D01*
X162844081Y-102314538D01*
X162792926Y-102297042D01*
X162780472Y-102291509D01*
X162704334Y-102269801D01*
X162574164Y-102240114D01*
X162398699Y-102204010D01*
X162186676Y-102163052D01*
X161946834Y-102118800D01*
X161687907Y-102072817D01*
X161418636Y-102026664D01*
X161147755Y-101981903D01*
X160884003Y-101940097D01*
X160636117Y-101902806D01*
X160412833Y-101871592D01*
X160245314Y-101850002D01*
X160038541Y-101826275D01*
X159846140Y-101808827D01*
X159651906Y-101796711D01*
X159439635Y-101788978D01*
X159193123Y-101784681D01*
X158896167Y-101782872D01*
X158029500Y-101780541D01*
X157712833Y-101900089D01*
X157222653Y-102086768D01*
X156600428Y-102327957D01*
X155966811Y-102577872D01*
X155332438Y-102832174D01*
X154707943Y-103086526D01*
X154103963Y-103336589D01*
X153531133Y-103578024D01*
X153000088Y-103806494D01*
X152521463Y-104017660D01*
X152341967Y-104098746D01*
X151788588Y-104356057D01*
X151197772Y-104640530D01*
X150583141Y-104945180D01*
X149958315Y-105263019D01*
X149336917Y-105587063D01*
X148732567Y-105910326D01*
X148158888Y-106225821D01*
X147629500Y-106526562D01*
X147378536Y-106671458D01*
X147136931Y-106809801D01*
X146945109Y-106918059D01*
X146799064Y-106998430D01*
X146694790Y-107053116D01*
X146628280Y-107084314D01*
X146595528Y-107094224D01*
X146593741Y-107094170D01*
X146587167Y-107090161D01*
X146590859Y-107075451D01*
X146609086Y-107043966D01*
X146646115Y-106989631D01*
X146706215Y-106906371D01*
X146793653Y-106788111D01*
X146912698Y-106628775D01*
X147067619Y-106422288D01*
X147085867Y-106397997D01*
X147215436Y-106226821D01*
X147327803Y-106083175D01*
X147430929Y-105959724D01*
X147532777Y-105849136D01*
X147641307Y-105744079D01*
X147764480Y-105637220D01*
X147910258Y-105521226D01*
X148086602Y-105388763D01*
X148301474Y-105232500D01*
X148562833Y-105045103D01*
X149283768Y-104540999D01*
X150499946Y-103737869D01*
X151775718Y-102951128D01*
X153107501Y-102182884D01*
X154491712Y-101435247D01*
X155924770Y-100710327D01*
X156394518Y-100482972D01*
X157383496Y-100022626D01*
X158344365Y-99601831D01*
X159290131Y-99215379D01*
X160233795Y-98858061D01*
X161188362Y-98524668D01*
X162166835Y-98209992D01*
X162321481Y-98161752D01*
X163506813Y-97758806D01*
X164684293Y-97300640D01*
X165843778Y-96791929D01*
X166975125Y-96237347D01*
X168068191Y-95641567D01*
X169112833Y-95009263D01*
X169263336Y-94913279D01*
X169638880Y-94674316D01*
X169975123Y-94461187D01*
X170267913Y-94276511D01*
X170513101Y-94122911D01*
X170706534Y-94003006D01*
X170781912Y-93955034D01*
X170929749Y-93855732D01*
X171091759Y-93742172D01*
X171244355Y-93630684D01*
X171347592Y-93552914D01*
X171493977Y-93440394D01*
X171615650Y-93342703D01*
X171731310Y-93244659D01*
X171859656Y-93131077D01*
X171888003Y-93106197D01*
X171919245Y-93082359D01*
X171928017Y-93084466D01*
G37*
%TD.AperFunction*%
%TA.AperFunction,EtchedComponent*%
G36*
X172326464Y-94136558D02*
G01*
X172304123Y-94194224D01*
X172258467Y-94304015D01*
X172115208Y-94642261D01*
X171952401Y-95019078D01*
X171776994Y-95418711D01*
X171595935Y-95825405D01*
X171416170Y-96223405D01*
X171244646Y-96596956D01*
X171145383Y-96811741D01*
X171004240Y-97118949D01*
X170857317Y-97440456D01*
X170713120Y-97757592D01*
X170580155Y-98051683D01*
X170466930Y-98304059D01*
X170208393Y-98877417D01*
X169840256Y-99676229D01*
X169440225Y-100525999D01*
X169009920Y-101423360D01*
X168550958Y-102364944D01*
X168064958Y-103347384D01*
X167553537Y-104367313D01*
X167552925Y-104369998D01*
X167581555Y-104390487D01*
X167652360Y-104408574D01*
X167716097Y-104418934D01*
X167834946Y-104438117D01*
X167994836Y-104463853D01*
X168183121Y-104494107D01*
X168387155Y-104526843D01*
X168454440Y-104537796D01*
X168694132Y-104578599D01*
X168972356Y-104628051D01*
X169269005Y-104682483D01*
X169563973Y-104738221D01*
X169837155Y-104791596D01*
X169976901Y-104819131D01*
X170246240Y-104870998D01*
X170556934Y-104929679D01*
X170893961Y-104992386D01*
X171242300Y-105056331D01*
X171586932Y-105118727D01*
X171912833Y-105176787D01*
X171987877Y-105190027D01*
X172527292Y-105285237D01*
X173008260Y-105370277D01*
X173437158Y-105446368D01*
X173820365Y-105514735D01*
X174164259Y-105576600D01*
X174475217Y-105633187D01*
X174759618Y-105685718D01*
X175023841Y-105735417D01*
X175274262Y-105783507D01*
X175517261Y-105831210D01*
X175759214Y-105879750D01*
X176006501Y-105930351D01*
X176265500Y-105984234D01*
X176542587Y-106042624D01*
X176844142Y-106106743D01*
X177176543Y-106177814D01*
X177546167Y-106257061D01*
X178025722Y-106360106D01*
X178630112Y-106490617D01*
X179178786Y-106610038D01*
X179677285Y-106719714D01*
X180131152Y-106820989D01*
X180545927Y-106915206D01*
X180927153Y-107003711D01*
X181280372Y-107087846D01*
X181611124Y-107168957D01*
X181924951Y-107248388D01*
X182227396Y-107327482D01*
X182523999Y-107407584D01*
X182820303Y-107490038D01*
X183121849Y-107576188D01*
X183434179Y-107667379D01*
X183762833Y-107764954D01*
X184177324Y-107890242D01*
X184595986Y-108020627D01*
X184965280Y-108140497D01*
X185293409Y-108252666D01*
X185588576Y-108359948D01*
X185858983Y-108465157D01*
X186112833Y-108571107D01*
X186161569Y-108593601D01*
X186294720Y-108674448D01*
X186381695Y-108760349D01*
X186412834Y-108842562D01*
X186412779Y-108850024D01*
X186405411Y-108906487D01*
X186379027Y-108944603D01*
X186324198Y-108966406D01*
X186231494Y-108973928D01*
X186091486Y-108969201D01*
X185894745Y-108954260D01*
X185860611Y-108951729D01*
X185717940Y-108944766D01*
X185516575Y-108938506D01*
X185262463Y-108932947D01*
X184961549Y-108928091D01*
X184619777Y-108923939D01*
X184243094Y-108920490D01*
X183837444Y-108917746D01*
X183408772Y-108915706D01*
X182963024Y-108914372D01*
X182506145Y-108913744D01*
X182044081Y-108913823D01*
X181582775Y-108914608D01*
X181128175Y-108916101D01*
X180686224Y-108918303D01*
X180262869Y-108921213D01*
X179864054Y-108924832D01*
X179495724Y-108929160D01*
X179163825Y-108934200D01*
X178874303Y-108939950D01*
X178633102Y-108946411D01*
X178446167Y-108953584D01*
X178081503Y-108971480D01*
X177223416Y-109018112D01*
X176417097Y-109069092D01*
X175651985Y-109125505D01*
X174917518Y-109188438D01*
X174203135Y-109258974D01*
X173498275Y-109338201D01*
X172792376Y-109427202D01*
X172074877Y-109527064D01*
X171335217Y-109638871D01*
X170562833Y-109763709D01*
X170557968Y-109764518D01*
X169262538Y-109997143D01*
X167981473Y-110261120D01*
X166721904Y-110554488D01*
X165490965Y-110875285D01*
X165284788Y-110935019D01*
X164295789Y-111221552D01*
X163143509Y-111591327D01*
X162041257Y-111982650D01*
X160996167Y-112393560D01*
X160694182Y-112520289D01*
X160092976Y-112781432D01*
X159476856Y-113059812D01*
X158858884Y-113349156D01*
X158252125Y-113643188D01*
X157669642Y-113935636D01*
X157124498Y-114220224D01*
X156629757Y-114490679D01*
X156581585Y-114517689D01*
X156404207Y-114616263D01*
X156248581Y-114701404D01*
X156123765Y-114768245D01*
X156038815Y-114811919D01*
X156002790Y-114827558D01*
X155997512Y-114827024D01*
X155990224Y-114802558D01*
X156004001Y-114775243D01*
X156041441Y-114697472D01*
X156095418Y-114583696D01*
X156159496Y-114447417D01*
X156160079Y-114446173D01*
X156233859Y-114295807D01*
X156303612Y-114174788D01*
X156382648Y-114064536D01*
X156484276Y-113946470D01*
X156621805Y-113802010D01*
X156881232Y-113548833D01*
X157348395Y-113144547D01*
X157874999Y-112746539D01*
X158462850Y-112353558D01*
X159113749Y-111964353D01*
X159829500Y-111577675D01*
X159961645Y-111508858D01*
X160192712Y-111385859D01*
X160427727Y-111257989D01*
X160645503Y-111136821D01*
X160824854Y-111033928D01*
X160847538Y-111020636D01*
X161049540Y-110904078D01*
X161280320Y-110773410D01*
X161513148Y-110643663D01*
X161721292Y-110529866D01*
X162189043Y-110277558D01*
X162905525Y-109127558D01*
X163053022Y-108890564D01*
X165284788Y-108890564D01*
X165373811Y-108856244D01*
X165449068Y-108827413D01*
X165695670Y-108734697D01*
X165983426Y-108628541D01*
X166299393Y-108513561D01*
X166630629Y-108394375D01*
X166964190Y-108275600D01*
X167287134Y-108161854D01*
X167586517Y-108057753D01*
X167849398Y-107967915D01*
X168062833Y-107896957D01*
X168348021Y-107804186D01*
X168707496Y-107687124D01*
X169010920Y-107587963D01*
X169262624Y-107505093D01*
X169466938Y-107436900D01*
X169628193Y-107381774D01*
X169750720Y-107338102D01*
X169838851Y-107304273D01*
X169896916Y-107278674D01*
X169929245Y-107259694D01*
X169940171Y-107245720D01*
X169934024Y-107235142D01*
X169915134Y-107226346D01*
X169887833Y-107217721D01*
X169841200Y-107201387D01*
X169742462Y-107165072D01*
X169603074Y-107113017D01*
X169433990Y-107049312D01*
X169246167Y-106978051D01*
X169033663Y-106897737D01*
X168742815Y-106789456D01*
X168447091Y-106681015D01*
X168153224Y-106574758D01*
X167867951Y-106473028D01*
X167598006Y-106378166D01*
X167350124Y-106292518D01*
X167131041Y-106218424D01*
X166947490Y-106158229D01*
X166806209Y-106114274D01*
X166713930Y-106088904D01*
X166677391Y-106084460D01*
X166673163Y-106090946D01*
X166642879Y-106146595D01*
X166587449Y-106253026D01*
X166510161Y-106403778D01*
X166414302Y-106592391D01*
X166303160Y-106812404D01*
X166180024Y-107057358D01*
X166048180Y-107320791D01*
X166009914Y-107397454D01*
X165876433Y-107665510D01*
X165750502Y-107919353D01*
X165635844Y-108151418D01*
X165536180Y-108354142D01*
X165455231Y-108519960D01*
X165396718Y-108641310D01*
X165364364Y-108710628D01*
X165284788Y-108890564D01*
X163053022Y-108890564D01*
X163058000Y-108882566D01*
X163268479Y-108543764D01*
X163496070Y-108176863D01*
X163730986Y-107797662D01*
X163963443Y-107421957D01*
X164183656Y-107065545D01*
X164381839Y-106744224D01*
X165141672Y-105510891D01*
X165059058Y-105467359D01*
X165023628Y-105452187D01*
X164928324Y-105416408D01*
X164786666Y-105365817D01*
X164608324Y-105303807D01*
X164402964Y-105233768D01*
X164180255Y-105159092D01*
X164100917Y-105132840D01*
X163855336Y-105053705D01*
X163625594Y-104983766D01*
X163398131Y-104919444D01*
X163159385Y-104857158D01*
X162895797Y-104793326D01*
X162593806Y-104724368D01*
X162239851Y-104646703D01*
X161713661Y-104531985D01*
X161084059Y-104392091D01*
X160514908Y-104262309D01*
X160003249Y-104141895D01*
X159546124Y-104030105D01*
X159140574Y-103926195D01*
X158783642Y-103829423D01*
X158472368Y-103739044D01*
X158203795Y-103654314D01*
X157974964Y-103574490D01*
X157915892Y-103552920D01*
X157694378Y-103475724D01*
X157462207Y-103399538D01*
X157243613Y-103332152D01*
X157062833Y-103281354D01*
X156662833Y-103177558D01*
X157112833Y-103160403D01*
X157283260Y-103155181D01*
X157503941Y-103152644D01*
X157729386Y-103155418D01*
X157965695Y-103164056D01*
X158218970Y-103179110D01*
X158495314Y-103201134D01*
X158800827Y-103230679D01*
X159141612Y-103268298D01*
X159523770Y-103314544D01*
X159953403Y-103369969D01*
X160436612Y-103435126D01*
X160979500Y-103510567D01*
X161388107Y-103567669D01*
X161893461Y-103637426D01*
X162388763Y-103704876D01*
X162869709Y-103769479D01*
X163331993Y-103830695D01*
X163771312Y-103887985D01*
X164183361Y-103940809D01*
X164563835Y-103988626D01*
X164908430Y-104030897D01*
X165212840Y-104067083D01*
X165472762Y-104096643D01*
X165683892Y-104119038D01*
X165841923Y-104133728D01*
X165942552Y-104140172D01*
X165981475Y-104137832D01*
X165994439Y-104120481D01*
X166042764Y-104046724D01*
X166123459Y-103918566D01*
X166235432Y-103737808D01*
X166377589Y-103506251D01*
X166548838Y-103225697D01*
X166748086Y-102897947D01*
X166974242Y-102524801D01*
X167226211Y-102108063D01*
X167502902Y-101649531D01*
X167803222Y-101151009D01*
X168126078Y-100614297D01*
X168470379Y-100041196D01*
X168835030Y-99433508D01*
X168967161Y-99213190D01*
X169247327Y-98746097D01*
X169496832Y-98330386D01*
X169718217Y-97962030D01*
X169914026Y-97637003D01*
X170086799Y-97351279D01*
X170239078Y-97100832D01*
X170373406Y-96881634D01*
X170492325Y-96689660D01*
X170598377Y-96520883D01*
X170694102Y-96371277D01*
X170782045Y-96236816D01*
X170864746Y-96113472D01*
X170944747Y-95997220D01*
X171024591Y-95884033D01*
X171106819Y-95769886D01*
X171193973Y-95650750D01*
X171288596Y-95522601D01*
X171393229Y-95381411D01*
X171447258Y-95308438D01*
X171597287Y-95105022D01*
X171744667Y-94904168D01*
X171880102Y-94718602D01*
X171994295Y-94561046D01*
X172077950Y-94444224D01*
X172090434Y-94426599D01*
X172197043Y-94277062D01*
X172270039Y-94177614D01*
X172313334Y-94123929D01*
X172330838Y-94111685D01*
X172326464Y-94136558D01*
G37*
%TD.AperFunction*%
%TD*%
D11*
%TO.P,L1,1,1_1*%
%TO.N,Net-(U1-LA)*%
X106500000Y-118500000D03*
%TO.P,L1,2,2_2*%
X107500000Y-118500000D03*
%TD*%
D12*
%TO.N,Net-(U1-LA)*%
X106500000Y-114300000D03*
%TD*%
%TO.N,Net-(U1-LA)*%
D13*
X106500000Y-114300000D02*
X106500000Y-118500000D01*
%TD*%
%TA.AperFunction,NonConductor*%
G36*
X187293606Y-76519685D02*
G01*
X187314248Y-76536319D01*
X188991577Y-78213648D01*
X189025062Y-78274971D01*
X189027896Y-78301407D01*
X189000032Y-122728726D01*
X188980305Y-122795753D01*
X188963658Y-122816384D01*
X187314239Y-124463736D01*
X187252895Y-124497183D01*
X187226613Y-124500000D01*
X145329291Y-124500000D01*
X145262252Y-124480315D01*
X145241610Y-124463681D01*
X143564248Y-122786319D01*
X143530763Y-122724996D01*
X143527929Y-122698638D01*
X143527929Y-107030033D01*
X146085255Y-107030033D01*
X146085255Y-107030040D01*
X146085255Y-107030041D01*
X146085738Y-107050513D01*
X146088648Y-107173885D01*
X146132426Y-107310937D01*
X146132427Y-107310939D01*
X146204338Y-107417234D01*
X146213049Y-107430110D01*
X146310695Y-107510769D01*
X146323982Y-107521744D01*
X146323985Y-107521746D01*
X146330534Y-107525740D01*
X146330550Y-107525748D01*
X146330552Y-107525750D01*
X146436740Y-107574671D01*
X146578473Y-107599439D01*
X146580260Y-107599493D01*
X146596445Y-107599671D01*
X146599677Y-107599707D01*
X146599677Y-107599706D01*
X146599683Y-107599707D01*
X146741926Y-107578061D01*
X146774678Y-107568151D01*
X146842952Y-107541967D01*
X146871033Y-107528794D01*
X146909459Y-107510771D01*
X146916257Y-107507395D01*
X146929569Y-107500787D01*
X147033843Y-107446101D01*
X147042782Y-107441298D01*
X147188827Y-107360927D01*
X147193560Y-107358289D01*
X147385382Y-107250031D01*
X147388116Y-107248476D01*
X147448750Y-107213757D01*
X147629818Y-107110078D01*
X147631192Y-107109287D01*
X147631288Y-107109232D01*
X147880430Y-106965387D01*
X147880930Y-106965101D01*
X148404915Y-106667429D01*
X148406225Y-106666696D01*
X148972961Y-106355019D01*
X148974132Y-106354384D01*
X149572590Y-106034272D01*
X149573543Y-106033770D01*
X150189334Y-105712651D01*
X150190197Y-105712206D01*
X150809475Y-105397189D01*
X150810447Y-105396700D01*
X151336165Y-105136123D01*
X151419002Y-105095064D01*
X151420276Y-105094441D01*
X151451776Y-105079274D01*
X152004211Y-104813279D01*
X152005578Y-104812633D01*
X152552190Y-104558469D01*
X152553027Y-104558086D01*
X152727174Y-104479416D01*
X152727801Y-104479135D01*
X153201555Y-104270119D01*
X153202375Y-104269762D01*
X153728914Y-104043230D01*
X153729636Y-104042923D01*
X154298639Y-103803102D01*
X154298988Y-103802955D01*
X154899865Y-103554177D01*
X155521674Y-103300919D01*
X155522120Y-103300739D01*
X155993591Y-103111739D01*
X156063138Y-103105066D01*
X156125255Y-103137054D01*
X156160218Y-103197546D01*
X156163665Y-103222902D01*
X156165011Y-103265326D01*
X156209902Y-103402023D01*
X156235591Y-103439338D01*
X156291489Y-103520536D01*
X156403159Y-103611262D01*
X156535866Y-103666853D01*
X156535867Y-103666853D01*
X156535869Y-103666854D01*
X156929730Y-103769056D01*
X156932130Y-103769704D01*
X157099352Y-103816693D01*
X157102219Y-103817538D01*
X157307884Y-103880939D01*
X157309883Y-103881574D01*
X157531415Y-103954268D01*
X157533481Y-103954968D01*
X157745134Y-104028728D01*
X157746712Y-104029290D01*
X157801579Y-104049325D01*
X157801624Y-104049341D01*
X157801706Y-104049371D01*
X157808423Y-104051768D01*
X157808468Y-104051784D01*
X158037299Y-104131608D01*
X158051708Y-104136393D01*
X158320281Y-104221123D01*
X158329494Y-104223913D01*
X158331445Y-104224504D01*
X158488735Y-104270173D01*
X158642690Y-104314874D01*
X158651365Y-104317309D01*
X158651401Y-104317318D01*
X158651409Y-104317321D01*
X159008301Y-104414082D01*
X159015039Y-104415859D01*
X159015065Y-104415865D01*
X159015108Y-104415877D01*
X159420658Y-104519787D01*
X159426042Y-104521135D01*
X159883167Y-104632925D01*
X159887448Y-104633952D01*
X159887541Y-104633973D01*
X159887579Y-104633983D01*
X160398889Y-104754315D01*
X160398971Y-104754334D01*
X160399107Y-104754366D01*
X160402525Y-104755158D01*
X160917156Y-104872508D01*
X160971803Y-104884969D01*
X160974325Y-104885536D01*
X160974414Y-104885556D01*
X161604016Y-105025450D01*
X161605983Y-105025883D01*
X162131269Y-105140403D01*
X162131511Y-105140456D01*
X162131511Y-105140457D01*
X162483005Y-105217582D01*
X162484033Y-105217813D01*
X162779185Y-105285209D01*
X162780766Y-105285580D01*
X162862954Y-105305483D01*
X163035086Y-105347167D01*
X163037133Y-105347683D01*
X163264309Y-105406950D01*
X163266690Y-105407597D01*
X163365113Y-105435429D01*
X163482048Y-105468496D01*
X163484418Y-105469192D01*
X163703232Y-105535804D01*
X163705063Y-105536377D01*
X163941034Y-105612416D01*
X163943576Y-105613235D01*
X163944461Y-105613524D01*
X164020455Y-105638670D01*
X164153946Y-105683430D01*
X164240678Y-105712512D01*
X164241254Y-105712707D01*
X164242924Y-105713276D01*
X164244885Y-105713945D01*
X164301991Y-105754200D01*
X164328268Y-105818940D01*
X164315372Y-105887610D01*
X164310460Y-105896357D01*
X163951626Y-106478805D01*
X163951593Y-106478859D01*
X163753461Y-106800097D01*
X163753410Y-106800180D01*
X163533571Y-107155986D01*
X163533530Y-107156051D01*
X163301301Y-107531388D01*
X163301264Y-107531448D01*
X163066385Y-107910588D01*
X163066348Y-107910649D01*
X162839093Y-108277010D01*
X162839048Y-108277081D01*
X162628883Y-108615379D01*
X162628830Y-108615465D01*
X162476513Y-108860202D01*
X162476482Y-108860252D01*
X161848361Y-109868423D01*
X161801985Y-109911987D01*
X161481174Y-110085037D01*
X161478971Y-110086232D01*
X161270643Y-110200129D01*
X161267099Y-110202085D01*
X161034350Y-110331788D01*
X161031072Y-110333630D01*
X160800542Y-110464156D01*
X160796902Y-110466236D01*
X160594812Y-110582845D01*
X160592042Y-110584457D01*
X160571788Y-110596324D01*
X160570810Y-110596891D01*
X160397545Y-110696293D01*
X160396129Y-110697093D01*
X160184510Y-110814835D01*
X160183544Y-110815366D01*
X159953650Y-110940450D01*
X159952653Y-110940986D01*
X159726673Y-111061278D01*
X159725682Y-111061800D01*
X159595930Y-111129371D01*
X159589290Y-111132894D01*
X158873494Y-111519597D01*
X158854307Y-111530509D01*
X158203427Y-111919702D01*
X158181931Y-111933302D01*
X157594065Y-112326293D01*
X157570201Y-112343266D01*
X157043585Y-112741284D01*
X157017613Y-112762298D01*
X156550439Y-113166594D01*
X156528177Y-113187055D01*
X156268728Y-113440254D01*
X156255676Y-113453469D01*
X156118172Y-113597903D01*
X156101143Y-113616712D01*
X155999534Y-113734756D01*
X155971816Y-113770007D01*
X155892776Y-113880264D01*
X155865647Y-113922364D01*
X155865644Y-113922370D01*
X155795902Y-114043368D01*
X155780039Y-114073144D01*
X155706280Y-114223468D01*
X155702374Y-114231611D01*
X155702352Y-114231659D01*
X155702041Y-114232323D01*
X155702041Y-114232324D01*
X155638386Y-114367701D01*
X155638204Y-114368086D01*
X155585499Y-114479182D01*
X155585194Y-114479821D01*
X155551061Y-114550721D01*
X155550051Y-114552771D01*
X155538885Y-114574909D01*
X155504646Y-114662042D01*
X155484728Y-114804534D01*
X155505760Y-114946870D01*
X155513046Y-114971330D01*
X155518889Y-114989661D01*
X155584095Y-115117913D01*
X155584097Y-115117916D01*
X155584099Y-115117919D01*
X155682800Y-115222608D01*
X155800155Y-115291246D01*
X155806997Y-115295248D01*
X155807000Y-115295249D01*
X155853893Y-115306905D01*
X155946628Y-115329956D01*
X155951906Y-115330490D01*
X156065295Y-115329179D01*
X156204086Y-115291250D01*
X156240111Y-115275611D01*
X156269943Y-115261485D01*
X156323341Y-115234031D01*
X156354872Y-115217822D01*
X156354893Y-115217811D01*
X156362404Y-115213870D01*
X156487220Y-115147029D01*
X156491199Y-115144875D01*
X156646825Y-115059734D01*
X156649758Y-115058117D01*
X156827136Y-114959543D01*
X156828809Y-114958609D01*
X156874037Y-114933249D01*
X156875096Y-114932661D01*
X157361723Y-114666642D01*
X157363736Y-114665567D01*
X157899231Y-114386016D01*
X157900838Y-114385193D01*
X158475018Y-114096913D01*
X158476569Y-114096149D01*
X158524042Y-114073144D01*
X159075564Y-113805879D01*
X159076878Y-113805253D01*
X159687492Y-113519354D01*
X159688795Y-113518754D01*
X160296999Y-113243951D01*
X160298533Y-113243272D01*
X160892033Y-112985476D01*
X160893297Y-112984936D01*
X161185293Y-112862400D01*
X161187768Y-112861394D01*
X162216467Y-112456929D01*
X162220234Y-112455520D01*
X163303629Y-112070891D01*
X163307117Y-112069713D01*
X164441692Y-111705619D01*
X164445043Y-111704596D01*
X165425456Y-111420552D01*
X165425458Y-111420552D01*
X165623506Y-111363171D01*
X165626683Y-111362298D01*
X166841425Y-111045722D01*
X166844482Y-111044967D01*
X168088410Y-110755242D01*
X168091361Y-110754595D01*
X169356684Y-110493862D01*
X169359712Y-110493278D01*
X170643207Y-110262796D01*
X170645306Y-110262438D01*
X171412732Y-110138402D01*
X171413889Y-110138221D01*
X172146774Y-110027437D01*
X172148206Y-110027230D01*
X172858174Y-109928415D01*
X172859559Y-109928232D01*
X173557283Y-109840262D01*
X173558863Y-109840073D01*
X174255501Y-109761770D01*
X174256918Y-109761621D01*
X174963242Y-109691880D01*
X174964771Y-109691740D01*
X175691476Y-109629472D01*
X175692674Y-109629376D01*
X176451041Y-109573460D01*
X176452170Y-109573383D01*
X177252847Y-109522759D01*
X177253493Y-109522722D01*
X178107333Y-109476321D01*
X178107832Y-109476295D01*
X178467594Y-109458639D01*
X178468852Y-109458584D01*
X178648847Y-109451677D01*
X178650147Y-109451635D01*
X178885882Y-109445320D01*
X178886473Y-109445307D01*
X179172346Y-109439630D01*
X179172802Y-109439622D01*
X179502641Y-109434613D01*
X179502641Y-109434624D01*
X179503030Y-109434608D01*
X179869015Y-109430307D01*
X179869345Y-109430400D01*
X179869345Y-109430304D01*
X180266839Y-109426697D01*
X180689045Y-109423795D01*
X180689045Y-109423801D01*
X180689249Y-109423793D01*
X181130588Y-109421595D01*
X181583836Y-109420106D01*
X181584031Y-109420163D01*
X181584031Y-109420106D01*
X182044374Y-109419322D01*
X182044374Y-109419327D01*
X182044532Y-109419321D01*
X182505536Y-109419244D01*
X182962052Y-109419871D01*
X182962051Y-109419914D01*
X182962250Y-109419871D01*
X183406899Y-109421202D01*
X183407116Y-109421266D01*
X183407117Y-109421203D01*
X183834612Y-109423237D01*
X183834611Y-109423291D01*
X183834857Y-109423238D01*
X184238516Y-109425970D01*
X184238808Y-109426057D01*
X184238809Y-109425972D01*
X184614353Y-109429410D01*
X184954526Y-109433543D01*
X185252741Y-109438355D01*
X185252989Y-109438360D01*
X185502581Y-109443820D01*
X185503720Y-109443849D01*
X185696649Y-109449848D01*
X185698835Y-109449934D01*
X185828066Y-109456241D01*
X185831116Y-109456428D01*
X185856438Y-109458306D01*
X185856650Y-109458386D01*
X185856655Y-109458323D01*
X186053207Y-109473250D01*
X186074429Y-109474413D01*
X186214437Y-109479140D01*
X186272376Y-109477772D01*
X186365080Y-109470250D01*
X186365178Y-109470241D01*
X186365196Y-109470240D01*
X186371074Y-109469728D01*
X186371077Y-109469727D01*
X186371083Y-109469727D01*
X186510986Y-109436130D01*
X186565815Y-109414327D01*
X186573139Y-109411348D01*
X186696773Y-109337754D01*
X186794666Y-109232309D01*
X186821050Y-109194193D01*
X186867929Y-109110465D01*
X186906661Y-108971896D01*
X186914029Y-108915433D01*
X186918265Y-108853750D01*
X186918320Y-108846288D01*
X186916857Y-108803947D01*
X186885561Y-108663512D01*
X186854422Y-108581299D01*
X186854419Y-108581294D01*
X186854415Y-108581282D01*
X186823850Y-108515340D01*
X186823847Y-108515335D01*
X186736912Y-108400696D01*
X186736909Y-108400692D01*
X186735873Y-108399669D01*
X186649935Y-108314792D01*
X186557076Y-108242361D01*
X186557073Y-108242359D01*
X186557065Y-108242354D01*
X186423922Y-108161512D01*
X186398665Y-108148071D01*
X186373406Y-108134629D01*
X186324670Y-108112135D01*
X186324652Y-108112127D01*
X186324641Y-108112122D01*
X186307551Y-108104615D01*
X186307537Y-108104609D01*
X186053687Y-107998659D01*
X186046842Y-107995899D01*
X186042233Y-107994040D01*
X185771932Y-107888873D01*
X185771892Y-107888858D01*
X185771869Y-107888849D01*
X185761254Y-107884856D01*
X185753526Y-107882047D01*
X185466042Y-107777557D01*
X185457003Y-107774370D01*
X185437890Y-107767836D01*
X185128792Y-107662173D01*
X185121346Y-107659692D01*
X185121235Y-107659655D01*
X184752088Y-107539833D01*
X184747911Y-107538505D01*
X184746295Y-107537991D01*
X184706990Y-107525750D01*
X184327751Y-107407642D01*
X184325559Y-107406969D01*
X184323586Y-107406364D01*
X184173267Y-107360927D01*
X183909023Y-107281054D01*
X183906852Y-107280403D01*
X183906852Y-107280404D01*
X183906705Y-107280360D01*
X183578051Y-107182785D01*
X183577963Y-107182759D01*
X183577902Y-107182741D01*
X183577902Y-107182740D01*
X183575740Y-107182105D01*
X183263712Y-107091002D01*
X183260740Y-107090143D01*
X183260712Y-107090135D01*
X182959166Y-107003985D01*
X182959089Y-107003963D01*
X182958962Y-107003927D01*
X182955942Y-107003075D01*
X182659414Y-106920559D01*
X182655826Y-106919576D01*
X182359363Y-106839512D01*
X182359319Y-106839500D01*
X182359192Y-106839466D01*
X182355291Y-106838429D01*
X182052846Y-106759335D01*
X182048984Y-106758341D01*
X182048979Y-106758339D01*
X182048848Y-106758306D01*
X181735220Y-106678925D01*
X181731586Y-106678020D01*
X181731521Y-106678004D01*
X181400769Y-106596893D01*
X181397503Y-106596104D01*
X181397306Y-106596057D01*
X181044425Y-106512002D01*
X181044284Y-106511969D01*
X181042690Y-106511594D01*
X181041480Y-106511309D01*
X180660122Y-106422774D01*
X180660122Y-106422773D01*
X180658066Y-106422301D01*
X180658001Y-106422286D01*
X180657900Y-106422263D01*
X180243125Y-106328046D01*
X180243004Y-106328018D01*
X180241351Y-106327646D01*
X180241241Y-106327622D01*
X179787374Y-106226347D01*
X179787256Y-106226320D01*
X179785966Y-106226035D01*
X179785904Y-106226022D01*
X179287405Y-106116346D01*
X179287371Y-106116338D01*
X179286395Y-106116124D01*
X178737622Y-105996681D01*
X178737619Y-105996681D01*
X178737076Y-105996563D01*
X178736714Y-105996485D01*
X178736714Y-105996484D01*
X178132374Y-105865985D01*
X178132356Y-105865981D01*
X178132174Y-105865942D01*
X178131933Y-105865890D01*
X177652363Y-105762842D01*
X177652148Y-105762795D01*
X177511053Y-105732544D01*
X177282513Y-105683546D01*
X177282429Y-105683528D01*
X177282248Y-105683430D01*
X177282236Y-105683487D01*
X176949928Y-105612435D01*
X176949361Y-105612315D01*
X176949280Y-105612271D01*
X176949275Y-105612297D01*
X176647720Y-105548178D01*
X176647710Y-105548175D01*
X176647017Y-105548028D01*
X176646821Y-105547987D01*
X176646763Y-105547974D01*
X176369805Y-105489611D01*
X176369805Y-105489612D01*
X176369734Y-105489597D01*
X176369332Y-105489513D01*
X176368515Y-105489342D01*
X176307692Y-105476688D01*
X176109462Y-105435448D01*
X176109367Y-105435428D01*
X176107942Y-105435134D01*
X176107839Y-105435113D01*
X175860552Y-105384512D01*
X175860453Y-105384491D01*
X175858536Y-105384103D01*
X175616686Y-105335582D01*
X175614740Y-105335197D01*
X175614740Y-105335198D01*
X175560819Y-105324613D01*
X175371638Y-105287475D01*
X175370225Y-105287200D01*
X175369545Y-105287068D01*
X175186045Y-105251829D01*
X175119174Y-105238988D01*
X175119017Y-105238958D01*
X175117253Y-105238622D01*
X174852994Y-105188917D01*
X174852994Y-105188916D01*
X174851568Y-105188650D01*
X174567188Y-105136123D01*
X174566723Y-105136038D01*
X174565720Y-105135855D01*
X174565713Y-105135853D01*
X174254798Y-105079274D01*
X174254762Y-105079268D01*
X174253760Y-105079086D01*
X174253674Y-105079070D01*
X174025977Y-105038108D01*
X173909866Y-105017221D01*
X173909770Y-105017203D01*
X173909165Y-105017096D01*
X173909165Y-105017093D01*
X173909131Y-105017090D01*
X173525941Y-104948726D01*
X173525696Y-104948682D01*
X173525329Y-104948616D01*
X173096709Y-104872574D01*
X173096709Y-104872575D01*
X173096562Y-104872549D01*
X173096272Y-104872498D01*
X172615304Y-104787458D01*
X172615158Y-104787432D01*
X172614951Y-104787395D01*
X172614865Y-104787380D01*
X172614865Y-104787379D01*
X172076523Y-104692359D01*
X172075743Y-104692222D01*
X172075706Y-104692215D01*
X172000859Y-104679009D01*
X172000657Y-104678974D01*
X171676257Y-104621181D01*
X171675915Y-104621119D01*
X171333299Y-104559088D01*
X171333001Y-104559034D01*
X170986051Y-104495344D01*
X170985758Y-104495290D01*
X170650285Y-104432872D01*
X170649954Y-104432810D01*
X170341189Y-104374494D01*
X170340754Y-104374411D01*
X170073771Y-104322997D01*
X170073249Y-104322895D01*
X169934931Y-104295642D01*
X169934878Y-104295632D01*
X169934088Y-104295477D01*
X169737360Y-104257039D01*
X169660897Y-104242100D01*
X169659275Y-104241788D01*
X169657833Y-104241511D01*
X169567389Y-104224420D01*
X169362870Y-104185773D01*
X169360186Y-104185274D01*
X169183390Y-104152834D01*
X169063587Y-104130852D01*
X169063415Y-104130820D01*
X169060985Y-104130381D01*
X169060985Y-104130382D01*
X169060930Y-104130372D01*
X169060818Y-104130352D01*
X168782594Y-104080900D01*
X168782376Y-104080862D01*
X168782376Y-104080861D01*
X168778940Y-104080263D01*
X168539436Y-104039492D01*
X168536656Y-104039029D01*
X168535659Y-104038863D01*
X168493332Y-104031972D01*
X168469297Y-104028060D01*
X168406292Y-103997859D01*
X168369616Y-103938389D01*
X168370915Y-103868531D01*
X168378373Y-103850097D01*
X168516833Y-103573967D01*
X168518050Y-103571522D01*
X169004050Y-102589082D01*
X169005351Y-102586432D01*
X169464313Y-101644848D01*
X169465725Y-101641929D01*
X169896030Y-100744568D01*
X169896066Y-100744491D01*
X169896127Y-100744365D01*
X169897588Y-100741289D01*
X170297576Y-99891610D01*
X170297613Y-99891531D01*
X170299349Y-99887804D01*
X170667486Y-99088992D01*
X170669211Y-99085208D01*
X170669233Y-99085158D01*
X170669317Y-99084975D01*
X170927708Y-98511939D01*
X170928149Y-98510957D01*
X170960365Y-98439149D01*
X171040975Y-98259469D01*
X171050490Y-98238425D01*
X171173420Y-97966528D01*
X171173529Y-97966287D01*
X171317386Y-97649901D01*
X171317483Y-97649687D01*
X171442437Y-97376252D01*
X171463698Y-97329728D01*
X171604447Y-97023379D01*
X171670025Y-96881482D01*
X171703557Y-96808926D01*
X171704035Y-96807886D01*
X171721284Y-96770322D01*
X171875556Y-96434342D01*
X171876858Y-96431484D01*
X171876884Y-96431426D01*
X171876948Y-96431286D01*
X172056589Y-96033560D01*
X172057696Y-96031091D01*
X172057738Y-96030998D01*
X172238797Y-95624304D01*
X172239870Y-95621877D01*
X172239951Y-95621694D01*
X172304793Y-95473961D01*
X172415277Y-95222244D01*
X172416441Y-95219570D01*
X172579248Y-94842753D01*
X172580680Y-94839405D01*
X172690937Y-94579080D01*
X172724020Y-94500969D01*
X172724710Y-94499319D01*
X172725218Y-94498111D01*
X172770874Y-94388320D01*
X172775485Y-94376839D01*
X172797826Y-94319173D01*
X172824325Y-94224108D01*
X172828699Y-94199235D01*
X172833627Y-94163966D01*
X172827990Y-94020196D01*
X172782076Y-93883838D01*
X172699606Y-93765939D01*
X172699605Y-93765938D01*
X172699603Y-93765935D01*
X172587262Y-93676051D01*
X172587261Y-93676050D01*
X172587258Y-93676049D01*
X172587257Y-93676048D01*
X172454143Y-93621454D01*
X172454137Y-93621453D01*
X172404658Y-93616308D01*
X172340014Y-93589795D01*
X172299967Y-93532541D01*
X172297230Y-93462725D01*
X172314140Y-93424446D01*
X172332707Y-93396445D01*
X172361901Y-93346411D01*
X172378509Y-93313785D01*
X172397732Y-93271276D01*
X172431336Y-93131375D01*
X172424164Y-92987673D01*
X172376797Y-92851814D01*
X172293072Y-92734802D01*
X172293071Y-92734801D01*
X172291764Y-92732974D01*
X172268761Y-92666999D01*
X172285079Y-92599062D01*
X172301527Y-92576672D01*
X172362481Y-92510706D01*
X172426398Y-92381802D01*
X172451409Y-92240113D01*
X172435489Y-92097116D01*
X172426921Y-92076651D01*
X172379927Y-91964398D01*
X172379927Y-91964397D01*
X172289230Y-91852715D01*
X172289222Y-91852707D01*
X172261773Y-91827344D01*
X172250160Y-91818432D01*
X172188612Y-91771197D01*
X172141407Y-91741389D01*
X172115982Y-91725334D01*
X172098540Y-91714998D01*
X172091407Y-91710771D01*
X172091398Y-91710766D01*
X171988184Y-91653478D01*
X171977055Y-91647482D01*
X171977034Y-91647471D01*
X171958156Y-91637602D01*
X171957209Y-91637101D01*
X171840426Y-91574509D01*
X171838718Y-91573575D01*
X171687958Y-91489698D01*
X171686796Y-91489044D01*
X171522812Y-91395486D01*
X171521757Y-91394877D01*
X171404404Y-91326387D01*
X171391604Y-91319163D01*
X171158171Y-91191817D01*
X171141226Y-91183376D01*
X171124442Y-91175016D01*
X171124432Y-91175011D01*
X171124419Y-91175005D01*
X170881728Y-91065199D01*
X170881726Y-91065198D01*
X170881719Y-91065195D01*
X170846181Y-91050714D01*
X170753050Y-91016828D01*
X170594041Y-90958972D01*
X170537773Y-90917552D01*
X170512831Y-90852286D01*
X170527134Y-90783896D01*
X170576140Y-90734095D01*
X170644292Y-90718695D01*
X170647702Y-90718959D01*
X170723821Y-90725931D01*
X170726922Y-90726255D01*
X170888802Y-90745308D01*
X170891591Y-90745669D01*
X171071634Y-90771037D01*
X171072940Y-90771229D01*
X171219244Y-90793756D01*
X171221921Y-90794161D01*
X171404125Y-90821216D01*
X171404182Y-90821224D01*
X171411511Y-90822257D01*
X171516293Y-90836228D01*
X171594636Y-90846675D01*
X171602706Y-90847685D01*
X171762843Y-90866421D01*
X171774872Y-90867683D01*
X171870155Y-90876526D01*
X171880148Y-90877353D01*
X172100850Y-90893428D01*
X172150613Y-90894596D01*
X172292453Y-90870452D01*
X172421746Y-90807325D01*
X172528016Y-90710329D01*
X172602655Y-90587323D01*
X172639615Y-90448271D01*
X172657845Y-90293162D01*
X172659502Y-90282840D01*
X172673073Y-90216426D01*
X172675536Y-90206494D01*
X172709875Y-90089084D01*
X172711586Y-90083696D01*
X172762846Y-89934460D01*
X172764454Y-89930054D01*
X172821485Y-89782744D01*
X172823619Y-89777588D01*
X172873179Y-89665227D01*
X172877648Y-89656126D01*
X172878643Y-89654292D01*
X172910834Y-89594997D01*
X172915744Y-89586737D01*
X172949718Y-89534338D01*
X172953474Y-89528457D01*
X173019349Y-89423712D01*
X173021427Y-89420379D01*
X173096075Y-89299612D01*
X173096150Y-89299491D01*
X173097346Y-89297546D01*
X173102494Y-89289129D01*
X173106914Y-89281905D01*
X173108633Y-89279177D01*
X173223866Y-89101725D01*
X173226346Y-89098057D01*
X173378995Y-88880880D01*
X173380724Y-88878482D01*
X173566313Y-88627770D01*
X173567666Y-88625979D01*
X173776743Y-88354612D01*
X173777983Y-88353030D01*
X174002091Y-88072219D01*
X174003256Y-88070785D01*
X174234880Y-87790441D01*
X174235817Y-87789322D01*
X174350081Y-87654778D01*
X174351374Y-87653249D01*
X174352276Y-87652179D01*
X174499965Y-87476871D01*
X174500026Y-87476799D01*
X174503708Y-87472378D01*
X174682154Y-87255603D01*
X174684555Y-87252663D01*
X174882490Y-87008499D01*
X174884372Y-87006163D01*
X175014921Y-86843154D01*
X175091594Y-86747420D01*
X175093109Y-86745517D01*
X175093130Y-86745490D01*
X175093222Y-86745375D01*
X175299228Y-86485238D01*
X175301074Y-86482893D01*
X175495660Y-86234173D01*
X175497961Y-86231209D01*
X175670825Y-86006842D01*
X175674189Y-86002425D01*
X175812214Y-85819148D01*
X175817287Y-85812293D01*
X175933020Y-85653097D01*
X175936872Y-85647725D01*
X176063362Y-85468861D01*
X176066228Y-85464766D01*
X176197083Y-85275793D01*
X176199554Y-85272190D01*
X176328381Y-85082667D01*
X176330854Y-85078995D01*
X176451260Y-84898480D01*
X176454166Y-84894073D01*
X176559760Y-84732126D01*
X176563903Y-84725665D01*
X176648290Y-84591845D01*
X176655942Y-84579311D01*
X176712731Y-84483175D01*
X176730138Y-84451120D01*
X176750587Y-84409990D01*
X176781927Y-84324332D01*
X176788943Y-84305157D01*
X176788944Y-84305152D01*
X176797052Y-84222092D01*
X176802922Y-84161954D01*
X176775989Y-84020617D01*
X176756345Y-83982315D01*
X176710330Y-83892593D01*
X176710327Y-83892589D01*
X176611266Y-83788260D01*
X176611262Y-83788257D01*
X176611259Y-83788253D01*
X176611255Y-83788250D01*
X176611251Y-83788246D01*
X176595449Y-83775765D01*
X176595425Y-83775747D01*
X176538398Y-83736726D01*
X176405261Y-83682172D01*
X176405259Y-83682171D01*
X176405261Y-83682171D01*
X176262149Y-83667337D01*
X176120646Y-83693425D01*
X176050430Y-83717093D01*
X176050391Y-83717107D01*
X175992687Y-83740611D01*
X175992679Y-83740614D01*
X175869283Y-83799988D01*
X175853129Y-83808119D01*
X175788569Y-83842079D01*
X175783527Y-83844767D01*
X175653811Y-83914899D01*
X175647132Y-83918576D01*
X175533309Y-83982315D01*
X175524584Y-83987341D01*
X175522735Y-83988406D01*
X175522716Y-83988416D01*
X175522706Y-83988423D01*
X175415499Y-84051891D01*
X175403299Y-84059349D01*
X175293607Y-84128569D01*
X175282691Y-84135657D01*
X175282654Y-84135681D01*
X175282652Y-84135683D01*
X175231812Y-84169634D01*
X175161366Y-84216680D01*
X175153427Y-84222092D01*
X175011519Y-84320832D01*
X175006619Y-84324285D01*
X174939357Y-84372289D01*
X174834754Y-84446945D01*
X174834597Y-84447058D01*
X174834596Y-84447057D01*
X174832273Y-84448725D01*
X174832274Y-84448726D01*
X174832127Y-84448832D01*
X174832108Y-84448846D01*
X174621317Y-84601347D01*
X174620290Y-84602092D01*
X174620205Y-84602154D01*
X174471192Y-84710529D01*
X174470829Y-84710792D01*
X174271707Y-84854513D01*
X174270947Y-84855057D01*
X174073405Y-84995383D01*
X174072639Y-84995923D01*
X173888039Y-85124969D01*
X173887102Y-85125617D01*
X173728607Y-85234260D01*
X173727131Y-85235256D01*
X173607579Y-85314706D01*
X173605393Y-85316126D01*
X173565793Y-85341259D01*
X173564849Y-85341853D01*
X173423315Y-85429905D01*
X173421649Y-85430946D01*
X173246858Y-85540633D01*
X173245754Y-85541326D01*
X173245656Y-85541389D01*
X173064851Y-85655590D01*
X173063622Y-85656369D01*
X173063570Y-85656402D01*
X173063569Y-85656401D01*
X172947144Y-85730409D01*
X172944969Y-85731761D01*
X172712687Y-85872763D01*
X172707410Y-85875792D01*
X172476017Y-86001153D01*
X172470724Y-86003858D01*
X172212698Y-86128040D01*
X172208305Y-86130050D01*
X171900676Y-86263609D01*
X171898466Y-86264543D01*
X171788127Y-86309931D01*
X171787750Y-86310085D01*
X171656259Y-86363669D01*
X171655658Y-86363913D01*
X171655659Y-86363914D01*
X171548787Y-86407647D01*
X171547471Y-86408187D01*
X171479852Y-86436071D01*
X171479806Y-86436090D01*
X171479763Y-86436108D01*
X171474622Y-86438262D01*
X171474484Y-86438320D01*
X171457441Y-86445569D01*
X171351819Y-86506469D01*
X171250217Y-86608340D01*
X171181430Y-86734711D01*
X171151032Y-86875342D01*
X171151031Y-86875349D01*
X171161483Y-87018833D01*
X171161483Y-87018835D01*
X171168164Y-87049354D01*
X171182752Y-87102127D01*
X171182758Y-87102147D01*
X171207809Y-87176772D01*
X171212718Y-87190720D01*
X171230667Y-87239440D01*
X171234203Y-87250647D01*
X171285167Y-87443649D01*
X171289119Y-87469076D01*
X171297044Y-87626600D01*
X171295764Y-87651654D01*
X171272098Y-87805755D01*
X171265920Y-87829715D01*
X171228689Y-87930993D01*
X171212773Y-87974286D01*
X171201866Y-87996695D01*
X171122388Y-88125281D01*
X171106741Y-88145563D01*
X171004436Y-88253080D01*
X170984143Y-88270268D01*
X170846172Y-88363704D01*
X170818104Y-88377895D01*
X170642468Y-88440205D01*
X170617487Y-88446241D01*
X170462146Y-88467069D01*
X170436302Y-88467815D01*
X170288349Y-88456608D01*
X170263058Y-88452020D01*
X170123123Y-88411286D01*
X170099534Y-88401696D01*
X169969609Y-88332559D01*
X169948631Y-88318479D01*
X169831661Y-88221313D01*
X169814067Y-88203392D01*
X169713514Y-88077701D01*
X169700000Y-88056812D01*
X169612397Y-87885948D01*
X169605398Y-87869465D01*
X169575100Y-87780768D01*
X169574216Y-87778072D01*
X169534623Y-87652187D01*
X169516669Y-87603862D01*
X169482609Y-87524795D01*
X169475057Y-87508104D01*
X169428515Y-87437955D01*
X169395516Y-87388218D01*
X169363248Y-87352058D01*
X169334535Y-87322414D01*
X169334534Y-87322413D01*
X169334531Y-87322410D01*
X169217239Y-87239079D01*
X169217235Y-87239077D01*
X169217232Y-87239076D01*
X169081219Y-87192167D01*
X169052570Y-87186677D01*
X169037932Y-87184095D01*
X168989977Y-87183271D01*
X168894071Y-87181623D01*
X168894070Y-87181623D01*
X168894069Y-87181623D01*
X168836122Y-87188940D01*
X168828078Y-87190022D01*
X168721741Y-87205192D01*
X168718730Y-87205631D01*
X168718539Y-87205660D01*
X168592650Y-87224449D01*
X168581163Y-87226164D01*
X168581162Y-87226163D01*
X168579386Y-87226432D01*
X168579261Y-87226452D01*
X168554596Y-87230235D01*
X168487390Y-87240543D01*
X168486943Y-87240610D01*
X168261430Y-87274357D01*
X168259746Y-87274598D01*
X168051869Y-87302797D01*
X168049686Y-87303073D01*
X167848536Y-87326733D01*
X167846067Y-87326998D01*
X167642295Y-87346838D01*
X167639818Y-87347055D01*
X167423676Y-87363732D01*
X167421443Y-87363884D01*
X167183736Y-87377913D01*
X167181897Y-87378007D01*
X166913947Y-87389831D01*
X166912542Y-87389885D01*
X166605996Y-87399932D01*
X166604994Y-87399961D01*
X166251961Y-87408675D01*
X166251288Y-87408690D01*
X165843703Y-87416537D01*
X165843339Y-87416543D01*
X165537940Y-87421525D01*
X165537941Y-87421526D01*
X165537547Y-87421532D01*
X165537548Y-87421533D01*
X165508687Y-87422028D01*
X165077504Y-87429430D01*
X165077375Y-87429432D01*
X165077348Y-87429433D01*
X165077347Y-87429432D01*
X165075475Y-87429469D01*
X165075370Y-87429472D01*
X164678760Y-87437955D01*
X164678653Y-87437957D01*
X164678587Y-87437959D01*
X164678586Y-87437958D01*
X164675939Y-87438022D01*
X164343286Y-87447071D01*
X164343239Y-87447072D01*
X164343146Y-87447075D01*
X164340085Y-87447171D01*
X164338781Y-87447212D01*
X164070618Y-87456806D01*
X164063458Y-87457112D01*
X163860426Y-87467228D01*
X163846560Y-87468110D01*
X163709062Y-87478736D01*
X163709051Y-87478737D01*
X163709041Y-87478738D01*
X163686218Y-87481332D01*
X163672804Y-87482857D01*
X163604315Y-87493158D01*
X163577313Y-87498281D01*
X163566375Y-87500357D01*
X163566371Y-87500357D01*
X163566360Y-87500360D01*
X163470066Y-87522470D01*
X163466341Y-87523265D01*
X163338387Y-87548534D01*
X163335843Y-87549009D01*
X163192334Y-87574250D01*
X163190654Y-87574534D01*
X163165409Y-87578617D01*
X163157590Y-87579945D01*
X162958545Y-87615394D01*
X162946835Y-87617622D01*
X162683933Y-87670812D01*
X162676908Y-87672285D01*
X162350161Y-87743210D01*
X162345520Y-87744240D01*
X162345471Y-87744251D01*
X162345440Y-87744258D01*
X162224434Y-87771726D01*
X161955096Y-87832866D01*
X161953899Y-87833141D01*
X161952507Y-87833462D01*
X161797744Y-87869459D01*
X161730717Y-87885049D01*
X161717975Y-87888188D01*
X161573336Y-87925851D01*
X161555005Y-87930995D01*
X161408732Y-87975031D01*
X161389180Y-87981354D01*
X161389147Y-87981365D01*
X161389139Y-87981368D01*
X161375629Y-87986044D01*
X161302144Y-88011478D01*
X161294109Y-88014393D01*
X161288090Y-88016577D01*
X161288061Y-88016587D01*
X161288061Y-88016588D01*
X161127860Y-88077397D01*
X161127838Y-88077406D01*
X161085578Y-88095692D01*
X160966562Y-88176546D01*
X160936363Y-88213251D01*
X160889449Y-88270272D01*
X160875145Y-88287657D01*
X160818738Y-88420015D01*
X160801906Y-88562899D01*
X160801906Y-88562912D01*
X160826008Y-88704747D01*
X160826010Y-88704753D01*
X160889103Y-88834063D01*
X160986070Y-88940359D01*
X161147200Y-89072930D01*
X161166204Y-89087819D01*
X161276456Y-89170027D01*
X161300555Y-89186928D01*
X161442142Y-89280191D01*
X161457798Y-89290097D01*
X161618115Y-89387467D01*
X161630884Y-89394968D01*
X161797326Y-89489498D01*
X161810336Y-89496636D01*
X161970298Y-89581375D01*
X161987186Y-89589921D01*
X162128064Y-89657923D01*
X162144567Y-89665246D01*
X162157709Y-89671078D01*
X162196090Y-89686655D01*
X162266894Y-89715392D01*
X162343849Y-89739674D01*
X162360576Y-89743515D01*
X162404266Y-89753550D01*
X162404294Y-89753556D01*
X162404333Y-89753565D01*
X162416932Y-89756290D01*
X162422383Y-89757396D01*
X162440620Y-89761098D01*
X162455566Y-89765116D01*
X162496370Y-89778873D01*
X162503122Y-89781371D01*
X162542589Y-89797295D01*
X162547210Y-89799133D01*
X162547263Y-89799154D01*
X162667497Y-89846293D01*
X162667514Y-89846299D01*
X162691500Y-89855011D01*
X162809807Y-89894631D01*
X162834782Y-89902283D01*
X162873935Y-89913181D01*
X162885643Y-89916289D01*
X162885692Y-89916302D01*
X162974693Y-89938791D01*
X162974902Y-89938844D01*
X163046329Y-89957024D01*
X163104882Y-89971929D01*
X163104883Y-89971929D01*
X163104899Y-89971938D01*
X163104991Y-89971956D01*
X163245472Y-90007875D01*
X163247079Y-90008287D01*
X163270621Y-90014323D01*
X163283087Y-90017351D01*
X163696947Y-90112338D01*
X163696968Y-90112342D01*
X163696984Y-90112346D01*
X163716370Y-90116358D01*
X163718202Y-90116738D01*
X164187358Y-90203403D01*
X164204550Y-90206273D01*
X164623573Y-90268824D01*
X164686971Y-90298191D01*
X164724429Y-90357171D01*
X164724052Y-90427040D01*
X164685962Y-90485614D01*
X164622251Y-90514296D01*
X164614049Y-90515153D01*
X164497873Y-90523400D01*
X164487840Y-90524313D01*
X164477805Y-90525226D01*
X164099705Y-90567262D01*
X163976411Y-90580970D01*
X163976403Y-90580970D01*
X163976376Y-90580974D01*
X163962137Y-90582762D01*
X163886971Y-90593297D01*
X163870714Y-90595845D01*
X163579378Y-90646383D01*
X163557191Y-90650745D01*
X163350308Y-90696244D01*
X163247005Y-90718963D01*
X163242553Y-90719942D01*
X163224638Y-90724226D01*
X162902640Y-90807483D01*
X162885803Y-90812149D01*
X162572293Y-90904885D01*
X162554016Y-90910672D01*
X162264881Y-91008295D01*
X162241519Y-91016828D01*
X161992595Y-91114761D01*
X161964830Y-91126654D01*
X161833405Y-91187653D01*
X161817431Y-91195409D01*
X161663149Y-91273684D01*
X161636076Y-91288475D01*
X161539976Y-91344854D01*
X161521545Y-91356205D01*
X161521536Y-91356212D01*
X161413014Y-91450669D01*
X161374758Y-91495017D01*
X161298053Y-91614446D01*
X161257288Y-91752429D01*
X161257047Y-91896310D01*
X161297352Y-92034425D01*
X161316551Y-92076651D01*
X161391759Y-92195045D01*
X161391761Y-92195047D01*
X161499658Y-92290230D01*
X161499660Y-92290231D01*
X161499661Y-92290232D01*
X161575907Y-92340195D01*
X161575923Y-92340205D01*
X161623813Y-92367963D01*
X161756770Y-92435588D01*
X161761595Y-92438010D01*
X161807921Y-92460953D01*
X161813575Y-92463709D01*
X162071599Y-92587522D01*
X162077215Y-92590113D01*
X162085549Y-92593958D01*
X162136168Y-92616381D01*
X162343503Y-92708227D01*
X162358248Y-92714481D01*
X162372839Y-92720399D01*
X162372842Y-92720399D01*
X162372848Y-92720401D01*
X162372853Y-92720405D01*
X162630348Y-92824834D01*
X162630369Y-92824842D01*
X162630376Y-92824845D01*
X162643654Y-92830012D01*
X162643671Y-92830018D01*
X162643683Y-92830023D01*
X162944107Y-92942069D01*
X162954591Y-92945848D01*
X163297556Y-93065216D01*
X163297674Y-93065257D01*
X163300684Y-93066283D01*
X163303541Y-93067258D01*
X163352905Y-93083749D01*
X163410251Y-93123661D01*
X163436917Y-93188241D01*
X163430804Y-93241884D01*
X163382398Y-93381865D01*
X163373025Y-93411984D01*
X163307439Y-93648514D01*
X163270557Y-93707856D01*
X163253035Y-93720926D01*
X163239425Y-93729319D01*
X163237691Y-93730369D01*
X163190451Y-93758445D01*
X163181010Y-93764196D01*
X162996714Y-93879230D01*
X162984151Y-93887332D01*
X162764943Y-94033322D01*
X162756629Y-94038980D01*
X162519087Y-94204163D01*
X162512086Y-94209123D01*
X162359518Y-94319173D01*
X162279577Y-94376836D01*
X162272764Y-94381750D01*
X162265233Y-94387287D01*
X162040709Y-94555580D01*
X162031103Y-94562962D01*
X161837731Y-94715313D01*
X161830100Y-94721446D01*
X161809071Y-94738679D01*
X161797722Y-94748262D01*
X161698100Y-94834933D01*
X161687728Y-94844211D01*
X161554216Y-94966974D01*
X161548359Y-94972446D01*
X161393389Y-95119518D01*
X161388728Y-95123998D01*
X161224628Y-95283694D01*
X161220391Y-95287868D01*
X161074297Y-95433531D01*
X161071063Y-95436787D01*
X160912118Y-95598369D01*
X160907658Y-95602961D01*
X160791960Y-95723619D01*
X160781522Y-95734842D01*
X160704355Y-95820370D01*
X160679363Y-95850315D01*
X160636086Y-95906437D01*
X160572357Y-96014623D01*
X160572352Y-96014633D01*
X160558349Y-96047045D01*
X160558348Y-96047047D01*
X160529143Y-96136911D01*
X160521730Y-96231991D01*
X160517959Y-96280360D01*
X160547641Y-96421145D01*
X160615785Y-96547866D01*
X160626428Y-96562275D01*
X160697633Y-96640141D01*
X160817771Y-96719315D01*
X160955348Y-96761435D01*
X160958653Y-96761949D01*
X160970309Y-96763762D01*
X160970310Y-96763762D01*
X160970316Y-96763763D01*
X161041860Y-96769731D01*
X161140452Y-96770929D01*
X161146593Y-96771004D01*
X161146594Y-96771003D01*
X161146598Y-96771004D01*
X161179699Y-96770322D01*
X161291972Y-96764326D01*
X161320877Y-96761949D01*
X161454493Y-96747092D01*
X161473607Y-96744597D01*
X161473634Y-96744593D01*
X161642305Y-96719296D01*
X161642351Y-96719288D01*
X161642375Y-96719285D01*
X161652887Y-96717595D01*
X161870615Y-96680235D01*
X161874076Y-96679628D01*
X161918450Y-96671696D01*
X161923298Y-96670805D01*
X162199440Y-96618660D01*
X162209485Y-96616658D01*
X162480649Y-96559740D01*
X162491718Y-96557287D01*
X162764916Y-96493513D01*
X162776110Y-96490765D01*
X162890380Y-96461327D01*
X163058290Y-96418072D01*
X163058314Y-96418065D01*
X163058351Y-96418056D01*
X163068853Y-96415229D01*
X163367150Y-96331501D01*
X163376374Y-96328818D01*
X163697737Y-96231991D01*
X163705405Y-96229613D01*
X164056844Y-96117606D01*
X164062930Y-96115624D01*
X164451458Y-95986355D01*
X164456098Y-95984786D01*
X164888725Y-95836173D01*
X164892132Y-95834989D01*
X165375868Y-95664951D01*
X165377811Y-95664264D01*
X165497355Y-95621694D01*
X165497358Y-95621694D01*
X165665744Y-95561732D01*
X165666496Y-95561462D01*
X165667391Y-95561142D01*
X165781270Y-95520120D01*
X165909445Y-95473949D01*
X165913049Y-95472635D01*
X166130642Y-95392383D01*
X166136108Y-95390332D01*
X166337753Y-95313305D01*
X166344776Y-95310562D01*
X166538892Y-95233074D01*
X166546684Y-95229888D01*
X166741693Y-95148253D01*
X166749249Y-95145017D01*
X166953570Y-95055552D01*
X166960072Y-95052651D01*
X166960117Y-95052631D01*
X167182031Y-94951714D01*
X167182082Y-94951690D01*
X167182127Y-94951670D01*
X167187172Y-94949342D01*
X167435380Y-94833159D01*
X167438948Y-94831472D01*
X167721729Y-94696404D01*
X167724040Y-94695293D01*
X168049817Y-94537654D01*
X168051149Y-94537007D01*
X168417565Y-94358376D01*
X168918324Y-94115343D01*
X168987228Y-94103782D01*
X169051447Y-94131309D01*
X169053202Y-94133905D01*
X169364804Y-93904273D01*
X169385604Y-93891881D01*
X169705555Y-93741462D01*
X169774600Y-93730754D01*
X169838473Y-93759074D01*
X169876895Y-93817431D01*
X169877668Y-93887296D01*
X169840547Y-93946489D01*
X169824464Y-93958560D01*
X169705444Y-94033632D01*
X169705403Y-94033658D01*
X169705402Y-94033657D01*
X169704426Y-94034275D01*
X169368209Y-94247388D01*
X169367552Y-94247803D01*
X169367553Y-94247804D01*
X168992161Y-94486669D01*
X168992162Y-94486670D01*
X168991961Y-94486798D01*
X168991524Y-94487077D01*
X168884132Y-94555566D01*
X168847261Y-94579080D01*
X168844795Y-94580612D01*
X167818626Y-95201736D01*
X167813761Y-95204532D01*
X166745171Y-95786971D01*
X166740406Y-95789436D01*
X165633245Y-96332162D01*
X165628486Y-96334372D01*
X164493404Y-96832377D01*
X164488549Y-96834385D01*
X163336239Y-97282756D01*
X163331184Y-97284598D01*
X162166310Y-97680590D01*
X162163326Y-97681562D01*
X162016288Y-97727429D01*
X162012185Y-97728729D01*
X161033595Y-98043442D01*
X161021641Y-98047452D01*
X160067141Y-98380822D01*
X160054791Y-98385315D01*
X159111170Y-98742616D01*
X159102796Y-98745912D01*
X159098924Y-98747437D01*
X159098902Y-98747445D01*
X159098874Y-98747457D01*
X158153193Y-99133874D01*
X158141532Y-99138808D01*
X157180737Y-99559570D01*
X157170186Y-99564336D01*
X156181216Y-100024678D01*
X156174248Y-100027986D01*
X155704565Y-100255309D01*
X155696623Y-100259240D01*
X155696593Y-100259255D01*
X154737603Y-100744365D01*
X154263531Y-100984177D01*
X154251463Y-100990488D01*
X152867245Y-101738129D01*
X152854932Y-101745003D01*
X151523125Y-102513260D01*
X151510415Y-102520843D01*
X150234608Y-103307605D01*
X150221376Y-103316052D01*
X149005215Y-104119171D01*
X148994067Y-104126747D01*
X148273160Y-104630831D01*
X148268305Y-104634270D01*
X148006890Y-104821707D01*
X148004235Y-104823624D01*
X147789313Y-104979923D01*
X147783012Y-104984580D01*
X147606660Y-105117049D01*
X147595473Y-105125698D01*
X147449741Y-105241656D01*
X147433224Y-105255383D01*
X147310047Y-105362245D01*
X147289715Y-105380878D01*
X147181199Y-105485922D01*
X147160954Y-105506677D01*
X147059079Y-105617294D01*
X147042978Y-105635648D01*
X146939849Y-105759103D01*
X146929654Y-105771713D01*
X146817251Y-105915407D01*
X146812407Y-105921700D01*
X146682749Y-106092995D01*
X146681626Y-106094484D01*
X146663514Y-106118592D01*
X146663515Y-106118593D01*
X146663350Y-106118813D01*
X146663337Y-106118830D01*
X146508390Y-106325350D01*
X146508350Y-106325405D01*
X146507741Y-106326219D01*
X146506376Y-106328046D01*
X146388698Y-106485550D01*
X146387100Y-106487702D01*
X146299788Y-106605791D01*
X146296345Y-106610504D01*
X146236244Y-106693764D01*
X146228365Y-106704999D01*
X146191376Y-106759275D01*
X146191368Y-106759286D01*
X146191365Y-106759292D01*
X146191338Y-106759335D01*
X146171612Y-106790693D01*
X146153377Y-106822191D01*
X146153377Y-106822192D01*
X146100569Y-106952382D01*
X146100563Y-106952402D01*
X146096880Y-106967077D01*
X146096869Y-106967127D01*
X146085255Y-107030033D01*
X143527929Y-107030033D01*
X143527929Y-78301362D01*
X143547614Y-78234323D01*
X143564248Y-78213681D01*
X145241610Y-76536319D01*
X145302933Y-76502834D01*
X145329291Y-76500000D01*
X187226567Y-76500000D01*
X187293606Y-76519685D01*
G37*
%TD.AperFunction*%
%TA.AperFunction,NonConductor*%
G36*
X169629419Y-96841034D02*
G01*
X169686390Y-96881482D01*
X169712450Y-96946310D01*
X169699324Y-97014935D01*
X169694981Y-97022692D01*
X169654837Y-97088717D01*
X169654225Y-97089727D01*
X169481450Y-97375452D01*
X169481030Y-97376149D01*
X169285221Y-97701176D01*
X169285146Y-97701301D01*
X169284975Y-97701584D01*
X169269442Y-97727429D01*
X169079517Y-98043441D01*
X169063587Y-98069946D01*
X169063454Y-98070166D01*
X169063436Y-98070195D01*
X168813791Y-98486140D01*
X168813696Y-98486299D01*
X168813587Y-98486481D01*
X168534591Y-98951625D01*
X168534574Y-98951652D01*
X168533649Y-98953193D01*
X168533646Y-98953199D01*
X168401579Y-99173410D01*
X168036928Y-99781098D01*
X167692762Y-100353975D01*
X167459804Y-100741242D01*
X167370263Y-100890093D01*
X167370221Y-100890162D01*
X167189293Y-101190496D01*
X167137838Y-101237762D01*
X167068997Y-101249707D01*
X167004627Y-101222537D01*
X166965164Y-101164879D01*
X166963333Y-101158712D01*
X166937511Y-101062549D01*
X166889680Y-100984175D01*
X166862564Y-100939743D01*
X166862561Y-100939739D01*
X166862558Y-100939734D01*
X166842219Y-100915128D01*
X166842213Y-100915122D01*
X166755655Y-100832608D01*
X166755652Y-100832606D01*
X166699723Y-100802044D01*
X166629391Y-100763612D01*
X166629388Y-100763611D01*
X166569469Y-100741242D01*
X166569467Y-100741241D01*
X166569466Y-100741241D01*
X166496432Y-100720970D01*
X166485249Y-100717866D01*
X166485251Y-100717866D01*
X166412668Y-100704344D01*
X166303189Y-100696078D01*
X166303184Y-100696078D01*
X166303183Y-100696078D01*
X166244892Y-100698029D01*
X166230125Y-100699088D01*
X166206391Y-100700792D01*
X166206384Y-100700793D01*
X166201043Y-100702171D01*
X166193120Y-100704217D01*
X166176657Y-100707298D01*
X166175809Y-100707398D01*
X166167063Y-100708116D01*
X166101484Y-100711174D01*
X166099320Y-100711256D01*
X165971585Y-100714978D01*
X165970505Y-100715005D01*
X165808617Y-100718311D01*
X165807875Y-100718324D01*
X165626810Y-100720938D01*
X165626167Y-100720946D01*
X165438321Y-100722683D01*
X165437642Y-100722687D01*
X165256327Y-100723372D01*
X165255462Y-100723372D01*
X165093832Y-100722854D01*
X165092479Y-100722843D01*
X164961621Y-100720996D01*
X164960288Y-100720970D01*
X164948587Y-100720679D01*
X164946018Y-100720588D01*
X164646170Y-100706907D01*
X164642287Y-100706669D01*
X164329247Y-100682527D01*
X164325869Y-100682220D01*
X164009280Y-100649070D01*
X164005979Y-100648679D01*
X163701566Y-100608530D01*
X163697915Y-100607993D01*
X163421634Y-100563153D01*
X163417000Y-100562311D01*
X163187201Y-100515997D01*
X163180268Y-100514391D01*
X163007853Y-100469211D01*
X162996492Y-100465643D01*
X162978731Y-100459112D01*
X162880086Y-100422841D01*
X162874703Y-100420718D01*
X162835458Y-100404166D01*
X162781338Y-100359976D01*
X162759699Y-100293542D01*
X162777413Y-100225955D01*
X162828855Y-100178674D01*
X162838184Y-100174547D01*
X163104969Y-100069415D01*
X163106166Y-100068951D01*
X163445884Y-99939682D01*
X163446900Y-99939301D01*
X163816942Y-99802592D01*
X163817539Y-99802375D01*
X164210461Y-99661035D01*
X164211061Y-99660822D01*
X164619597Y-99517575D01*
X164620188Y-99517371D01*
X165037078Y-99374925D01*
X165037741Y-99374701D01*
X165457397Y-99235199D01*
X165488185Y-99225126D01*
X165488297Y-99225089D01*
X165801432Y-99122554D01*
X165801973Y-99122377D01*
X166104525Y-99022930D01*
X166104643Y-99022891D01*
X166105138Y-99022728D01*
X166105139Y-99022733D01*
X166105175Y-99022714D01*
X166389312Y-98928958D01*
X166389936Y-98928752D01*
X166648118Y-98843187D01*
X166648892Y-98842930D01*
X166873163Y-98768202D01*
X166873557Y-98768069D01*
X166874402Y-98767787D01*
X167057278Y-98706379D01*
X167057292Y-98706374D01*
X167057400Y-98706338D01*
X167059361Y-98705675D01*
X167109794Y-98688509D01*
X167192856Y-98660240D01*
X167197112Y-98658771D01*
X167261076Y-98636362D01*
X167262432Y-98635897D01*
X167378543Y-98596977D01*
X167384149Y-98595246D01*
X167466522Y-98571935D01*
X167475638Y-98569726D01*
X167501957Y-98564402D01*
X167512927Y-98562691D01*
X167548618Y-98558756D01*
X167666679Y-98531105D01*
X167713406Y-98514033D01*
X167798390Y-98473662D01*
X167856402Y-98439149D01*
X167902313Y-98408315D01*
X167977777Y-98351405D01*
X168000893Y-98332885D01*
X168028992Y-98308988D01*
X168099947Y-98248647D01*
X168099978Y-98248620D01*
X168111601Y-98238425D01*
X168240476Y-98121849D01*
X168246283Y-98116513D01*
X168411116Y-97962668D01*
X168413770Y-97960173D01*
X168596140Y-97787484D01*
X168603503Y-97780369D01*
X169122652Y-97268442D01*
X169134061Y-97256823D01*
X169499169Y-96872824D01*
X169559624Y-96837808D01*
X169629419Y-96841034D01*
G37*
%TD.AperFunction*%
%TA.AperFunction,NonConductor*%
G36*
X158893786Y-102288367D02*
G01*
X159186725Y-102290150D01*
X159187794Y-102290163D01*
X159424832Y-102294296D01*
X159427151Y-102294358D01*
X159625436Y-102301581D01*
X159628579Y-102301737D01*
X159805870Y-102312796D01*
X159809228Y-102313053D01*
X159985472Y-102329035D01*
X159988279Y-102329323D01*
X160183381Y-102351711D01*
X160185012Y-102351910D01*
X160344873Y-102372513D01*
X160346084Y-102372675D01*
X160563093Y-102403013D01*
X160564109Y-102403160D01*
X160806359Y-102439604D01*
X160807258Y-102439743D01*
X161066761Y-102480875D01*
X161067092Y-102480928D01*
X161334685Y-102525146D01*
X161334935Y-102525188D01*
X161600909Y-102570776D01*
X161601082Y-102570806D01*
X161856393Y-102616147D01*
X161856924Y-102616243D01*
X162057344Y-102653222D01*
X162092481Y-102659705D01*
X162093495Y-102659897D01*
X162299076Y-102699610D01*
X162300520Y-102699898D01*
X162465792Y-102733904D01*
X162468219Y-102734431D01*
X162575525Y-102758903D01*
X162581911Y-102760540D01*
X162611705Y-102769035D01*
X162622966Y-102772840D01*
X162629339Y-102775340D01*
X162680494Y-102792836D01*
X162717839Y-102804021D01*
X162825757Y-102831854D01*
X162837265Y-102834678D01*
X162993165Y-102871011D01*
X162997222Y-102871931D01*
X162999124Y-102872363D01*
X163194113Y-102915336D01*
X163198081Y-102916193D01*
X163198132Y-102916204D01*
X163423647Y-102964027D01*
X163426708Y-102964667D01*
X163673857Y-103015482D01*
X163673929Y-103015496D01*
X163673931Y-103015497D01*
X163676419Y-103016002D01*
X163761440Y-103032995D01*
X163936582Y-103068003D01*
X163939288Y-103068536D01*
X164203358Y-103119822D01*
X164206320Y-103120388D01*
X164206412Y-103120405D01*
X164206468Y-103120416D01*
X164465501Y-103169122D01*
X164465677Y-103169155D01*
X164468962Y-103169762D01*
X164469089Y-103169785D01*
X164469116Y-103169790D01*
X164552889Y-103184969D01*
X164683078Y-103208559D01*
X164684722Y-103208853D01*
X164684999Y-103208903D01*
X165128569Y-103287626D01*
X165128575Y-103287627D01*
X165128578Y-103287627D01*
X165128590Y-103287629D01*
X165208670Y-103295337D01*
X165208680Y-103295338D01*
X165351411Y-103277183D01*
X165483244Y-103219551D01*
X165593501Y-103127112D01*
X165703494Y-103004272D01*
X165705612Y-103001892D01*
X165898977Y-102783184D01*
X165904186Y-102777199D01*
X166033020Y-102626786D01*
X166091579Y-102588678D01*
X166161447Y-102588278D01*
X166220440Y-102625715D01*
X166249829Y-102689104D01*
X166240281Y-102758318D01*
X166233151Y-102771867D01*
X166117077Y-102962802D01*
X166116961Y-102962993D01*
X165946594Y-103242101D01*
X165946428Y-103242372D01*
X165805199Y-103472417D01*
X165804937Y-103472841D01*
X165758364Y-103548024D01*
X165706327Y-103594648D01*
X165639871Y-103606032D01*
X165528467Y-103594215D01*
X165527535Y-103594113D01*
X165271573Y-103565003D01*
X165270948Y-103564930D01*
X164969132Y-103529053D01*
X164968671Y-103528997D01*
X164626547Y-103487029D01*
X164626183Y-103486984D01*
X164247071Y-103439338D01*
X164246765Y-103439299D01*
X163836314Y-103386680D01*
X163836207Y-103386633D01*
X163836048Y-103386646D01*
X163397627Y-103329473D01*
X163397384Y-103329441D01*
X162936591Y-103268423D01*
X162936593Y-103268407D01*
X162936360Y-103268392D01*
X162913535Y-103265326D01*
X162456926Y-103203991D01*
X162456837Y-103203951D01*
X162456704Y-103203962D01*
X161962223Y-103136624D01*
X161962225Y-103136608D01*
X161961998Y-103136593D01*
X161457742Y-103066987D01*
X161457659Y-103066949D01*
X161457537Y-103066959D01*
X161049463Y-103009932D01*
X161049463Y-103009931D01*
X161049134Y-103009885D01*
X161049134Y-103009886D01*
X161049077Y-103009878D01*
X160723939Y-102964696D01*
X160506054Y-102934418D01*
X160506054Y-102934417D01*
X160504277Y-102934174D01*
X160504277Y-102934175D01*
X160307331Y-102907618D01*
X160020954Y-102869003D01*
X160020772Y-102868979D01*
X160020772Y-102868978D01*
X160018250Y-102868646D01*
X159855814Y-102847691D01*
X159588446Y-102813199D01*
X159586990Y-102813016D01*
X159584424Y-102812695D01*
X159202361Y-102766461D01*
X159196961Y-102765836D01*
X158856293Y-102728230D01*
X158849502Y-102727527D01*
X158543988Y-102697982D01*
X158535470Y-102697231D01*
X158259130Y-102675207D01*
X158249011Y-102674503D01*
X158081468Y-102664545D01*
X157995688Y-102659447D01*
X157995649Y-102659445D01*
X157995647Y-102659445D01*
X157984145Y-102658892D01*
X157825224Y-102653082D01*
X157758949Y-102630961D01*
X157715154Y-102576521D01*
X157707744Y-102507045D01*
X157739072Y-102444592D01*
X157785621Y-102413285D01*
X157855750Y-102386578D01*
X157892313Y-102372654D01*
X157892648Y-102372527D01*
X157892704Y-102372506D01*
X158099752Y-102294340D01*
X158143877Y-102286349D01*
X158893786Y-102288367D01*
G37*
%TD.AperFunction*%
%TA.AperFunction,NonConductor*%
G36*
X167035700Y-106719806D02*
G01*
X167186323Y-106770747D01*
X167187043Y-106770994D01*
X167431256Y-106855374D01*
X167431872Y-106855588D01*
X167699128Y-106949505D01*
X167699667Y-106949696D01*
X167748483Y-106967104D01*
X167982380Y-107050513D01*
X168139252Y-107107235D01*
X168195602Y-107148541D01*
X168220675Y-107213757D01*
X168206509Y-107282176D01*
X168157603Y-107332075D01*
X168135445Y-107341763D01*
X167906341Y-107416290D01*
X167903470Y-107417234D01*
X167689919Y-107488230D01*
X167685864Y-107489597D01*
X167422887Y-107579469D01*
X167420646Y-107580241D01*
X167420496Y-107580294D01*
X167121113Y-107684395D01*
X167119201Y-107685064D01*
X167119087Y-107685104D01*
X167119086Y-107685103D01*
X166796352Y-107798775D01*
X166796353Y-107798776D01*
X166794515Y-107799427D01*
X166794514Y-107799426D01*
X166573562Y-107878103D01*
X166503804Y-107882047D01*
X166442987Y-107847651D01*
X166410421Y-107785835D01*
X166416445Y-107716226D01*
X166420957Y-107706037D01*
X166462416Y-107622781D01*
X166462415Y-107622780D01*
X166462818Y-107621971D01*
X166500168Y-107547145D01*
X166500258Y-107547048D01*
X166500226Y-107547032D01*
X166631573Y-107284592D01*
X166631670Y-107284397D01*
X166754474Y-107040101D01*
X166754584Y-107039882D01*
X166865323Y-106820666D01*
X166865460Y-106820396D01*
X166885436Y-106781090D01*
X166933358Y-106730246D01*
X167001162Y-106713380D01*
X167035700Y-106719806D01*
G37*
%TD.AperFunction*%
M02*
